%TF.GenerationSoftware,KiCad,Pcbnew,(6.0.8-1)-1*%
%TF.CreationDate,2022-11-15T13:56:25-05:00*%
%TF.ProjectId,kb2,6b62322e-6b69-4636-9164-5f7063625858,rev?*%
%TF.SameCoordinates,Original*%
%TF.FileFunction,Copper,L1,Top*%
%TF.FilePolarity,Positive*%
%FSLAX46Y46*%
G04 Gerber Fmt 4.6, Leading zero omitted, Abs format (unit mm)*
G04 Created by KiCad (PCBNEW (6.0.8-1)-1) date 2022-11-15 13:56:25*
%MOMM*%
%LPD*%
G01*
G04 APERTURE LIST*
G04 Aperture macros list*
%AMRoundRect*
0 Rectangle with rounded corners*
0 $1 Rounding radius*
0 $2 $3 $4 $5 $6 $7 $8 $9 X,Y pos of 4 corners*
0 Add a 4 corners polygon primitive as box body*
4,1,4,$2,$3,$4,$5,$6,$7,$8,$9,$2,$3,0*
0 Add four circle primitives for the rounded corners*
1,1,$1+$1,$2,$3*
1,1,$1+$1,$4,$5*
1,1,$1+$1,$6,$7*
1,1,$1+$1,$8,$9*
0 Add four rect primitives between the rounded corners*
20,1,$1+$1,$2,$3,$4,$5,0*
20,1,$1+$1,$4,$5,$6,$7,0*
20,1,$1+$1,$6,$7,$8,$9,0*
20,1,$1+$1,$8,$9,$2,$3,0*%
%AMHorizOval*
0 Thick line with rounded ends*
0 $1 width*
0 $2 $3 position (X,Y) of the first rounded end (center of the circle)*
0 $4 $5 position (X,Y) of the second rounded end (center of the circle)*
0 Add line between two ends*
20,1,$1,$2,$3,$4,$5,0*
0 Add two circle primitives to create the rounded ends*
1,1,$1,$2,$3*
1,1,$1,$4,$5*%
%AMRotRect*
0 Rectangle, with rotation*
0 The origin of the aperture is its center*
0 $1 length*
0 $2 width*
0 $3 Rotation angle, in degrees counterclockwise*
0 Add horizontal line*
21,1,$1,$2,0,0,$3*%
G04 Aperture macros list end*
%TA.AperFunction,SMDPad,CuDef*%
%ADD10RotRect,0.600000X1.160000X150.000000*%
%TD*%
%TA.AperFunction,SMDPad,CuDef*%
%ADD11RotRect,0.300000X1.160000X330.000000*%
%TD*%
%TA.AperFunction,ComponentPad*%
%ADD12HorizOval,0.900000X-0.275000X-0.476314X0.275000X0.476314X0*%
%TD*%
%TA.AperFunction,ComponentPad*%
%ADD13HorizOval,0.900000X-0.200000X-0.346410X0.200000X0.346410X0*%
%TD*%
%TA.AperFunction,SMDPad,CuDef*%
%ADD14R,1.550000X1.300000*%
%TD*%
%TA.AperFunction,SMDPad,CuDef*%
%ADD15O,2.748280X1.998980*%
%TD*%
%TA.AperFunction,SMDPad,CuDef*%
%ADD16O,1.016000X2.032000*%
%TD*%
%TA.AperFunction,SMDPad,CuDef*%
%ADD17C,1.143000*%
%TD*%
%TA.AperFunction,SMDPad,CuDef*%
%ADD18RoundRect,0.150000X-0.466266X0.442404X-0.616266X0.182596X0.466266X-0.442404X0.616266X-0.182596X0*%
%TD*%
%TA.AperFunction,SMDPad,CuDef*%
%ADD19RoundRect,0.250000X-0.387917X0.628109X-0.737917X0.021891X0.387917X-0.628109X0.737917X-0.021891X0*%
%TD*%
%TA.AperFunction,SMDPad,CuDef*%
%ADD20RotRect,0.600000X1.160000X210.000000*%
%TD*%
%TA.AperFunction,SMDPad,CuDef*%
%ADD21RotRect,0.300000X1.160000X30.000000*%
%TD*%
%TA.AperFunction,ComponentPad*%
%ADD22HorizOval,0.900000X0.275000X-0.476314X-0.275000X0.476314X0*%
%TD*%
%TA.AperFunction,ComponentPad*%
%ADD23HorizOval,0.900000X0.200000X-0.346410X-0.200000X0.346410X0*%
%TD*%
%TA.AperFunction,ViaPad*%
%ADD24C,0.800000*%
%TD*%
%TA.AperFunction,Conductor*%
%ADD25C,0.250000*%
%TD*%
%TA.AperFunction,Conductor*%
%ADD26C,0.200000*%
%TD*%
G04 APERTURE END LIST*
D10*
%TO.P,J2,A1,GND*%
%TO.N,return0*%
X147516281Y-113773724D03*
%TO.P,J2,A4,VBUS*%
%TO.N,unconnected-(J2-PadA4)*%
X146823461Y-113373724D03*
D11*
%TO.P,J2,A5,CC1*%
%TO.N,return4*%
X145827532Y-112798724D03*
%TO.P,J2,A6,D+*%
%TO.N,col5*%
X144961506Y-112298724D03*
%TO.P,J2,A7,D-*%
%TO.N,col7*%
X144528494Y-112048724D03*
%TO.P,J2,A8,SBU1*%
%TO.N,return2*%
X143662468Y-111548724D03*
D10*
%TO.P,J2,A9,VBUS*%
%TO.N,unconnected-(J2-PadA4)*%
X142666539Y-110973724D03*
%TO.P,J2,A12,GND*%
%TO.N,return0*%
X141973719Y-110573724D03*
%TO.P,J2,B1,GND*%
X141973719Y-110573724D03*
%TO.P,J2,B4,VBUS*%
%TO.N,unconnected-(J2-PadA4)*%
X142666539Y-110973724D03*
D11*
%TO.P,J2,B5,CC2*%
%TO.N,return3*%
X143229456Y-111298724D03*
%TO.P,J2,B6,D+*%
%TO.N,col4*%
X144095481Y-111798724D03*
%TO.P,J2,B7,D-*%
%TO.N,col6*%
X145394519Y-112548724D03*
%TO.P,J2,B8,SBU2*%
%TO.N,return1*%
X146260544Y-113048724D03*
D10*
%TO.P,J2,B9,VBUS*%
%TO.N,unconnected-(J2-PadA4)*%
X146823461Y-113373724D03*
%TO.P,J2,B12,GND*%
%TO.N,return0*%
X147516281Y-113773724D03*
D12*
%TO.P,J2,S1,SHIELD*%
%TO.N,unconnected-(J2-PadS1)*%
X141293770Y-109511429D03*
D13*
X150861230Y-110220103D03*
D12*
X148776230Y-113831429D03*
D13*
X143378770Y-105900103D03*
%TD*%
D14*
%TO.P,SW37,1,A*%
%TO.N,RST*%
X136980000Y-81750000D03*
X129020000Y-81750000D03*
%TO.P,SW37,2,B*%
%TO.N,GND*%
X136980000Y-86250000D03*
X129020000Y-86250000D03*
%TD*%
D15*
%TO.P,U1,1,PA02_A0_D0*%
%TO.N,return0*%
X126218710Y-62000490D03*
%TO.P,U1,2,PA4_A1_D1*%
%TO.N,return1*%
X126218710Y-64540490D03*
%TO.P,U1,3,PA10_A2_D2*%
%TO.N,return2*%
X126218710Y-67080490D03*
%TO.P,U1,4,PA11_A3_D3*%
%TO.N,return3*%
X126218710Y-69620490D03*
%TO.P,U1,5,PA8_A4_D4_SDA*%
%TO.N,return4*%
X126218710Y-72160490D03*
%TO.P,U1,6,PA9_A5_D5_SCL*%
%TO.N,unconnected-(U1-Pad6)*%
X126218710Y-74700490D03*
%TO.P,U1,7,PB08_A6_D6_TX*%
%TO.N,unconnected-(U1-Pad7)*%
X126218710Y-77240490D03*
%TO.P,U1,8,PB09_A7_D7_RX*%
%TO.N,ledTrig*%
X142383270Y-77240490D03*
%TO.P,U1,9,PA7_A8_D8_SCK*%
%TO.N,SCK*%
X142383270Y-74700490D03*
%TO.P,U1,10,PA5_A9_D9_MISO*%
%TO.N,MISO*%
X142383270Y-72160490D03*
%TO.P,U1,11,PA6_A10_D10_MOSI*%
%TO.N,MOSI*%
X142383270Y-69620490D03*
%TO.P,U1,12,3V3*%
%TO.N,+3V3*%
X142383270Y-67080490D03*
%TO.P,U1,13,GND*%
%TO.N,GND*%
X142383270Y-64540490D03*
%TO.P,U1,14,5V*%
%TO.N,unconnected-(U1-Pad14)*%
X142383270Y-62000490D03*
D16*
%TO.P,U1,15,RESET*%
%TO.N,RST*%
X133085590Y-78318310D03*
%TO.P,U1,16,BAT+*%
%TO.N,Net-(SW38-Pad2)*%
X135635590Y-78318310D03*
D17*
%TO.P,U1,17*%
%TO.N,N/C*%
X133084393Y-61314123D03*
%TO.P,U1,18*%
X135624393Y-61314123D03*
%TO.P,U1,19*%
X133084393Y-63854123D03*
%TO.P,U1,20*%
X135624393Y-63854123D03*
%TD*%
D18*
%TO.P,J1,1,Pin_1*%
%TO.N,Net-(SW38-Pad1)*%
X138482051Y-109566987D03*
%TO.P,J1,2,Pin_2*%
%TO.N,GND*%
X137982051Y-110433013D03*
D19*
%TO.P,J1,MP*%
%TO.N,N/C*%
X135776202Y-106503654D03*
X133976202Y-109621346D03*
%TD*%
D20*
%TO.P,J3,A1,GND*%
%TO.N,extrow0*%
X168804094Y-110573724D03*
%TO.P,J3,A4,VBUS*%
%TO.N,unconnected-(J3-PadA4)*%
X168111274Y-110973724D03*
D21*
%TO.P,J3,A5,CC1*%
%TO.N,extrow4*%
X167115345Y-111548724D03*
%TO.P,J3,A6,D+*%
%TO.N,extcol6*%
X166249319Y-112048724D03*
%TO.P,J3,A7,D-*%
%TO.N,extcol4*%
X165816307Y-112298724D03*
%TO.P,J3,A8,SBU1*%
%TO.N,extrow2*%
X164950281Y-112798724D03*
D20*
%TO.P,J3,A9,VBUS*%
%TO.N,unconnected-(J3-PadA4)*%
X163954352Y-113373724D03*
%TO.P,J3,A12,GND*%
%TO.N,extrow0*%
X163261532Y-113773724D03*
%TO.P,J3,B1,GND*%
X163261532Y-113773724D03*
%TO.P,J3,B4,VBUS*%
%TO.N,unconnected-(J3-PadA4)*%
X163954352Y-113373724D03*
D21*
%TO.P,J3,B5,CC2*%
%TO.N,extrow3*%
X164517269Y-113048724D03*
%TO.P,J3,B6,D+*%
%TO.N,extcol7*%
X165383294Y-112548724D03*
%TO.P,J3,B7,D-*%
%TO.N,extcol5*%
X166682332Y-111798724D03*
%TO.P,J3,B8,SBU2*%
%TO.N,extrow1*%
X167548357Y-111298724D03*
D20*
%TO.P,J3,B9,VBUS*%
%TO.N,unconnected-(J3-PadA4)*%
X168111274Y-110973724D03*
%TO.P,J3,B12,GND*%
%TO.N,extrow0*%
X168804094Y-110573724D03*
D22*
%TO.P,J3,S1,SHIELD*%
%TO.N,unconnected-(J3-PadS1)*%
X169484043Y-109511429D03*
D23*
X167399043Y-105900103D03*
D22*
X162001583Y-113831429D03*
D23*
X159916583Y-110220103D03*
%TD*%
D24*
%TO.N,return0*%
X44500000Y-75250000D03*
X109000000Y-98700000D03*
X110799999Y-63674999D03*
%TO.N,return1*%
X69850000Y-97800000D03*
X66250000Y-84350000D03*
X69600000Y-84300000D03*
X62500000Y-70750000D03*
%TO.N,return2*%
X123250000Y-70750000D03*
X79099999Y-70150001D03*
X116700000Y-111700000D03*
%TO.N,return3*%
X97350000Y-103000000D03*
X98250000Y-72250000D03*
%TO.N,return4*%
X115300000Y-115200000D03*
X115750000Y-72500000D03*
%TO.N,GND*%
X134500000Y-70500000D03*
X129150000Y-86000000D03*
X131825000Y-70600000D03*
X123900000Y-105100000D03*
X134700000Y-65300000D03*
%TO.N,col5*%
X112402033Y-112997967D03*
X110875000Y-80125000D03*
X136000000Y-80100000D03*
%TO.N,col7*%
X109200000Y-76200000D03*
X99400000Y-105900000D03*
X129250000Y-69300000D03*
X136000000Y-69500000D03*
X124425000Y-76150000D03*
%TO.N,col4*%
X111500500Y-81325000D03*
X135300000Y-81000000D03*
X110261826Y-107038174D03*
%TO.N,col6*%
X146675000Y-111725000D03*
X114000000Y-116600000D03*
X136000000Y-71600000D03*
X127875000Y-71075000D03*
X112000000Y-75200000D03*
X146825000Y-115200000D03*
X124375000Y-73450000D03*
%TO.N,extcol6*%
X190950000Y-95575000D03*
X208500000Y-93000000D03*
X226500000Y-90000000D03*
X170775000Y-107475000D03*
X165925000Y-108825000D03*
X262500000Y-98000000D03*
X244500000Y-93000000D03*
%TO.N,extcol4*%
X262500000Y-64000000D03*
X191150000Y-61775000D03*
X226500000Y-56000000D03*
X244500000Y-59000000D03*
X208500000Y-59000000D03*
%TO.N,extcol7*%
X197066345Y-116110312D03*
X219500000Y-112000000D03*
X174800000Y-121700000D03*
X172072442Y-112802960D03*
%TO.N,extcol5*%
X244500000Y-76000000D03*
X190825000Y-78575000D03*
X226500000Y-73000000D03*
X208500000Y-76000000D03*
X262500000Y-81000000D03*
%TO.N,col0*%
X41750000Y-63750000D03*
X77500000Y-56000000D03*
X95500000Y-59000000D03*
X131499999Y-59750001D03*
X113500000Y-62000000D03*
X59500000Y-59000000D03*
%TO.N,col1*%
X95500000Y-76000000D03*
X59500000Y-76000000D03*
X131025500Y-77492716D03*
X113500000Y-79000000D03*
X77500000Y-73000000D03*
X41750000Y-80750000D03*
%TO.N,col2*%
X77500000Y-90000000D03*
X113500000Y-96000000D03*
X95500000Y-93000000D03*
X41750000Y-97750000D03*
X133994898Y-84499500D03*
X59500000Y-93000000D03*
%TO.N,col3*%
X91800000Y-84400000D03*
X107172174Y-114298578D03*
X131000000Y-118174001D03*
X84750000Y-111500000D03*
X90500000Y-113200000D03*
X134836033Y-82975500D03*
%TO.N,RST*%
X133125000Y-78825000D03*
X133175000Y-81699500D03*
X129050000Y-81525000D03*
X129050000Y-78575000D03*
%TO.N,+3V3*%
X136850000Y-67025000D03*
X132625000Y-67067796D03*
%TO.N,SCK*%
X133333532Y-72500000D03*
%TO.N,MISO*%
X134400000Y-72500000D03*
%TO.N,MOSI*%
X136000000Y-70500000D03*
%TO.N,Net-(SW38-Pad2)*%
X140425000Y-81375000D03*
%TO.N,extrow0*%
X169300721Y-111411214D03*
X163800000Y-114825000D03*
%TO.N,extrow4*%
X264350000Y-108000000D03*
%TO.N,extrow2*%
X228350000Y-108225000D03*
%TO.N,extrow3*%
X226725000Y-102475000D03*
X226850000Y-109250000D03*
X246350000Y-103000000D03*
%TO.N,extrow1*%
X170439263Y-112135714D03*
X170825000Y-123425000D03*
X200350000Y-125000000D03*
%TO.N,Net-(SW38-Pad1)*%
X124200000Y-83900000D03*
X138625000Y-83675000D03*
X121024500Y-104279600D03*
%TD*%
D25*
%TO.N,extcol4*%
X165816307Y-112298724D02*
X164800000Y-110575000D01*
X164800000Y-110575000D02*
X164800000Y-106558900D01*
X187174999Y-65750001D02*
X191150000Y-61775000D01*
X164800000Y-106558900D02*
X187174999Y-84183901D01*
X187174999Y-84183901D02*
X187174999Y-65750001D01*
X208500000Y-59000000D02*
X210500000Y-57000000D01*
X210500000Y-57000000D02*
X225500000Y-57000000D01*
X225500000Y-57000000D02*
X226500000Y-56000000D01*
%TO.N,return0*%
X101776220Y-63674999D02*
X110799999Y-63674999D01*
D26*
X122438480Y-100100000D02*
X119165866Y-100100000D01*
X148427814Y-112431497D02*
X145157053Y-109160736D01*
X141754851Y-110792592D02*
X140555836Y-110792592D01*
D25*
X49174999Y-69451166D02*
X49951166Y-68674999D01*
X84448781Y-63750000D02*
X92876165Y-63750000D01*
D26*
X140555836Y-110792592D02*
X140274500Y-110511256D01*
X142463393Y-109160736D02*
X142224129Y-109400000D01*
D25*
X94526166Y-62099999D02*
X100201220Y-62099999D01*
X57650001Y-62099999D02*
X64201220Y-62099999D01*
X119513698Y-64000001D02*
X121513209Y-62000490D01*
X44500000Y-75250000D02*
X49174999Y-70575001D01*
X83900001Y-63201220D02*
X84448781Y-63750000D01*
X51075001Y-68674999D02*
X57650001Y-62099999D01*
D26*
X137753657Y-107721985D02*
X135854243Y-107721985D01*
D25*
X67201220Y-59099999D02*
X82201220Y-59099999D01*
D26*
X148300000Y-113125000D02*
X148300000Y-113097791D01*
X140274500Y-110242828D02*
X137753657Y-107721985D01*
D25*
X121513209Y-62000490D02*
X126218710Y-62000490D01*
D26*
X117765866Y-98700000D02*
X109000000Y-98700000D01*
D25*
X116212993Y-64000001D02*
X119513698Y-64000001D01*
D26*
X119165866Y-100100000D02*
X117765866Y-98700000D01*
X123800001Y-101900001D02*
X123800001Y-101461521D01*
X148427814Y-112934904D02*
X148427814Y-112431497D01*
D25*
X83900001Y-60798780D02*
X83900001Y-63201220D01*
X100201220Y-62099999D02*
X101776220Y-63674999D01*
D26*
X148379903Y-113017888D02*
X148427814Y-112934904D01*
D25*
X49174999Y-70575001D02*
X49174999Y-69451166D01*
X110799999Y-63674999D02*
X115887991Y-63674999D01*
D26*
X134835897Y-107000000D02*
X128900000Y-107000000D01*
X128900000Y-107000000D02*
X123800001Y-101900001D01*
D25*
X92876165Y-63750000D02*
X94526166Y-62099999D01*
D26*
X135854243Y-107721985D02*
X135537093Y-107404835D01*
D25*
X49951166Y-68674999D02*
X51075001Y-68674999D01*
X64201220Y-62099999D02*
X67201220Y-59099999D01*
D26*
X148300000Y-113097791D02*
X148379903Y-113017888D01*
D25*
X82201220Y-59099999D02*
X83900001Y-60798780D01*
D26*
X123800001Y-101461521D02*
X122438480Y-100100000D01*
X145157053Y-109160736D02*
X142463393Y-109160736D01*
X142122186Y-109576570D02*
X142122186Y-110425257D01*
X142224129Y-109400000D02*
X142122186Y-109576570D01*
X147626276Y-113773724D02*
X148300000Y-113125000D01*
X140274500Y-110511256D02*
X140274500Y-110242828D01*
D25*
X115887991Y-63674999D02*
X116212993Y-64000001D01*
D26*
X135537093Y-107404835D02*
X134835897Y-107000000D01*
D25*
%TO.N,return1*%
X112400001Y-65099999D02*
X118412993Y-65099999D01*
D26*
X146260544Y-113048724D02*
X145725000Y-113925000D01*
D25*
X115450164Y-115950499D02*
X116024166Y-116524501D01*
X124659199Y-66100001D02*
X126218710Y-64540490D01*
X92601164Y-65974999D02*
X94526166Y-67900001D01*
D26*
X145725000Y-115175000D02*
X144699501Y-116200499D01*
D25*
X118412993Y-65099999D02*
X119412995Y-66100001D01*
X75513298Y-65974999D02*
X92601164Y-65974999D01*
X69850000Y-97800000D02*
X74311703Y-97800000D01*
X94526166Y-67900001D02*
X109599999Y-67900001D01*
X114350499Y-115950499D02*
X115450164Y-115950499D01*
X112101935Y-113826533D02*
X112226533Y-113826533D01*
X136261395Y-117900000D02*
X143000000Y-117900000D01*
X111677533Y-113402131D02*
X112101935Y-113826533D01*
X70738297Y-70750000D02*
X75513298Y-65974999D01*
X119412995Y-66100001D02*
X124659199Y-66100001D01*
X109599999Y-67900001D02*
X112400001Y-65099999D01*
X143000000Y-117900000D02*
X144699501Y-116200499D01*
D26*
X69550000Y-84350000D02*
X69600000Y-84300000D01*
D25*
X134885896Y-116524501D02*
X136261395Y-117900000D01*
X108375000Y-109975000D02*
X111677533Y-113277533D01*
X111677533Y-113277533D02*
X111677533Y-113402131D01*
X74311703Y-97800000D02*
X86486703Y-109975000D01*
X86486703Y-109975000D02*
X108375000Y-109975000D01*
X116024166Y-116524501D02*
X134885896Y-116524501D01*
D26*
X66250000Y-84350000D02*
X69550000Y-84350000D01*
X146260544Y-113048724D02*
X145775000Y-113800000D01*
D25*
X62500000Y-70750000D02*
X70738297Y-70750000D01*
X112226533Y-113826533D02*
X114350499Y-115950499D01*
D26*
X145725000Y-113925000D02*
X145725000Y-115175000D01*
D25*
%TO.N,return2*%
X141742306Y-112377996D02*
X141717805Y-112353495D01*
X79099999Y-70150001D02*
X92338298Y-70150001D01*
X106472074Y-71325001D02*
X106741852Y-71055223D01*
X122774600Y-70524600D02*
X123024600Y-70524600D01*
D26*
X143662468Y-111548724D02*
X143287024Y-112187024D01*
D25*
X117353495Y-112353495D02*
X116700000Y-111700000D01*
X122774600Y-70524600D02*
X126218710Y-67080490D01*
X141717805Y-112353495D02*
X117353495Y-112353495D01*
X143096052Y-112377996D02*
X141742306Y-112377996D01*
X123024600Y-70524600D02*
X123250000Y-70750000D01*
X106741852Y-71055223D02*
X122243977Y-71055223D01*
X143287024Y-112187024D02*
X143096052Y-112377996D01*
X92338298Y-70150001D02*
X93513298Y-71325001D01*
X93513298Y-71325001D02*
X106472074Y-71325001D01*
D26*
X143287024Y-112187024D02*
X143189401Y-112352996D01*
D25*
X122243977Y-71055223D02*
X122774600Y-70524600D01*
%TO.N,return3*%
X124334476Y-71504724D02*
X126218710Y-69620490D01*
D26*
X142864025Y-111928495D02*
X141928495Y-111928495D01*
D25*
X109511703Y-103000000D02*
X118411703Y-111900000D01*
X97350000Y-103000000D02*
X109511703Y-103000000D01*
X141900000Y-111900000D02*
X141928495Y-111928495D01*
X106182765Y-72250000D02*
X106928041Y-71504724D01*
X118411703Y-111900000D02*
X141900000Y-111900000D01*
D26*
X143229456Y-111298724D02*
X142864025Y-111928495D01*
D25*
X98250000Y-72250000D02*
X106182765Y-72250000D01*
X106928041Y-71504724D02*
X124334476Y-71504724D01*
D26*
%TO.N,return4*%
X142600000Y-117400000D02*
X136400000Y-117400000D01*
X144449002Y-114550998D02*
X144449002Y-115550998D01*
X145827532Y-112798724D02*
X145325000Y-113675000D01*
D25*
X116089510Y-72160490D02*
X126218710Y-72160490D01*
X115750000Y-72500000D02*
X116089510Y-72160490D01*
D26*
X136400000Y-117400000D02*
X135100000Y-116100000D01*
X135100000Y-116100000D02*
X116200000Y-116100000D01*
X145325000Y-113675000D02*
X144449002Y-114550998D01*
X116200000Y-116100000D02*
X115300000Y-115200000D01*
X144449002Y-115550998D02*
X142600000Y-117400000D01*
%TO.N,GND*%
X133874501Y-107799501D02*
X128499837Y-107799501D01*
D25*
X134700000Y-65300000D02*
X141623760Y-65300000D01*
D26*
X128499837Y-107799501D02*
X126275834Y-105575499D01*
X126275834Y-105575499D02*
X124375499Y-105575499D01*
D25*
X131825000Y-70600000D02*
X134400000Y-70600000D01*
D26*
X136508013Y-110433013D02*
X133874501Y-107799501D01*
X137982051Y-110433013D02*
X136508013Y-110433013D01*
D25*
X134400000Y-70600000D02*
X134500000Y-70500000D01*
D26*
X124375499Y-105575499D02*
X123900000Y-105100000D01*
D25*
X129400000Y-86250000D02*
X136980000Y-86250000D01*
D26*
%TO.N,col5*%
X117776651Y-80975001D02*
X118875001Y-79876651D01*
X110875000Y-80125000D02*
X115373348Y-80125000D01*
X115373348Y-80125000D02*
X116223349Y-80975001D01*
X116223349Y-80975001D02*
X117776651Y-80975001D01*
D25*
X135600000Y-79700000D02*
X136000000Y-80100000D01*
X124700000Y-79700000D02*
X135600000Y-79700000D01*
X123500000Y-78500000D02*
X124700000Y-79700000D01*
D26*
X118875001Y-79250000D02*
X119625001Y-78500000D01*
X118875001Y-79876651D02*
X118875001Y-79250000D01*
X119625001Y-78500000D02*
X123500000Y-78500000D01*
D25*
X144017070Y-113800000D02*
X144158535Y-113658535D01*
D26*
X144075000Y-113800000D02*
X144065447Y-113800000D01*
D25*
X113204066Y-113800000D02*
X144017070Y-113800000D01*
D26*
X144158535Y-113658535D02*
X144075000Y-113800000D01*
X144961506Y-112298724D02*
X144158535Y-113658535D01*
D25*
X112402033Y-112997967D02*
X113204066Y-113800000D01*
D26*
%TO.N,col7*%
X129250000Y-69300000D02*
X129274500Y-69275500D01*
X144124002Y-112741313D02*
X143682658Y-113182658D01*
X124425000Y-76150000D02*
X124200000Y-75925000D01*
D25*
X106328664Y-105900000D02*
X113779163Y-113350499D01*
X99400000Y-105900000D02*
X106328664Y-105900000D01*
D26*
X135775500Y-69275500D02*
X136000000Y-69500000D01*
D25*
X143514817Y-113350499D02*
X143682658Y-113182658D01*
D26*
X143682658Y-113182658D02*
X143641313Y-113224002D01*
X144124002Y-112699089D02*
X144124002Y-112741313D01*
D25*
X113779163Y-113350499D02*
X143514817Y-113350499D01*
D26*
X129274500Y-69275500D02*
X135775500Y-69275500D01*
X144526276Y-112048724D02*
X144124002Y-112699089D01*
X124200000Y-75925000D02*
X109475000Y-75925000D01*
X109475000Y-75925000D02*
X109200000Y-76200000D01*
%TO.N,col4*%
X143275163Y-112824501D02*
X141475499Y-112824501D01*
X143324165Y-112775499D02*
X143275163Y-112824501D01*
D25*
X115991293Y-112802996D02*
X110261826Y-107073529D01*
D26*
X144095481Y-111798724D02*
X143724501Y-112428904D01*
X130295000Y-81000000D02*
X129695000Y-80400000D01*
D25*
X141453994Y-112802996D02*
X115991293Y-112802996D01*
D26*
X122776651Y-79324999D02*
X120039981Y-79324999D01*
X129695000Y-80400000D02*
X125051652Y-80400000D01*
X125051652Y-80400000D02*
X124451652Y-81000000D01*
X143377906Y-112775499D02*
X143324165Y-112775499D01*
D25*
X141475499Y-112824501D02*
X141453994Y-112802996D01*
X110261826Y-107073529D02*
X110261826Y-107038174D01*
D26*
X117990478Y-81374502D02*
X111550002Y-81374502D01*
X135300000Y-81000000D02*
X130295000Y-81000000D01*
X120039981Y-79324999D02*
X117990478Y-81374502D01*
X124451652Y-81000000D02*
X122776651Y-79324999D01*
X143724501Y-112428904D02*
X143377906Y-112775499D01*
X111550002Y-81374502D02*
X111500500Y-81325000D01*
%TO.N,col6*%
X145775000Y-111825000D02*
X145394519Y-112548724D01*
D25*
X128400000Y-71600000D02*
X136000000Y-71600000D01*
X146825000Y-115200000D02*
X143525000Y-118500000D01*
D26*
X113750000Y-73450000D02*
X112000000Y-75200000D01*
D25*
X136100000Y-118500000D02*
X134574002Y-116974002D01*
X127875000Y-71075000D02*
X128400000Y-71600000D01*
X143525000Y-118500000D02*
X136100000Y-118500000D01*
D26*
X146675000Y-111725000D02*
X145875000Y-111725000D01*
D25*
X115463975Y-116600000D02*
X114000000Y-116600000D01*
X115837977Y-116974002D02*
X115463975Y-116600000D01*
D26*
X124375000Y-73450000D02*
X113750000Y-73450000D01*
X145875000Y-111725000D02*
X145775000Y-111825000D01*
D25*
X134574002Y-116974002D02*
X115837977Y-116974002D01*
%TO.N,extcol6*%
X190950000Y-95575000D02*
X193525000Y-93000000D01*
X233112992Y-93000000D02*
X234212993Y-94100001D01*
X208500000Y-93000000D02*
X211500000Y-90000000D01*
X246500001Y-95000001D02*
X248787007Y-95000001D01*
X226500000Y-90000000D02*
X228099999Y-88400001D01*
X165475000Y-109275000D02*
X165925000Y-108825000D01*
X248787007Y-95000001D02*
X250687008Y-93100000D01*
X165475000Y-110700000D02*
X166249319Y-112048724D01*
X250687008Y-93100000D02*
X257600000Y-93100000D01*
X257600000Y-93100000D02*
X262500000Y-98000000D01*
X193525000Y-93000000D02*
X208500000Y-93000000D01*
X234212993Y-94100001D02*
X243399999Y-94100001D01*
X243399999Y-94100001D02*
X244500000Y-93000000D01*
X230212992Y-93000000D02*
X233112992Y-93000000D01*
X165475000Y-110700000D02*
X165475000Y-109275000D01*
X182675000Y-95575000D02*
X190950000Y-95575000D01*
X228099999Y-90887007D02*
X230212992Y-93000000D01*
X244500000Y-93000000D02*
X246500001Y-95000001D01*
X170775000Y-107475000D02*
X182675000Y-95575000D01*
X211500000Y-90000000D02*
X226500000Y-90000000D01*
X228099999Y-88400001D02*
X228099999Y-90887007D01*
%TO.N,extcol4*%
X191150000Y-61775000D02*
X192725001Y-60199999D01*
X207300001Y-60199999D02*
X208500000Y-59000000D01*
X253023222Y-57199999D02*
X259823223Y-64000000D01*
X235699999Y-54199999D02*
X240500000Y-59000000D01*
X192725001Y-60199999D02*
X207300001Y-60199999D01*
X228300001Y-54199999D02*
X235699999Y-54199999D01*
X259823223Y-64000000D02*
X262500000Y-64000000D01*
X244500000Y-59000000D02*
X246300001Y-57199999D01*
X240500000Y-59000000D02*
X244500000Y-59000000D01*
X246300001Y-57199999D02*
X253023222Y-57199999D01*
X226500000Y-56000000D02*
X228300001Y-54199999D01*
%TO.N,extcol7*%
X178472638Y-121790451D02*
X178612591Y-121650498D01*
X183295207Y-120925000D02*
X192251657Y-120925000D01*
X165850000Y-113350000D02*
X171525402Y-113350000D01*
X182569709Y-121650498D02*
X183295207Y-120925000D01*
X174890451Y-121790451D02*
X178472638Y-121790451D01*
X171525402Y-113350000D02*
X172072442Y-112802960D01*
X165383294Y-112548724D02*
X165850000Y-113350000D01*
X174800000Y-121700000D02*
X174890451Y-121790451D01*
X197066345Y-116110312D02*
X197066345Y-116020653D01*
X178612591Y-121650498D02*
X182569709Y-121650498D01*
X197066345Y-116020653D02*
X201086998Y-112000000D01*
X192251657Y-120925000D02*
X197066345Y-116110312D01*
X201086998Y-112000000D02*
X219500000Y-112000000D01*
%TO.N,extcol5*%
X166100000Y-110325000D02*
X190825000Y-85600000D01*
X190825000Y-85600000D02*
X190825000Y-78575000D01*
X254272745Y-74199999D02*
X261072746Y-81000000D01*
X239699999Y-71199999D02*
X244500000Y-76000000D01*
X246300001Y-74199999D02*
X254272745Y-74199999D01*
X244500000Y-76000000D02*
X246300001Y-74199999D01*
X208500000Y-76000000D02*
X211500000Y-73000000D01*
X261072746Y-81000000D02*
X262500000Y-81000000D01*
X226500000Y-73000000D02*
X228300001Y-71199999D01*
X166100000Y-110750000D02*
X166100000Y-110325000D01*
X228300001Y-71199999D02*
X239699999Y-71199999D01*
X211500000Y-73000000D02*
X226500000Y-73000000D01*
X190825000Y-78575000D02*
X193400000Y-76000000D01*
X193400000Y-76000000D02*
X208500000Y-76000000D01*
X166682332Y-111782332D02*
X166100000Y-110750000D01*
%TO.N,col0*%
X113500000Y-62000000D02*
X116000000Y-59500000D01*
X105199999Y-57199999D02*
X110000000Y-62000000D01*
X83487009Y-56299999D02*
X86787007Y-56299999D01*
X77500000Y-56000000D02*
X79500001Y-58000001D01*
X93000000Y-56500000D02*
X95500000Y-59000000D01*
X110000000Y-62000000D02*
X113500000Y-62000000D01*
X86987008Y-56500000D02*
X93000000Y-56500000D01*
X43500000Y-62000000D02*
X56500000Y-62000000D01*
X97300001Y-57199999D02*
X105199999Y-57199999D01*
X86787007Y-56299999D02*
X86987008Y-56500000D01*
X95500000Y-59000000D02*
X97300001Y-57199999D01*
X131249998Y-59500000D02*
X131499999Y-59750001D01*
X41750000Y-63750000D02*
X43500000Y-62000000D01*
X59500000Y-59000000D02*
X61500000Y-57000000D01*
X81787007Y-58000001D02*
X83487009Y-56299999D01*
X79500001Y-58000001D02*
X81787007Y-58000001D01*
X61500000Y-57000000D02*
X76500000Y-57000000D01*
X76500000Y-57000000D02*
X77500000Y-56000000D01*
X116000000Y-59500000D02*
X131249998Y-59500000D01*
X56500000Y-62000000D02*
X59500000Y-59000000D01*
%TO.N,col1*%
X125115315Y-78564980D02*
X128035422Y-78564980D01*
X115349501Y-77150499D02*
X123900834Y-77150499D01*
X124624501Y-77874166D02*
X124624501Y-78074166D01*
X124624501Y-78074166D02*
X125115315Y-78564980D01*
X129107686Y-77492716D02*
X131025500Y-77492716D01*
X105243780Y-74199999D02*
X110043781Y-79000000D01*
X41750000Y-80750000D02*
X46500000Y-76000000D01*
X128035422Y-78564980D02*
X129107686Y-77492716D01*
X90699999Y-71199999D02*
X95500000Y-76000000D01*
X95500000Y-76000000D02*
X97300001Y-74199999D01*
X77500000Y-73000000D02*
X79300001Y-71199999D01*
X79300001Y-71199999D02*
X90699999Y-71199999D01*
X61300001Y-74199999D02*
X76300001Y-74199999D01*
X97300001Y-74199999D02*
X105243780Y-74199999D01*
X113500000Y-79000000D02*
X115349501Y-77150499D01*
X76300001Y-74199999D02*
X77500000Y-73000000D01*
X123900834Y-77150499D02*
X124624501Y-77874166D01*
X110043781Y-79000000D02*
X113500000Y-79000000D01*
X46500000Y-76000000D02*
X59500000Y-76000000D01*
X59500000Y-76000000D02*
X61300001Y-74199999D01*
%TO.N,col2*%
X110043781Y-96000000D02*
X113500000Y-96000000D01*
X95500000Y-93000000D02*
X97300001Y-91199999D01*
X105243780Y-91199999D02*
X110043781Y-96000000D01*
X46500000Y-93000000D02*
X59500000Y-93000000D01*
X79300001Y-88199999D02*
X90699999Y-88199999D01*
X41750000Y-97750000D02*
X46500000Y-93000000D01*
X77500000Y-90000000D02*
X79300001Y-88199999D01*
X133719899Y-84224501D02*
X133994898Y-84499500D01*
X90699999Y-88199999D02*
X95500000Y-93000000D01*
X113500000Y-96000000D02*
X125275499Y-84224501D01*
X125275499Y-84224501D02*
X133719899Y-84224501D01*
X59500000Y-93000000D02*
X62500000Y-90000000D01*
X62500000Y-90000000D02*
X77500000Y-90000000D01*
X97300001Y-91199999D02*
X105243780Y-91199999D01*
%TO.N,col3*%
X134699999Y-83100001D02*
X134900000Y-82900000D01*
D26*
X134836033Y-82975500D02*
X134836033Y-82963967D01*
D25*
X84750000Y-111537008D02*
X87212993Y-114000001D01*
X114026135Y-120523578D02*
X118076422Y-120523578D01*
X103774999Y-83325001D02*
X114573778Y-83325001D01*
X92212993Y-116100001D02*
X105370751Y-116100001D01*
X90356496Y-114243504D02*
X92212993Y-116100001D01*
X110703596Y-117201039D02*
X114026135Y-120523578D01*
X102199999Y-84900001D02*
X103774999Y-83325001D01*
X114573778Y-83325001D02*
X115798780Y-82099999D01*
X90112993Y-114000001D02*
X90356496Y-114243504D01*
X84750000Y-111500000D02*
X84750000Y-111537008D01*
X109740025Y-117201039D02*
X110703596Y-117201039D01*
X118076422Y-120523578D02*
X120425999Y-118174001D01*
X115798780Y-82099999D02*
X120212991Y-82099999D01*
X105370751Y-116100001D02*
X107172174Y-114298578D01*
X121212993Y-83100001D02*
X134699999Y-83100001D01*
X91800000Y-84400000D02*
X92300001Y-84900001D01*
X90356496Y-113343504D02*
X90500000Y-113200000D01*
X107172174Y-114633188D02*
X109740025Y-117201039D01*
X90356496Y-114243504D02*
X90356496Y-113343504D01*
X120425999Y-118174001D02*
X131000000Y-118174001D01*
X107172174Y-114298578D02*
X107172174Y-114633188D01*
D26*
X134836033Y-82963967D02*
X134900000Y-82900000D01*
D25*
X92300001Y-84900001D02*
X102199999Y-84900001D01*
X87212993Y-114000001D02*
X90112993Y-114000001D01*
X120212991Y-82099999D02*
X121212993Y-83100001D01*
%TO.N,RST*%
X136980000Y-81750000D02*
X133225500Y-81750000D01*
X133225500Y-81750000D02*
X133175000Y-81699500D01*
X129050000Y-78575000D02*
X129306690Y-78318310D01*
X129306690Y-78318310D02*
X133085590Y-78318310D01*
%TO.N,+3V3*%
X142383270Y-67080490D02*
X136905490Y-67080490D01*
X136807204Y-67067796D02*
X136850000Y-67025000D01*
X136905490Y-67080490D02*
X136850000Y-67025000D01*
X132625000Y-67067796D02*
X136807204Y-67067796D01*
%TO.N,SCK*%
X142383270Y-74700490D02*
X135534022Y-74700490D01*
X135534022Y-74700490D02*
X133333532Y-72500000D01*
%TO.N,MISO*%
X142043760Y-72500000D02*
X134400000Y-72500000D01*
%TO.N,MOSI*%
X142383270Y-69620490D02*
X141503760Y-70500000D01*
X141503760Y-70500000D02*
X136000000Y-70500000D01*
%TO.N,Net-(SW38-Pad2)*%
X137368310Y-78318310D02*
X140425000Y-81375000D01*
X135635590Y-78318310D02*
X137368310Y-78318310D01*
%TO.N,extrow0*%
X168804094Y-110573724D02*
X169300721Y-111070351D01*
X163261532Y-114286532D02*
X163800000Y-114825000D01*
X169300721Y-111070351D02*
X169300721Y-111411214D01*
X163261532Y-113773724D02*
X163261532Y-114286532D01*
%TO.N,extrow4*%
X228275000Y-104875000D02*
X242063297Y-104875000D01*
X170103951Y-112825000D02*
X170139165Y-112860214D01*
X167115345Y-111548724D02*
X167850000Y-112825000D01*
X242513298Y-105325001D02*
X261675001Y-105325001D01*
X167850000Y-112825000D02*
X170103951Y-112825000D01*
X170139165Y-112860214D02*
X170739361Y-112860214D01*
X224824999Y-108325001D02*
X228275000Y-104875000D01*
X175274574Y-108325001D02*
X224824999Y-108325001D01*
X242063297Y-104875000D02*
X242513298Y-105325001D01*
X170739361Y-112860214D02*
X175274574Y-108325001D01*
X261675001Y-105325001D02*
X264350000Y-108000000D01*
%TO.N,extrow2*%
X164950281Y-112798724D02*
X165675000Y-114025000D01*
X165675000Y-114025000D02*
X164950000Y-112825000D01*
X177200498Y-108774502D02*
X225011188Y-108774502D01*
X225011188Y-108774502D02*
X225560690Y-108225000D01*
X171950000Y-114025000D02*
X177200498Y-108774502D01*
X225560690Y-108225000D02*
X228350000Y-108225000D01*
X165675000Y-114025000D02*
X171950000Y-114025000D01*
%TO.N,extrow3*%
X172535690Y-114725000D02*
X174511688Y-112749002D01*
X186446380Y-109250000D02*
X226850000Y-109250000D01*
X165500000Y-114725000D02*
X164525000Y-113050000D01*
X164517269Y-113048724D02*
X165500000Y-114725000D01*
X165500000Y-114725000D02*
X172535690Y-114725000D01*
X174511688Y-112749002D02*
X182947378Y-112749002D01*
X182947378Y-112749002D02*
X186446380Y-109250000D01*
X226725000Y-102475000D02*
X245825000Y-102475000D01*
X245825000Y-102475000D02*
X246350000Y-103000000D01*
%TO.N,extrow1*%
X167548357Y-111298724D02*
X168075000Y-112200000D01*
X168039286Y-112135714D02*
X167575000Y-111300000D01*
X182599999Y-122099999D02*
X185500000Y-125000000D01*
X170825000Y-123425000D02*
X177473779Y-123425000D01*
X178798780Y-122099999D02*
X182599999Y-122099999D01*
X185500000Y-125000000D02*
X200350000Y-125000000D01*
X168075000Y-112200000D02*
X168039286Y-112135714D01*
X177473779Y-123425000D02*
X178798780Y-122099999D01*
X168039286Y-112135714D02*
X170439263Y-112135714D01*
D26*
%TO.N,Net-(SW38-Pad1)*%
X125544916Y-104279600D02*
X121024500Y-104279600D01*
X136577012Y-109247296D02*
X134729716Y-107400000D01*
X134729716Y-107400000D02*
X128665316Y-107400000D01*
X128665316Y-107400000D02*
X125544916Y-104279600D01*
X124425000Y-83675000D02*
X124200000Y-83900000D01*
X138625000Y-83675000D02*
X124425000Y-83675000D01*
X138162360Y-109247296D02*
X136577012Y-109247296D01*
%TD*%
M02*
