%TF.GenerationSoftware,KiCad,Pcbnew,(6.0.8-1)-1*%
%TF.CreationDate,2022-11-15T13:56:25-05:00*%
%TF.ProjectId,kb2,6b62322e-6b69-4636-9164-5f7063625858,rev?*%
%TF.SameCoordinates,Original*%
%TF.FileFunction,Copper,L2,Bot*%
%TF.FilePolarity,Positive*%
%FSLAX46Y46*%
G04 Gerber Fmt 4.6, Leading zero omitted, Abs format (unit mm)*
G04 Created by KiCad (PCBNEW (6.0.8-1)-1) date 2022-11-15 13:56:25*
%MOMM*%
%LPD*%
G01*
G04 APERTURE LIST*
G04 Aperture macros list*
%AMRoundRect*
0 Rectangle with rounded corners*
0 $1 Rounding radius*
0 $2 $3 $4 $5 $6 $7 $8 $9 X,Y pos of 4 corners*
0 Add a 4 corners polygon primitive as box body*
4,1,4,$2,$3,$4,$5,$6,$7,$8,$9,$2,$3,0*
0 Add four circle primitives for the rounded corners*
1,1,$1+$1,$2,$3*
1,1,$1+$1,$4,$5*
1,1,$1+$1,$6,$7*
1,1,$1+$1,$8,$9*
0 Add four rect primitives between the rounded corners*
20,1,$1+$1,$2,$3,$4,$5,0*
20,1,$1+$1,$4,$5,$6,$7,0*
20,1,$1+$1,$6,$7,$8,$9,0*
20,1,$1+$1,$8,$9,$2,$3,0*%
%AMHorizOval*
0 Thick line with rounded ends*
0 $1 width*
0 $2 $3 position (X,Y) of the first rounded end (center of the circle)*
0 $4 $5 position (X,Y) of the second rounded end (center of the circle)*
0 Add line between two ends*
20,1,$1,$2,$3,$4,$5,0*
0 Add two circle primitives to create the rounded ends*
1,1,$1,$2,$3*
1,1,$1,$4,$5*%
G04 Aperture macros list end*
%TA.AperFunction,SMDPad,CuDef*%
%ADD10RoundRect,0.250000X-1.025000X-1.000000X1.025000X-1.000000X1.025000X1.000000X-1.025000X1.000000X0*%
%TD*%
%TA.AperFunction,ComponentPad*%
%ADD11HorizOval,0.900000X-0.275000X-0.476314X0.275000X0.476314X0*%
%TD*%
%TA.AperFunction,ComponentPad*%
%ADD12HorizOval,0.900000X-0.200000X-0.346410X0.200000X0.346410X0*%
%TD*%
%TA.AperFunction,SMDPad,CuDef*%
%ADD13RoundRect,0.250000X-0.387676X-1.378525X1.387676X-0.353525X0.387676X1.378525X-1.387676X0.353525X0*%
%TD*%
%TA.AperFunction,SMDPad,CuDef*%
%ADD14RoundRect,0.250000X-0.731255X-1.231215X1.248893X-0.700636X0.731255X1.231215X-1.248893X0.700636X0*%
%TD*%
%TA.AperFunction,ComponentPad*%
%ADD15HorizOval,0.900000X0.275000X-0.476314X-0.275000X0.476314X0*%
%TD*%
%TA.AperFunction,ComponentPad*%
%ADD16HorizOval,0.900000X0.200000X-0.346410X-0.200000X0.346410X0*%
%TD*%
%TA.AperFunction,SMDPad,CuDef*%
%ADD17RoundRect,0.250000X-1.248893X-0.700636X0.731255X-1.231215X1.248893X0.700636X-0.731255X1.231215X0*%
%TD*%
%TA.AperFunction,SMDPad,CuDef*%
%ADD18RoundRect,0.250000X-1.387676X-0.353525X0.387676X-1.378525X1.387676X0.353525X-0.387676X1.378525X0*%
%TD*%
%TA.AperFunction,SMDPad,CuDef*%
%ADD19R,0.900000X1.200000*%
%TD*%
%TA.AperFunction,SMDPad,CuDef*%
%ADD20RoundRect,0.100000X0.100000X-0.637500X0.100000X0.637500X-0.100000X0.637500X-0.100000X-0.637500X0*%
%TD*%
%TA.AperFunction,SMDPad,CuDef*%
%ADD21R,1.498600X0.711200*%
%TD*%
%TA.AperFunction,SMDPad,CuDef*%
%ADD22R,0.812800X0.990600*%
%TD*%
%TA.AperFunction,ViaPad*%
%ADD23C,0.800000*%
%TD*%
%TA.AperFunction,Conductor*%
%ADD24C,0.250000*%
%TD*%
%TA.AperFunction,Conductor*%
%ADD25C,0.200000*%
%TD*%
G04 APERTURE END LIST*
D10*
%TO.P,SW13,1,A*%
%TO.N,extcol6*%
X208500000Y-93000000D03*
%TO.P,SW13,2,B*%
%TO.N,Net-(D13-Pad2)*%
X220500000Y-95200000D03*
%TD*%
%TO.P,SW25,1,A*%
%TO.N,col2*%
X95500000Y-93000000D03*
%TO.P,SW25,2,B*%
%TO.N,Net-(D25-Pad2)*%
X107500000Y-95200000D03*
%TD*%
%TO.P,SW17,1,A*%
%TO.N,col2*%
X77500000Y-90000000D03*
%TO.P,SW17,2,B*%
%TO.N,Net-(D17-Pad2)*%
X89500000Y-92200000D03*
%TD*%
%TO.P,SW23,1,A*%
%TO.N,col0*%
X95500000Y-59000000D03*
%TO.P,SW23,2,B*%
%TO.N,Net-(D23-Pad2)*%
X107500000Y-61200000D03*
%TD*%
D11*
%TO.P,J2,S1,SHIELD*%
%TO.N,unconnected-(J2-PadS1)*%
X141293770Y-109511429D03*
D12*
X150861230Y-110220103D03*
D11*
X148776230Y-113831429D03*
D12*
X143378770Y-105900103D03*
%TD*%
D10*
%TO.P,SW21,1,A*%
%TO.N,extcol6*%
X226500000Y-90000000D03*
%TO.P,SW21,2,B*%
%TO.N,Net-(D21-Pad2)*%
X238500000Y-92200000D03*
%TD*%
%TO.P,SW19,1,A*%
%TO.N,extcol4*%
X226500000Y-56000000D03*
%TO.P,SW19,2,B*%
%TO.N,Net-(D19-Pad2)*%
X238500000Y-58200000D03*
%TD*%
%TO.P,SW34,1,A*%
%TO.N,extcol4*%
X262500000Y-64000000D03*
%TO.P,SW34,2,B*%
%TO.N,Net-(D34-Pad2)*%
X274500000Y-66200000D03*
%TD*%
%TO.P,SW35,1,A*%
%TO.N,extcol5*%
X262500000Y-81000000D03*
%TO.P,SW35,2,B*%
%TO.N,Net-(D35-Pad2)*%
X274500000Y-83200000D03*
%TD*%
%TO.P,SW29,1,A*%
%TO.N,extcol6*%
X244500000Y-93000000D03*
%TO.P,SW29,2,B*%
%TO.N,Net-(D29-Pad2)*%
X256500000Y-95200000D03*
%TD*%
D13*
%TO.P,SW7,1,A*%
%TO.N,extcol7*%
X173968911Y-121553848D03*
%TO.P,SW7,2,B*%
%TO.N,Net-(D7-Pad2)*%
X185461216Y-117459103D03*
%TD*%
D10*
%TO.P,SW22,1,A*%
%TO.N,extcol7*%
X219500000Y-112000000D03*
%TO.P,SW22,2,B*%
%TO.N,Net-(D22-Pad2)*%
X231500000Y-114200000D03*
%TD*%
%TO.P,SW2,1,A*%
%TO.N,col1*%
X41500000Y-81000000D03*
%TO.P,SW2,2,B*%
%TO.N,Net-(D2-Pad2)*%
X53500000Y-83200000D03*
%TD*%
%TO.P,SW10,1,A*%
%TO.N,col2*%
X59500000Y-93000000D03*
%TO.P,SW10,2,B*%
%TO.N,Net-(D10-Pad2)*%
X71500000Y-95200000D03*
%TD*%
%TO.P,SW32,1,A*%
%TO.N,col2*%
X113500000Y-96000000D03*
%TO.P,SW32,2,B*%
%TO.N,Net-(D32-Pad2)*%
X125500000Y-98200000D03*
%TD*%
%TO.P,SW31,1,A*%
%TO.N,col1*%
X113500000Y-79000000D03*
%TO.P,SW31,2,B*%
%TO.N,Net-(D31-Pad2)*%
X125500000Y-81200000D03*
%TD*%
D14*
%TO.P,SW14,1,A*%
%TO.N,extcol7*%
X197066345Y-116110312D03*
%TO.P,SW14,2,B*%
%TO.N,Net-(D14-Pad2)*%
X209226857Y-115129520D03*
%TD*%
D10*
%TO.P,SW15,1,A*%
%TO.N,col0*%
X77500000Y-56000000D03*
%TO.P,SW15,2,B*%
%TO.N,Net-(D15-Pad2)*%
X89500000Y-58200000D03*
%TD*%
%TO.P,SW28,1,A*%
%TO.N,extcol5*%
X244500000Y-76000000D03*
%TO.P,SW28,2,B*%
%TO.N,Net-(D28-Pad2)*%
X256500000Y-78200000D03*
%TD*%
%TO.P,SW20,1,A*%
%TO.N,extcol5*%
X226500000Y-73000000D03*
%TO.P,SW20,2,B*%
%TO.N,Net-(D20-Pad2)*%
X238500000Y-75200000D03*
%TD*%
%TO.P,SW3,1,A*%
%TO.N,col2*%
X41500000Y-98000000D03*
%TO.P,SW3,2,B*%
%TO.N,Net-(D3-Pad2)*%
X53500000Y-100200000D03*
%TD*%
%TO.P,SW4,1,A*%
%TO.N,extcol4*%
X190500000Y-62000000D03*
%TO.P,SW4,2,B*%
%TO.N,Net-(D4-Pad2)*%
X202500000Y-64200000D03*
%TD*%
%TO.P,SW5,1,A*%
%TO.N,extcol5*%
X190500000Y-79000000D03*
%TO.P,SW5,2,B*%
%TO.N,Net-(D5-Pad2)*%
X202500000Y-81200000D03*
%TD*%
%TO.P,SW8,1,A*%
%TO.N,col0*%
X59500000Y-59000000D03*
%TO.P,SW8,2,B*%
%TO.N,Net-(D8-Pad2)*%
X71500000Y-61200000D03*
%TD*%
%TO.P,SW1,1,A*%
%TO.N,col0*%
X41500000Y-64000000D03*
%TO.P,SW1,2,B*%
%TO.N,Net-(D1-Pad2)*%
X53500000Y-66200000D03*
%TD*%
%TO.P,SW9,1,A*%
%TO.N,col1*%
X59500000Y-76000000D03*
%TO.P,SW9,2,B*%
%TO.N,Net-(D9-Pad2)*%
X71500000Y-78200000D03*
%TD*%
%TO.P,SW24,1,A*%
%TO.N,col1*%
X95500000Y-76000000D03*
%TO.P,SW24,2,B*%
%TO.N,Net-(D24-Pad2)*%
X107500000Y-78200000D03*
%TD*%
%TO.P,SW36,1,A*%
%TO.N,extcol6*%
X262500000Y-98000000D03*
%TO.P,SW36,2,B*%
%TO.N,Net-(D36-Pad2)*%
X274500000Y-100200000D03*
%TD*%
%TO.P,SW6,1,A*%
%TO.N,extcol6*%
X190500000Y-96000000D03*
%TO.P,SW6,2,B*%
%TO.N,Net-(D6-Pad2)*%
X202500000Y-98200000D03*
%TD*%
D15*
%TO.P,J3,S1,SHIELD*%
%TO.N,unconnected-(J3-PadS1)*%
X169484043Y-109511429D03*
D16*
X167399043Y-105900103D03*
D15*
X162001583Y-113831429D03*
D16*
X159916583Y-110220103D03*
%TD*%
D10*
%TO.P,SW11,1,A*%
%TO.N,extcol4*%
X208500000Y-59000000D03*
%TO.P,SW11,2,B*%
%TO.N,Net-(D11-Pad2)*%
X220500000Y-61200000D03*
%TD*%
%TO.P,SW12,1,A*%
%TO.N,extcol5*%
X208500000Y-76000000D03*
%TO.P,SW12,2,B*%
%TO.N,Net-(D12-Pad2)*%
X220500000Y-78200000D03*
%TD*%
%TO.P,SW30,1,A*%
%TO.N,col0*%
X113500000Y-62000000D03*
%TO.P,SW30,2,B*%
%TO.N,Net-(D30-Pad2)*%
X125500000Y-64200000D03*
%TD*%
%TO.P,SW27,1,A*%
%TO.N,extcol4*%
X244500000Y-59000000D03*
%TO.P,SW27,2,B*%
%TO.N,Net-(D27-Pad2)*%
X256500000Y-61200000D03*
%TD*%
%TO.P,SW18,1,A*%
%TO.N,col3*%
X84500000Y-112000000D03*
%TO.P,SW18,2,B*%
%TO.N,Net-(D18-Pad2)*%
X96500000Y-114200000D03*
%TD*%
%TO.P,SW16,1,A*%
%TO.N,col1*%
X77500000Y-73000000D03*
%TO.P,SW16,2,B*%
%TO.N,Net-(D16-Pad2)*%
X89500000Y-75200000D03*
%TD*%
D17*
%TO.P,SW26,1,A*%
%TO.N,col3*%
X107172174Y-114298578D03*
%TO.P,SW26,2,B*%
%TO.N,Net-(D26-Pad2)*%
X118193882Y-119529444D03*
%TD*%
D18*
%TO.P,SW33,1,A*%
%TO.N,col3*%
X130968911Y-118053848D03*
%TO.P,SW33,2,B*%
%TO.N,Net-(D33-Pad2)*%
X140261216Y-125959103D03*
%TD*%
D19*
%TO.P,D32,1,K*%
%TO.N,return4*%
X115350000Y-106000000D03*
%TO.P,D32,2,A*%
%TO.N,Net-(D32-Pad2)*%
X118650000Y-106000000D03*
%TD*%
%TO.P,D17,1,K*%
%TO.N,return2*%
X79350000Y-100000000D03*
%TO.P,D17,2,A*%
%TO.N,Net-(D17-Pad2)*%
X82650000Y-100000000D03*
%TD*%
%TO.P,D27,1,K*%
%TO.N,extrow3*%
X246350000Y-69000000D03*
%TO.P,D27,2,A*%
%TO.N,Net-(D27-Pad2)*%
X249650000Y-69000000D03*
%TD*%
%TO.P,D5,1,K*%
%TO.N,extrow0*%
X192350000Y-89000000D03*
%TO.P,D5,2,A*%
%TO.N,Net-(D5-Pad2)*%
X195650000Y-89000000D03*
%TD*%
%TO.P,D26,1,K*%
%TO.N,return3*%
X107350000Y-125000000D03*
%TO.P,D26,2,A*%
%TO.N,Net-(D26-Pad2)*%
X110650000Y-125000000D03*
%TD*%
%TO.P,D31,1,K*%
%TO.N,return4*%
X115350000Y-89000000D03*
%TO.P,D31,2,A*%
%TO.N,Net-(D31-Pad2)*%
X118650000Y-89000000D03*
%TD*%
%TO.P,D22,1,K*%
%TO.N,extrow2*%
X221350000Y-122000000D03*
%TO.P,D22,2,A*%
%TO.N,Net-(D22-Pad2)*%
X224650000Y-122000000D03*
%TD*%
D20*
%TO.P,U2,1,QB*%
%TO.N,col6*%
X136525000Y-73862500D03*
%TO.P,U2,2,QC*%
%TO.N,col5*%
X135875000Y-73862500D03*
%TO.P,U2,3,QD*%
%TO.N,col4*%
X135225000Y-73862500D03*
%TO.P,U2,4,QE*%
%TO.N,col3*%
X134575000Y-73862500D03*
%TO.P,U2,5,QF*%
%TO.N,col2*%
X133925000Y-73862500D03*
%TO.P,U2,6,QG*%
%TO.N,col1*%
X133275000Y-73862500D03*
%TO.P,U2,7,QH*%
%TO.N,col0*%
X132625000Y-73862500D03*
%TO.P,U2,8,GND*%
%TO.N,GND*%
X131975000Y-73862500D03*
%TO.P,U2,9,QH'*%
%TO.N,unconnected-(U2-Pad9)*%
X131975000Y-68137500D03*
%TO.P,U2,10,~{SRCLR}*%
%TO.N,+3V3*%
X132625000Y-68137500D03*
%TO.P,U2,11,SRCLK*%
%TO.N,SCK*%
X133275000Y-68137500D03*
%TO.P,U2,12,RCLK*%
%TO.N,MISO*%
X133925000Y-68137500D03*
%TO.P,U2,13,~{OE}*%
%TO.N,GND*%
X134575000Y-68137500D03*
%TO.P,U2,14,SER*%
%TO.N,MOSI*%
X135225000Y-68137500D03*
%TO.P,U2,15,QA*%
%TO.N,col7*%
X135875000Y-68137500D03*
%TO.P,U2,16,VCC*%
%TO.N,+3V3*%
X136525000Y-68137500D03*
%TD*%
D19*
%TO.P,D19,1,K*%
%TO.N,extrow2*%
X228350000Y-66000000D03*
%TO.P,D19,2,A*%
%TO.N,Net-(D19-Pad2)*%
X231650000Y-66000000D03*
%TD*%
%TO.P,D28,1,K*%
%TO.N,extrow3*%
X246350000Y-86000000D03*
%TO.P,D28,2,A*%
%TO.N,Net-(D28-Pad2)*%
X249650000Y-86000000D03*
%TD*%
%TO.P,D36,1,K*%
%TO.N,extrow4*%
X264350000Y-108000000D03*
%TO.P,D36,2,A*%
%TO.N,Net-(D36-Pad2)*%
X267650000Y-108000000D03*
%TD*%
%TO.P,D15,1,K*%
%TO.N,return2*%
X79350000Y-66000000D03*
%TO.P,D15,2,A*%
%TO.N,Net-(D15-Pad2)*%
X82650000Y-66000000D03*
%TD*%
%TO.P,D9,1,K*%
%TO.N,return1*%
X61350000Y-86000000D03*
%TO.P,D9,2,A*%
%TO.N,Net-(D9-Pad2)*%
X64650000Y-86000000D03*
%TD*%
%TO.P,D16,1,K*%
%TO.N,return2*%
X79350000Y-83000000D03*
%TO.P,D16,2,A*%
%TO.N,Net-(D16-Pad2)*%
X82650000Y-83000000D03*
%TD*%
%TO.P,D4,1,K*%
%TO.N,extrow0*%
X192350000Y-72000000D03*
%TO.P,D4,2,A*%
%TO.N,Net-(D4-Pad2)*%
X195650000Y-72000000D03*
%TD*%
%TO.P,D30,1,K*%
%TO.N,return4*%
X115350000Y-72000000D03*
%TO.P,D30,2,A*%
%TO.N,Net-(D30-Pad2)*%
X118650000Y-72000000D03*
%TD*%
D21*
%TO.P,SW38,1,A*%
%TO.N,Net-(SW38-Pad1)*%
X140448100Y-80249999D03*
%TO.P,SW38,2,B*%
%TO.N,Net-(SW38-Pad2)*%
X140448100Y-83250001D03*
%TO.P,SW38,3,C*%
%TO.N,unconnected-(SW38-Pad3)*%
X140448100Y-84750001D03*
D22*
%TO.P,SW38,6*%
%TO.N,N/C*%
X141148101Y-78850000D03*
%TO.P,SW38,7*%
X141148101Y-86150000D03*
%TO.P,SW38,8*%
X143248100Y-78850000D03*
%TO.P,SW38,9*%
X143248100Y-86150000D03*
%TD*%
D19*
%TO.P,D6,1,K*%
%TO.N,extrow0*%
X192350000Y-106000000D03*
%TO.P,D6,2,A*%
%TO.N,Net-(D6-Pad2)*%
X195650000Y-106000000D03*
%TD*%
%TO.P,D35,1,K*%
%TO.N,extrow4*%
X264350000Y-91000000D03*
%TO.P,D35,2,A*%
%TO.N,Net-(D35-Pad2)*%
X267650000Y-91000000D03*
%TD*%
%TO.P,D3,1,K*%
%TO.N,return0*%
X43350000Y-108000000D03*
%TO.P,D3,2,A*%
%TO.N,Net-(D3-Pad2)*%
X46650000Y-108000000D03*
%TD*%
%TO.P,D29,1,K*%
%TO.N,extrow3*%
X246350000Y-103000000D03*
%TO.P,D29,2,A*%
%TO.N,Net-(D29-Pad2)*%
X249650000Y-103000000D03*
%TD*%
%TO.P,D12,1,K*%
%TO.N,extrow1*%
X210350000Y-86000000D03*
%TO.P,D12,2,A*%
%TO.N,Net-(D12-Pad2)*%
X213650000Y-86000000D03*
%TD*%
%TO.P,D14,1,K*%
%TO.N,extrow1*%
X200350000Y-125000000D03*
%TO.P,D14,2,A*%
%TO.N,Net-(D14-Pad2)*%
X203650000Y-125000000D03*
%TD*%
%TO.P,D34,1,K*%
%TO.N,extrow4*%
X264350000Y-74000000D03*
%TO.P,D34,2,A*%
%TO.N,Net-(D34-Pad2)*%
X267650000Y-74000000D03*
%TD*%
%TO.P,D21,1,K*%
%TO.N,extrow2*%
X228350000Y-100000000D03*
%TO.P,D21,2,A*%
%TO.N,Net-(D21-Pad2)*%
X231650000Y-100000000D03*
%TD*%
%TO.P,D10,1,K*%
%TO.N,return1*%
X61350000Y-103000000D03*
%TO.P,D10,2,A*%
%TO.N,Net-(D10-Pad2)*%
X64650000Y-103000000D03*
%TD*%
%TO.P,D2,1,K*%
%TO.N,return0*%
X43350000Y-91000000D03*
%TO.P,D2,2,A*%
%TO.N,Net-(D2-Pad2)*%
X46650000Y-91000000D03*
%TD*%
%TO.P,D1,1,K*%
%TO.N,return0*%
X43350000Y-74000000D03*
%TO.P,D1,2,A*%
%TO.N,Net-(D1-Pad2)*%
X46650000Y-74000000D03*
%TD*%
%TO.P,D8,1,K*%
%TO.N,return1*%
X61350000Y-69000000D03*
%TO.P,D8,2,A*%
%TO.N,Net-(D8-Pad2)*%
X64650000Y-69000000D03*
%TD*%
%TO.P,D25,1,K*%
%TO.N,return3*%
X97350000Y-103000000D03*
%TO.P,D25,2,A*%
%TO.N,Net-(D25-Pad2)*%
X100650000Y-103000000D03*
%TD*%
%TO.P,D11,1,K*%
%TO.N,extrow1*%
X210350000Y-69000000D03*
%TO.P,D11,2,A*%
%TO.N,Net-(D11-Pad2)*%
X213650000Y-69000000D03*
%TD*%
%TO.P,D18,1,K*%
%TO.N,return2*%
X86350000Y-122000000D03*
%TO.P,D18,2,A*%
%TO.N,Net-(D18-Pad2)*%
X89650000Y-122000000D03*
%TD*%
%TO.P,D7,1,K*%
%TO.N,extrow0*%
X178350000Y-129000000D03*
%TO.P,D7,2,A*%
%TO.N,Net-(D7-Pad2)*%
X181650000Y-129000000D03*
%TD*%
%TO.P,D33,1,K*%
%TO.N,return4*%
X129350000Y-129000000D03*
%TO.P,D33,2,A*%
%TO.N,Net-(D33-Pad2)*%
X132650000Y-129000000D03*
%TD*%
%TO.P,D23,1,K*%
%TO.N,return3*%
X97350000Y-69000000D03*
%TO.P,D23,2,A*%
%TO.N,Net-(D23-Pad2)*%
X100650000Y-69000000D03*
%TD*%
%TO.P,D20,1,K*%
%TO.N,extrow2*%
X228350000Y-83000000D03*
%TO.P,D20,2,A*%
%TO.N,Net-(D20-Pad2)*%
X231650000Y-83000000D03*
%TD*%
%TO.P,D13,1,K*%
%TO.N,extrow1*%
X210350000Y-103000000D03*
%TO.P,D13,2,A*%
%TO.N,Net-(D13-Pad2)*%
X213650000Y-103000000D03*
%TD*%
%TO.P,D24,1,K*%
%TO.N,return3*%
X97350000Y-86000000D03*
%TO.P,D24,2,A*%
%TO.N,Net-(D24-Pad2)*%
X100650000Y-86000000D03*
%TD*%
D23*
%TO.N,return0*%
X44500000Y-75250000D03*
X109000000Y-98700000D03*
X110799999Y-63674999D03*
%TO.N,return1*%
X69850000Y-97800000D03*
X66250000Y-84350000D03*
X69600000Y-84300000D03*
X62500000Y-70750000D03*
%TO.N,return2*%
X123250000Y-70750000D03*
X79099999Y-70150001D03*
X116700000Y-111700000D03*
%TO.N,return3*%
X97350000Y-103000000D03*
X98250000Y-72250000D03*
%TO.N,return4*%
X115300000Y-115200000D03*
X115750000Y-72500000D03*
%TO.N,GND*%
X134500000Y-70500000D03*
X129150000Y-86000000D03*
X131825000Y-70600000D03*
X123900000Y-105100000D03*
X134700000Y-65300000D03*
%TO.N,col5*%
X112402033Y-112997967D03*
X110875000Y-80125000D03*
X136000000Y-80100000D03*
%TO.N,col7*%
X109200000Y-76200000D03*
X99400000Y-105900000D03*
X129250000Y-69300000D03*
X136000000Y-69500000D03*
X124425000Y-76150000D03*
%TO.N,col4*%
X111500500Y-81325000D03*
X135300000Y-81000000D03*
X110261826Y-107038174D03*
%TO.N,col6*%
X146675000Y-111725000D03*
X114000000Y-116600000D03*
X136000000Y-71600000D03*
X127875000Y-71075000D03*
X112000000Y-75200000D03*
X146825000Y-115200000D03*
X124375000Y-73450000D03*
%TO.N,extcol6*%
X190950000Y-95575000D03*
X208500000Y-93000000D03*
X226500000Y-90000000D03*
X170775000Y-107475000D03*
X165925000Y-108825000D03*
X262500000Y-98000000D03*
X244500000Y-93000000D03*
%TO.N,extcol4*%
X262500000Y-64000000D03*
X191150000Y-61775000D03*
X226500000Y-56000000D03*
X244500000Y-59000000D03*
X208500000Y-59000000D03*
%TO.N,extcol7*%
X197066345Y-116110312D03*
X219500000Y-112000000D03*
X174800000Y-121700000D03*
X172072442Y-112802960D03*
%TO.N,extcol5*%
X244500000Y-76000000D03*
X190825000Y-78575000D03*
X226500000Y-73000000D03*
X208500000Y-76000000D03*
X262500000Y-81000000D03*
%TO.N,col0*%
X41750000Y-63750000D03*
X77500000Y-56000000D03*
X95500000Y-59000000D03*
X131499999Y-59750001D03*
X113500000Y-62000000D03*
X59500000Y-59000000D03*
%TO.N,col1*%
X95500000Y-76000000D03*
X59500000Y-76000000D03*
X131025500Y-77492716D03*
X113500000Y-79000000D03*
X77500000Y-73000000D03*
X41750000Y-80750000D03*
%TO.N,col2*%
X77500000Y-90000000D03*
X113500000Y-96000000D03*
X95500000Y-93000000D03*
X41750000Y-97750000D03*
X133994898Y-84499500D03*
X59500000Y-93000000D03*
%TO.N,col3*%
X91800000Y-84400000D03*
X107172174Y-114298578D03*
X131000000Y-118174001D03*
X84750000Y-111500000D03*
X90500000Y-113200000D03*
X134836033Y-82975500D03*
%TO.N,RST*%
X133125000Y-78825000D03*
X133175000Y-81699500D03*
X129050000Y-81525000D03*
X129050000Y-78575000D03*
%TO.N,+3V3*%
X136850000Y-67025000D03*
X132625000Y-67067796D03*
%TO.N,SCK*%
X133333532Y-72500000D03*
%TO.N,MISO*%
X134400000Y-72500000D03*
%TO.N,MOSI*%
X136000000Y-70500000D03*
%TO.N,Net-(SW38-Pad2)*%
X140425000Y-81375000D03*
%TO.N,extrow0*%
X169300721Y-111411214D03*
X163800000Y-114825000D03*
%TO.N,extrow4*%
X264350000Y-108000000D03*
%TO.N,extrow2*%
X228350000Y-108225000D03*
%TO.N,extrow3*%
X226725000Y-102475000D03*
X226850000Y-109250000D03*
X246350000Y-103000000D03*
%TO.N,extrow1*%
X170439263Y-112135714D03*
X170825000Y-123425000D03*
X200350000Y-125000000D03*
%TO.N,Net-(SW38-Pad1)*%
X124200000Y-83900000D03*
X138625000Y-83675000D03*
X121024500Y-104279600D03*
%TD*%
D24*
%TO.N,return0*%
X43099999Y-84798780D02*
X42099999Y-85798780D01*
D25*
X109899500Y-64575498D02*
X109899500Y-79900500D01*
D24*
X43099999Y-74250001D02*
X43099999Y-75400001D01*
D25*
X110799999Y-63674999D02*
X109899500Y-64575498D01*
X109100000Y-80700000D02*
X109100000Y-98600000D01*
D24*
X43099999Y-75400001D02*
X44349999Y-75400001D01*
X43099999Y-91250001D02*
X43099999Y-101798780D01*
X42099999Y-106749999D02*
X43350000Y-108000000D01*
X42099999Y-102798780D02*
X42099999Y-106749999D01*
X43099999Y-75400001D02*
X43099999Y-84798780D01*
X42099999Y-85798780D02*
X42099999Y-89749999D01*
X43099999Y-101798780D02*
X42099999Y-102798780D01*
X44349999Y-75400001D02*
X44500000Y-75250000D01*
D25*
X109100000Y-98600000D02*
X109000000Y-98700000D01*
X109899500Y-79900500D02*
X109100000Y-80700000D01*
D24*
X42099999Y-89749999D02*
X43350000Y-91000000D01*
%TO.N,Net-(D1-Pad2)*%
X48373835Y-74000000D02*
X53500000Y-68873835D01*
X53500000Y-68873835D02*
X53500000Y-66200000D01*
X46650000Y-74000000D02*
X48373835Y-74000000D01*
%TO.N,Net-(D2-Pad2)*%
X46650000Y-91000000D02*
X48373835Y-91000000D01*
X53500000Y-85873835D02*
X53500000Y-83200000D01*
X48373835Y-91000000D02*
X53500000Y-85873835D01*
%TO.N,Net-(D3-Pad2)*%
X53500000Y-102873835D02*
X53500000Y-100200000D01*
X48373835Y-108000000D02*
X53500000Y-102873835D01*
X46650000Y-108000000D02*
X48373835Y-108000000D01*
%TO.N,Net-(D4-Pad2)*%
X202500000Y-66873835D02*
X202500000Y-64200000D01*
X195650000Y-72000000D02*
X197373835Y-72000000D01*
X197373835Y-72000000D02*
X202500000Y-66873835D01*
%TO.N,Net-(D5-Pad2)*%
X195650000Y-89000000D02*
X197373835Y-89000000D01*
X202500000Y-83873835D02*
X202500000Y-81200000D01*
X197373835Y-89000000D02*
X202500000Y-83873835D01*
%TO.N,Net-(D6-Pad2)*%
X202500000Y-100873835D02*
X202500000Y-98200000D01*
X197373835Y-106000000D02*
X202500000Y-100873835D01*
X195650000Y-106000000D02*
X197373835Y-106000000D01*
%TO.N,Net-(D7-Pad2)*%
X181650000Y-129000000D02*
X186088141Y-124561859D01*
X186088141Y-124561859D02*
X186088141Y-118086028D01*
%TO.N,return1*%
X62400001Y-70650001D02*
X62500000Y-70750000D01*
D25*
X69875001Y-97774999D02*
X69850000Y-97800000D01*
X62500000Y-70750000D02*
X66124999Y-74374999D01*
D24*
X60099999Y-97798780D02*
X60099999Y-101749999D01*
D25*
X66124999Y-74374999D02*
X66124999Y-84224999D01*
D24*
X61099999Y-69250001D02*
X61099999Y-70650001D01*
X60099999Y-80798780D02*
X60099999Y-84749999D01*
X60099999Y-101749999D02*
X61350000Y-103000000D01*
D25*
X69600000Y-84300000D02*
X69875001Y-84575001D01*
D24*
X61099999Y-96798780D02*
X60099999Y-97798780D01*
X61099999Y-86250001D02*
X61099999Y-96798780D01*
D25*
X69875001Y-84575001D02*
X69875001Y-97774999D01*
D24*
X61099999Y-70650001D02*
X62400001Y-70650001D01*
X60099999Y-84749999D02*
X61350000Y-86000000D01*
X61099999Y-79798780D02*
X60099999Y-80798780D01*
D25*
X66124999Y-84224999D02*
X66250000Y-84350000D01*
D24*
X61099999Y-70650001D02*
X61099999Y-79798780D01*
%TO.N,Net-(D8-Pad2)*%
X64650000Y-69000000D02*
X66373835Y-69000000D01*
X71500000Y-63873835D02*
X71500000Y-61200000D01*
X66373835Y-69000000D02*
X71500000Y-63873835D01*
%TO.N,Net-(D9-Pad2)*%
X71500000Y-80873835D02*
X71500000Y-78200000D01*
X66373835Y-86000000D02*
X71500000Y-80873835D01*
X64650000Y-86000000D02*
X66373835Y-86000000D01*
%TO.N,Net-(D10-Pad2)*%
X64650000Y-103000000D02*
X66373835Y-103000000D01*
X71500000Y-97873835D02*
X71500000Y-95200000D01*
X66373835Y-103000000D02*
X71500000Y-97873835D01*
%TO.N,Net-(D11-Pad2)*%
X213650000Y-69000000D02*
X215373835Y-69000000D01*
X220500000Y-63873835D02*
X220500000Y-61200000D01*
X215373835Y-69000000D02*
X220500000Y-63873835D01*
%TO.N,Net-(D12-Pad2)*%
X215373835Y-86000000D02*
X220500000Y-80873835D01*
X220500000Y-80873835D02*
X220500000Y-78200000D01*
X213650000Y-86000000D02*
X215373835Y-86000000D01*
%TO.N,Net-(D13-Pad2)*%
X220500000Y-97873835D02*
X220500000Y-95200000D01*
X213650000Y-103000000D02*
X215373835Y-103000000D01*
X215373835Y-103000000D02*
X220500000Y-97873835D01*
%TO.N,Net-(D14-Pad2)*%
X203650000Y-125000000D02*
X204350000Y-125000000D01*
X209226857Y-120123143D02*
X209226857Y-115129520D01*
X204350000Y-125000000D02*
X209226857Y-120123143D01*
%TO.N,return2*%
X79350000Y-112976165D02*
X85099999Y-118726164D01*
X118900001Y-99798780D02*
X120300000Y-101198779D01*
X85099999Y-118726164D02*
X85099999Y-120749999D01*
X79099999Y-76798780D02*
X78099999Y-77798780D01*
X79350000Y-100000000D02*
X79350000Y-112976165D01*
X119900001Y-86999999D02*
X118825000Y-88075000D01*
X78099999Y-81749999D02*
X79350000Y-83000000D01*
X78099999Y-77798780D02*
X78099999Y-81749999D01*
X117875000Y-105075000D02*
X116700000Y-106250000D01*
X118825000Y-88075000D02*
X117875000Y-88075000D01*
X117700000Y-93200000D02*
X118900001Y-94400001D01*
X117700000Y-88250000D02*
X117700000Y-93200000D01*
X79099999Y-66250001D02*
X79099999Y-76798780D01*
X79099999Y-83250001D02*
X79099999Y-93798780D01*
X85099999Y-120749999D02*
X86350000Y-122000000D01*
X119900001Y-74099999D02*
X119900001Y-86999999D01*
X78099999Y-98749999D02*
X79350000Y-100000000D01*
X118425000Y-105075000D02*
X117875000Y-105075000D01*
X120300000Y-101198779D02*
X120300000Y-103200000D01*
X78099999Y-94798780D02*
X78099999Y-98749999D01*
X79099999Y-93798780D02*
X78099999Y-94798780D01*
X120300000Y-103200000D02*
X118425000Y-105075000D01*
X116700000Y-106250000D02*
X116700000Y-111700000D01*
X117875000Y-88075000D02*
X117700000Y-88250000D01*
X123250000Y-70750000D02*
X119900001Y-74099999D01*
X118900001Y-94400001D02*
X118900001Y-99798780D01*
%TO.N,Net-(D15-Pad2)*%
X82650000Y-66000000D02*
X84373835Y-66000000D01*
X84373835Y-66000000D02*
X89500000Y-60873835D01*
X89500000Y-60873835D02*
X89500000Y-58200000D01*
%TO.N,Net-(D16-Pad2)*%
X89500000Y-77873835D02*
X89500000Y-75200000D01*
X84373835Y-83000000D02*
X89500000Y-77873835D01*
X82650000Y-83000000D02*
X84373835Y-83000000D01*
%TO.N,Net-(D17-Pad2)*%
X82650000Y-100000000D02*
X84373835Y-100000000D01*
X89500000Y-94873835D02*
X89500000Y-92200000D01*
X84373835Y-100000000D02*
X89500000Y-94873835D01*
%TO.N,Net-(D18-Pad2)*%
X91373835Y-122000000D02*
X96500000Y-116873835D01*
X96500000Y-116873835D02*
X96500000Y-114200000D01*
X89650000Y-122000000D02*
X91373835Y-122000000D01*
%TO.N,Net-(D19-Pad2)*%
X231650000Y-66000000D02*
X233373835Y-66000000D01*
X238500000Y-60873835D02*
X238500000Y-58200000D01*
X233373835Y-66000000D02*
X238500000Y-60873835D01*
%TO.N,Net-(D20-Pad2)*%
X238500000Y-77873835D02*
X238500000Y-75200000D01*
X233373835Y-83000000D02*
X238500000Y-77873835D01*
X231650000Y-83000000D02*
X233373835Y-83000000D01*
%TO.N,Net-(D21-Pad2)*%
X233373835Y-100000000D02*
X238500000Y-94873835D01*
X231650000Y-100000000D02*
X233373835Y-100000000D01*
X238500000Y-94873835D02*
X238500000Y-92200000D01*
%TO.N,Net-(D22-Pad2)*%
X226373835Y-122000000D02*
X231500000Y-116873835D01*
X231500000Y-116873835D02*
X231500000Y-114200000D01*
X224650000Y-122000000D02*
X226373835Y-122000000D01*
%TO.N,return3*%
X100400000Y-118400000D02*
X100400000Y-115261827D01*
X97099999Y-86250001D02*
X97099999Y-96798780D01*
X96099999Y-101749999D02*
X97350000Y-103000000D01*
X96099999Y-84749999D02*
X97350000Y-86000000D01*
X97099999Y-96798780D02*
X96099999Y-97798780D01*
X100400000Y-115261827D02*
X97350000Y-112211827D01*
X107350000Y-125000000D02*
X107000000Y-125000000D01*
X97099999Y-72150001D02*
X98150001Y-72150001D01*
X97099999Y-72150001D02*
X97099999Y-79798780D01*
X97099999Y-69250001D02*
X97099999Y-72150001D01*
X96099999Y-80798780D02*
X96099999Y-84749999D01*
X98150001Y-72150001D02*
X98250000Y-72250000D01*
X97350000Y-112211827D02*
X97350000Y-103000000D01*
X107000000Y-125000000D02*
X100400000Y-118400000D01*
X97099999Y-79798780D02*
X96099999Y-80798780D01*
X96099999Y-97798780D02*
X96099999Y-101749999D01*
%TO.N,Net-(D23-Pad2)*%
X102373835Y-69000000D02*
X107500000Y-63873835D01*
X107500000Y-63873835D02*
X107500000Y-61200000D01*
X100650000Y-69000000D02*
X102373835Y-69000000D01*
%TO.N,Net-(D24-Pad2)*%
X107500000Y-80873835D02*
X107500000Y-78200000D01*
X104173835Y-84200000D02*
X107500000Y-80873835D01*
X102450000Y-84200000D02*
X104173835Y-84200000D01*
X100650000Y-86000000D02*
X102450000Y-84200000D01*
%TO.N,Net-(D25-Pad2)*%
X102373835Y-103000000D02*
X107500000Y-97873835D01*
X100650000Y-103000000D02*
X102373835Y-103000000D01*
X107500000Y-97873835D02*
X107500000Y-95200000D01*
%TO.N,Net-(D26-Pad2)*%
X110650000Y-125000000D02*
X113609932Y-125000000D01*
X113609932Y-125000000D02*
X118193882Y-120416050D01*
%TO.N,Net-(D27-Pad2)*%
X256500000Y-63873835D02*
X256500000Y-61200000D01*
X249650000Y-69000000D02*
X251373835Y-69000000D01*
X251373835Y-69000000D02*
X256500000Y-63873835D01*
%TO.N,Net-(D28-Pad2)*%
X256500000Y-80873835D02*
X256500000Y-78200000D01*
X251373835Y-86000000D02*
X256500000Y-80873835D01*
X249650000Y-86000000D02*
X251373835Y-86000000D01*
%TO.N,Net-(D29-Pad2)*%
X256500000Y-97873835D02*
X256500000Y-95200000D01*
X249650000Y-103000000D02*
X251373835Y-103000000D01*
X251373835Y-103000000D02*
X256500000Y-97873835D01*
%TO.N,return4*%
X118800000Y-115200000D02*
X115300000Y-115200000D01*
X114099999Y-100798780D02*
X114099999Y-103201220D01*
X115350000Y-72100000D02*
X115750000Y-72500000D01*
X114099999Y-87749999D02*
X115350000Y-89000000D01*
X123700000Y-123350000D02*
X123700000Y-120100000D01*
X114099999Y-103201220D02*
X115350000Y-104451221D01*
X115099999Y-89250001D02*
X115099999Y-99798780D01*
X115099999Y-82798780D02*
X114099999Y-83798780D01*
X115099999Y-72250001D02*
X115099999Y-82798780D01*
X115350000Y-104451221D02*
X115350000Y-106000000D01*
X129350000Y-129000000D02*
X123700000Y-123350000D01*
X115350000Y-115150000D02*
X115300000Y-115200000D01*
X115099999Y-99798780D02*
X114099999Y-100798780D01*
X123700000Y-120100000D02*
X118800000Y-115200000D01*
X115350000Y-106000000D02*
X115350000Y-115150000D01*
X114099999Y-83798780D02*
X114099999Y-87749999D01*
%TO.N,Net-(D30-Pad2)*%
X125500000Y-66873835D02*
X125500000Y-64200000D01*
X118650000Y-72000000D02*
X120373835Y-72000000D01*
X120373835Y-72000000D02*
X125500000Y-66873835D01*
%TO.N,Net-(D31-Pad2)*%
X121174999Y-86425001D02*
X121174999Y-84451166D01*
X118650000Y-88950000D02*
X121174999Y-86425001D01*
X121951166Y-83674999D02*
X123025001Y-83674999D01*
X123025001Y-83674999D02*
X125500000Y-81200000D01*
X121174999Y-84451166D02*
X121951166Y-83674999D01*
%TO.N,Net-(D32-Pad2)*%
X124024598Y-106000000D02*
X125500000Y-104524598D01*
X118650000Y-106000000D02*
X124024598Y-106000000D01*
X125500000Y-104524598D02*
X125500000Y-98200000D01*
%TO.N,Net-(D33-Pad2)*%
X132725001Y-129075001D02*
X137145318Y-129075001D01*
X137145318Y-129075001D02*
X140261216Y-125959103D01*
%TO.N,Net-(D34-Pad2)*%
X274500000Y-66200000D02*
X274500000Y-68873835D01*
X269373835Y-74000000D02*
X267650000Y-74000000D01*
X274500000Y-68873835D02*
X269373835Y-74000000D01*
%TO.N,Net-(D35-Pad2)*%
X274500000Y-85873835D02*
X274500000Y-83200000D01*
X274500000Y-83200000D02*
X274325000Y-84450000D01*
X267650000Y-91000000D02*
X269373835Y-91000000D01*
X274325000Y-84450000D02*
X274325000Y-83375000D01*
X269373835Y-91000000D02*
X274500000Y-85873835D01*
%TO.N,Net-(D36-Pad2)*%
X267650000Y-108000000D02*
X269373835Y-108000000D01*
X269373835Y-108000000D02*
X274500000Y-102873835D01*
X274500000Y-102873835D02*
X274500000Y-100200000D01*
%TO.N,GND*%
X129899500Y-75938000D02*
X131975000Y-73862500D01*
X129150000Y-86000000D02*
X127300000Y-86000000D01*
X126200000Y-93200000D02*
X123900000Y-95500000D01*
X131975000Y-70750000D02*
X131825000Y-70600000D01*
X126200000Y-87100000D02*
X126200000Y-93200000D01*
X134575000Y-70425000D02*
X134500000Y-70500000D01*
X134575000Y-65425000D02*
X134700000Y-65300000D01*
X129974500Y-78299902D02*
X129899500Y-78224902D01*
X134575000Y-68137500D02*
X134575000Y-65425000D01*
X129899500Y-78224902D02*
X129899500Y-75938000D01*
X123900000Y-95500000D02*
X123900000Y-105100000D01*
X129974500Y-85175500D02*
X129974500Y-78299902D01*
X131975000Y-73862500D02*
X131975000Y-70750000D01*
X134575000Y-68137500D02*
X134575000Y-70425000D01*
X127300000Y-86000000D02*
X126200000Y-87100000D01*
X129150000Y-86000000D02*
X129974500Y-85175500D01*
%TO.N,col5*%
X136000000Y-80100000D02*
X136000000Y-80000000D01*
D25*
X109700000Y-106610757D02*
X109700000Y-81100000D01*
X110675000Y-80125000D02*
X110875000Y-80125000D01*
X109562326Y-106748431D02*
X109700000Y-106610757D01*
D24*
X135875000Y-73862500D02*
X135875000Y-79875000D01*
D25*
X109562326Y-107327917D02*
X109562326Y-106748431D01*
X112402033Y-112997967D02*
X112402033Y-110167624D01*
X109700000Y-81100000D02*
X110675000Y-80125000D01*
D24*
X135875000Y-79875000D02*
X136000000Y-80000000D01*
D25*
X112402033Y-110167624D02*
X109562326Y-107327917D01*
D24*
%TO.N,col7*%
X99400000Y-102701221D02*
X99400000Y-105900000D01*
D25*
X124425000Y-76150000D02*
X124550000Y-76025000D01*
D24*
X102200000Y-100900000D02*
X102099999Y-100799999D01*
D25*
X124550000Y-76025000D02*
X127850000Y-76025000D01*
X135875000Y-69375000D02*
X136000000Y-69500000D01*
D24*
X109200000Y-79809525D02*
X109200000Y-76200000D01*
X102099999Y-100799999D02*
X102099999Y-86909526D01*
D25*
X127850000Y-76025000D02*
X129250000Y-74625000D01*
X109075000Y-79825000D02*
X109075000Y-76325000D01*
X129250000Y-74625000D02*
X129250000Y-69300000D01*
D24*
X102200000Y-100900000D02*
X101201221Y-100900000D01*
X102099999Y-86909526D02*
X109200000Y-79809525D01*
X101201221Y-100900000D02*
X99400000Y-102701221D01*
D25*
X135875000Y-68137500D02*
X135875000Y-69375000D01*
X109075000Y-76325000D02*
X109200000Y-76200000D01*
X102124999Y-100824999D02*
X102200000Y-100900000D01*
D24*
%TO.N,col4*%
X135225000Y-73862500D02*
X135225000Y-80925000D01*
D25*
X110261826Y-107038174D02*
X110199999Y-106976347D01*
D24*
X135225000Y-80925000D02*
X135300000Y-81000000D01*
D25*
X110199999Y-82625501D02*
X111500500Y-81325000D01*
X110199999Y-106976347D02*
X110199999Y-82625501D01*
D24*
%TO.N,col6*%
X124375000Y-73450000D02*
X125500000Y-73450000D01*
D25*
X111925000Y-80227817D02*
X113150001Y-81452818D01*
D24*
X136525000Y-72125000D02*
X136000000Y-71600000D01*
D25*
X113298502Y-110498502D02*
X114000000Y-111200000D01*
X114000000Y-111200000D02*
X114000000Y-116600000D01*
X146825000Y-111875000D02*
X146675000Y-111725000D01*
X111925000Y-75275000D02*
X111925000Y-80227817D01*
X112000000Y-75200000D02*
X111925000Y-75275000D01*
X111925000Y-97227817D02*
X113298502Y-98601319D01*
X113150001Y-81452818D02*
X113150001Y-92424999D01*
X113150001Y-92424999D02*
X111925000Y-93650000D01*
X113298502Y-98601319D02*
X113298502Y-110498502D01*
X146825000Y-115200000D02*
X146825000Y-111875000D01*
X111925000Y-93650000D02*
X111925000Y-97227817D01*
D24*
X136525000Y-73862500D02*
X136525000Y-72125000D01*
X125500000Y-73450000D02*
X127875000Y-71075000D01*
%TO.N,extcol6*%
X167275000Y-107475000D02*
X170775000Y-107475000D01*
X165925000Y-108825000D02*
X167275000Y-107475000D01*
%TO.N,extcol7*%
X172065286Y-119650223D02*
X172065286Y-112810116D01*
X173968911Y-121553848D02*
X172065286Y-119650223D01*
X172065286Y-112810116D02*
X172072442Y-112802960D01*
%TO.N,col0*%
X132609032Y-70110073D02*
X131450000Y-68951041D01*
X131450000Y-59800000D02*
X131499999Y-59750001D01*
X131450000Y-68951041D02*
X131450000Y-59800000D01*
X132609032Y-73846532D02*
X132609032Y-70110073D01*
%TO.N,col1*%
X131025500Y-77099902D02*
X131025500Y-77492716D01*
X133275000Y-74850402D02*
X131025500Y-77099902D01*
X133275000Y-73862500D02*
X133275000Y-74850402D01*
%TO.N,col2*%
X134000000Y-84494398D02*
X133994898Y-84499500D01*
X134000000Y-73937500D02*
X134000000Y-84494398D01*
%TO.N,col3*%
X134575000Y-82714467D02*
X134836033Y-82975500D01*
X134575000Y-73862500D02*
X134575000Y-82714467D01*
X91800000Y-111900000D02*
X91800000Y-84400000D01*
X90500000Y-113200000D02*
X91800000Y-111900000D01*
%TO.N,RST*%
X133125000Y-81649500D02*
X133175000Y-81699500D01*
X133125000Y-78825000D02*
X133125000Y-81649500D01*
X129050000Y-81525000D02*
X129050000Y-78575000D01*
%TO.N,+3V3*%
X132625000Y-68137500D02*
X132625000Y-67067796D01*
X136525000Y-68137500D02*
X136525000Y-67325000D01*
X136825000Y-67025000D02*
X136850000Y-67025000D01*
X136525000Y-67325000D02*
X136825000Y-67025000D01*
%TO.N,SCK*%
X133225999Y-72392467D02*
X133333532Y-72500000D01*
X133225999Y-68186501D02*
X133225999Y-72392467D01*
%TO.N,MISO*%
X133675500Y-71775500D02*
X134400000Y-72500000D01*
X133675500Y-69674902D02*
X133675500Y-71775500D01*
X133925000Y-69425402D02*
X133675500Y-69674902D01*
X133925000Y-68137500D02*
X133925000Y-69425402D01*
%TO.N,MOSI*%
X135225000Y-69749598D02*
X135975402Y-70500000D01*
X135225000Y-68137500D02*
X135225000Y-69749598D01*
X135975402Y-70500000D02*
X136000000Y-70500000D01*
%TO.N,Net-(SW38-Pad2)*%
X140425000Y-81375000D02*
X140425000Y-83226901D01*
%TO.N,extrow0*%
X174011214Y-111411214D02*
X180475000Y-117875000D01*
X192100000Y-80850000D02*
X192100000Y-72250000D01*
X180475000Y-117875000D02*
X192350000Y-106000000D01*
X191099999Y-87749999D02*
X191099999Y-81850001D01*
X192350000Y-89000000D02*
X191099999Y-87749999D01*
X191099999Y-104749999D02*
X191099999Y-99575001D01*
X180475000Y-119152458D02*
X180475000Y-117875000D01*
X177099999Y-122527459D02*
X180475000Y-119152458D01*
X192099999Y-98575001D02*
X192099999Y-89250001D01*
X163800000Y-114825000D02*
X167213786Y-111411214D01*
X191099999Y-99575001D02*
X192099999Y-98575001D01*
X169300721Y-111411214D02*
X174011214Y-111411214D01*
X177099999Y-127749999D02*
X177099999Y-122527459D01*
X178350000Y-129000000D02*
X177099999Y-127749999D01*
X191099999Y-81850001D02*
X192100000Y-80850000D01*
X192350000Y-106000000D02*
X191099999Y-104749999D01*
X167213786Y-111411214D02*
X169300721Y-111411214D01*
%TO.N,extrow4*%
X263099999Y-89749999D02*
X264350000Y-91000000D01*
X264099999Y-84249485D02*
X263099999Y-85249485D01*
X264099999Y-74250001D02*
X264099999Y-84249485D01*
X264099999Y-91250001D02*
X264099999Y-101750001D01*
X263099999Y-85249485D02*
X263099999Y-89749999D01*
X263099999Y-106749999D02*
X264350000Y-108000000D01*
X263099999Y-102750001D02*
X263099999Y-106749999D01*
X264099999Y-101750001D02*
X263099999Y-102750001D01*
%TO.N,extrow2*%
X220099999Y-116750001D02*
X222850499Y-113999501D01*
X228099999Y-66250001D02*
X228099999Y-76798780D01*
X223825499Y-113999501D02*
X228350000Y-109475000D01*
X228350000Y-108225000D02*
X228350000Y-100000000D01*
X228350000Y-109475000D02*
X228350000Y-108225000D01*
X228099999Y-93798780D02*
X227099999Y-94798780D01*
X220099999Y-120749999D02*
X220099999Y-116750001D01*
X225975000Y-80625000D02*
X228350000Y-83000000D01*
X227099999Y-94798780D02*
X227099999Y-98749999D01*
X227099999Y-98749999D02*
X228350000Y-100000000D01*
X222850499Y-113999501D02*
X223825499Y-113999501D01*
X225975000Y-78923779D02*
X225975000Y-80625000D01*
X228099999Y-76798780D02*
X225975000Y-78923779D01*
X221350000Y-122000000D02*
X220099999Y-120749999D01*
X228099999Y-83250001D02*
X228099999Y-93798780D01*
%TO.N,extrow3*%
X246100499Y-94237674D02*
X246100499Y-86249501D01*
X226850000Y-109250000D02*
X226850000Y-102600000D01*
X245099999Y-78238174D02*
X246100000Y-77238173D01*
X246100000Y-77238173D02*
X246100000Y-69250000D01*
X226850000Y-102600000D02*
X226725000Y-102475000D01*
X245099999Y-84749999D02*
X245099999Y-78238174D01*
X246350000Y-103000000D02*
X245099999Y-101749999D01*
X246350000Y-86000000D02*
X245099999Y-84749999D01*
X245099999Y-101749999D02*
X245099999Y-95238174D01*
X245099999Y-95238174D02*
X246100499Y-94237674D01*
%TO.N,extrow1*%
X170425000Y-123025000D02*
X170425000Y-112149977D01*
X210350000Y-108111014D02*
X210350000Y-103000000D01*
X210350000Y-86000000D02*
X209099999Y-84749999D01*
X209099999Y-101749999D02*
X209099999Y-95238174D01*
X210350000Y-103000000D02*
X209099999Y-101749999D01*
X199099999Y-123749999D02*
X199099999Y-119361015D01*
X170825000Y-123425000D02*
X170425000Y-123025000D01*
X200350000Y-125000000D02*
X199099999Y-123749999D01*
X209099999Y-95238174D02*
X210100000Y-94238173D01*
X210099999Y-77775001D02*
X210099999Y-69250001D01*
X210100000Y-94238173D02*
X210100000Y-86250000D01*
X199099999Y-119361015D02*
X210350000Y-108111014D01*
X209099999Y-78775001D02*
X210099999Y-77775001D01*
X170425000Y-112149977D02*
X170439263Y-112135714D01*
X209099999Y-84749999D02*
X209099999Y-78775001D01*
D25*
%TO.N,Net-(SW38-Pad1)*%
X138625000Y-82073099D02*
X140448100Y-80249999D01*
X121650000Y-95898348D02*
X120124999Y-97423349D01*
D24*
X124250000Y-93250000D02*
X124250000Y-87250000D01*
D25*
X124250000Y-83950000D02*
X124200000Y-83900000D01*
X124250000Y-87250000D02*
X124250000Y-83950000D01*
D24*
X121650000Y-95850000D02*
X124250000Y-93250000D01*
D25*
X120124999Y-97423349D02*
X120124999Y-98976651D01*
X120124999Y-98976651D02*
X121024500Y-99876152D01*
X138625000Y-83675000D02*
X138625000Y-82073099D01*
X121024500Y-99876152D02*
X121024500Y-104279600D01*
%TD*%
M02*
