%TF.GenerationSoftware,KiCad,Pcbnew,(6.0.8-1)-1*%
%TF.CreationDate,2022-11-15T13:56:25-05:00*%
%TF.ProjectId,kb2,6b62322e-6b69-4636-9164-5f7063625858,rev?*%
%TF.SameCoordinates,Original*%
%TF.FileFunction,Soldermask,Top*%
%TF.FilePolarity,Negative*%
%FSLAX46Y46*%
G04 Gerber Fmt 4.6, Leading zero omitted, Abs format (unit mm)*
G04 Created by KiCad (PCBNEW (6.0.8-1)-1) date 2022-11-15 13:56:25*
%MOMM*%
%LPD*%
G01*
G04 APERTURE LIST*
G04 Aperture macros list*
%AMRoundRect*
0 Rectangle with rounded corners*
0 $1 Rounding radius*
0 $2 $3 $4 $5 $6 $7 $8 $9 X,Y pos of 4 corners*
0 Add a 4 corners polygon primitive as box body*
4,1,4,$2,$3,$4,$5,$6,$7,$8,$9,$2,$3,0*
0 Add four circle primitives for the rounded corners*
1,1,$1+$1,$2,$3*
1,1,$1+$1,$4,$5*
1,1,$1+$1,$6,$7*
1,1,$1+$1,$8,$9*
0 Add four rect primitives between the rounded corners*
20,1,$1+$1,$2,$3,$4,$5,0*
20,1,$1+$1,$4,$5,$6,$7,0*
20,1,$1+$1,$6,$7,$8,$9,0*
20,1,$1+$1,$8,$9,$2,$3,0*%
%AMHorizOval*
0 Thick line with rounded ends*
0 $1 width*
0 $2 $3 position (X,Y) of the first rounded end (center of the circle)*
0 $4 $5 position (X,Y) of the second rounded end (center of the circle)*
0 Add line between two ends*
20,1,$1,$2,$3,$4,$5,0*
0 Add two circle primitives to create the rounded ends*
1,1,$1,$2,$3*
1,1,$1,$4,$5*%
%AMRotRect*
0 Rectangle, with rotation*
0 The origin of the aperture is its center*
0 $1 length*
0 $2 width*
0 $3 Rotation angle, in degrees counterclockwise*
0 Add horizontal line*
21,1,$1,$2,0,0,$3*%
G04 Aperture macros list end*
%ADD10C,0.300000*%
%ADD11C,5.050000*%
%ADD12C,1.900000*%
%ADD13C,1.600000*%
%ADD14C,3.050000*%
%ADD15C,0.600000*%
%ADD16RotRect,0.600000X1.160000X150.000000*%
%ADD17RotRect,0.300000X1.160000X330.000000*%
%ADD18HorizOval,0.900000X-0.275000X-0.476314X0.275000X0.476314X0*%
%ADD19HorizOval,0.900000X-0.200000X-0.346410X0.200000X0.346410X0*%
%ADD20R,1.550000X1.300000*%
%ADD21O,2.748280X1.998980*%
%ADD22O,1.016000X2.032000*%
%ADD23C,1.143000*%
%ADD24RoundRect,0.150000X-0.466266X0.442404X-0.616266X0.182596X0.466266X-0.442404X0.616266X-0.182596X0*%
%ADD25RoundRect,0.250000X-0.387917X0.628109X-0.737917X0.021891X0.387917X-0.628109X0.737917X-0.021891X0*%
%ADD26RotRect,0.600000X1.160000X210.000000*%
%ADD27RotRect,0.300000X1.160000X30.000000*%
%ADD28HorizOval,0.900000X0.275000X-0.476314X-0.275000X0.476314X0*%
%ADD29HorizOval,0.900000X0.200000X-0.346410X-0.200000X0.346410X0*%
%ADD30C,0.939800*%
G04 APERTURE END LIST*
D10*
%TO.C,*%
X242756872Y-113150000D03*
%TD*%
%TO.C,*%
X243350622Y-113150000D03*
%TD*%
%TO.C,*%
X238600622Y-113150000D03*
%TD*%
%TO.C,*%
X239194372Y-113150000D03*
%TD*%
%TO.C,*%
X241569372Y-113150000D03*
%TD*%
%TO.C,*%
X242163122Y-113150000D03*
%TD*%
%TO.C,*%
X240975622Y-113150000D03*
%TD*%
%TO.C,*%
X239788122Y-113150000D03*
%TD*%
%TO.C,*%
X240381872Y-113150000D03*
%TD*%
%TO.C,*%
X273500000Y-113150000D03*
%TD*%
%TO.C,*%
X274093750Y-113150000D03*
%TD*%
%TO.C,*%
X269343750Y-113150000D03*
%TD*%
%TO.C,*%
X269937500Y-113150000D03*
%TD*%
%TO.C,*%
X272312500Y-113150000D03*
%TD*%
%TO.C,*%
X272906250Y-113150000D03*
%TD*%
%TO.C,*%
X271718750Y-113150000D03*
%TD*%
%TO.C,*%
X270531250Y-113150000D03*
%TD*%
%TO.C,*%
X271125000Y-113150000D03*
%TD*%
%TO.C,*%
X71756872Y-113150000D03*
%TD*%
%TO.C,*%
X72350622Y-113150000D03*
%TD*%
%TO.C,*%
X67600622Y-113150000D03*
%TD*%
%TO.C,*%
X68194372Y-113150000D03*
%TD*%
%TO.C,*%
X70569372Y-113150000D03*
%TD*%
%TO.C,*%
X71163122Y-113150000D03*
%TD*%
%TO.C,*%
X69975622Y-113150000D03*
%TD*%
%TO.C,*%
X68788122Y-113150000D03*
%TD*%
%TO.C,*%
X69381872Y-113150000D03*
%TD*%
%TO.C,*%
X211430628Y-55850000D03*
%TD*%
%TO.C,*%
X41256872Y-113150000D03*
%TD*%
D11*
%TO.C,SW13*%
X212000000Y-99000000D03*
D12*
X206500000Y-99000000D03*
D13*
X207000000Y-104150000D03*
D14*
X217000000Y-95200000D03*
X212000000Y-93100000D03*
D12*
X217500000Y-99000000D03*
%TD*%
D13*
%TO.C,SW25*%
X94000000Y-104150000D03*
D14*
X104000000Y-95200000D03*
D12*
X104500000Y-99000000D03*
D14*
X99000000Y-93100000D03*
D12*
X93500000Y-99000000D03*
D11*
X99000000Y-99000000D03*
%TD*%
D14*
%TO.C,SW17*%
X86000000Y-92200000D03*
D11*
X81000000Y-96000000D03*
D12*
X75500000Y-96000000D03*
D13*
X76000000Y-101150000D03*
D12*
X86500000Y-96000000D03*
D14*
X81000000Y-90100000D03*
%TD*%
D10*
%TO.C,*%
X38881872Y-113150000D03*
%TD*%
%TO.C,*%
X60649378Y-55850000D03*
%TD*%
%TO.C,*%
X99618128Y-55850000D03*
%TD*%
D11*
%TO.C,SW23*%
X99000000Y-65000000D03*
D13*
X94000000Y-70150000D03*
D12*
X93500000Y-65000000D03*
X104500000Y-65000000D03*
D14*
X104000000Y-61200000D03*
X99000000Y-59100000D03*
%TD*%
D10*
%TO.C,*%
X65399378Y-55850000D03*
%TD*%
D15*
%TO.C,J2*%
X147777813Y-112700737D03*
X142772187Y-109810737D03*
D16*
X147516281Y-113773724D03*
X146823461Y-113373724D03*
D17*
X145827532Y-112798724D03*
X144961506Y-112298724D03*
X144528494Y-112048724D03*
X143662468Y-111548724D03*
D16*
X142666539Y-110973724D03*
X141973719Y-110573724D03*
X141973719Y-110573724D03*
X142666539Y-110973724D03*
D17*
X143229456Y-111298724D03*
X144095481Y-111798724D03*
X145394519Y-112548724D03*
X146260544Y-113048724D03*
D16*
X146823461Y-113373724D03*
X147516281Y-113773724D03*
D18*
X141293770Y-109511429D03*
D19*
X150861230Y-110220103D03*
D18*
X148776230Y-113831429D03*
D19*
X143378770Y-105900103D03*
%TD*%
D10*
%TO.C,*%
X212024378Y-55850000D03*
%TD*%
D14*
%TO.C,SW21*%
X230000000Y-90100000D03*
D12*
X235500000Y-96000000D03*
D14*
X235000000Y-92200000D03*
D11*
X230000000Y-96000000D03*
D12*
X224500000Y-96000000D03*
D13*
X225000000Y-101150000D03*
%TD*%
D10*
%TO.C,*%
X247430628Y-55850000D03*
%TD*%
D14*
%TO.C,SW19*%
X230000000Y-56100000D03*
D11*
X230000000Y-62000000D03*
D14*
X235000000Y-58200000D03*
D13*
X225000000Y-67150000D03*
D12*
X224500000Y-62000000D03*
X235500000Y-62000000D03*
%TD*%
D10*
%TO.C,*%
X62430628Y-55850000D03*
%TD*%
%TO.C,*%
X249805628Y-55850000D03*
%TD*%
D12*
%TO.C,SW34*%
X271500000Y-70000000D03*
D11*
X266000000Y-70000000D03*
D14*
X266000000Y-64100000D03*
D12*
X260500000Y-70000000D03*
D14*
X271000000Y-66200000D03*
D13*
X261000000Y-75150000D03*
%TD*%
D10*
%TO.C,*%
X37694372Y-113150000D03*
%TD*%
%TO.C,*%
X249211878Y-55850000D03*
%TD*%
D14*
%TO.C,SW35*%
X271000000Y-83200000D03*
X266000000Y-81100000D03*
D13*
X261000000Y-92150000D03*
D12*
X271500000Y-87000000D03*
D11*
X266000000Y-87000000D03*
D12*
X260500000Y-87000000D03*
%TD*%
D14*
%TO.C,SW29*%
X248000000Y-93100000D03*
D13*
X243000000Y-104150000D03*
D11*
X248000000Y-99000000D03*
D12*
X253500000Y-99000000D03*
D14*
X253000000Y-95200000D03*
D12*
X242500000Y-99000000D03*
%TD*%
D14*
%TO.C,SW7*%
X182430127Y-119209103D03*
X177050000Y-119890450D03*
D11*
X180000000Y-125000000D03*
D13*
X178244873Y-131960031D03*
D12*
X184763140Y-122250000D03*
X175236860Y-127750000D03*
%TD*%
%TO.C,SW22*%
X228500000Y-118000000D03*
X217500000Y-118000000D03*
D13*
X218000000Y-123150000D03*
D14*
X223000000Y-112100000D03*
X228000000Y-114200000D03*
D11*
X223000000Y-118000000D03*
%TD*%
D10*
%TO.C,*%
X61836878Y-55850000D03*
%TD*%
%TO.C,*%
X63618128Y-55850000D03*
%TD*%
%TO.C,*%
X97836878Y-55850000D03*
%TD*%
%TO.C,*%
X248024378Y-55850000D03*
%TD*%
D14*
%TO.C,SW2*%
X50000000Y-83200000D03*
D12*
X39500000Y-87000000D03*
D11*
X45000000Y-87000000D03*
D14*
X45000000Y-81100000D03*
D13*
X40000000Y-92150000D03*
D12*
X50500000Y-87000000D03*
%TD*%
D10*
%TO.C,*%
X37100622Y-113150000D03*
%TD*%
D12*
%TO.C,SW10*%
X57500000Y-99000000D03*
D14*
X63000000Y-93100000D03*
D13*
X58000000Y-104150000D03*
D12*
X68500000Y-99000000D03*
D11*
X63000000Y-99000000D03*
D14*
X68000000Y-95200000D03*
%TD*%
D13*
%TO.C,SW32*%
X112000000Y-107150000D03*
D12*
X122500000Y-102000000D03*
D14*
X117000000Y-96100000D03*
D12*
X111500000Y-102000000D03*
D11*
X117000000Y-102000000D03*
D14*
X122000000Y-98200000D03*
%TD*%
D10*
%TO.C,*%
X39475622Y-113150000D03*
%TD*%
%TO.C,*%
X61243128Y-55850000D03*
%TD*%
%TO.C,*%
X99024378Y-55850000D03*
%TD*%
%TO.C,*%
X210243128Y-55850000D03*
%TD*%
D20*
%TO.C,SW37*%
X136980000Y-81750000D03*
X129020000Y-81750000D03*
X136980000Y-86250000D03*
X129020000Y-86250000D03*
%TD*%
D10*
%TO.C,*%
X96649378Y-55850000D03*
%TD*%
%TO.C,*%
X63024378Y-55850000D03*
%TD*%
%TO.C,*%
X213211878Y-55850000D03*
%TD*%
D12*
%TO.C,SW31*%
X122500000Y-85000000D03*
D14*
X122000000Y-81200000D03*
D13*
X112000000Y-90150000D03*
D12*
X111500000Y-85000000D03*
D11*
X117000000Y-85000000D03*
D14*
X117000000Y-79100000D03*
%TD*%
%TO.C,SW14*%
X200472968Y-115301038D03*
D13*
X198503289Y-127268613D03*
D14*
X205846117Y-116035387D03*
D12*
X207312592Y-119576495D03*
D11*
X202000000Y-121000000D03*
D12*
X196687408Y-122423505D03*
%TD*%
D14*
%TO.C,SW15*%
X86000000Y-58200000D03*
X81000000Y-56100000D03*
D12*
X75500000Y-62000000D03*
D13*
X76000000Y-67150000D03*
D11*
X81000000Y-62000000D03*
D12*
X86500000Y-62000000D03*
%TD*%
D10*
%TO.C,*%
X97243128Y-55850000D03*
%TD*%
%TO.C,*%
X213805628Y-55850000D03*
%TD*%
D13*
%TO.C,SW28*%
X243000000Y-87150000D03*
D14*
X248000000Y-76100000D03*
D12*
X253500000Y-82000000D03*
D11*
X248000000Y-82000000D03*
D12*
X242500000Y-82000000D03*
D14*
X253000000Y-78200000D03*
%TD*%
D10*
%TO.C,*%
X40069372Y-113150000D03*
%TD*%
D14*
%TO.C,SW20*%
X235000000Y-75200000D03*
D11*
X230000000Y-79000000D03*
D14*
X230000000Y-73100000D03*
D12*
X224500000Y-79000000D03*
X235500000Y-79000000D03*
D13*
X225000000Y-84150000D03*
%TD*%
D10*
%TO.C,*%
X98430628Y-55850000D03*
%TD*%
D13*
%TO.C,SW3*%
X40000000Y-109150000D03*
D12*
X39500000Y-104000000D03*
D11*
X45000000Y-104000000D03*
D14*
X50000000Y-100200000D03*
D12*
X50500000Y-104000000D03*
D14*
X45000000Y-98100000D03*
%TD*%
D12*
%TO.C,SW4*%
X188500000Y-68000000D03*
X199500000Y-68000000D03*
D14*
X194000000Y-62100000D03*
D13*
X189000000Y-73150000D03*
D11*
X194000000Y-68000000D03*
D14*
X199000000Y-64200000D03*
%TD*%
D21*
%TO.C,U1*%
X126218710Y-62000490D03*
X126218710Y-64540490D03*
X126218710Y-67080490D03*
X126218710Y-69620490D03*
X126218710Y-72160490D03*
X126218710Y-74700490D03*
X126218710Y-77240490D03*
X142383270Y-77240490D03*
X142383270Y-74700490D03*
X142383270Y-72160490D03*
X142383270Y-69620490D03*
X142383270Y-67080490D03*
X142383270Y-64540490D03*
X142383270Y-62000490D03*
D22*
X133085590Y-78318310D03*
X135635590Y-78318310D03*
D23*
X133084393Y-61314123D03*
X135624393Y-61314123D03*
X133084393Y-63854123D03*
X135624393Y-63854123D03*
%TD*%
D10*
%TO.C,*%
X101399378Y-55850000D03*
%TD*%
D14*
%TO.C,SW5*%
X194000000Y-79100000D03*
D11*
X194000000Y-85000000D03*
D13*
X189000000Y-90150000D03*
D12*
X199500000Y-85000000D03*
X188500000Y-85000000D03*
D14*
X199000000Y-81200000D03*
%TD*%
%TO.C,SW8*%
X68000000Y-61200000D03*
D11*
X63000000Y-65000000D03*
D13*
X58000000Y-70150000D03*
D12*
X57500000Y-65000000D03*
X68500000Y-65000000D03*
D14*
X63000000Y-59100000D03*
%TD*%
D10*
%TO.C,*%
X214399378Y-55850000D03*
%TD*%
%TO.C,*%
X41850622Y-113150000D03*
%TD*%
D12*
%TO.C,SW1*%
X39500000Y-70000000D03*
D14*
X50000000Y-66200000D03*
D13*
X40000000Y-75150000D03*
D12*
X50500000Y-70000000D03*
D11*
X45000000Y-70000000D03*
D14*
X45000000Y-64100000D03*
%TD*%
D11*
%TO.C,SW9*%
X63000000Y-82000000D03*
D14*
X68000000Y-78200000D03*
D12*
X68500000Y-82000000D03*
D13*
X58000000Y-87150000D03*
D14*
X63000000Y-76100000D03*
D12*
X57500000Y-82000000D03*
%TD*%
D10*
%TO.C,*%
X40663122Y-113150000D03*
%TD*%
D11*
%TO.C,SW24*%
X99000000Y-82000000D03*
D13*
X94000000Y-87150000D03*
D12*
X93500000Y-82000000D03*
X104500000Y-82000000D03*
D14*
X104000000Y-78200000D03*
X99000000Y-76100000D03*
%TD*%
D10*
%TO.C,*%
X100211878Y-55850000D03*
%TD*%
%TO.C,*%
X246243128Y-55850000D03*
%TD*%
D12*
%TO.C,SW36*%
X271500000Y-104000000D03*
D14*
X271000000Y-100200000D03*
X266000000Y-98100000D03*
D12*
X260500000Y-104000000D03*
D13*
X261000000Y-109150000D03*
D11*
X266000000Y-104000000D03*
%TD*%
D10*
%TO.C,*%
X209649378Y-55850000D03*
%TD*%
%TO.C,*%
X212618128Y-55850000D03*
%TD*%
%TO.C,*%
X38288122Y-113150000D03*
%TD*%
D14*
%TO.C,SW6*%
X194000000Y-96100000D03*
D11*
X194000000Y-102000000D03*
D12*
X188500000Y-102000000D03*
X199500000Y-102000000D03*
D14*
X199000000Y-98200000D03*
D13*
X189000000Y-107150000D03*
%TD*%
D10*
%TO.C,*%
X64211878Y-55850000D03*
%TD*%
D24*
%TO.C,J1*%
X138482051Y-109566987D03*
X137982051Y-110433013D03*
D25*
X135776202Y-106503654D03*
X133976202Y-109621346D03*
%TD*%
D15*
%TO.C,J3*%
X168005626Y-109810737D03*
X163000000Y-112700737D03*
D26*
X168804094Y-110573724D03*
X168111274Y-110973724D03*
D27*
X167115345Y-111548724D03*
X166249319Y-112048724D03*
X165816307Y-112298724D03*
X164950281Y-112798724D03*
D26*
X163954352Y-113373724D03*
X163261532Y-113773724D03*
X163261532Y-113773724D03*
X163954352Y-113373724D03*
D27*
X164517269Y-113048724D03*
X165383294Y-112548724D03*
X166682332Y-111798724D03*
X167548357Y-111298724D03*
D26*
X168111274Y-110973724D03*
X168804094Y-110573724D03*
D28*
X169484043Y-109511429D03*
D29*
X167399043Y-105900103D03*
D28*
X162001583Y-113831429D03*
D29*
X159916583Y-110220103D03*
%TD*%
D10*
%TO.C,*%
X100805628Y-55850000D03*
%TD*%
D13*
%TO.C,SW11*%
X207000000Y-70150000D03*
D12*
X217500000Y-65000000D03*
D11*
X212000000Y-65000000D03*
D14*
X212000000Y-59100000D03*
X217000000Y-61200000D03*
D12*
X206500000Y-65000000D03*
%TD*%
D10*
%TO.C,*%
X210836878Y-55850000D03*
%TD*%
%TO.C,*%
X245649378Y-55850000D03*
%TD*%
D11*
%TO.C,SW12*%
X212000000Y-82000000D03*
D13*
X207000000Y-87150000D03*
D14*
X217000000Y-78200000D03*
X212000000Y-76100000D03*
D12*
X217500000Y-82000000D03*
X206500000Y-82000000D03*
%TD*%
D11*
%TO.C,SW30*%
X117000000Y-68000000D03*
D14*
X122000000Y-64200000D03*
D13*
X112000000Y-73150000D03*
D12*
X122500000Y-68000000D03*
X111500000Y-68000000D03*
D14*
X117000000Y-62100000D03*
%TD*%
D11*
%TO.C,SW27*%
X248000000Y-65000000D03*
D13*
X243000000Y-70150000D03*
D14*
X248000000Y-59100000D03*
D12*
X253500000Y-65000000D03*
D14*
X253000000Y-61200000D03*
D12*
X242500000Y-65000000D03*
%TD*%
D14*
%TO.C,SW18*%
X93000000Y-114200000D03*
D12*
X82500000Y-118000000D03*
D11*
X88000000Y-118000000D03*
D12*
X93500000Y-118000000D03*
D14*
X88000000Y-112100000D03*
D13*
X83000000Y-123150000D03*
%TD*%
D14*
%TO.C,SW16*%
X81000000Y-73100000D03*
D11*
X81000000Y-79000000D03*
D12*
X75500000Y-79000000D03*
X86500000Y-79000000D03*
D14*
X86000000Y-75200000D03*
D13*
X76000000Y-84150000D03*
%TD*%
D10*
%TO.C,*%
X246836878Y-55850000D03*
%TD*%
D13*
%TO.C,SW26*%
X102837453Y-124680423D03*
D12*
X103687408Y-119576495D03*
D14*
X114813142Y-118623577D03*
D12*
X114312592Y-122423505D03*
D14*
X110527032Y-115301038D03*
D11*
X109000000Y-121000000D03*
%TD*%
D10*
%TO.C,*%
X64805628Y-55850000D03*
%TD*%
%TO.C,*%
X250399378Y-55850000D03*
%TD*%
%TO.C,*%
X248618128Y-55850000D03*
%TD*%
D14*
%TO.C,SW33*%
X137230127Y-124209103D03*
X133950000Y-119890450D03*
D13*
X124094873Y-126960031D03*
D12*
X135763140Y-127750000D03*
X126236860Y-122250000D03*
D11*
X131000000Y-125000000D03*
%TD*%
D30*
%TO.C,SW38*%
X142198099Y-81000000D03*
X142198099Y-84000000D03*
%TD*%
M02*
