%TF.GenerationSoftware,KiCad,Pcbnew,(6.0.8-1)-1*%
%TF.CreationDate,2022-11-15T13:56:25-05:00*%
%TF.ProjectId,kb2,6b62322e-6b69-4636-9164-5f7063625858,rev?*%
%TF.SameCoordinates,Original*%
%TF.FileFunction,Paste,Top*%
%TF.FilePolarity,Positive*%
%FSLAX46Y46*%
G04 Gerber Fmt 4.6, Leading zero omitted, Abs format (unit mm)*
G04 Created by KiCad (PCBNEW (6.0.8-1)-1) date 2022-11-15 13:56:25*
%MOMM*%
%LPD*%
G01*
G04 APERTURE LIST*
G04 Aperture macros list*
%AMRoundRect*
0 Rectangle with rounded corners*
0 $1 Rounding radius*
0 $2 $3 $4 $5 $6 $7 $8 $9 X,Y pos of 4 corners*
0 Add a 4 corners polygon primitive as box body*
4,1,4,$2,$3,$4,$5,$6,$7,$8,$9,$2,$3,0*
0 Add four circle primitives for the rounded corners*
1,1,$1+$1,$2,$3*
1,1,$1+$1,$4,$5*
1,1,$1+$1,$6,$7*
1,1,$1+$1,$8,$9*
0 Add four rect primitives between the rounded corners*
20,1,$1+$1,$2,$3,$4,$5,0*
20,1,$1+$1,$4,$5,$6,$7,0*
20,1,$1+$1,$6,$7,$8,$9,0*
20,1,$1+$1,$8,$9,$2,$3,0*%
%AMRotRect*
0 Rectangle, with rotation*
0 The origin of the aperture is its center*
0 $1 length*
0 $2 width*
0 $3 Rotation angle, in degrees counterclockwise*
0 Add horizontal line*
21,1,$1,$2,0,0,$3*%
G04 Aperture macros list end*
%ADD10RotRect,0.600000X1.160000X150.000000*%
%ADD11RotRect,0.300000X1.160000X330.000000*%
%ADD12R,1.550000X1.300000*%
%ADD13O,2.748280X1.998980*%
%ADD14O,1.016000X2.032000*%
%ADD15C,1.143000*%
%ADD16RoundRect,0.150000X-0.466266X0.442404X-0.616266X0.182596X0.466266X-0.442404X0.616266X-0.182596X0*%
%ADD17RoundRect,0.250000X-0.387917X0.628109X-0.737917X0.021891X0.387917X-0.628109X0.737917X-0.021891X0*%
%ADD18RotRect,0.600000X1.160000X210.000000*%
%ADD19RotRect,0.300000X1.160000X30.000000*%
G04 APERTURE END LIST*
D10*
%TO.C,J2*%
X147516281Y-113773724D03*
X146823461Y-113373724D03*
D11*
X145827532Y-112798724D03*
X144961506Y-112298724D03*
X144528494Y-112048724D03*
X143662468Y-111548724D03*
D10*
X142666539Y-110973724D03*
X141973719Y-110573724D03*
X141973719Y-110573724D03*
X142666539Y-110973724D03*
D11*
X143229456Y-111298724D03*
X144095481Y-111798724D03*
X145394519Y-112548724D03*
X146260544Y-113048724D03*
D10*
X146823461Y-113373724D03*
X147516281Y-113773724D03*
%TD*%
D12*
%TO.C,SW37*%
X136980000Y-81750000D03*
X129020000Y-81750000D03*
X136980000Y-86250000D03*
X129020000Y-86250000D03*
%TD*%
D13*
%TO.C,U1*%
X126218710Y-62000490D03*
X126218710Y-64540490D03*
X126218710Y-67080490D03*
X126218710Y-69620490D03*
X126218710Y-72160490D03*
X126218710Y-74700490D03*
X126218710Y-77240490D03*
X142383270Y-77240490D03*
X142383270Y-74700490D03*
X142383270Y-72160490D03*
X142383270Y-69620490D03*
X142383270Y-67080490D03*
X142383270Y-64540490D03*
X142383270Y-62000490D03*
D14*
X133085590Y-78318310D03*
X135635590Y-78318310D03*
D15*
X133084393Y-61314123D03*
X135624393Y-61314123D03*
X133084393Y-63854123D03*
X135624393Y-63854123D03*
%TD*%
D16*
%TO.C,J1*%
X138482051Y-109566987D03*
X137982051Y-110433013D03*
D17*
X135776202Y-106503654D03*
X133976202Y-109621346D03*
%TD*%
D18*
%TO.C,J3*%
X168804094Y-110573724D03*
X168111274Y-110973724D03*
D19*
X167115345Y-111548724D03*
X166249319Y-112048724D03*
X165816307Y-112298724D03*
X164950281Y-112798724D03*
D18*
X163954352Y-113373724D03*
X163261532Y-113773724D03*
X163261532Y-113773724D03*
X163954352Y-113373724D03*
D19*
X164517269Y-113048724D03*
X165383294Y-112548724D03*
X166682332Y-111798724D03*
X167548357Y-111298724D03*
D18*
X168111274Y-110973724D03*
X168804094Y-110573724D03*
%TD*%
M02*
