%TF.GenerationSoftware,KiCad,Pcbnew,(6.0.8-1)-1*%
%TF.CreationDate,2022-11-15T13:56:26-05:00*%
%TF.ProjectId,kb2,6b62322e-6b69-4636-9164-5f7063625858,rev?*%
%TF.SameCoordinates,Original*%
%TF.FileFunction,Soldermask,Bot*%
%TF.FilePolarity,Negative*%
%FSLAX46Y46*%
G04 Gerber Fmt 4.6, Leading zero omitted, Abs format (unit mm)*
G04 Created by KiCad (PCBNEW (6.0.8-1)-1) date 2022-11-15 13:56:26*
%MOMM*%
%LPD*%
G01*
G04 APERTURE LIST*
G04 Aperture macros list*
%AMRoundRect*
0 Rectangle with rounded corners*
0 $1 Rounding radius*
0 $2 $3 $4 $5 $6 $7 $8 $9 X,Y pos of 4 corners*
0 Add a 4 corners polygon primitive as box body*
4,1,4,$2,$3,$4,$5,$6,$7,$8,$9,$2,$3,0*
0 Add four circle primitives for the rounded corners*
1,1,$1+$1,$2,$3*
1,1,$1+$1,$4,$5*
1,1,$1+$1,$6,$7*
1,1,$1+$1,$8,$9*
0 Add four rect primitives between the rounded corners*
20,1,$1+$1,$2,$3,$4,$5,0*
20,1,$1+$1,$4,$5,$6,$7,0*
20,1,$1+$1,$6,$7,$8,$9,0*
20,1,$1+$1,$8,$9,$2,$3,0*%
%AMHorizOval*
0 Thick line with rounded ends*
0 $1 width*
0 $2 $3 position (X,Y) of the first rounded end (center of the circle)*
0 $4 $5 position (X,Y) of the second rounded end (center of the circle)*
0 Add line between two ends*
20,1,$1,$2,$3,$4,$5,0*
0 Add two circle primitives to create the rounded ends*
1,1,$1,$2,$3*
1,1,$1,$4,$5*%
G04 Aperture macros list end*
%ADD10C,0.300000*%
%ADD11C,5.050000*%
%ADD12C,1.900000*%
%ADD13C,1.600000*%
%ADD14C,3.050000*%
%ADD15RoundRect,0.250000X-1.025000X-1.000000X1.025000X-1.000000X1.025000X1.000000X-1.025000X1.000000X0*%
%ADD16C,0.600000*%
%ADD17HorizOval,0.900000X-0.275000X-0.476314X0.275000X0.476314X0*%
%ADD18HorizOval,0.900000X-0.200000X-0.346410X0.200000X0.346410X0*%
%ADD19RoundRect,0.250000X-0.387676X-1.378525X1.387676X-0.353525X0.387676X1.378525X-1.387676X0.353525X0*%
%ADD20RoundRect,0.250000X-0.731255X-1.231215X1.248893X-0.700636X0.731255X1.231215X-1.248893X0.700636X0*%
%ADD21HorizOval,0.900000X0.275000X-0.476314X-0.275000X0.476314X0*%
%ADD22HorizOval,0.900000X0.200000X-0.346410X-0.200000X0.346410X0*%
%ADD23RoundRect,0.250000X-1.248893X-0.700636X0.731255X-1.231215X1.248893X0.700636X-0.731255X1.231215X0*%
%ADD24RoundRect,0.250000X-1.387676X-0.353525X0.387676X-1.378525X1.387676X0.353525X-0.387676X1.378525X0*%
%ADD25R,0.900000X1.200000*%
%ADD26RoundRect,0.100000X0.100000X-0.637500X0.100000X0.637500X-0.100000X0.637500X-0.100000X-0.637500X0*%
%ADD27C,0.939800*%
%ADD28R,1.498600X0.711200*%
%ADD29R,0.812800X0.990600*%
G04 APERTURE END LIST*
D10*
%TO.C,*%
X242756872Y-113150000D03*
%TD*%
%TO.C,*%
X243350622Y-113150000D03*
%TD*%
%TO.C,*%
X238600622Y-113150000D03*
%TD*%
%TO.C,*%
X239194372Y-113150000D03*
%TD*%
%TO.C,*%
X241569372Y-113150000D03*
%TD*%
%TO.C,*%
X242163122Y-113150000D03*
%TD*%
%TO.C,*%
X240975622Y-113150000D03*
%TD*%
%TO.C,*%
X239788122Y-113150000D03*
%TD*%
%TO.C,*%
X240381872Y-113150000D03*
%TD*%
%TO.C,*%
X273500000Y-113150000D03*
%TD*%
%TO.C,*%
X274093750Y-113150000D03*
%TD*%
%TO.C,*%
X269343750Y-113150000D03*
%TD*%
%TO.C,*%
X269937500Y-113150000D03*
%TD*%
%TO.C,*%
X272312500Y-113150000D03*
%TD*%
%TO.C,*%
X272906250Y-113150000D03*
%TD*%
%TO.C,*%
X271718750Y-113150000D03*
%TD*%
%TO.C,*%
X270531250Y-113150000D03*
%TD*%
%TO.C,*%
X271125000Y-113150000D03*
%TD*%
%TO.C,*%
X71756872Y-113150000D03*
%TD*%
%TO.C,*%
X72350622Y-113150000D03*
%TD*%
%TO.C,*%
X67600622Y-113150000D03*
%TD*%
%TO.C,*%
X68194372Y-113150000D03*
%TD*%
%TO.C,*%
X70569372Y-113150000D03*
%TD*%
%TO.C,*%
X71163122Y-113150000D03*
%TD*%
%TO.C,*%
X69975622Y-113150000D03*
%TD*%
%TO.C,*%
X68788122Y-113150000D03*
%TD*%
%TO.C,*%
X69381872Y-113150000D03*
%TD*%
%TO.C,*%
X211430628Y-55850000D03*
%TD*%
%TO.C,*%
X41256872Y-113150000D03*
%TD*%
D11*
%TO.C,SW13*%
X212000000Y-99000000D03*
D12*
X206500000Y-99000000D03*
D13*
X207000000Y-104150000D03*
D14*
X217000000Y-95200000D03*
X212000000Y-93100000D03*
D12*
X217500000Y-99000000D03*
D15*
X208500000Y-93000000D03*
X220500000Y-95200000D03*
%TD*%
D13*
%TO.C,SW25*%
X94000000Y-104150000D03*
D14*
X104000000Y-95200000D03*
D12*
X104500000Y-99000000D03*
D14*
X99000000Y-93100000D03*
D12*
X93500000Y-99000000D03*
D11*
X99000000Y-99000000D03*
D15*
X95500000Y-93000000D03*
X107500000Y-95200000D03*
%TD*%
D14*
%TO.C,SW17*%
X86000000Y-92200000D03*
D11*
X81000000Y-96000000D03*
D12*
X75500000Y-96000000D03*
D13*
X76000000Y-101150000D03*
D12*
X86500000Y-96000000D03*
D14*
X81000000Y-90100000D03*
D15*
X77500000Y-90000000D03*
X89500000Y-92200000D03*
%TD*%
D10*
%TO.C,*%
X38881872Y-113150000D03*
%TD*%
%TO.C,*%
X60649378Y-55850000D03*
%TD*%
%TO.C,*%
X99618128Y-55850000D03*
%TD*%
D11*
%TO.C,SW23*%
X99000000Y-65000000D03*
D13*
X94000000Y-70150000D03*
D12*
X93500000Y-65000000D03*
X104500000Y-65000000D03*
D14*
X104000000Y-61200000D03*
X99000000Y-59100000D03*
D15*
X95500000Y-59000000D03*
X107500000Y-61200000D03*
%TD*%
D10*
%TO.C,*%
X65399378Y-55850000D03*
%TD*%
D16*
%TO.C,J2*%
X147777813Y-112700737D03*
X142772187Y-109810737D03*
D17*
X141293770Y-109511429D03*
D18*
X150861230Y-110220103D03*
D17*
X148776230Y-113831429D03*
D18*
X143378770Y-105900103D03*
%TD*%
D10*
%TO.C,*%
X212024378Y-55850000D03*
%TD*%
D14*
%TO.C,SW21*%
X230000000Y-90100000D03*
D12*
X235500000Y-96000000D03*
D14*
X235000000Y-92200000D03*
D11*
X230000000Y-96000000D03*
D12*
X224500000Y-96000000D03*
D13*
X225000000Y-101150000D03*
D15*
X226500000Y-90000000D03*
X238500000Y-92200000D03*
%TD*%
D10*
%TO.C,*%
X247430628Y-55850000D03*
%TD*%
D14*
%TO.C,SW19*%
X230000000Y-56100000D03*
D11*
X230000000Y-62000000D03*
D14*
X235000000Y-58200000D03*
D13*
X225000000Y-67150000D03*
D12*
X224500000Y-62000000D03*
X235500000Y-62000000D03*
D15*
X226500000Y-56000000D03*
X238500000Y-58200000D03*
%TD*%
D10*
%TO.C,*%
X62430628Y-55850000D03*
%TD*%
%TO.C,*%
X249805628Y-55850000D03*
%TD*%
D12*
%TO.C,SW34*%
X271500000Y-70000000D03*
D11*
X266000000Y-70000000D03*
D14*
X266000000Y-64100000D03*
D12*
X260500000Y-70000000D03*
D14*
X271000000Y-66200000D03*
D13*
X261000000Y-75150000D03*
D15*
X262500000Y-64000000D03*
X274500000Y-66200000D03*
%TD*%
D10*
%TO.C,*%
X37694372Y-113150000D03*
%TD*%
%TO.C,*%
X249211878Y-55850000D03*
%TD*%
D14*
%TO.C,SW35*%
X271000000Y-83200000D03*
X266000000Y-81100000D03*
D13*
X261000000Y-92150000D03*
D12*
X271500000Y-87000000D03*
D11*
X266000000Y-87000000D03*
D12*
X260500000Y-87000000D03*
D15*
X262500000Y-81000000D03*
X274500000Y-83200000D03*
%TD*%
D14*
%TO.C,SW29*%
X248000000Y-93100000D03*
D13*
X243000000Y-104150000D03*
D11*
X248000000Y-99000000D03*
D12*
X253500000Y-99000000D03*
D14*
X253000000Y-95200000D03*
D12*
X242500000Y-99000000D03*
D15*
X244500000Y-93000000D03*
X256500000Y-95200000D03*
%TD*%
D14*
%TO.C,SW7*%
X182430127Y-119209103D03*
X177050000Y-119890450D03*
D11*
X180000000Y-125000000D03*
D13*
X178244873Y-131960031D03*
D12*
X184763140Y-122250000D03*
X175236860Y-127750000D03*
D19*
X173968911Y-121553848D03*
X185461216Y-117459103D03*
%TD*%
D12*
%TO.C,SW22*%
X228500000Y-118000000D03*
X217500000Y-118000000D03*
D13*
X218000000Y-123150000D03*
D14*
X223000000Y-112100000D03*
X228000000Y-114200000D03*
D11*
X223000000Y-118000000D03*
D15*
X219500000Y-112000000D03*
X231500000Y-114200000D03*
%TD*%
D10*
%TO.C,*%
X61836878Y-55850000D03*
%TD*%
%TO.C,*%
X63618128Y-55850000D03*
%TD*%
%TO.C,*%
X97836878Y-55850000D03*
%TD*%
%TO.C,*%
X248024378Y-55850000D03*
%TD*%
D14*
%TO.C,SW2*%
X50000000Y-83200000D03*
D12*
X39500000Y-87000000D03*
D11*
X45000000Y-87000000D03*
D14*
X45000000Y-81100000D03*
D13*
X40000000Y-92150000D03*
D12*
X50500000Y-87000000D03*
D15*
X41500000Y-81000000D03*
X53500000Y-83200000D03*
%TD*%
D10*
%TO.C,*%
X37100622Y-113150000D03*
%TD*%
D12*
%TO.C,SW10*%
X57500000Y-99000000D03*
D14*
X63000000Y-93100000D03*
D13*
X58000000Y-104150000D03*
D12*
X68500000Y-99000000D03*
D11*
X63000000Y-99000000D03*
D14*
X68000000Y-95200000D03*
D15*
X59500000Y-93000000D03*
X71500000Y-95200000D03*
%TD*%
D13*
%TO.C,SW32*%
X112000000Y-107150000D03*
D12*
X122500000Y-102000000D03*
D14*
X117000000Y-96100000D03*
D12*
X111500000Y-102000000D03*
D11*
X117000000Y-102000000D03*
D14*
X122000000Y-98200000D03*
D15*
X113500000Y-96000000D03*
X125500000Y-98200000D03*
%TD*%
D10*
%TO.C,*%
X39475622Y-113150000D03*
%TD*%
%TO.C,*%
X61243128Y-55850000D03*
%TD*%
%TO.C,*%
X99024378Y-55850000D03*
%TD*%
%TO.C,*%
X210243128Y-55850000D03*
%TD*%
%TO.C,*%
X96649378Y-55850000D03*
%TD*%
%TO.C,*%
X63024378Y-55850000D03*
%TD*%
%TO.C,*%
X213211878Y-55850000D03*
%TD*%
D12*
%TO.C,SW31*%
X122500000Y-85000000D03*
D14*
X122000000Y-81200000D03*
D13*
X112000000Y-90150000D03*
D12*
X111500000Y-85000000D03*
D11*
X117000000Y-85000000D03*
D14*
X117000000Y-79100000D03*
D15*
X113500000Y-79000000D03*
X125500000Y-81200000D03*
%TD*%
D14*
%TO.C,SW14*%
X200472968Y-115301038D03*
D13*
X198503289Y-127268613D03*
D14*
X205846117Y-116035387D03*
D12*
X207312592Y-119576495D03*
D11*
X202000000Y-121000000D03*
D12*
X196687408Y-122423505D03*
D20*
X197066345Y-116110312D03*
X209226857Y-115129520D03*
%TD*%
D14*
%TO.C,SW15*%
X86000000Y-58200000D03*
X81000000Y-56100000D03*
D12*
X75500000Y-62000000D03*
D13*
X76000000Y-67150000D03*
D11*
X81000000Y-62000000D03*
D12*
X86500000Y-62000000D03*
D15*
X77500000Y-56000000D03*
X89500000Y-58200000D03*
%TD*%
D10*
%TO.C,*%
X97243128Y-55850000D03*
%TD*%
%TO.C,*%
X213805628Y-55850000D03*
%TD*%
D13*
%TO.C,SW28*%
X243000000Y-87150000D03*
D14*
X248000000Y-76100000D03*
D12*
X253500000Y-82000000D03*
D11*
X248000000Y-82000000D03*
D12*
X242500000Y-82000000D03*
D14*
X253000000Y-78200000D03*
D15*
X244500000Y-76000000D03*
X256500000Y-78200000D03*
%TD*%
D10*
%TO.C,*%
X40069372Y-113150000D03*
%TD*%
D14*
%TO.C,SW20*%
X235000000Y-75200000D03*
D11*
X230000000Y-79000000D03*
D14*
X230000000Y-73100000D03*
D12*
X224500000Y-79000000D03*
X235500000Y-79000000D03*
D13*
X225000000Y-84150000D03*
D15*
X226500000Y-73000000D03*
X238500000Y-75200000D03*
%TD*%
D10*
%TO.C,*%
X98430628Y-55850000D03*
%TD*%
D13*
%TO.C,SW3*%
X40000000Y-109150000D03*
D12*
X39500000Y-104000000D03*
D11*
X45000000Y-104000000D03*
D14*
X50000000Y-100200000D03*
D12*
X50500000Y-104000000D03*
D14*
X45000000Y-98100000D03*
D15*
X41500000Y-98000000D03*
X53500000Y-100200000D03*
%TD*%
D12*
%TO.C,SW4*%
X188500000Y-68000000D03*
X199500000Y-68000000D03*
D14*
X194000000Y-62100000D03*
D13*
X189000000Y-73150000D03*
D11*
X194000000Y-68000000D03*
D14*
X199000000Y-64200000D03*
D15*
X190500000Y-62000000D03*
X202500000Y-64200000D03*
%TD*%
D10*
%TO.C,*%
X101399378Y-55850000D03*
%TD*%
D14*
%TO.C,SW5*%
X194000000Y-79100000D03*
D11*
X194000000Y-85000000D03*
D13*
X189000000Y-90150000D03*
D12*
X199500000Y-85000000D03*
X188500000Y-85000000D03*
D14*
X199000000Y-81200000D03*
D15*
X190500000Y-79000000D03*
X202500000Y-81200000D03*
%TD*%
D14*
%TO.C,SW8*%
X68000000Y-61200000D03*
D11*
X63000000Y-65000000D03*
D13*
X58000000Y-70150000D03*
D12*
X57500000Y-65000000D03*
X68500000Y-65000000D03*
D14*
X63000000Y-59100000D03*
D15*
X59500000Y-59000000D03*
X71500000Y-61200000D03*
%TD*%
D10*
%TO.C,*%
X214399378Y-55850000D03*
%TD*%
%TO.C,*%
X41850622Y-113150000D03*
%TD*%
D12*
%TO.C,SW1*%
X39500000Y-70000000D03*
D14*
X50000000Y-66200000D03*
D13*
X40000000Y-75150000D03*
D12*
X50500000Y-70000000D03*
D11*
X45000000Y-70000000D03*
D14*
X45000000Y-64100000D03*
D15*
X41500000Y-64000000D03*
X53500000Y-66200000D03*
%TD*%
D11*
%TO.C,SW9*%
X63000000Y-82000000D03*
D14*
X68000000Y-78200000D03*
D12*
X68500000Y-82000000D03*
D13*
X58000000Y-87150000D03*
D14*
X63000000Y-76100000D03*
D12*
X57500000Y-82000000D03*
D15*
X59500000Y-76000000D03*
X71500000Y-78200000D03*
%TD*%
D10*
%TO.C,*%
X40663122Y-113150000D03*
%TD*%
D11*
%TO.C,SW24*%
X99000000Y-82000000D03*
D13*
X94000000Y-87150000D03*
D12*
X93500000Y-82000000D03*
X104500000Y-82000000D03*
D14*
X104000000Y-78200000D03*
X99000000Y-76100000D03*
D15*
X95500000Y-76000000D03*
X107500000Y-78200000D03*
%TD*%
D10*
%TO.C,*%
X100211878Y-55850000D03*
%TD*%
%TO.C,*%
X246243128Y-55850000D03*
%TD*%
D12*
%TO.C,SW36*%
X271500000Y-104000000D03*
D14*
X271000000Y-100200000D03*
X266000000Y-98100000D03*
D12*
X260500000Y-104000000D03*
D13*
X261000000Y-109150000D03*
D11*
X266000000Y-104000000D03*
D15*
X262500000Y-98000000D03*
X274500000Y-100200000D03*
%TD*%
D10*
%TO.C,*%
X209649378Y-55850000D03*
%TD*%
%TO.C,*%
X212618128Y-55850000D03*
%TD*%
%TO.C,*%
X38288122Y-113150000D03*
%TD*%
D14*
%TO.C,SW6*%
X194000000Y-96100000D03*
D11*
X194000000Y-102000000D03*
D12*
X188500000Y-102000000D03*
X199500000Y-102000000D03*
D14*
X199000000Y-98200000D03*
D13*
X189000000Y-107150000D03*
D15*
X190500000Y-96000000D03*
X202500000Y-98200000D03*
%TD*%
D10*
%TO.C,*%
X64211878Y-55850000D03*
%TD*%
D16*
%TO.C,J3*%
X168005626Y-109810737D03*
X163000000Y-112700737D03*
D21*
X169484043Y-109511429D03*
D22*
X167399043Y-105900103D03*
D21*
X162001583Y-113831429D03*
D22*
X159916583Y-110220103D03*
%TD*%
D10*
%TO.C,*%
X100805628Y-55850000D03*
%TD*%
D13*
%TO.C,SW11*%
X207000000Y-70150000D03*
D12*
X217500000Y-65000000D03*
D11*
X212000000Y-65000000D03*
D14*
X212000000Y-59100000D03*
X217000000Y-61200000D03*
D12*
X206500000Y-65000000D03*
D15*
X208500000Y-59000000D03*
X220500000Y-61200000D03*
%TD*%
D10*
%TO.C,*%
X210836878Y-55850000D03*
%TD*%
%TO.C,*%
X245649378Y-55850000D03*
%TD*%
D11*
%TO.C,SW12*%
X212000000Y-82000000D03*
D13*
X207000000Y-87150000D03*
D14*
X217000000Y-78200000D03*
X212000000Y-76100000D03*
D12*
X217500000Y-82000000D03*
X206500000Y-82000000D03*
D15*
X208500000Y-76000000D03*
X220500000Y-78200000D03*
%TD*%
D11*
%TO.C,SW30*%
X117000000Y-68000000D03*
D14*
X122000000Y-64200000D03*
D13*
X112000000Y-73150000D03*
D12*
X122500000Y-68000000D03*
X111500000Y-68000000D03*
D14*
X117000000Y-62100000D03*
D15*
X113500000Y-62000000D03*
X125500000Y-64200000D03*
%TD*%
D11*
%TO.C,SW27*%
X248000000Y-65000000D03*
D13*
X243000000Y-70150000D03*
D14*
X248000000Y-59100000D03*
D12*
X253500000Y-65000000D03*
D14*
X253000000Y-61200000D03*
D12*
X242500000Y-65000000D03*
D15*
X244500000Y-59000000D03*
X256500000Y-61200000D03*
%TD*%
D14*
%TO.C,SW18*%
X93000000Y-114200000D03*
D12*
X82500000Y-118000000D03*
D11*
X88000000Y-118000000D03*
D12*
X93500000Y-118000000D03*
D14*
X88000000Y-112100000D03*
D13*
X83000000Y-123150000D03*
D15*
X84500000Y-112000000D03*
X96500000Y-114200000D03*
%TD*%
D14*
%TO.C,SW16*%
X81000000Y-73100000D03*
D11*
X81000000Y-79000000D03*
D12*
X75500000Y-79000000D03*
X86500000Y-79000000D03*
D14*
X86000000Y-75200000D03*
D13*
X76000000Y-84150000D03*
D15*
X77500000Y-73000000D03*
X89500000Y-75200000D03*
%TD*%
D10*
%TO.C,*%
X246836878Y-55850000D03*
%TD*%
D13*
%TO.C,SW26*%
X102837453Y-124680423D03*
D12*
X103687408Y-119576495D03*
D14*
X114813142Y-118623577D03*
D12*
X114312592Y-122423505D03*
D14*
X110527032Y-115301038D03*
D11*
X109000000Y-121000000D03*
D23*
X107172174Y-114298578D03*
X118193882Y-119529444D03*
%TD*%
D10*
%TO.C,*%
X64805628Y-55850000D03*
%TD*%
%TO.C,*%
X250399378Y-55850000D03*
%TD*%
%TO.C,*%
X248618128Y-55850000D03*
%TD*%
D14*
%TO.C,SW33*%
X137230127Y-124209103D03*
X133950000Y-119890450D03*
D13*
X124094873Y-126960031D03*
D12*
X135763140Y-127750000D03*
X126236860Y-122250000D03*
D11*
X131000000Y-125000000D03*
D24*
X130968911Y-118053848D03*
X140261216Y-125959103D03*
%TD*%
D25*
%TO.C,D32*%
X115350000Y-106000000D03*
X118650000Y-106000000D03*
%TD*%
%TO.C,D17*%
X79350000Y-100000000D03*
X82650000Y-100000000D03*
%TD*%
%TO.C,D27*%
X246350000Y-69000000D03*
X249650000Y-69000000D03*
%TD*%
%TO.C,D5*%
X192350000Y-89000000D03*
X195650000Y-89000000D03*
%TD*%
%TO.C,D26*%
X107350000Y-125000000D03*
X110650000Y-125000000D03*
%TD*%
%TO.C,D31*%
X115350000Y-89000000D03*
X118650000Y-89000000D03*
%TD*%
%TO.C,D22*%
X221350000Y-122000000D03*
X224650000Y-122000000D03*
%TD*%
D26*
%TO.C,U2*%
X136525000Y-73862500D03*
X135875000Y-73862500D03*
X135225000Y-73862500D03*
X134575000Y-73862500D03*
X133925000Y-73862500D03*
X133275000Y-73862500D03*
X132625000Y-73862500D03*
X131975000Y-73862500D03*
X131975000Y-68137500D03*
X132625000Y-68137500D03*
X133275000Y-68137500D03*
X133925000Y-68137500D03*
X134575000Y-68137500D03*
X135225000Y-68137500D03*
X135875000Y-68137500D03*
X136525000Y-68137500D03*
%TD*%
D25*
%TO.C,D19*%
X228350000Y-66000000D03*
X231650000Y-66000000D03*
%TD*%
%TO.C,D28*%
X246350000Y-86000000D03*
X249650000Y-86000000D03*
%TD*%
%TO.C,D36*%
X264350000Y-108000000D03*
X267650000Y-108000000D03*
%TD*%
%TO.C,D15*%
X79350000Y-66000000D03*
X82650000Y-66000000D03*
%TD*%
%TO.C,D9*%
X61350000Y-86000000D03*
X64650000Y-86000000D03*
%TD*%
%TO.C,D16*%
X79350000Y-83000000D03*
X82650000Y-83000000D03*
%TD*%
%TO.C,D4*%
X192350000Y-72000000D03*
X195650000Y-72000000D03*
%TD*%
%TO.C,D30*%
X115350000Y-72000000D03*
X118650000Y-72000000D03*
%TD*%
D27*
%TO.C,SW38*%
X142198099Y-81000000D03*
X142198099Y-84000000D03*
D28*
X140448100Y-80249999D03*
X140448100Y-83250001D03*
X140448100Y-84750001D03*
D29*
X141148101Y-78850000D03*
X141148101Y-86150000D03*
X143248100Y-78850000D03*
X143248100Y-86150000D03*
%TD*%
D25*
%TO.C,D6*%
X192350000Y-106000000D03*
X195650000Y-106000000D03*
%TD*%
%TO.C,D35*%
X264350000Y-91000000D03*
X267650000Y-91000000D03*
%TD*%
%TO.C,D3*%
X43350000Y-108000000D03*
X46650000Y-108000000D03*
%TD*%
%TO.C,D29*%
X246350000Y-103000000D03*
X249650000Y-103000000D03*
%TD*%
%TO.C,D12*%
X210350000Y-86000000D03*
X213650000Y-86000000D03*
%TD*%
%TO.C,D14*%
X200350000Y-125000000D03*
X203650000Y-125000000D03*
%TD*%
%TO.C,D34*%
X264350000Y-74000000D03*
X267650000Y-74000000D03*
%TD*%
%TO.C,D21*%
X228350000Y-100000000D03*
X231650000Y-100000000D03*
%TD*%
%TO.C,D10*%
X61350000Y-103000000D03*
X64650000Y-103000000D03*
%TD*%
%TO.C,D2*%
X43350000Y-91000000D03*
X46650000Y-91000000D03*
%TD*%
%TO.C,D1*%
X43350000Y-74000000D03*
X46650000Y-74000000D03*
%TD*%
%TO.C,D8*%
X61350000Y-69000000D03*
X64650000Y-69000000D03*
%TD*%
%TO.C,D25*%
X97350000Y-103000000D03*
X100650000Y-103000000D03*
%TD*%
%TO.C,D11*%
X210350000Y-69000000D03*
X213650000Y-69000000D03*
%TD*%
%TO.C,D18*%
X86350000Y-122000000D03*
X89650000Y-122000000D03*
%TD*%
%TO.C,D7*%
X178350000Y-129000000D03*
X181650000Y-129000000D03*
%TD*%
%TO.C,D33*%
X129350000Y-129000000D03*
X132650000Y-129000000D03*
%TD*%
%TO.C,D23*%
X97350000Y-69000000D03*
X100650000Y-69000000D03*
%TD*%
%TO.C,D20*%
X228350000Y-83000000D03*
X231650000Y-83000000D03*
%TD*%
%TO.C,D13*%
X210350000Y-103000000D03*
X213650000Y-103000000D03*
%TD*%
%TO.C,D24*%
X97350000Y-86000000D03*
X100650000Y-86000000D03*
%TD*%
M02*
