%TF.GenerationSoftware,KiCad,Pcbnew,(6.0.8-1)-1*%
%TF.CreationDate,2022-11-15T13:56:26-05:00*%
%TF.ProjectId,kb2,6b62322e-6b69-4636-9164-5f7063625858,rev?*%
%TF.SameCoordinates,Original*%
%TF.FileFunction,Profile,NP*%
%FSLAX46Y46*%
G04 Gerber Fmt 4.6, Leading zero omitted, Abs format (unit mm)*
G04 Created by KiCad (PCBNEW (6.0.8-1)-1) date 2022-11-15 13:56:26*
%MOMM*%
%LPD*%
G01*
G04 APERTURE LIST*
%TA.AperFunction,Profile*%
%ADD10C,0.100000*%
%TD*%
G04 APERTURE END LIST*
D10*
X184000000Y-146000000D02*
X127000000Y-146000000D01*
X238500000Y-116000000D02*
X238500000Y-129000000D01*
X214000000Y-130000000D02*
X237500000Y-130000000D01*
X237500000Y-130000000D02*
G75*
G03*
X238500000Y-129000000I0J1000000D01*
G01*
X184000000Y-146000000D02*
X214000000Y-130000000D01*
X97000000Y-130000000D02*
X127000000Y-146000000D01*
X73500000Y-130000000D02*
X97000000Y-130000000D01*
X258000000Y-57000000D02*
G75*
G03*
X257000000Y-56000000I-999999J1D01*
G01*
X239000000Y-55000000D02*
G75*
G03*
X240000000Y-56000000I999999J-1D01*
G01*
X239000000Y-54000000D02*
G75*
G03*
X238000000Y-53000000I-999999J1D01*
G01*
X222000000Y-53000000D02*
G75*
G03*
X221000000Y-54000000I-1J-999999D01*
G01*
X220000000Y-56000000D02*
G75*
G03*
X221000000Y-55000000I1J999999D01*
G01*
X204000000Y-56000000D02*
G75*
G03*
X203000000Y-57000000I-1J-999999D01*
G01*
X202000000Y-59000000D02*
G75*
G03*
X203000000Y-58000000I1J999999D01*
G01*
X108000000Y-58000000D02*
G75*
G03*
X109000000Y-59000000I999999J-1D01*
G01*
X108000000Y-57000000D02*
G75*
G03*
X107000000Y-56000000I-999999J1D01*
G01*
X90000000Y-55000000D02*
G75*
G03*
X91000000Y-56000000I999999J-1D01*
G01*
X90000000Y-54000000D02*
G75*
G03*
X89000000Y-53000000I-999999J1D01*
G01*
X73000000Y-53000000D02*
G75*
G03*
X72000000Y-54000000I-1J-999999D01*
G01*
X71000000Y-56000000D02*
G75*
G03*
X72000000Y-55000000I1J999999D01*
G01*
X54000000Y-56000000D02*
G75*
G03*
X53000000Y-57000000I-1J-999999D01*
G01*
X52000000Y-61000000D02*
G75*
G03*
X53000000Y-60000000I1J999999D01*
G01*
X36000000Y-61000000D02*
G75*
G03*
X35000000Y-62000000I-1J-999999D01*
G01*
X275000000Y-51000000D02*
G75*
G03*
X276000000Y-50000000I1J999999D01*
G01*
X276000000Y-45500000D02*
G75*
G03*
X275000000Y-44500000I-999999J1D01*
G01*
X36000000Y-44500000D02*
G75*
G03*
X35000000Y-45500000I-1J-999999D01*
G01*
X35000000Y-50000000D02*
G75*
G03*
X36000000Y-51000000I999999J-1D01*
G01*
X276000000Y-62000000D02*
G75*
G03*
X275000000Y-61000000I-1000000J0D01*
G01*
X168000000Y-59000000D02*
G75*
G03*
X167000000Y-60000000I0J-1000000D01*
G01*
X166721411Y-103798735D02*
X167000000Y-103640000D01*
X167000000Y-103500000D02*
X167000000Y-103640000D01*
X144000000Y-60000000D02*
G75*
G03*
X143000000Y-59000000I-1000000J0D01*
G01*
X275000000Y-150500000D02*
G75*
G03*
X276000000Y-149500000I0J1000000D01*
G01*
X276000000Y-117000000D02*
G75*
G03*
X275000000Y-116000000I-1000000J0D01*
G01*
X274000000Y-115000000D02*
G75*
G03*
X275000000Y-116000000I1000000J0D01*
G01*
X275000000Y-113000000D02*
G75*
G03*
X276000000Y-112000000I0J1000000D01*
G01*
X274000000Y-113000000D02*
X275000000Y-113000000D01*
X274000000Y-113000000D02*
X274000000Y-115000000D01*
X72500000Y-129000000D02*
G75*
G03*
X73500000Y-130000000I1000000J0D01*
G01*
X35000000Y-149500000D02*
G75*
G03*
X36000000Y-150500000I1000000J0D01*
G01*
X36000000Y-116000000D02*
G75*
G03*
X35000000Y-117000000I0J-1000000D01*
G01*
X36000000Y-116000000D02*
G75*
G03*
X37000000Y-115000000I0J1000000D01*
G01*
X37000000Y-113000000D02*
X37000000Y-115000000D01*
X36000000Y-113000000D02*
X37000000Y-113000000D01*
X35000000Y-112000000D02*
G75*
G03*
X36000000Y-113000000I1000000J0D01*
G01*
X234000000Y-113000000D02*
G75*
G03*
X233000000Y-114000000I0J-1000000D01*
G01*
X268243128Y-116000000D02*
G75*
G03*
X269243128Y-115000000I0J1000000D01*
G01*
X243500000Y-115000000D02*
G75*
G03*
X244500000Y-116000000I1000000J0D01*
G01*
X232000000Y-127000000D02*
G75*
G03*
X233000000Y-126000000I0J1000000D01*
G01*
X177239999Y-141700000D02*
G75*
G03*
X179291972Y-142248860I1300000J749998D01*
G01*
X131698028Y-142258860D02*
G75*
G03*
X133750000Y-141710000I751972J1298860D01*
G01*
X78000000Y-126000000D02*
G75*
G03*
X79000000Y-127000000I1000000J0D01*
G01*
X78000000Y-113500000D02*
G75*
G03*
X77500000Y-113000000I-500000J0D01*
G01*
X66500000Y-116000000D02*
G75*
G03*
X67500000Y-115000000I0J1000000D01*
G01*
X42000000Y-115000000D02*
G75*
G03*
X43000000Y-116000000I1000000J0D01*
G01*
X275000000Y-150500000D02*
X36000000Y-150500000D01*
X72500000Y-129000000D02*
X72500000Y-116000000D01*
X268243128Y-116000000D02*
X244500000Y-116000000D01*
X43000000Y-116000000D02*
X66500000Y-116000000D01*
X209500000Y-52000000D02*
G75*
G03*
X208500000Y-51000000I-1000000J0D01*
G01*
X250500000Y-56000000D02*
X257000000Y-56000000D01*
X240000000Y-56000000D02*
X245500000Y-56000000D01*
X214500000Y-56000000D02*
X220000000Y-56000000D01*
X204000000Y-56000000D02*
X209500000Y-56000000D01*
X101500000Y-56000000D02*
X107000000Y-56000000D01*
X91000000Y-56000000D02*
X96500000Y-56000000D01*
X65500000Y-56000000D02*
X71000000Y-56000000D01*
X72500000Y-113000000D02*
X77500000Y-113000000D01*
X234000000Y-113000000D02*
X238500000Y-113000000D01*
X238500000Y-113000000D02*
X238500000Y-116000000D01*
X243500000Y-113000000D02*
X243500000Y-115000000D01*
X269243128Y-113000000D02*
X269243128Y-115000000D01*
X276000000Y-117000000D02*
X276000000Y-149500000D01*
X67500000Y-113000000D02*
X67500000Y-115000000D01*
X72500000Y-113000000D02*
X72500000Y-116000000D01*
X96500000Y-56000000D02*
X96500000Y-52000000D01*
X35000000Y-50000000D02*
X35000000Y-45500000D01*
X203000000Y-57000000D02*
X203000000Y-58000000D01*
X251500000Y-51000000D02*
G75*
G03*
X250500000Y-52000000I0J-1000000D01*
G01*
X204368034Y-73447225D02*
G75*
G03*
X204368034Y-73447225I-1118034J0D01*
G01*
X215500000Y-51000000D02*
X244500000Y-51000000D01*
X143995689Y-103798735D02*
X152717101Y-108828193D01*
X276000000Y-45500000D02*
X276000000Y-50000000D01*
X60500000Y-56000000D02*
X60500000Y-52000000D01*
X214000000Y-127000000D02*
X232000000Y-127000000D01*
X177240000Y-141700000D02*
X157999999Y-108828193D01*
X221000000Y-54000000D02*
X221000000Y-54000000D01*
X66500000Y-51000000D02*
G75*
G03*
X65500000Y-52000000I0J-1000000D01*
G01*
X66500000Y-51000000D02*
X95500000Y-51000000D01*
X108868034Y-73500000D02*
G75*
G03*
X108868034Y-73500000I-1118034J0D01*
G01*
X204368034Y-90447225D02*
G75*
G03*
X204368034Y-90447225I-1118034J0D01*
G01*
X245500000Y-52000000D02*
G75*
G03*
X244500000Y-51000000I-1000000J0D01*
G01*
X96500000Y-52000000D02*
G75*
G03*
X95500000Y-51000000I-1000000J0D01*
G01*
X144000000Y-103500000D02*
X144000000Y-60000000D01*
X257868034Y-73500000D02*
G75*
G03*
X257868034Y-73500000I-1118034J0D01*
G01*
X133750000Y-141710000D02*
X152717101Y-108828193D01*
X126868034Y-134302775D02*
G75*
G03*
X126868034Y-134302775I-1118034J0D01*
G01*
X108868034Y-90500000D02*
G75*
G03*
X108868034Y-90500000I-1118034J0D01*
G01*
X238000000Y-53000000D02*
X222000000Y-53000000D01*
X55368034Y-73552775D02*
G75*
G03*
X55368034Y-73552775I-1118034J0D01*
G01*
X36000000Y-51000000D02*
X59500000Y-51000000D01*
X243500000Y-113000000D02*
X269243128Y-113000000D01*
X214500000Y-56000000D02*
X214500000Y-52000000D01*
X167000000Y-60000000D02*
X167000000Y-103500000D01*
X221000000Y-54000000D02*
X221000000Y-55000000D01*
X108000000Y-58000000D02*
X108000000Y-57000000D01*
X42000000Y-113000000D02*
X67500000Y-113000000D01*
X250500000Y-56000000D02*
X250500000Y-52000000D01*
X72000000Y-54000000D02*
X72000000Y-55000000D01*
X239000000Y-55000000D02*
X239000000Y-54000000D01*
X251500000Y-51000000D02*
X275000000Y-51000000D01*
X79000000Y-127000000D02*
X97000000Y-127000000D01*
X55368034Y-90500000D02*
G75*
G03*
X55368034Y-90500000I-1118034J0D01*
G01*
X42000000Y-113000000D02*
X42000000Y-115000000D01*
X52000000Y-61000000D02*
X36000000Y-61000000D01*
X175618034Y-115500000D02*
G75*
G03*
X175618034Y-115500000I-1118034J0D01*
G01*
X202000000Y-59000000D02*
X168000000Y-59000000D01*
X65500000Y-56000000D02*
X65500000Y-52000000D01*
X35000000Y-62000000D02*
X35000000Y-112000000D01*
X215500000Y-51000000D02*
G75*
G03*
X214500000Y-52000000I0J-1000000D01*
G01*
X257868034Y-90447225D02*
G75*
G03*
X257868034Y-90447225I-1118034J0D01*
G01*
X186368034Y-134250000D02*
G75*
G03*
X186368034Y-134250000I-1118034J0D01*
G01*
X127000000Y-104500000D02*
X143000000Y-104500000D01*
X143000000Y-104500000D02*
X143000000Y-87500000D01*
X143000000Y-87500000D02*
X127000000Y-87500000D01*
X127000000Y-87500000D02*
X127000000Y-104500000D01*
X143000000Y-59000000D02*
X109000000Y-59000000D01*
X36000000Y-44500000D02*
X275000000Y-44500000D01*
X233000000Y-114000000D02*
X233000000Y-126000000D01*
X258000000Y-61000000D02*
X258000000Y-57000000D01*
X78000000Y-126000000D02*
X78000000Y-113500000D01*
X53000000Y-57000000D02*
X53000000Y-60000000D01*
X214000000Y-127000000D02*
X198717100Y-131000000D01*
X35000000Y-117000000D02*
X35000000Y-149500000D01*
X90000000Y-54000000D02*
X90000000Y-54000000D01*
X60500000Y-52000000D02*
G75*
G03*
X59500000Y-51000000I-1000000J0D01*
G01*
X137618034Y-115552775D02*
G75*
G03*
X137618034Y-115552775I-1118034J0D01*
G01*
X101500000Y-56000000D02*
X101500000Y-52000000D01*
X102500000Y-51000000D02*
X208500000Y-51000000D01*
X112000000Y-131000000D02*
X97000000Y-127000000D01*
X102500000Y-51000000D02*
G75*
G03*
X101500000Y-52000000I0J-1000000D01*
G01*
X198717100Y-131000000D02*
X179291972Y-142248860D01*
X131698028Y-142258860D02*
X112000000Y-131000000D01*
X60500000Y-56000000D02*
X54000000Y-56000000D01*
X89000000Y-53000000D02*
X73000000Y-53000000D01*
X209500000Y-56000000D02*
X209500000Y-52000000D01*
X157999999Y-108828193D02*
X166721411Y-103798735D01*
X90000000Y-55000000D02*
X90000000Y-54000000D01*
X276000000Y-112000000D02*
X276000000Y-62000000D01*
X275000000Y-61000000D02*
X258000000Y-61000000D01*
X144000000Y-103500000D02*
X143995689Y-103798735D01*
X245500000Y-56000000D02*
X245500000Y-52000000D01*
M02*
