M48
; DRILL file {KiCad (6.0.8-1)-1} date Tuesday, November 15, 2022 at 01:56:28 PM
; FORMAT={-:-/ absolute / metric / decimal}
; #@! TF.CreationDate,2022-11-15T13:56:28-05:00
; #@! TF.GenerationSoftware,Kicad,Pcbnew,(6.0.8-1)-1
; #@! TF.FileFunction,Plated,1,2,PTH
FMAT,2
METRIC
; #@! TA.AperFunction,Plated,PTH,ViaDrill
T1C0.400
; #@! TA.AperFunction,Plated,PTH,ComponentDrill
T2C0.600
%
G90
G05
T1
X41.75Y-63.75
X41.75Y-80.75
X41.75Y-97.75
X44.5Y-75.25
X59.5Y-59.0
X59.5Y-76.0
X59.5Y-93.0
X62.5Y-70.75
X66.25Y-84.35
X69.6Y-84.3
X69.85Y-97.8
X77.5Y-56.0
X77.5Y-73.0
X77.5Y-90.0
X79.1Y-70.15
X84.75Y-111.5
X90.5Y-113.2
X91.8Y-84.4
X95.5Y-59.0
X95.5Y-76.0
X95.5Y-93.0
X97.35Y-103.0
X98.25Y-72.25
X99.4Y-105.9
X107.172Y-114.299
X109.0Y-98.7
X109.2Y-76.2
X110.262Y-107.038
X110.8Y-63.675
X110.875Y-80.125
X111.5Y-81.325
X112.0Y-75.2
X112.402Y-112.998
X113.5Y-62.0
X113.5Y-79.0
X113.5Y-96.0
X114.0Y-116.6
X115.3Y-115.2
X115.75Y-72.5
X116.7Y-111.7
X121.024Y-104.28
X123.25Y-70.75
X123.9Y-105.1
X124.2Y-83.9
X124.375Y-73.45
X124.425Y-76.15
X127.875Y-71.075
X129.05Y-78.575
X129.05Y-81.525
X129.15Y-86.0
X129.25Y-69.3
X131.0Y-118.174
X131.025Y-77.493
X131.5Y-59.75
X131.825Y-70.6
X132.625Y-67.068
X133.125Y-78.825
X133.175Y-81.7
X133.334Y-72.5
X133.995Y-84.499
X134.4Y-72.5
X134.5Y-70.5
X134.7Y-65.3
X134.836Y-82.975
X135.3Y-81.0
X136.0Y-69.5
X136.0Y-70.5
X136.0Y-71.6
X136.0Y-80.1
X136.85Y-67.025
X138.625Y-83.675
X140.425Y-81.375
X146.675Y-111.725
X146.825Y-115.2
X163.8Y-114.825
X165.925Y-108.825
X169.301Y-111.411
X170.439Y-112.136
X170.775Y-107.475
X170.825Y-123.425
X172.072Y-112.803
X174.8Y-121.7
X190.825Y-78.575
X190.95Y-95.575
X191.15Y-61.775
X197.066Y-116.11
X200.35Y-125.0
X208.5Y-59.0
X208.5Y-76.0
X208.5Y-93.0
X219.5Y-112.0
X226.5Y-56.0
X226.5Y-73.0
X226.5Y-90.0
X226.725Y-102.475
X226.85Y-109.25
X228.35Y-108.225
X244.5Y-59.0
X244.5Y-76.0
X244.5Y-93.0
X246.35Y-103.0
X262.5Y-64.0
X262.5Y-81.0
X262.5Y-98.0
X264.35Y-108.0
T2
X141.569Y-109.035G85X141.019Y-109.988
G05
X143.579Y-105.554G85X143.179Y-106.247
G05
X149.051Y-113.355G85X148.501Y-114.308
G05
X151.061Y-109.874G85X150.661Y-110.567
G05
X159.717Y-109.874G85X160.117Y-110.567
G05
X161.727Y-113.355G85X162.277Y-114.308
G05
X167.199Y-105.554G85X167.599Y-106.247
G05
X169.209Y-109.035G85X169.759Y-109.988
G05
T0
M30
