%TF.GenerationSoftware,KiCad,Pcbnew,(6.0.8-1)-1*%
%TF.CreationDate,2022-11-15T13:56:25-05:00*%
%TF.ProjectId,kb2,6b62322e-6b69-4636-9164-5f7063625858,rev?*%
%TF.SameCoordinates,Original*%
%TF.FileFunction,Legend,Top*%
%TF.FilePolarity,Positive*%
%FSLAX46Y46*%
G04 Gerber Fmt 4.6, Leading zero omitted, Abs format (unit mm)*
G04 Created by KiCad (PCBNEW (6.0.8-1)-1) date 2022-11-15 13:56:25*
%MOMM*%
%LPD*%
G01*
G04 APERTURE LIST*
%ADD10C,0.150000*%
%ADD11C,0.101600*%
%ADD12C,0.076200*%
%ADD13C,0.120000*%
%ADD14C,0.066040*%
%ADD15C,0.127000*%
%ADD16C,0.254000*%
G04 APERTURE END LIST*
D10*
%TO.C,*%
%TO.C,SW13*%
X210190476Y-90404761D02*
X210333333Y-90452380D01*
X210571428Y-90452380D01*
X210666666Y-90404761D01*
X210714285Y-90357142D01*
X210761904Y-90261904D01*
X210761904Y-90166666D01*
X210714285Y-90071428D01*
X210666666Y-90023809D01*
X210571428Y-89976190D01*
X210380952Y-89928571D01*
X210285714Y-89880952D01*
X210238095Y-89833333D01*
X210190476Y-89738095D01*
X210190476Y-89642857D01*
X210238095Y-89547619D01*
X210285714Y-89500000D01*
X210380952Y-89452380D01*
X210619047Y-89452380D01*
X210761904Y-89500000D01*
X211095238Y-89452380D02*
X211333333Y-90452380D01*
X211523809Y-89738095D01*
X211714285Y-90452380D01*
X211952380Y-89452380D01*
X212857142Y-90452380D02*
X212285714Y-90452380D01*
X212571428Y-90452380D02*
X212571428Y-89452380D01*
X212476190Y-89595238D01*
X212380952Y-89690476D01*
X212285714Y-89738095D01*
X213190476Y-89452380D02*
X213809523Y-89452380D01*
X213476190Y-89833333D01*
X213619047Y-89833333D01*
X213714285Y-89880952D01*
X213761904Y-89928571D01*
X213809523Y-90023809D01*
X213809523Y-90261904D01*
X213761904Y-90357142D01*
X213714285Y-90404761D01*
X213619047Y-90452380D01*
X213333333Y-90452380D01*
X213238095Y-90404761D01*
X213190476Y-90357142D01*
%TO.C,SW25*%
X97190476Y-90404761D02*
X97333333Y-90452380D01*
X97571428Y-90452380D01*
X97666666Y-90404761D01*
X97714285Y-90357142D01*
X97761904Y-90261904D01*
X97761904Y-90166666D01*
X97714285Y-90071428D01*
X97666666Y-90023809D01*
X97571428Y-89976190D01*
X97380952Y-89928571D01*
X97285714Y-89880952D01*
X97238095Y-89833333D01*
X97190476Y-89738095D01*
X97190476Y-89642857D01*
X97238095Y-89547619D01*
X97285714Y-89500000D01*
X97380952Y-89452380D01*
X97619047Y-89452380D01*
X97761904Y-89500000D01*
X98095238Y-89452380D02*
X98333333Y-90452380D01*
X98523809Y-89738095D01*
X98714285Y-90452380D01*
X98952380Y-89452380D01*
X99285714Y-89547619D02*
X99333333Y-89500000D01*
X99428571Y-89452380D01*
X99666666Y-89452380D01*
X99761904Y-89500000D01*
X99809523Y-89547619D01*
X99857142Y-89642857D01*
X99857142Y-89738095D01*
X99809523Y-89880952D01*
X99238095Y-90452380D01*
X99857142Y-90452380D01*
X100761904Y-89452380D02*
X100285714Y-89452380D01*
X100238095Y-89928571D01*
X100285714Y-89880952D01*
X100380952Y-89833333D01*
X100619047Y-89833333D01*
X100714285Y-89880952D01*
X100761904Y-89928571D01*
X100809523Y-90023809D01*
X100809523Y-90261904D01*
X100761904Y-90357142D01*
X100714285Y-90404761D01*
X100619047Y-90452380D01*
X100380952Y-90452380D01*
X100285714Y-90404761D01*
X100238095Y-90357142D01*
%TO.C,SW17*%
X79190476Y-87404761D02*
X79333333Y-87452380D01*
X79571428Y-87452380D01*
X79666666Y-87404761D01*
X79714285Y-87357142D01*
X79761904Y-87261904D01*
X79761904Y-87166666D01*
X79714285Y-87071428D01*
X79666666Y-87023809D01*
X79571428Y-86976190D01*
X79380952Y-86928571D01*
X79285714Y-86880952D01*
X79238095Y-86833333D01*
X79190476Y-86738095D01*
X79190476Y-86642857D01*
X79238095Y-86547619D01*
X79285714Y-86500000D01*
X79380952Y-86452380D01*
X79619047Y-86452380D01*
X79761904Y-86500000D01*
X80095238Y-86452380D02*
X80333333Y-87452380D01*
X80523809Y-86738095D01*
X80714285Y-87452380D01*
X80952380Y-86452380D01*
X81857142Y-87452380D02*
X81285714Y-87452380D01*
X81571428Y-87452380D02*
X81571428Y-86452380D01*
X81476190Y-86595238D01*
X81380952Y-86690476D01*
X81285714Y-86738095D01*
X82190476Y-86452380D02*
X82857142Y-86452380D01*
X82428571Y-87452380D01*
%TO.C,*%
%TO.C,SW23*%
X97190476Y-56404761D02*
X97333333Y-56452380D01*
X97571428Y-56452380D01*
X97666666Y-56404761D01*
X97714285Y-56357142D01*
X97761904Y-56261904D01*
X97761904Y-56166666D01*
X97714285Y-56071428D01*
X97666666Y-56023809D01*
X97571428Y-55976190D01*
X97380952Y-55928571D01*
X97285714Y-55880952D01*
X97238095Y-55833333D01*
X97190476Y-55738095D01*
X97190476Y-55642857D01*
X97238095Y-55547619D01*
X97285714Y-55500000D01*
X97380952Y-55452380D01*
X97619047Y-55452380D01*
X97761904Y-55500000D01*
X98095238Y-55452380D02*
X98333333Y-56452380D01*
X98523809Y-55738095D01*
X98714285Y-56452380D01*
X98952380Y-55452380D01*
X99285714Y-55547619D02*
X99333333Y-55500000D01*
X99428571Y-55452380D01*
X99666666Y-55452380D01*
X99761904Y-55500000D01*
X99809523Y-55547619D01*
X99857142Y-55642857D01*
X99857142Y-55738095D01*
X99809523Y-55880952D01*
X99238095Y-56452380D01*
X99857142Y-56452380D01*
X100190476Y-55452380D02*
X100809523Y-55452380D01*
X100476190Y-55833333D01*
X100619047Y-55833333D01*
X100714285Y-55880952D01*
X100761904Y-55928571D01*
X100809523Y-56023809D01*
X100809523Y-56261904D01*
X100761904Y-56357142D01*
X100714285Y-56404761D01*
X100619047Y-56452380D01*
X100333333Y-56452380D01*
X100238095Y-56404761D01*
X100190476Y-56357142D01*
%TO.C,*%
%TO.C,J2*%
X143724865Y-114607314D02*
X144082008Y-113988725D01*
X144194676Y-113888816D01*
X144324774Y-113853957D01*
X144472301Y-113884146D01*
X144554780Y-113931765D01*
X143401330Y-114310550D02*
X143336282Y-114327980D01*
X143229993Y-114321600D01*
X143023797Y-114202552D01*
X142965128Y-114113694D01*
X142947698Y-114048645D01*
X142954078Y-113942357D01*
X143001697Y-113859878D01*
X143114365Y-113759970D01*
X143894951Y-113550813D01*
X143358840Y-113241289D01*
%TO.C,*%
%TO.C,SW21*%
X228190476Y-87404761D02*
X228333333Y-87452380D01*
X228571428Y-87452380D01*
X228666666Y-87404761D01*
X228714285Y-87357142D01*
X228761904Y-87261904D01*
X228761904Y-87166666D01*
X228714285Y-87071428D01*
X228666666Y-87023809D01*
X228571428Y-86976190D01*
X228380952Y-86928571D01*
X228285714Y-86880952D01*
X228238095Y-86833333D01*
X228190476Y-86738095D01*
X228190476Y-86642857D01*
X228238095Y-86547619D01*
X228285714Y-86500000D01*
X228380952Y-86452380D01*
X228619047Y-86452380D01*
X228761904Y-86500000D01*
X229095238Y-86452380D02*
X229333333Y-87452380D01*
X229523809Y-86738095D01*
X229714285Y-87452380D01*
X229952380Y-86452380D01*
X230285714Y-86547619D02*
X230333333Y-86500000D01*
X230428571Y-86452380D01*
X230666666Y-86452380D01*
X230761904Y-86500000D01*
X230809523Y-86547619D01*
X230857142Y-86642857D01*
X230857142Y-86738095D01*
X230809523Y-86880952D01*
X230238095Y-87452380D01*
X230857142Y-87452380D01*
X231809523Y-87452380D02*
X231238095Y-87452380D01*
X231523809Y-87452380D02*
X231523809Y-86452380D01*
X231428571Y-86595238D01*
X231333333Y-86690476D01*
X231238095Y-86738095D01*
%TO.C,*%
%TO.C,SW19*%
X228190476Y-53404761D02*
X228333333Y-53452380D01*
X228571428Y-53452380D01*
X228666666Y-53404761D01*
X228714285Y-53357142D01*
X228761904Y-53261904D01*
X228761904Y-53166666D01*
X228714285Y-53071428D01*
X228666666Y-53023809D01*
X228571428Y-52976190D01*
X228380952Y-52928571D01*
X228285714Y-52880952D01*
X228238095Y-52833333D01*
X228190476Y-52738095D01*
X228190476Y-52642857D01*
X228238095Y-52547619D01*
X228285714Y-52500000D01*
X228380952Y-52452380D01*
X228619047Y-52452380D01*
X228761904Y-52500000D01*
X229095238Y-52452380D02*
X229333333Y-53452380D01*
X229523809Y-52738095D01*
X229714285Y-53452380D01*
X229952380Y-52452380D01*
X230857142Y-53452380D02*
X230285714Y-53452380D01*
X230571428Y-53452380D02*
X230571428Y-52452380D01*
X230476190Y-52595238D01*
X230380952Y-52690476D01*
X230285714Y-52738095D01*
X231333333Y-53452380D02*
X231523809Y-53452380D01*
X231619047Y-53404761D01*
X231666666Y-53357142D01*
X231761904Y-53214285D01*
X231809523Y-53023809D01*
X231809523Y-52642857D01*
X231761904Y-52547619D01*
X231714285Y-52500000D01*
X231619047Y-52452380D01*
X231428571Y-52452380D01*
X231333333Y-52500000D01*
X231285714Y-52547619D01*
X231238095Y-52642857D01*
X231238095Y-52880952D01*
X231285714Y-52976190D01*
X231333333Y-53023809D01*
X231428571Y-53071428D01*
X231619047Y-53071428D01*
X231714285Y-53023809D01*
X231761904Y-52976190D01*
X231809523Y-52880952D01*
%TO.C,*%
%TO.C,SW34*%
X264190476Y-61404761D02*
X264333333Y-61452380D01*
X264571428Y-61452380D01*
X264666666Y-61404761D01*
X264714285Y-61357142D01*
X264761904Y-61261904D01*
X264761904Y-61166666D01*
X264714285Y-61071428D01*
X264666666Y-61023809D01*
X264571428Y-60976190D01*
X264380952Y-60928571D01*
X264285714Y-60880952D01*
X264238095Y-60833333D01*
X264190476Y-60738095D01*
X264190476Y-60642857D01*
X264238095Y-60547619D01*
X264285714Y-60500000D01*
X264380952Y-60452380D01*
X264619047Y-60452380D01*
X264761904Y-60500000D01*
X265095238Y-60452380D02*
X265333333Y-61452380D01*
X265523809Y-60738095D01*
X265714285Y-61452380D01*
X265952380Y-60452380D01*
X266238095Y-60452380D02*
X266857142Y-60452380D01*
X266523809Y-60833333D01*
X266666666Y-60833333D01*
X266761904Y-60880952D01*
X266809523Y-60928571D01*
X266857142Y-61023809D01*
X266857142Y-61261904D01*
X266809523Y-61357142D01*
X266761904Y-61404761D01*
X266666666Y-61452380D01*
X266380952Y-61452380D01*
X266285714Y-61404761D01*
X266238095Y-61357142D01*
X267714285Y-60785714D02*
X267714285Y-61452380D01*
X267476190Y-60404761D02*
X267238095Y-61119047D01*
X267857142Y-61119047D01*
%TO.C,*%
%TO.C,SW35*%
X264190476Y-78404761D02*
X264333333Y-78452380D01*
X264571428Y-78452380D01*
X264666666Y-78404761D01*
X264714285Y-78357142D01*
X264761904Y-78261904D01*
X264761904Y-78166666D01*
X264714285Y-78071428D01*
X264666666Y-78023809D01*
X264571428Y-77976190D01*
X264380952Y-77928571D01*
X264285714Y-77880952D01*
X264238095Y-77833333D01*
X264190476Y-77738095D01*
X264190476Y-77642857D01*
X264238095Y-77547619D01*
X264285714Y-77500000D01*
X264380952Y-77452380D01*
X264619047Y-77452380D01*
X264761904Y-77500000D01*
X265095238Y-77452380D02*
X265333333Y-78452380D01*
X265523809Y-77738095D01*
X265714285Y-78452380D01*
X265952380Y-77452380D01*
X266238095Y-77452380D02*
X266857142Y-77452380D01*
X266523809Y-77833333D01*
X266666666Y-77833333D01*
X266761904Y-77880952D01*
X266809523Y-77928571D01*
X266857142Y-78023809D01*
X266857142Y-78261904D01*
X266809523Y-78357142D01*
X266761904Y-78404761D01*
X266666666Y-78452380D01*
X266380952Y-78452380D01*
X266285714Y-78404761D01*
X266238095Y-78357142D01*
X267761904Y-77452380D02*
X267285714Y-77452380D01*
X267238095Y-77928571D01*
X267285714Y-77880952D01*
X267380952Y-77833333D01*
X267619047Y-77833333D01*
X267714285Y-77880952D01*
X267761904Y-77928571D01*
X267809523Y-78023809D01*
X267809523Y-78261904D01*
X267761904Y-78357142D01*
X267714285Y-78404761D01*
X267619047Y-78452380D01*
X267380952Y-78452380D01*
X267285714Y-78404761D01*
X267238095Y-78357142D01*
%TO.C,SW29*%
X246190476Y-90404761D02*
X246333333Y-90452380D01*
X246571428Y-90452380D01*
X246666666Y-90404761D01*
X246714285Y-90357142D01*
X246761904Y-90261904D01*
X246761904Y-90166666D01*
X246714285Y-90071428D01*
X246666666Y-90023809D01*
X246571428Y-89976190D01*
X246380952Y-89928571D01*
X246285714Y-89880952D01*
X246238095Y-89833333D01*
X246190476Y-89738095D01*
X246190476Y-89642857D01*
X246238095Y-89547619D01*
X246285714Y-89500000D01*
X246380952Y-89452380D01*
X246619047Y-89452380D01*
X246761904Y-89500000D01*
X247095238Y-89452380D02*
X247333333Y-90452380D01*
X247523809Y-89738095D01*
X247714285Y-90452380D01*
X247952380Y-89452380D01*
X248285714Y-89547619D02*
X248333333Y-89500000D01*
X248428571Y-89452380D01*
X248666666Y-89452380D01*
X248761904Y-89500000D01*
X248809523Y-89547619D01*
X248857142Y-89642857D01*
X248857142Y-89738095D01*
X248809523Y-89880952D01*
X248238095Y-90452380D01*
X248857142Y-90452380D01*
X249333333Y-90452380D02*
X249523809Y-90452380D01*
X249619047Y-90404761D01*
X249666666Y-90357142D01*
X249761904Y-90214285D01*
X249809523Y-90023809D01*
X249809523Y-89642857D01*
X249761904Y-89547619D01*
X249714285Y-89500000D01*
X249619047Y-89452380D01*
X249428571Y-89452380D01*
X249333333Y-89500000D01*
X249285714Y-89547619D01*
X249238095Y-89642857D01*
X249238095Y-89880952D01*
X249285714Y-89976190D01*
X249333333Y-90023809D01*
X249428571Y-90071428D01*
X249619047Y-90071428D01*
X249714285Y-90023809D01*
X249761904Y-89976190D01*
X249809523Y-89880952D01*
%TO.C,SW7*%
X174547680Y-118222971D02*
X174695207Y-118192782D01*
X174901404Y-118073734D01*
X174960073Y-117984876D01*
X174977503Y-117919827D01*
X174971123Y-117813539D01*
X174923504Y-117731060D01*
X174834646Y-117672391D01*
X174769597Y-117654962D01*
X174663309Y-117661341D01*
X174474542Y-117715340D01*
X174368254Y-117721720D01*
X174303205Y-117704290D01*
X174214347Y-117645621D01*
X174166728Y-117563142D01*
X174160348Y-117456854D01*
X174177778Y-117391805D01*
X174236447Y-117302947D01*
X174442643Y-117183899D01*
X174590171Y-117153710D01*
X174855036Y-116945804D02*
X175561233Y-117692782D01*
X175369047Y-116978954D01*
X175891147Y-117502306D01*
X175597344Y-116517233D01*
X175844780Y-116374376D02*
X176422130Y-116041042D01*
X176550976Y-117121353D01*
%TO.C,SW22*%
X221190476Y-109404761D02*
X221333333Y-109452380D01*
X221571428Y-109452380D01*
X221666666Y-109404761D01*
X221714285Y-109357142D01*
X221761904Y-109261904D01*
X221761904Y-109166666D01*
X221714285Y-109071428D01*
X221666666Y-109023809D01*
X221571428Y-108976190D01*
X221380952Y-108928571D01*
X221285714Y-108880952D01*
X221238095Y-108833333D01*
X221190476Y-108738095D01*
X221190476Y-108642857D01*
X221238095Y-108547619D01*
X221285714Y-108500000D01*
X221380952Y-108452380D01*
X221619047Y-108452380D01*
X221761904Y-108500000D01*
X222095238Y-108452380D02*
X222333333Y-109452380D01*
X222523809Y-108738095D01*
X222714285Y-109452380D01*
X222952380Y-108452380D01*
X223285714Y-108547619D02*
X223333333Y-108500000D01*
X223428571Y-108452380D01*
X223666666Y-108452380D01*
X223761904Y-108500000D01*
X223809523Y-108547619D01*
X223857142Y-108642857D01*
X223857142Y-108738095D01*
X223809523Y-108880952D01*
X223238095Y-109452380D01*
X223857142Y-109452380D01*
X224238095Y-108547619D02*
X224285714Y-108500000D01*
X224380952Y-108452380D01*
X224619047Y-108452380D01*
X224714285Y-108500000D01*
X224761904Y-108547619D01*
X224809523Y-108642857D01*
X224809523Y-108738095D01*
X224761904Y-108880952D01*
X224190476Y-109452380D01*
X224809523Y-109452380D01*
%TO.C,*%
%TO.C,SW2*%
X43666666Y-78404761D02*
X43809523Y-78452380D01*
X44047619Y-78452380D01*
X44142857Y-78404761D01*
X44190476Y-78357142D01*
X44238095Y-78261904D01*
X44238095Y-78166666D01*
X44190476Y-78071428D01*
X44142857Y-78023809D01*
X44047619Y-77976190D01*
X43857142Y-77928571D01*
X43761904Y-77880952D01*
X43714285Y-77833333D01*
X43666666Y-77738095D01*
X43666666Y-77642857D01*
X43714285Y-77547619D01*
X43761904Y-77500000D01*
X43857142Y-77452380D01*
X44095238Y-77452380D01*
X44238095Y-77500000D01*
X44571428Y-77452380D02*
X44809523Y-78452380D01*
X45000000Y-77738095D01*
X45190476Y-78452380D01*
X45428571Y-77452380D01*
X45761904Y-77547619D02*
X45809523Y-77500000D01*
X45904761Y-77452380D01*
X46142857Y-77452380D01*
X46238095Y-77500000D01*
X46285714Y-77547619D01*
X46333333Y-77642857D01*
X46333333Y-77738095D01*
X46285714Y-77880952D01*
X45714285Y-78452380D01*
X46333333Y-78452380D01*
%TO.C,*%
%TO.C,SW10*%
X61190476Y-90404761D02*
X61333333Y-90452380D01*
X61571428Y-90452380D01*
X61666666Y-90404761D01*
X61714285Y-90357142D01*
X61761904Y-90261904D01*
X61761904Y-90166666D01*
X61714285Y-90071428D01*
X61666666Y-90023809D01*
X61571428Y-89976190D01*
X61380952Y-89928571D01*
X61285714Y-89880952D01*
X61238095Y-89833333D01*
X61190476Y-89738095D01*
X61190476Y-89642857D01*
X61238095Y-89547619D01*
X61285714Y-89500000D01*
X61380952Y-89452380D01*
X61619047Y-89452380D01*
X61761904Y-89500000D01*
X62095238Y-89452380D02*
X62333333Y-90452380D01*
X62523809Y-89738095D01*
X62714285Y-90452380D01*
X62952380Y-89452380D01*
X63857142Y-90452380D02*
X63285714Y-90452380D01*
X63571428Y-90452380D02*
X63571428Y-89452380D01*
X63476190Y-89595238D01*
X63380952Y-89690476D01*
X63285714Y-89738095D01*
X64476190Y-89452380D02*
X64571428Y-89452380D01*
X64666666Y-89500000D01*
X64714285Y-89547619D01*
X64761904Y-89642857D01*
X64809523Y-89833333D01*
X64809523Y-90071428D01*
X64761904Y-90261904D01*
X64714285Y-90357142D01*
X64666666Y-90404761D01*
X64571428Y-90452380D01*
X64476190Y-90452380D01*
X64380952Y-90404761D01*
X64333333Y-90357142D01*
X64285714Y-90261904D01*
X64238095Y-90071428D01*
X64238095Y-89833333D01*
X64285714Y-89642857D01*
X64333333Y-89547619D01*
X64380952Y-89500000D01*
X64476190Y-89452380D01*
%TO.C,SW32*%
X115190476Y-93404761D02*
X115333333Y-93452380D01*
X115571428Y-93452380D01*
X115666666Y-93404761D01*
X115714285Y-93357142D01*
X115761904Y-93261904D01*
X115761904Y-93166666D01*
X115714285Y-93071428D01*
X115666666Y-93023809D01*
X115571428Y-92976190D01*
X115380952Y-92928571D01*
X115285714Y-92880952D01*
X115238095Y-92833333D01*
X115190476Y-92738095D01*
X115190476Y-92642857D01*
X115238095Y-92547619D01*
X115285714Y-92500000D01*
X115380952Y-92452380D01*
X115619047Y-92452380D01*
X115761904Y-92500000D01*
X116095238Y-92452380D02*
X116333333Y-93452380D01*
X116523809Y-92738095D01*
X116714285Y-93452380D01*
X116952380Y-92452380D01*
X117238095Y-92452380D02*
X117857142Y-92452380D01*
X117523809Y-92833333D01*
X117666666Y-92833333D01*
X117761904Y-92880952D01*
X117809523Y-92928571D01*
X117857142Y-93023809D01*
X117857142Y-93261904D01*
X117809523Y-93357142D01*
X117761904Y-93404761D01*
X117666666Y-93452380D01*
X117380952Y-93452380D01*
X117285714Y-93404761D01*
X117238095Y-93357142D01*
X118238095Y-92547619D02*
X118285714Y-92500000D01*
X118380952Y-92452380D01*
X118619047Y-92452380D01*
X118714285Y-92500000D01*
X118761904Y-92547619D01*
X118809523Y-92642857D01*
X118809523Y-92738095D01*
X118761904Y-92880952D01*
X118190476Y-93452380D01*
X118809523Y-93452380D01*
%TO.C,*%
%TO.C,SW37*%
X131190476Y-80354761D02*
X131333333Y-80402380D01*
X131571428Y-80402380D01*
X131666666Y-80354761D01*
X131714285Y-80307142D01*
X131761904Y-80211904D01*
X131761904Y-80116666D01*
X131714285Y-80021428D01*
X131666666Y-79973809D01*
X131571428Y-79926190D01*
X131380952Y-79878571D01*
X131285714Y-79830952D01*
X131238095Y-79783333D01*
X131190476Y-79688095D01*
X131190476Y-79592857D01*
X131238095Y-79497619D01*
X131285714Y-79450000D01*
X131380952Y-79402380D01*
X131619047Y-79402380D01*
X131761904Y-79450000D01*
X132095238Y-79402380D02*
X132333333Y-80402380D01*
X132523809Y-79688095D01*
X132714285Y-80402380D01*
X132952380Y-79402380D01*
X133238095Y-79402380D02*
X133857142Y-79402380D01*
X133523809Y-79783333D01*
X133666666Y-79783333D01*
X133761904Y-79830952D01*
X133809523Y-79878571D01*
X133857142Y-79973809D01*
X133857142Y-80211904D01*
X133809523Y-80307142D01*
X133761904Y-80354761D01*
X133666666Y-80402380D01*
X133380952Y-80402380D01*
X133285714Y-80354761D01*
X133238095Y-80307142D01*
X134190476Y-79402380D02*
X134857142Y-79402380D01*
X134428571Y-80402380D01*
%TO.C,*%
%TO.C,SW31*%
X115190476Y-76404761D02*
X115333333Y-76452380D01*
X115571428Y-76452380D01*
X115666666Y-76404761D01*
X115714285Y-76357142D01*
X115761904Y-76261904D01*
X115761904Y-76166666D01*
X115714285Y-76071428D01*
X115666666Y-76023809D01*
X115571428Y-75976190D01*
X115380952Y-75928571D01*
X115285714Y-75880952D01*
X115238095Y-75833333D01*
X115190476Y-75738095D01*
X115190476Y-75642857D01*
X115238095Y-75547619D01*
X115285714Y-75500000D01*
X115380952Y-75452380D01*
X115619047Y-75452380D01*
X115761904Y-75500000D01*
X116095238Y-75452380D02*
X116333333Y-76452380D01*
X116523809Y-75738095D01*
X116714285Y-76452380D01*
X116952380Y-75452380D01*
X117238095Y-75452380D02*
X117857142Y-75452380D01*
X117523809Y-75833333D01*
X117666666Y-75833333D01*
X117761904Y-75880952D01*
X117809523Y-75928571D01*
X117857142Y-76023809D01*
X117857142Y-76261904D01*
X117809523Y-76357142D01*
X117761904Y-76404761D01*
X117666666Y-76452380D01*
X117380952Y-76452380D01*
X117285714Y-76404761D01*
X117238095Y-76357142D01*
X118809523Y-76452380D02*
X118238095Y-76452380D01*
X118523809Y-76452380D02*
X118523809Y-75452380D01*
X118428571Y-75595238D01*
X118333333Y-75690476D01*
X118238095Y-75738095D01*
%TO.C,SW14*%
X198027523Y-113165977D02*
X198177837Y-113174999D01*
X198407819Y-113113375D01*
X198487487Y-113042730D01*
X198521159Y-112984408D01*
X198542506Y-112880091D01*
X198517857Y-112788098D01*
X198447211Y-112708430D01*
X198388890Y-112674758D01*
X198284572Y-112653411D01*
X198088262Y-112656713D01*
X197983944Y-112635366D01*
X197925623Y-112601694D01*
X197854977Y-112522026D01*
X197830327Y-112430033D01*
X197851674Y-112325716D01*
X197885346Y-112267394D01*
X197965014Y-112196748D01*
X198194997Y-112135125D01*
X198345311Y-112144147D01*
X198654961Y-112011878D02*
X199143763Y-112916180D01*
X199142878Y-112176934D01*
X199511734Y-112817582D01*
X199482898Y-111790033D01*
X200615650Y-112521789D02*
X200063692Y-112669686D01*
X200339671Y-112595737D02*
X200080852Y-111629812D01*
X200025833Y-111792450D01*
X199958490Y-111909093D01*
X199878821Y-111979739D01*
X201271040Y-111655994D02*
X201443586Y-112299944D01*
X200942460Y-111349645D02*
X200897348Y-112101216D01*
X201495303Y-111940995D01*
%TO.C,SW15*%
X79190476Y-53404761D02*
X79333333Y-53452380D01*
X79571428Y-53452380D01*
X79666666Y-53404761D01*
X79714285Y-53357142D01*
X79761904Y-53261904D01*
X79761904Y-53166666D01*
X79714285Y-53071428D01*
X79666666Y-53023809D01*
X79571428Y-52976190D01*
X79380952Y-52928571D01*
X79285714Y-52880952D01*
X79238095Y-52833333D01*
X79190476Y-52738095D01*
X79190476Y-52642857D01*
X79238095Y-52547619D01*
X79285714Y-52500000D01*
X79380952Y-52452380D01*
X79619047Y-52452380D01*
X79761904Y-52500000D01*
X80095238Y-52452380D02*
X80333333Y-53452380D01*
X80523809Y-52738095D01*
X80714285Y-53452380D01*
X80952380Y-52452380D01*
X81857142Y-53452380D02*
X81285714Y-53452380D01*
X81571428Y-53452380D02*
X81571428Y-52452380D01*
X81476190Y-52595238D01*
X81380952Y-52690476D01*
X81285714Y-52738095D01*
X82761904Y-52452380D02*
X82285714Y-52452380D01*
X82238095Y-52928571D01*
X82285714Y-52880952D01*
X82380952Y-52833333D01*
X82619047Y-52833333D01*
X82714285Y-52880952D01*
X82761904Y-52928571D01*
X82809523Y-53023809D01*
X82809523Y-53261904D01*
X82761904Y-53357142D01*
X82714285Y-53404761D01*
X82619047Y-53452380D01*
X82380952Y-53452380D01*
X82285714Y-53404761D01*
X82238095Y-53357142D01*
%TO.C,*%
%TO.C,SW28*%
X246190476Y-73404761D02*
X246333333Y-73452380D01*
X246571428Y-73452380D01*
X246666666Y-73404761D01*
X246714285Y-73357142D01*
X246761904Y-73261904D01*
X246761904Y-73166666D01*
X246714285Y-73071428D01*
X246666666Y-73023809D01*
X246571428Y-72976190D01*
X246380952Y-72928571D01*
X246285714Y-72880952D01*
X246238095Y-72833333D01*
X246190476Y-72738095D01*
X246190476Y-72642857D01*
X246238095Y-72547619D01*
X246285714Y-72500000D01*
X246380952Y-72452380D01*
X246619047Y-72452380D01*
X246761904Y-72500000D01*
X247095238Y-72452380D02*
X247333333Y-73452380D01*
X247523809Y-72738095D01*
X247714285Y-73452380D01*
X247952380Y-72452380D01*
X248285714Y-72547619D02*
X248333333Y-72500000D01*
X248428571Y-72452380D01*
X248666666Y-72452380D01*
X248761904Y-72500000D01*
X248809523Y-72547619D01*
X248857142Y-72642857D01*
X248857142Y-72738095D01*
X248809523Y-72880952D01*
X248238095Y-73452380D01*
X248857142Y-73452380D01*
X249428571Y-72880952D02*
X249333333Y-72833333D01*
X249285714Y-72785714D01*
X249238095Y-72690476D01*
X249238095Y-72642857D01*
X249285714Y-72547619D01*
X249333333Y-72500000D01*
X249428571Y-72452380D01*
X249619047Y-72452380D01*
X249714285Y-72500000D01*
X249761904Y-72547619D01*
X249809523Y-72642857D01*
X249809523Y-72690476D01*
X249761904Y-72785714D01*
X249714285Y-72833333D01*
X249619047Y-72880952D01*
X249428571Y-72880952D01*
X249333333Y-72928571D01*
X249285714Y-72976190D01*
X249238095Y-73071428D01*
X249238095Y-73261904D01*
X249285714Y-73357142D01*
X249333333Y-73404761D01*
X249428571Y-73452380D01*
X249619047Y-73452380D01*
X249714285Y-73404761D01*
X249761904Y-73357142D01*
X249809523Y-73261904D01*
X249809523Y-73071428D01*
X249761904Y-72976190D01*
X249714285Y-72928571D01*
X249619047Y-72880952D01*
%TO.C,*%
%TO.C,SW20*%
X228190476Y-70404761D02*
X228333333Y-70452380D01*
X228571428Y-70452380D01*
X228666666Y-70404761D01*
X228714285Y-70357142D01*
X228761904Y-70261904D01*
X228761904Y-70166666D01*
X228714285Y-70071428D01*
X228666666Y-70023809D01*
X228571428Y-69976190D01*
X228380952Y-69928571D01*
X228285714Y-69880952D01*
X228238095Y-69833333D01*
X228190476Y-69738095D01*
X228190476Y-69642857D01*
X228238095Y-69547619D01*
X228285714Y-69500000D01*
X228380952Y-69452380D01*
X228619047Y-69452380D01*
X228761904Y-69500000D01*
X229095238Y-69452380D02*
X229333333Y-70452380D01*
X229523809Y-69738095D01*
X229714285Y-70452380D01*
X229952380Y-69452380D01*
X230285714Y-69547619D02*
X230333333Y-69500000D01*
X230428571Y-69452380D01*
X230666666Y-69452380D01*
X230761904Y-69500000D01*
X230809523Y-69547619D01*
X230857142Y-69642857D01*
X230857142Y-69738095D01*
X230809523Y-69880952D01*
X230238095Y-70452380D01*
X230857142Y-70452380D01*
X231476190Y-69452380D02*
X231571428Y-69452380D01*
X231666666Y-69500000D01*
X231714285Y-69547619D01*
X231761904Y-69642857D01*
X231809523Y-69833333D01*
X231809523Y-70071428D01*
X231761904Y-70261904D01*
X231714285Y-70357142D01*
X231666666Y-70404761D01*
X231571428Y-70452380D01*
X231476190Y-70452380D01*
X231380952Y-70404761D01*
X231333333Y-70357142D01*
X231285714Y-70261904D01*
X231238095Y-70071428D01*
X231238095Y-69833333D01*
X231285714Y-69642857D01*
X231333333Y-69547619D01*
X231380952Y-69500000D01*
X231476190Y-69452380D01*
%TO.C,*%
%TO.C,SW3*%
X43666666Y-95404761D02*
X43809523Y-95452380D01*
X44047619Y-95452380D01*
X44142857Y-95404761D01*
X44190476Y-95357142D01*
X44238095Y-95261904D01*
X44238095Y-95166666D01*
X44190476Y-95071428D01*
X44142857Y-95023809D01*
X44047619Y-94976190D01*
X43857142Y-94928571D01*
X43761904Y-94880952D01*
X43714285Y-94833333D01*
X43666666Y-94738095D01*
X43666666Y-94642857D01*
X43714285Y-94547619D01*
X43761904Y-94500000D01*
X43857142Y-94452380D01*
X44095238Y-94452380D01*
X44238095Y-94500000D01*
X44571428Y-94452380D02*
X44809523Y-95452380D01*
X45000000Y-94738095D01*
X45190476Y-95452380D01*
X45428571Y-94452380D01*
X45714285Y-94452380D02*
X46333333Y-94452380D01*
X46000000Y-94833333D01*
X46142857Y-94833333D01*
X46238095Y-94880952D01*
X46285714Y-94928571D01*
X46333333Y-95023809D01*
X46333333Y-95261904D01*
X46285714Y-95357142D01*
X46238095Y-95404761D01*
X46142857Y-95452380D01*
X45857142Y-95452380D01*
X45761904Y-95404761D01*
X45714285Y-95357142D01*
%TO.C,SW4*%
X192666666Y-59404761D02*
X192809523Y-59452380D01*
X193047619Y-59452380D01*
X193142857Y-59404761D01*
X193190476Y-59357142D01*
X193238095Y-59261904D01*
X193238095Y-59166666D01*
X193190476Y-59071428D01*
X193142857Y-59023809D01*
X193047619Y-58976190D01*
X192857142Y-58928571D01*
X192761904Y-58880952D01*
X192714285Y-58833333D01*
X192666666Y-58738095D01*
X192666666Y-58642857D01*
X192714285Y-58547619D01*
X192761904Y-58500000D01*
X192857142Y-58452380D01*
X193095238Y-58452380D01*
X193238095Y-58500000D01*
X193571428Y-58452380D02*
X193809523Y-59452380D01*
X194000000Y-58738095D01*
X194190476Y-59452380D01*
X194428571Y-58452380D01*
X195238095Y-58785714D02*
X195238095Y-59452380D01*
X195000000Y-58404761D02*
X194761904Y-59119047D01*
X195380952Y-59119047D01*
D11*
%TO.C,U1*%
X134042756Y-57850976D02*
X134042756Y-58570643D01*
X134085090Y-58655310D01*
X134127423Y-58697643D01*
X134212090Y-58739976D01*
X134381423Y-58739976D01*
X134466090Y-58697643D01*
X134508423Y-58655310D01*
X134550756Y-58570643D01*
X134550756Y-57850976D01*
X135439756Y-58739976D02*
X134931756Y-58739976D01*
X135185756Y-58739976D02*
X135185756Y-57850976D01*
X135101090Y-57977976D01*
X135016423Y-58062643D01*
X134931756Y-58104976D01*
D12*
X129993875Y-69570052D02*
X130080961Y-69599081D01*
X130226104Y-69599081D01*
X130284161Y-69570052D01*
X130313190Y-69541024D01*
X130342218Y-69482967D01*
X130342218Y-69424910D01*
X130313190Y-69366852D01*
X130284161Y-69337824D01*
X130226104Y-69308795D01*
X130109990Y-69279767D01*
X130051932Y-69250738D01*
X130022904Y-69221710D01*
X129993875Y-69163652D01*
X129993875Y-69105595D01*
X130022904Y-69047538D01*
X130051932Y-69018510D01*
X130109990Y-68989481D01*
X130255132Y-68989481D01*
X130342218Y-69018510D01*
X130835704Y-69570052D02*
X130777647Y-69599081D01*
X130661532Y-69599081D01*
X130603475Y-69570052D01*
X130574447Y-69511995D01*
X130574447Y-69279767D01*
X130603475Y-69221710D01*
X130661532Y-69192681D01*
X130777647Y-69192681D01*
X130835704Y-69221710D01*
X130864732Y-69279767D01*
X130864732Y-69337824D01*
X130574447Y-69395881D01*
X131358218Y-69570052D02*
X131300161Y-69599081D01*
X131184047Y-69599081D01*
X131125990Y-69570052D01*
X131096961Y-69511995D01*
X131096961Y-69279767D01*
X131125990Y-69221710D01*
X131184047Y-69192681D01*
X131300161Y-69192681D01*
X131358218Y-69221710D01*
X131387247Y-69279767D01*
X131387247Y-69337824D01*
X131096961Y-69395881D01*
X131880732Y-69570052D02*
X131822675Y-69599081D01*
X131706561Y-69599081D01*
X131648504Y-69570052D01*
X131619475Y-69511995D01*
X131619475Y-69279767D01*
X131648504Y-69221710D01*
X131706561Y-69192681D01*
X131822675Y-69192681D01*
X131880732Y-69221710D01*
X131909761Y-69279767D01*
X131909761Y-69337824D01*
X131619475Y-69395881D01*
X132432275Y-69599081D02*
X132432275Y-68989481D01*
X132432275Y-69570052D02*
X132374218Y-69599081D01*
X132258104Y-69599081D01*
X132200047Y-69570052D01*
X132171018Y-69541024D01*
X132141990Y-69482967D01*
X132141990Y-69308795D01*
X132171018Y-69250738D01*
X132200047Y-69221710D01*
X132258104Y-69192681D01*
X132374218Y-69192681D01*
X132432275Y-69221710D01*
X132983818Y-69192681D02*
X132983818Y-69599081D01*
X132722561Y-69192681D02*
X132722561Y-69511995D01*
X132751590Y-69570052D01*
X132809647Y-69599081D01*
X132896732Y-69599081D01*
X132954790Y-69570052D01*
X132983818Y-69541024D01*
X133274104Y-69599081D02*
X133274104Y-69192681D01*
X133274104Y-68989481D02*
X133245075Y-69018510D01*
X133274104Y-69047538D01*
X133303132Y-69018510D01*
X133274104Y-68989481D01*
X133274104Y-69047538D01*
X133564390Y-69192681D02*
X133564390Y-69599081D01*
X133564390Y-69250738D02*
X133593418Y-69221710D01*
X133651475Y-69192681D01*
X133738561Y-69192681D01*
X133796618Y-69221710D01*
X133825647Y-69279767D01*
X133825647Y-69599081D01*
X134203018Y-69599081D02*
X134144961Y-69570052D01*
X134115932Y-69541024D01*
X134086904Y-69482967D01*
X134086904Y-69308795D01*
X134115932Y-69250738D01*
X134144961Y-69221710D01*
X134203018Y-69192681D01*
X134290104Y-69192681D01*
X134348161Y-69221710D01*
X134377190Y-69250738D01*
X134406218Y-69308795D01*
X134406218Y-69482967D01*
X134377190Y-69541024D01*
X134348161Y-69570052D01*
X134290104Y-69599081D01*
X134203018Y-69599081D01*
X134609418Y-68989481D02*
X135015818Y-69599081D01*
X135015818Y-68989481D02*
X134609418Y-69599081D01*
X135248047Y-69599081D02*
X135248047Y-68989481D01*
X135509304Y-69424910D02*
X135799590Y-69424910D01*
X135451247Y-69599081D02*
X135654447Y-68989481D01*
X135857647Y-69599081D01*
X136176961Y-68989481D02*
X136293075Y-68989481D01*
X136351132Y-69018510D01*
X136409190Y-69076567D01*
X136438218Y-69192681D01*
X136438218Y-69395881D01*
X136409190Y-69511995D01*
X136351132Y-69570052D01*
X136293075Y-69599081D01*
X136176961Y-69599081D01*
X136118904Y-69570052D01*
X136060847Y-69511995D01*
X136031818Y-69395881D01*
X136031818Y-69192681D01*
X136060847Y-69076567D01*
X136118904Y-69018510D01*
X136176961Y-68989481D01*
X136554332Y-69657138D02*
X137018790Y-69657138D01*
X137367132Y-69279767D02*
X137454218Y-69308795D01*
X137483247Y-69337824D01*
X137512275Y-69395881D01*
X137512275Y-69482967D01*
X137483247Y-69541024D01*
X137454218Y-69570052D01*
X137396161Y-69599081D01*
X137163932Y-69599081D01*
X137163932Y-68989481D01*
X137367132Y-68989481D01*
X137425190Y-69018510D01*
X137454218Y-69047538D01*
X137483247Y-69105595D01*
X137483247Y-69163652D01*
X137454218Y-69221710D01*
X137425190Y-69250738D01*
X137367132Y-69279767D01*
X137163932Y-69279767D01*
X138063818Y-69599081D02*
X137773532Y-69599081D01*
X137773532Y-68989481D01*
X138267018Y-69279767D02*
X138470218Y-69279767D01*
X138557304Y-69599081D02*
X138267018Y-69599081D01*
X138267018Y-68989481D01*
X138557304Y-68989481D01*
D10*
%TO.C,*%
%TO.C,SW5*%
X192666666Y-76404761D02*
X192809523Y-76452380D01*
X193047619Y-76452380D01*
X193142857Y-76404761D01*
X193190476Y-76357142D01*
X193238095Y-76261904D01*
X193238095Y-76166666D01*
X193190476Y-76071428D01*
X193142857Y-76023809D01*
X193047619Y-75976190D01*
X192857142Y-75928571D01*
X192761904Y-75880952D01*
X192714285Y-75833333D01*
X192666666Y-75738095D01*
X192666666Y-75642857D01*
X192714285Y-75547619D01*
X192761904Y-75500000D01*
X192857142Y-75452380D01*
X193095238Y-75452380D01*
X193238095Y-75500000D01*
X193571428Y-75452380D02*
X193809523Y-76452380D01*
X194000000Y-75738095D01*
X194190476Y-76452380D01*
X194428571Y-75452380D01*
X195285714Y-75452380D02*
X194809523Y-75452380D01*
X194761904Y-75928571D01*
X194809523Y-75880952D01*
X194904761Y-75833333D01*
X195142857Y-75833333D01*
X195238095Y-75880952D01*
X195285714Y-75928571D01*
X195333333Y-76023809D01*
X195333333Y-76261904D01*
X195285714Y-76357142D01*
X195238095Y-76404761D01*
X195142857Y-76452380D01*
X194904761Y-76452380D01*
X194809523Y-76404761D01*
X194761904Y-76357142D01*
%TO.C,SW8*%
X61666666Y-56404761D02*
X61809523Y-56452380D01*
X62047619Y-56452380D01*
X62142857Y-56404761D01*
X62190476Y-56357142D01*
X62238095Y-56261904D01*
X62238095Y-56166666D01*
X62190476Y-56071428D01*
X62142857Y-56023809D01*
X62047619Y-55976190D01*
X61857142Y-55928571D01*
X61761904Y-55880952D01*
X61714285Y-55833333D01*
X61666666Y-55738095D01*
X61666666Y-55642857D01*
X61714285Y-55547619D01*
X61761904Y-55500000D01*
X61857142Y-55452380D01*
X62095238Y-55452380D01*
X62238095Y-55500000D01*
X62571428Y-55452380D02*
X62809523Y-56452380D01*
X63000000Y-55738095D01*
X63190476Y-56452380D01*
X63428571Y-55452380D01*
X63952380Y-55880952D02*
X63857142Y-55833333D01*
X63809523Y-55785714D01*
X63761904Y-55690476D01*
X63761904Y-55642857D01*
X63809523Y-55547619D01*
X63857142Y-55500000D01*
X63952380Y-55452380D01*
X64142857Y-55452380D01*
X64238095Y-55500000D01*
X64285714Y-55547619D01*
X64333333Y-55642857D01*
X64333333Y-55690476D01*
X64285714Y-55785714D01*
X64238095Y-55833333D01*
X64142857Y-55880952D01*
X63952380Y-55880952D01*
X63857142Y-55928571D01*
X63809523Y-55976190D01*
X63761904Y-56071428D01*
X63761904Y-56261904D01*
X63809523Y-56357142D01*
X63857142Y-56404761D01*
X63952380Y-56452380D01*
X64142857Y-56452380D01*
X64238095Y-56404761D01*
X64285714Y-56357142D01*
X64333333Y-56261904D01*
X64333333Y-56071428D01*
X64285714Y-55976190D01*
X64238095Y-55928571D01*
X64142857Y-55880952D01*
%TO.C,*%
%TO.C,SW1*%
X43666666Y-61404761D02*
X43809523Y-61452380D01*
X44047619Y-61452380D01*
X44142857Y-61404761D01*
X44190476Y-61357142D01*
X44238095Y-61261904D01*
X44238095Y-61166666D01*
X44190476Y-61071428D01*
X44142857Y-61023809D01*
X44047619Y-60976190D01*
X43857142Y-60928571D01*
X43761904Y-60880952D01*
X43714285Y-60833333D01*
X43666666Y-60738095D01*
X43666666Y-60642857D01*
X43714285Y-60547619D01*
X43761904Y-60500000D01*
X43857142Y-60452380D01*
X44095238Y-60452380D01*
X44238095Y-60500000D01*
X44571428Y-60452380D02*
X44809523Y-61452380D01*
X45000000Y-60738095D01*
X45190476Y-61452380D01*
X45428571Y-60452380D01*
X46333333Y-61452380D02*
X45761904Y-61452380D01*
X46047619Y-61452380D02*
X46047619Y-60452380D01*
X45952380Y-60595238D01*
X45857142Y-60690476D01*
X45761904Y-60738095D01*
%TO.C,SW9*%
X61666666Y-73404761D02*
X61809523Y-73452380D01*
X62047619Y-73452380D01*
X62142857Y-73404761D01*
X62190476Y-73357142D01*
X62238095Y-73261904D01*
X62238095Y-73166666D01*
X62190476Y-73071428D01*
X62142857Y-73023809D01*
X62047619Y-72976190D01*
X61857142Y-72928571D01*
X61761904Y-72880952D01*
X61714285Y-72833333D01*
X61666666Y-72738095D01*
X61666666Y-72642857D01*
X61714285Y-72547619D01*
X61761904Y-72500000D01*
X61857142Y-72452380D01*
X62095238Y-72452380D01*
X62238095Y-72500000D01*
X62571428Y-72452380D02*
X62809523Y-73452380D01*
X63000000Y-72738095D01*
X63190476Y-73452380D01*
X63428571Y-72452380D01*
X63857142Y-73452380D02*
X64047619Y-73452380D01*
X64142857Y-73404761D01*
X64190476Y-73357142D01*
X64285714Y-73214285D01*
X64333333Y-73023809D01*
X64333333Y-72642857D01*
X64285714Y-72547619D01*
X64238095Y-72500000D01*
X64142857Y-72452380D01*
X63952380Y-72452380D01*
X63857142Y-72500000D01*
X63809523Y-72547619D01*
X63761904Y-72642857D01*
X63761904Y-72880952D01*
X63809523Y-72976190D01*
X63857142Y-73023809D01*
X63952380Y-73071428D01*
X64142857Y-73071428D01*
X64238095Y-73023809D01*
X64285714Y-72976190D01*
X64333333Y-72880952D01*
%TO.C,*%
%TO.C,SW24*%
X97190476Y-73404761D02*
X97333333Y-73452380D01*
X97571428Y-73452380D01*
X97666666Y-73404761D01*
X97714285Y-73357142D01*
X97761904Y-73261904D01*
X97761904Y-73166666D01*
X97714285Y-73071428D01*
X97666666Y-73023809D01*
X97571428Y-72976190D01*
X97380952Y-72928571D01*
X97285714Y-72880952D01*
X97238095Y-72833333D01*
X97190476Y-72738095D01*
X97190476Y-72642857D01*
X97238095Y-72547619D01*
X97285714Y-72500000D01*
X97380952Y-72452380D01*
X97619047Y-72452380D01*
X97761904Y-72500000D01*
X98095238Y-72452380D02*
X98333333Y-73452380D01*
X98523809Y-72738095D01*
X98714285Y-73452380D01*
X98952380Y-72452380D01*
X99285714Y-72547619D02*
X99333333Y-72500000D01*
X99428571Y-72452380D01*
X99666666Y-72452380D01*
X99761904Y-72500000D01*
X99809523Y-72547619D01*
X99857142Y-72642857D01*
X99857142Y-72738095D01*
X99809523Y-72880952D01*
X99238095Y-73452380D01*
X99857142Y-73452380D01*
X100714285Y-72785714D02*
X100714285Y-73452380D01*
X100476190Y-72404761D02*
X100238095Y-73119047D01*
X100857142Y-73119047D01*
%TO.C,*%
%TO.C,SW36*%
X264190476Y-95404761D02*
X264333333Y-95452380D01*
X264571428Y-95452380D01*
X264666666Y-95404761D01*
X264714285Y-95357142D01*
X264761904Y-95261904D01*
X264761904Y-95166666D01*
X264714285Y-95071428D01*
X264666666Y-95023809D01*
X264571428Y-94976190D01*
X264380952Y-94928571D01*
X264285714Y-94880952D01*
X264238095Y-94833333D01*
X264190476Y-94738095D01*
X264190476Y-94642857D01*
X264238095Y-94547619D01*
X264285714Y-94500000D01*
X264380952Y-94452380D01*
X264619047Y-94452380D01*
X264761904Y-94500000D01*
X265095238Y-94452380D02*
X265333333Y-95452380D01*
X265523809Y-94738095D01*
X265714285Y-95452380D01*
X265952380Y-94452380D01*
X266238095Y-94452380D02*
X266857142Y-94452380D01*
X266523809Y-94833333D01*
X266666666Y-94833333D01*
X266761904Y-94880952D01*
X266809523Y-94928571D01*
X266857142Y-95023809D01*
X266857142Y-95261904D01*
X266809523Y-95357142D01*
X266761904Y-95404761D01*
X266666666Y-95452380D01*
X266380952Y-95452380D01*
X266285714Y-95404761D01*
X266238095Y-95357142D01*
X267714285Y-94452380D02*
X267523809Y-94452380D01*
X267428571Y-94500000D01*
X267380952Y-94547619D01*
X267285714Y-94690476D01*
X267238095Y-94880952D01*
X267238095Y-95261904D01*
X267285714Y-95357142D01*
X267333333Y-95404761D01*
X267428571Y-95452380D01*
X267619047Y-95452380D01*
X267714285Y-95404761D01*
X267761904Y-95357142D01*
X267809523Y-95261904D01*
X267809523Y-95023809D01*
X267761904Y-94928571D01*
X267714285Y-94880952D01*
X267619047Y-94833333D01*
X267428571Y-94833333D01*
X267333333Y-94880952D01*
X267285714Y-94928571D01*
X267238095Y-95023809D01*
%TO.C,*%
%TO.C,SW6*%
X192666666Y-93404761D02*
X192809523Y-93452380D01*
X193047619Y-93452380D01*
X193142857Y-93404761D01*
X193190476Y-93357142D01*
X193238095Y-93261904D01*
X193238095Y-93166666D01*
X193190476Y-93071428D01*
X193142857Y-93023809D01*
X193047619Y-92976190D01*
X192857142Y-92928571D01*
X192761904Y-92880952D01*
X192714285Y-92833333D01*
X192666666Y-92738095D01*
X192666666Y-92642857D01*
X192714285Y-92547619D01*
X192761904Y-92500000D01*
X192857142Y-92452380D01*
X193095238Y-92452380D01*
X193238095Y-92500000D01*
X193571428Y-92452380D02*
X193809523Y-93452380D01*
X194000000Y-92738095D01*
X194190476Y-93452380D01*
X194428571Y-92452380D01*
X195238095Y-92452380D02*
X195047619Y-92452380D01*
X194952380Y-92500000D01*
X194904761Y-92547619D01*
X194809523Y-92690476D01*
X194761904Y-92880952D01*
X194761904Y-93261904D01*
X194809523Y-93357142D01*
X194857142Y-93404761D01*
X194952380Y-93452380D01*
X195142857Y-93452380D01*
X195238095Y-93404761D01*
X195285714Y-93357142D01*
X195333333Y-93261904D01*
X195333333Y-93023809D01*
X195285714Y-92928571D01*
X195238095Y-92880952D01*
X195142857Y-92833333D01*
X194952380Y-92833333D01*
X194857142Y-92880952D01*
X194809523Y-92928571D01*
X194761904Y-93023809D01*
%TO.C,*%
%TO.C,J1*%
X139305862Y-111004865D02*
X139924451Y-111362008D01*
X140024360Y-111474676D01*
X140059219Y-111604774D01*
X140029030Y-111752301D01*
X139981411Y-111834780D01*
X140671887Y-110638840D02*
X140386173Y-111133711D01*
X140529030Y-110886276D02*
X139663005Y-110386276D01*
X139739104Y-110540183D01*
X139773963Y-110670280D01*
X139767583Y-110776569D01*
%TO.C,J3*%
X166505328Y-113658810D02*
X166862471Y-114277400D01*
X166892660Y-114424927D01*
X166857800Y-114555025D01*
X166757892Y-114667693D01*
X166675413Y-114715312D01*
X166835242Y-113468334D02*
X167371353Y-113158810D01*
X167273154Y-113655391D01*
X167396872Y-113583963D01*
X167503160Y-113577583D01*
X167568209Y-113595013D01*
X167657068Y-113653682D01*
X167776115Y-113859878D01*
X167782495Y-113966166D01*
X167765065Y-114031215D01*
X167706396Y-114120074D01*
X167458960Y-114262931D01*
X167352672Y-114269311D01*
X167287623Y-114251881D01*
%TO.C,*%
%TO.C,SW11*%
X210190476Y-56404761D02*
X210333333Y-56452380D01*
X210571428Y-56452380D01*
X210666666Y-56404761D01*
X210714285Y-56357142D01*
X210761904Y-56261904D01*
X210761904Y-56166666D01*
X210714285Y-56071428D01*
X210666666Y-56023809D01*
X210571428Y-55976190D01*
X210380952Y-55928571D01*
X210285714Y-55880952D01*
X210238095Y-55833333D01*
X210190476Y-55738095D01*
X210190476Y-55642857D01*
X210238095Y-55547619D01*
X210285714Y-55500000D01*
X210380952Y-55452380D01*
X210619047Y-55452380D01*
X210761904Y-55500000D01*
X211095238Y-55452380D02*
X211333333Y-56452380D01*
X211523809Y-55738095D01*
X211714285Y-56452380D01*
X211952380Y-55452380D01*
X212857142Y-56452380D02*
X212285714Y-56452380D01*
X212571428Y-56452380D02*
X212571428Y-55452380D01*
X212476190Y-55595238D01*
X212380952Y-55690476D01*
X212285714Y-55738095D01*
X213809523Y-56452380D02*
X213238095Y-56452380D01*
X213523809Y-56452380D02*
X213523809Y-55452380D01*
X213428571Y-55595238D01*
X213333333Y-55690476D01*
X213238095Y-55738095D01*
%TO.C,*%
%TO.C,SW12*%
X210190476Y-73404761D02*
X210333333Y-73452380D01*
X210571428Y-73452380D01*
X210666666Y-73404761D01*
X210714285Y-73357142D01*
X210761904Y-73261904D01*
X210761904Y-73166666D01*
X210714285Y-73071428D01*
X210666666Y-73023809D01*
X210571428Y-72976190D01*
X210380952Y-72928571D01*
X210285714Y-72880952D01*
X210238095Y-72833333D01*
X210190476Y-72738095D01*
X210190476Y-72642857D01*
X210238095Y-72547619D01*
X210285714Y-72500000D01*
X210380952Y-72452380D01*
X210619047Y-72452380D01*
X210761904Y-72500000D01*
X211095238Y-72452380D02*
X211333333Y-73452380D01*
X211523809Y-72738095D01*
X211714285Y-73452380D01*
X211952380Y-72452380D01*
X212857142Y-73452380D02*
X212285714Y-73452380D01*
X212571428Y-73452380D02*
X212571428Y-72452380D01*
X212476190Y-72595238D01*
X212380952Y-72690476D01*
X212285714Y-72738095D01*
X213238095Y-72547619D02*
X213285714Y-72500000D01*
X213380952Y-72452380D01*
X213619047Y-72452380D01*
X213714285Y-72500000D01*
X213761904Y-72547619D01*
X213809523Y-72642857D01*
X213809523Y-72738095D01*
X213761904Y-72880952D01*
X213190476Y-73452380D01*
X213809523Y-73452380D01*
%TO.C,SW30*%
X115190476Y-59404761D02*
X115333333Y-59452380D01*
X115571428Y-59452380D01*
X115666666Y-59404761D01*
X115714285Y-59357142D01*
X115761904Y-59261904D01*
X115761904Y-59166666D01*
X115714285Y-59071428D01*
X115666666Y-59023809D01*
X115571428Y-58976190D01*
X115380952Y-58928571D01*
X115285714Y-58880952D01*
X115238095Y-58833333D01*
X115190476Y-58738095D01*
X115190476Y-58642857D01*
X115238095Y-58547619D01*
X115285714Y-58500000D01*
X115380952Y-58452380D01*
X115619047Y-58452380D01*
X115761904Y-58500000D01*
X116095238Y-58452380D02*
X116333333Y-59452380D01*
X116523809Y-58738095D01*
X116714285Y-59452380D01*
X116952380Y-58452380D01*
X117238095Y-58452380D02*
X117857142Y-58452380D01*
X117523809Y-58833333D01*
X117666666Y-58833333D01*
X117761904Y-58880952D01*
X117809523Y-58928571D01*
X117857142Y-59023809D01*
X117857142Y-59261904D01*
X117809523Y-59357142D01*
X117761904Y-59404761D01*
X117666666Y-59452380D01*
X117380952Y-59452380D01*
X117285714Y-59404761D01*
X117238095Y-59357142D01*
X118476190Y-58452380D02*
X118571428Y-58452380D01*
X118666666Y-58500000D01*
X118714285Y-58547619D01*
X118761904Y-58642857D01*
X118809523Y-58833333D01*
X118809523Y-59071428D01*
X118761904Y-59261904D01*
X118714285Y-59357142D01*
X118666666Y-59404761D01*
X118571428Y-59452380D01*
X118476190Y-59452380D01*
X118380952Y-59404761D01*
X118333333Y-59357142D01*
X118285714Y-59261904D01*
X118238095Y-59071428D01*
X118238095Y-58833333D01*
X118285714Y-58642857D01*
X118333333Y-58547619D01*
X118380952Y-58500000D01*
X118476190Y-58452380D01*
%TO.C,SW27*%
X246190476Y-56404761D02*
X246333333Y-56452380D01*
X246571428Y-56452380D01*
X246666666Y-56404761D01*
X246714285Y-56357142D01*
X246761904Y-56261904D01*
X246761904Y-56166666D01*
X246714285Y-56071428D01*
X246666666Y-56023809D01*
X246571428Y-55976190D01*
X246380952Y-55928571D01*
X246285714Y-55880952D01*
X246238095Y-55833333D01*
X246190476Y-55738095D01*
X246190476Y-55642857D01*
X246238095Y-55547619D01*
X246285714Y-55500000D01*
X246380952Y-55452380D01*
X246619047Y-55452380D01*
X246761904Y-55500000D01*
X247095238Y-55452380D02*
X247333333Y-56452380D01*
X247523809Y-55738095D01*
X247714285Y-56452380D01*
X247952380Y-55452380D01*
X248285714Y-55547619D02*
X248333333Y-55500000D01*
X248428571Y-55452380D01*
X248666666Y-55452380D01*
X248761904Y-55500000D01*
X248809523Y-55547619D01*
X248857142Y-55642857D01*
X248857142Y-55738095D01*
X248809523Y-55880952D01*
X248238095Y-56452380D01*
X248857142Y-56452380D01*
X249190476Y-55452380D02*
X249857142Y-55452380D01*
X249428571Y-56452380D01*
%TO.C,SW18*%
X86190476Y-109404761D02*
X86333333Y-109452380D01*
X86571428Y-109452380D01*
X86666666Y-109404761D01*
X86714285Y-109357142D01*
X86761904Y-109261904D01*
X86761904Y-109166666D01*
X86714285Y-109071428D01*
X86666666Y-109023809D01*
X86571428Y-108976190D01*
X86380952Y-108928571D01*
X86285714Y-108880952D01*
X86238095Y-108833333D01*
X86190476Y-108738095D01*
X86190476Y-108642857D01*
X86238095Y-108547619D01*
X86285714Y-108500000D01*
X86380952Y-108452380D01*
X86619047Y-108452380D01*
X86761904Y-108500000D01*
X87095238Y-108452380D02*
X87333333Y-109452380D01*
X87523809Y-108738095D01*
X87714285Y-109452380D01*
X87952380Y-108452380D01*
X88857142Y-109452380D02*
X88285714Y-109452380D01*
X88571428Y-109452380D02*
X88571428Y-108452380D01*
X88476190Y-108595238D01*
X88380952Y-108690476D01*
X88285714Y-108738095D01*
X89428571Y-108880952D02*
X89333333Y-108833333D01*
X89285714Y-108785714D01*
X89238095Y-108690476D01*
X89238095Y-108642857D01*
X89285714Y-108547619D01*
X89333333Y-108500000D01*
X89428571Y-108452380D01*
X89619047Y-108452380D01*
X89714285Y-108500000D01*
X89761904Y-108547619D01*
X89809523Y-108642857D01*
X89809523Y-108690476D01*
X89761904Y-108785714D01*
X89714285Y-108833333D01*
X89619047Y-108880952D01*
X89428571Y-108880952D01*
X89333333Y-108928571D01*
X89285714Y-108976190D01*
X89238095Y-109071428D01*
X89238095Y-109261904D01*
X89285714Y-109357142D01*
X89333333Y-109404761D01*
X89428571Y-109452380D01*
X89619047Y-109452380D01*
X89714285Y-109404761D01*
X89761904Y-109357142D01*
X89809523Y-109261904D01*
X89809523Y-109071428D01*
X89761904Y-108976190D01*
X89714285Y-108928571D01*
X89619047Y-108880952D01*
%TO.C,SW16*%
X79190476Y-70404761D02*
X79333333Y-70452380D01*
X79571428Y-70452380D01*
X79666666Y-70404761D01*
X79714285Y-70357142D01*
X79761904Y-70261904D01*
X79761904Y-70166666D01*
X79714285Y-70071428D01*
X79666666Y-70023809D01*
X79571428Y-69976190D01*
X79380952Y-69928571D01*
X79285714Y-69880952D01*
X79238095Y-69833333D01*
X79190476Y-69738095D01*
X79190476Y-69642857D01*
X79238095Y-69547619D01*
X79285714Y-69500000D01*
X79380952Y-69452380D01*
X79619047Y-69452380D01*
X79761904Y-69500000D01*
X80095238Y-69452380D02*
X80333333Y-70452380D01*
X80523809Y-69738095D01*
X80714285Y-70452380D01*
X80952380Y-69452380D01*
X81857142Y-70452380D02*
X81285714Y-70452380D01*
X81571428Y-70452380D02*
X81571428Y-69452380D01*
X81476190Y-69595238D01*
X81380952Y-69690476D01*
X81285714Y-69738095D01*
X82714285Y-69452380D02*
X82523809Y-69452380D01*
X82428571Y-69500000D01*
X82380952Y-69547619D01*
X82285714Y-69690476D01*
X82238095Y-69880952D01*
X82238095Y-70261904D01*
X82285714Y-70357142D01*
X82333333Y-70404761D01*
X82428571Y-70452380D01*
X82619047Y-70452380D01*
X82714285Y-70404761D01*
X82761904Y-70357142D01*
X82809523Y-70261904D01*
X82809523Y-70023809D01*
X82761904Y-69928571D01*
X82714285Y-69880952D01*
X82619047Y-69833333D01*
X82428571Y-69833333D01*
X82333333Y-69880952D01*
X82285714Y-69928571D01*
X82238095Y-70023809D01*
%TO.C,*%
%TO.C,SW26*%
X113181996Y-112384037D02*
X113056332Y-112301066D01*
X112826349Y-112239443D01*
X112722032Y-112260790D01*
X112663711Y-112294461D01*
X112593065Y-112374130D01*
X112568415Y-112466122D01*
X112589762Y-112570440D01*
X112623434Y-112628761D01*
X112703102Y-112699407D01*
X112874763Y-112794703D01*
X112954432Y-112865348D01*
X112988103Y-112923670D01*
X113009450Y-113027987D01*
X112984801Y-113119980D01*
X112914155Y-113199648D01*
X112855834Y-113233320D01*
X112751516Y-113254667D01*
X112521534Y-113193044D01*
X112395869Y-113110073D01*
X112061569Y-113069796D02*
X112090406Y-112042247D01*
X111721549Y-112682895D01*
X111722434Y-111943649D01*
X111233633Y-112847952D01*
X110936307Y-112669686D02*
X110877986Y-112703357D01*
X110773668Y-112724704D01*
X110543686Y-112663081D01*
X110464017Y-112592435D01*
X110430346Y-112534114D01*
X110408999Y-112429796D01*
X110433648Y-112337803D01*
X110516619Y-112212138D01*
X111216473Y-111808077D01*
X110618519Y-111647856D01*
X109531763Y-112391937D02*
X109715749Y-112441236D01*
X109820067Y-112419889D01*
X109878388Y-112386217D01*
X110007355Y-112272877D01*
X110102651Y-112101216D01*
X110201248Y-111733244D01*
X110179901Y-111628927D01*
X110146229Y-111570605D01*
X110066561Y-111499960D01*
X109882575Y-111450661D01*
X109778258Y-111472008D01*
X109719937Y-111505679D01*
X109649291Y-111585348D01*
X109587667Y-111815330D01*
X109609014Y-111919648D01*
X109642686Y-111977969D01*
X109722354Y-112048615D01*
X109906340Y-112097914D01*
X110010658Y-112076567D01*
X110068979Y-112042895D01*
X110139625Y-111963227D01*
%TO.C,*%
%TO.C,SW33*%
X137269474Y-117759998D02*
X137169566Y-117647330D01*
X136963369Y-117528283D01*
X136857081Y-117521903D01*
X136792032Y-117539333D01*
X136703174Y-117598002D01*
X136655555Y-117680481D01*
X136649175Y-117786769D01*
X136666605Y-117851818D01*
X136725274Y-117940676D01*
X136866422Y-118077153D01*
X136925091Y-118166012D01*
X136942520Y-118231060D01*
X136936141Y-118337349D01*
X136888522Y-118419827D01*
X136799663Y-118478496D01*
X136734614Y-118495926D01*
X136628326Y-118489546D01*
X136422130Y-118370499D01*
X136322221Y-118257831D01*
X136009737Y-118132403D02*
X136303540Y-117147330D01*
X135781440Y-117670682D01*
X135973626Y-116956854D01*
X135267429Y-117703832D01*
X135019993Y-117560975D02*
X134483882Y-117251451D01*
X134963034Y-117088203D01*
X134839316Y-117016775D01*
X134780647Y-116927916D01*
X134763217Y-116862868D01*
X134769597Y-116756579D01*
X134888644Y-116550383D01*
X134977503Y-116491714D01*
X135042552Y-116474284D01*
X135148840Y-116480664D01*
X135396276Y-116623521D01*
X135454945Y-116712379D01*
X135472374Y-116777428D01*
X134195207Y-117084784D02*
X133659096Y-116775261D01*
X134138248Y-116612013D01*
X134014530Y-116540584D01*
X133955861Y-116451726D01*
X133938431Y-116386677D01*
X133944811Y-116280389D01*
X134063858Y-116074192D01*
X134152717Y-116015523D01*
X134217765Y-115998094D01*
X134324054Y-116004473D01*
X134571489Y-116147330D01*
X134630159Y-116236189D01*
X134647588Y-116301238D01*
D13*
%TO.C,SW13*%
X219600000Y-91400000D02*
X204400000Y-91400000D01*
X204400000Y-91400000D02*
X204400000Y-106600000D01*
X204400000Y-106600000D02*
X219600000Y-106600000D01*
X219600000Y-106600000D02*
X219600000Y-91400000D01*
%TO.C,SW25*%
X106600000Y-91400000D02*
X91400000Y-91400000D01*
X91400000Y-106600000D02*
X106600000Y-106600000D01*
X106600000Y-106600000D02*
X106600000Y-91400000D01*
X91400000Y-91400000D02*
X91400000Y-106600000D01*
%TO.C,SW17*%
X88600000Y-88400000D02*
X73400000Y-88400000D01*
X73400000Y-103600000D02*
X88600000Y-103600000D01*
X88600000Y-103600000D02*
X88600000Y-88400000D01*
X73400000Y-88400000D02*
X73400000Y-103600000D01*
%TO.C,SW23*%
X106600000Y-57400000D02*
X91400000Y-57400000D01*
X91400000Y-72600000D02*
X106600000Y-72600000D01*
X91400000Y-57400000D02*
X91400000Y-72600000D01*
X106600000Y-72600000D02*
X106600000Y-57400000D01*
%TO.C,J2*%
X144548866Y-103573437D02*
X143818866Y-104837834D01*
X141793866Y-108345237D02*
X142693866Y-106786391D01*
X152291134Y-108043437D02*
X151561134Y-109307834D01*
X149536134Y-112815237D02*
X150436134Y-111256391D01*
X144548866Y-103573437D02*
X152291134Y-108043437D01*
%TO.C,SW21*%
X237600000Y-103600000D02*
X237600000Y-88400000D01*
X237600000Y-88400000D02*
X222400000Y-88400000D01*
X222400000Y-103600000D02*
X237600000Y-103600000D01*
X222400000Y-88400000D02*
X222400000Y-103600000D01*
%TO.C,SW19*%
X222400000Y-54400000D02*
X222400000Y-69600000D01*
X222400000Y-69600000D02*
X237600000Y-69600000D01*
X237600000Y-69600000D02*
X237600000Y-54400000D01*
X237600000Y-54400000D02*
X222400000Y-54400000D01*
%TO.C,SW34*%
X258400000Y-62400000D02*
X258400000Y-77600000D01*
X273600000Y-77600000D02*
X273600000Y-62400000D01*
X258400000Y-77600000D02*
X273600000Y-77600000D01*
X273600000Y-62400000D02*
X258400000Y-62400000D01*
%TO.C,SW35*%
X273600000Y-79400000D02*
X258400000Y-79400000D01*
X258400000Y-79400000D02*
X258400000Y-94600000D01*
X273600000Y-94600000D02*
X273600000Y-79400000D01*
X258400000Y-94600000D02*
X273600000Y-94600000D01*
%TO.C,SW29*%
X255600000Y-106600000D02*
X255600000Y-91400000D01*
X240400000Y-106600000D02*
X255600000Y-106600000D01*
X240400000Y-91400000D02*
X240400000Y-106600000D01*
X255600000Y-91400000D02*
X240400000Y-91400000D01*
%TO.C,SW7*%
X182781793Y-114618207D02*
X169618207Y-122218207D01*
X190381793Y-127781793D02*
X182781793Y-114618207D01*
X177218207Y-135381793D02*
X190381793Y-127781793D01*
X169618207Y-122218207D02*
X177218207Y-135381793D01*
%TO.C,SW22*%
X215400000Y-110400000D02*
X215400000Y-125600000D01*
X230600000Y-110400000D02*
X215400000Y-110400000D01*
X230600000Y-125600000D02*
X230600000Y-110400000D01*
X215400000Y-125600000D02*
X230600000Y-125600000D01*
%TO.C,SW2*%
X37400000Y-94600000D02*
X52600000Y-94600000D01*
X52600000Y-94600000D02*
X52600000Y-79400000D01*
X52600000Y-79400000D02*
X37400000Y-79400000D01*
X37400000Y-79400000D02*
X37400000Y-94600000D01*
%TO.C,SW10*%
X70600000Y-106600000D02*
X70600000Y-91400000D01*
X55400000Y-91400000D02*
X55400000Y-106600000D01*
X70600000Y-91400000D02*
X55400000Y-91400000D01*
X55400000Y-106600000D02*
X70600000Y-106600000D01*
%TO.C,SW32*%
X109400000Y-109600000D02*
X124600000Y-109600000D01*
X124600000Y-94400000D02*
X109400000Y-94400000D01*
X124600000Y-109600000D02*
X124600000Y-94400000D01*
X109400000Y-94400000D02*
X109400000Y-109600000D01*
%TO.C,SW37*%
X136230000Y-87230000D02*
X136230000Y-87200000D01*
X136230000Y-82700000D02*
X136230000Y-85300000D01*
X129770000Y-87230000D02*
X136230000Y-87230000D01*
X129770000Y-80800000D02*
X129770000Y-80770000D01*
X129770000Y-82700000D02*
X129770000Y-85300000D01*
X136230000Y-80770000D02*
X136230000Y-80800000D01*
X129770000Y-80770000D02*
X136230000Y-80770000D01*
X129770000Y-87230000D02*
X129770000Y-87200000D01*
%TO.C,SW31*%
X124600000Y-92600000D02*
X124600000Y-77400000D01*
X109400000Y-77400000D02*
X109400000Y-92600000D01*
X109400000Y-92600000D02*
X124600000Y-92600000D01*
X124600000Y-77400000D02*
X109400000Y-77400000D01*
%TO.C,SW14*%
X207374012Y-111691939D02*
X192691939Y-115625988D01*
X196625988Y-130308061D02*
X211308061Y-126374012D01*
X211308061Y-126374012D02*
X207374012Y-111691939D01*
X192691939Y-115625988D02*
X196625988Y-130308061D01*
%TO.C,SW15*%
X88600000Y-69600000D02*
X88600000Y-54400000D01*
X73400000Y-69600000D02*
X88600000Y-69600000D01*
X88600000Y-54400000D02*
X73400000Y-54400000D01*
X73400000Y-54400000D02*
X73400000Y-69600000D01*
%TO.C,SW28*%
X240400000Y-74400000D02*
X240400000Y-89600000D01*
X255600000Y-74400000D02*
X240400000Y-74400000D01*
X240400000Y-89600000D02*
X255600000Y-89600000D01*
X255600000Y-89600000D02*
X255600000Y-74400000D01*
%TO.C,SW20*%
X237600000Y-86600000D02*
X237600000Y-71400000D01*
X237600000Y-71400000D02*
X222400000Y-71400000D01*
X222400000Y-86600000D02*
X237600000Y-86600000D01*
X222400000Y-71400000D02*
X222400000Y-86600000D01*
%TO.C,SW3*%
X52600000Y-111600000D02*
X52600000Y-96400000D01*
X37400000Y-111600000D02*
X52600000Y-111600000D01*
X52600000Y-96400000D02*
X37400000Y-96400000D01*
X37400000Y-96400000D02*
X37400000Y-111600000D01*
%TO.C,SW4*%
X201600000Y-75600000D02*
X201600000Y-60400000D01*
X186400000Y-60400000D02*
X186400000Y-75600000D01*
X201600000Y-60400000D02*
X186400000Y-60400000D01*
X186400000Y-75600000D02*
X201600000Y-75600000D01*
D14*
%TO.C,U1*%
X137704590Y-61703310D02*
X137704590Y-59036310D01*
X129068590Y-65769850D02*
X130846590Y-65769850D01*
D15*
X143183370Y-80118310D02*
X143183370Y-59120130D01*
D14*
X137704590Y-63100310D02*
X139482590Y-63100310D01*
D15*
X129779790Y-65048490D02*
X129779790Y-57695190D01*
D14*
X130846590Y-65769850D02*
X130846590Y-63100310D01*
X131735590Y-59798310D02*
X136815590Y-59798310D01*
X129068590Y-63100310D02*
X130846590Y-63100310D01*
D15*
X126056150Y-59120130D02*
X125385590Y-59790690D01*
D14*
X137704590Y-59036310D02*
X139482590Y-59036310D01*
X139482590Y-61703310D02*
X139482590Y-59036310D01*
X131735590Y-76943310D02*
X137450590Y-76943310D01*
X136815590Y-62338310D02*
X136815590Y-59798310D01*
X131735590Y-62338310D02*
X136815590Y-62338310D01*
D15*
X129784870Y-57695190D02*
X138779010Y-57695190D01*
D14*
X137704590Y-61703310D02*
X139482590Y-61703310D01*
D15*
X138779010Y-57695190D02*
X138779010Y-65048490D01*
D14*
X139482590Y-65769850D02*
X139482590Y-63100310D01*
X131735590Y-79483310D02*
X137450590Y-79483310D01*
X137450590Y-79483310D02*
X137450590Y-76943310D01*
X129068590Y-59036310D02*
X130846590Y-59036310D01*
X131735590Y-79483310D02*
X131735590Y-76943310D01*
D15*
X125385590Y-80118310D02*
X143183370Y-80118310D01*
D14*
X130846590Y-61703310D02*
X130846590Y-59036310D01*
X129068590Y-61703310D02*
X129068590Y-59036310D01*
X129068590Y-61703310D02*
X130846590Y-61703310D01*
D15*
X143183370Y-59120130D02*
X126056150Y-59120130D01*
D14*
X137704590Y-65769850D02*
X139482590Y-65769850D01*
D15*
X138779010Y-65048490D02*
X129779790Y-65048490D01*
D14*
X137704590Y-65769850D02*
X137704590Y-63100310D01*
X129068590Y-65769850D02*
X129068590Y-63100310D01*
X131735590Y-62338310D02*
X131735590Y-59798310D01*
D15*
X125385590Y-59790690D02*
X125385590Y-80118310D01*
D16*
X124623590Y-61957310D02*
G75*
G03*
X124623590Y-61957310I-127000J0D01*
G01*
D13*
%TO.C,SW5*%
X186400000Y-92600000D02*
X201600000Y-92600000D01*
X186400000Y-77400000D02*
X186400000Y-92600000D01*
X201600000Y-77400000D02*
X186400000Y-77400000D01*
X201600000Y-92600000D02*
X201600000Y-77400000D01*
%TO.C,SW8*%
X55400000Y-57400000D02*
X55400000Y-72600000D01*
X70600000Y-57400000D02*
X55400000Y-57400000D01*
X70600000Y-72600000D02*
X70600000Y-57400000D01*
X55400000Y-72600000D02*
X70600000Y-72600000D01*
%TO.C,SW1*%
X37400000Y-77600000D02*
X52600000Y-77600000D01*
X52600000Y-77600000D02*
X52600000Y-62400000D01*
X37400000Y-62400000D02*
X37400000Y-77600000D01*
X52600000Y-62400000D02*
X37400000Y-62400000D01*
%TO.C,SW9*%
X70600000Y-74400000D02*
X55400000Y-74400000D01*
X55400000Y-74400000D02*
X55400000Y-89600000D01*
X55400000Y-89600000D02*
X70600000Y-89600000D01*
X70600000Y-89600000D02*
X70600000Y-74400000D01*
%TO.C,SW24*%
X91400000Y-89600000D02*
X106600000Y-89600000D01*
X106600000Y-74400000D02*
X91400000Y-74400000D01*
X91400000Y-74400000D02*
X91400000Y-89600000D01*
X106600000Y-89600000D02*
X106600000Y-74400000D01*
%TO.C,SW36*%
X273600000Y-111600000D02*
X273600000Y-96400000D01*
X273600000Y-96400000D02*
X258400000Y-96400000D01*
X258400000Y-96400000D02*
X258400000Y-111600000D01*
X258400000Y-111600000D02*
X273600000Y-111600000D01*
%TO.C,SW6*%
X201600000Y-94400000D02*
X186400000Y-94400000D01*
X186400000Y-94400000D02*
X186400000Y-109600000D01*
X201600000Y-109600000D02*
X201600000Y-94400000D01*
X186400000Y-109600000D02*
X201600000Y-109600000D01*
%TO.C,J1*%
X134644722Y-106843436D02*
X133704722Y-108471564D01*
X138575855Y-108974513D02*
X139433220Y-109469513D01*
X134825792Y-110469814D02*
X136990855Y-111719814D01*
X136990855Y-111719814D02*
X137515855Y-110810487D01*
X139100855Y-108065186D02*
X138575855Y-108974513D01*
X136935792Y-106815186D02*
X139100855Y-108065186D01*
%TO.C,J3*%
X158486679Y-108043437D02*
X159216679Y-109307834D01*
X161241679Y-112815237D02*
X160341679Y-111256391D01*
X158486679Y-108043437D02*
X166228947Y-103573437D01*
X166228947Y-103573437D02*
X166958947Y-104837834D01*
X168983947Y-108345237D02*
X168083947Y-106786391D01*
%TO.C,SW11*%
X204400000Y-72600000D02*
X219600000Y-72600000D01*
X204400000Y-57400000D02*
X204400000Y-72600000D01*
X219600000Y-72600000D02*
X219600000Y-57400000D01*
X219600000Y-57400000D02*
X204400000Y-57400000D01*
%TO.C,SW12*%
X204400000Y-89600000D02*
X219600000Y-89600000D01*
X204400000Y-74400000D02*
X204400000Y-89600000D01*
X219600000Y-89600000D02*
X219600000Y-74400000D01*
X219600000Y-74400000D02*
X204400000Y-74400000D01*
%TO.C,SW30*%
X109400000Y-75600000D02*
X124600000Y-75600000D01*
X109400000Y-60400000D02*
X109400000Y-75600000D01*
X124600000Y-75600000D02*
X124600000Y-60400000D01*
X124600000Y-60400000D02*
X109400000Y-60400000D01*
%TO.C,SW27*%
X240400000Y-72600000D02*
X255600000Y-72600000D01*
X255600000Y-72600000D02*
X255600000Y-57400000D01*
X240400000Y-57400000D02*
X240400000Y-72600000D01*
X255600000Y-57400000D02*
X240400000Y-57400000D01*
%TO.C,SW18*%
X80400000Y-110400000D02*
X80400000Y-125600000D01*
X95600000Y-110400000D02*
X80400000Y-110400000D01*
X95600000Y-125600000D02*
X95600000Y-110400000D01*
X80400000Y-125600000D02*
X95600000Y-125600000D01*
%TO.C,SW16*%
X73400000Y-86600000D02*
X88600000Y-86600000D01*
X73400000Y-71400000D02*
X73400000Y-86600000D01*
X88600000Y-71400000D02*
X73400000Y-71400000D01*
X88600000Y-86600000D02*
X88600000Y-71400000D01*
%TO.C,SW26*%
X114374012Y-130308061D02*
X118308061Y-115625988D01*
X99691939Y-126374012D02*
X114374012Y-130308061D01*
X103625988Y-111691939D02*
X99691939Y-126374012D01*
X118308061Y-115625988D02*
X103625988Y-111691939D01*
%TO.C,SW33*%
X120618207Y-127781793D02*
X133781793Y-135381793D01*
X128218207Y-114618207D02*
X120618207Y-127781793D01*
X133781793Y-135381793D02*
X141381793Y-122218207D01*
X141381793Y-122218207D02*
X128218207Y-114618207D01*
%TO.C,SW38*%
X140829100Y-76746900D02*
G75*
G03*
X140829100Y-76746900I-381000J0D01*
G01*
%TD*%
M02*
