%TF.GenerationSoftware,KiCad,Pcbnew,(6.0.8-1)-1*%
%TF.CreationDate,2022-11-15T13:56:25-05:00*%
%TF.ProjectId,kb2,6b62322e-6b69-4636-9164-5f7063625858,rev?*%
%TF.SameCoordinates,Original*%
%TF.FileFunction,Legend,Bot*%
%TF.FilePolarity,Positive*%
%FSLAX46Y46*%
G04 Gerber Fmt 4.6, Leading zero omitted, Abs format (unit mm)*
G04 Created by KiCad (PCBNEW (6.0.8-1)-1) date 2022-11-15 13:56:25*
%MOMM*%
%LPD*%
G01*
G04 APERTURE LIST*
%ADD10C,0.150000*%
%ADD11C,0.120000*%
G04 APERTURE END LIST*
D10*
%TO.C,D32*%
X118214285Y-108452380D02*
X118214285Y-107452380D01*
X117976190Y-107452380D01*
X117833333Y-107500000D01*
X117738095Y-107595238D01*
X117690476Y-107690476D01*
X117642857Y-107880952D01*
X117642857Y-108023809D01*
X117690476Y-108214285D01*
X117738095Y-108309523D01*
X117833333Y-108404761D01*
X117976190Y-108452380D01*
X118214285Y-108452380D01*
X117309523Y-107452380D02*
X116690476Y-107452380D01*
X117023809Y-107833333D01*
X116880952Y-107833333D01*
X116785714Y-107880952D01*
X116738095Y-107928571D01*
X116690476Y-108023809D01*
X116690476Y-108261904D01*
X116738095Y-108357142D01*
X116785714Y-108404761D01*
X116880952Y-108452380D01*
X117166666Y-108452380D01*
X117261904Y-108404761D01*
X117309523Y-108357142D01*
X116309523Y-107547619D02*
X116261904Y-107500000D01*
X116166666Y-107452380D01*
X115928571Y-107452380D01*
X115833333Y-107500000D01*
X115785714Y-107547619D01*
X115738095Y-107642857D01*
X115738095Y-107738095D01*
X115785714Y-107880952D01*
X116357142Y-108452380D01*
X115738095Y-108452380D01*
%TO.C,D17*%
X82214285Y-102452380D02*
X82214285Y-101452380D01*
X81976190Y-101452380D01*
X81833333Y-101500000D01*
X81738095Y-101595238D01*
X81690476Y-101690476D01*
X81642857Y-101880952D01*
X81642857Y-102023809D01*
X81690476Y-102214285D01*
X81738095Y-102309523D01*
X81833333Y-102404761D01*
X81976190Y-102452380D01*
X82214285Y-102452380D01*
X80690476Y-102452380D02*
X81261904Y-102452380D01*
X80976190Y-102452380D02*
X80976190Y-101452380D01*
X81071428Y-101595238D01*
X81166666Y-101690476D01*
X81261904Y-101738095D01*
X80357142Y-101452380D02*
X79690476Y-101452380D01*
X80119047Y-102452380D01*
%TO.C,D27*%
X249214285Y-71452380D02*
X249214285Y-70452380D01*
X248976190Y-70452380D01*
X248833333Y-70500000D01*
X248738095Y-70595238D01*
X248690476Y-70690476D01*
X248642857Y-70880952D01*
X248642857Y-71023809D01*
X248690476Y-71214285D01*
X248738095Y-71309523D01*
X248833333Y-71404761D01*
X248976190Y-71452380D01*
X249214285Y-71452380D01*
X248261904Y-70547619D02*
X248214285Y-70500000D01*
X248119047Y-70452380D01*
X247880952Y-70452380D01*
X247785714Y-70500000D01*
X247738095Y-70547619D01*
X247690476Y-70642857D01*
X247690476Y-70738095D01*
X247738095Y-70880952D01*
X248309523Y-71452380D01*
X247690476Y-71452380D01*
X247357142Y-70452380D02*
X246690476Y-70452380D01*
X247119047Y-71452380D01*
%TO.C,D5*%
X194738095Y-91452380D02*
X194738095Y-90452380D01*
X194500000Y-90452380D01*
X194357142Y-90500000D01*
X194261904Y-90595238D01*
X194214285Y-90690476D01*
X194166666Y-90880952D01*
X194166666Y-91023809D01*
X194214285Y-91214285D01*
X194261904Y-91309523D01*
X194357142Y-91404761D01*
X194500000Y-91452380D01*
X194738095Y-91452380D01*
X193261904Y-90452380D02*
X193738095Y-90452380D01*
X193785714Y-90928571D01*
X193738095Y-90880952D01*
X193642857Y-90833333D01*
X193404761Y-90833333D01*
X193309523Y-90880952D01*
X193261904Y-90928571D01*
X193214285Y-91023809D01*
X193214285Y-91261904D01*
X193261904Y-91357142D01*
X193309523Y-91404761D01*
X193404761Y-91452380D01*
X193642857Y-91452380D01*
X193738095Y-91404761D01*
X193785714Y-91357142D01*
%TO.C,D26*%
X110214285Y-127452380D02*
X110214285Y-126452380D01*
X109976190Y-126452380D01*
X109833333Y-126500000D01*
X109738095Y-126595238D01*
X109690476Y-126690476D01*
X109642857Y-126880952D01*
X109642857Y-127023809D01*
X109690476Y-127214285D01*
X109738095Y-127309523D01*
X109833333Y-127404761D01*
X109976190Y-127452380D01*
X110214285Y-127452380D01*
X109261904Y-126547619D02*
X109214285Y-126500000D01*
X109119047Y-126452380D01*
X108880952Y-126452380D01*
X108785714Y-126500000D01*
X108738095Y-126547619D01*
X108690476Y-126642857D01*
X108690476Y-126738095D01*
X108738095Y-126880952D01*
X109309523Y-127452380D01*
X108690476Y-127452380D01*
X107833333Y-126452380D02*
X108023809Y-126452380D01*
X108119047Y-126500000D01*
X108166666Y-126547619D01*
X108261904Y-126690476D01*
X108309523Y-126880952D01*
X108309523Y-127261904D01*
X108261904Y-127357142D01*
X108214285Y-127404761D01*
X108119047Y-127452380D01*
X107928571Y-127452380D01*
X107833333Y-127404761D01*
X107785714Y-127357142D01*
X107738095Y-127261904D01*
X107738095Y-127023809D01*
X107785714Y-126928571D01*
X107833333Y-126880952D01*
X107928571Y-126833333D01*
X108119047Y-126833333D01*
X108214285Y-126880952D01*
X108261904Y-126928571D01*
X108309523Y-127023809D01*
%TO.C,D31*%
X118214285Y-91452380D02*
X118214285Y-90452380D01*
X117976190Y-90452380D01*
X117833333Y-90500000D01*
X117738095Y-90595238D01*
X117690476Y-90690476D01*
X117642857Y-90880952D01*
X117642857Y-91023809D01*
X117690476Y-91214285D01*
X117738095Y-91309523D01*
X117833333Y-91404761D01*
X117976190Y-91452380D01*
X118214285Y-91452380D01*
X117309523Y-90452380D02*
X116690476Y-90452380D01*
X117023809Y-90833333D01*
X116880952Y-90833333D01*
X116785714Y-90880952D01*
X116738095Y-90928571D01*
X116690476Y-91023809D01*
X116690476Y-91261904D01*
X116738095Y-91357142D01*
X116785714Y-91404761D01*
X116880952Y-91452380D01*
X117166666Y-91452380D01*
X117261904Y-91404761D01*
X117309523Y-91357142D01*
X115738095Y-91452380D02*
X116309523Y-91452380D01*
X116023809Y-91452380D02*
X116023809Y-90452380D01*
X116119047Y-90595238D01*
X116214285Y-90690476D01*
X116309523Y-90738095D01*
%TO.C,D22*%
X224214285Y-124452380D02*
X224214285Y-123452380D01*
X223976190Y-123452380D01*
X223833333Y-123500000D01*
X223738095Y-123595238D01*
X223690476Y-123690476D01*
X223642857Y-123880952D01*
X223642857Y-124023809D01*
X223690476Y-124214285D01*
X223738095Y-124309523D01*
X223833333Y-124404761D01*
X223976190Y-124452380D01*
X224214285Y-124452380D01*
X223261904Y-123547619D02*
X223214285Y-123500000D01*
X223119047Y-123452380D01*
X222880952Y-123452380D01*
X222785714Y-123500000D01*
X222738095Y-123547619D01*
X222690476Y-123642857D01*
X222690476Y-123738095D01*
X222738095Y-123880952D01*
X223309523Y-124452380D01*
X222690476Y-124452380D01*
X222309523Y-123547619D02*
X222261904Y-123500000D01*
X222166666Y-123452380D01*
X221928571Y-123452380D01*
X221833333Y-123500000D01*
X221785714Y-123547619D01*
X221738095Y-123642857D01*
X221738095Y-123738095D01*
X221785714Y-123880952D01*
X222357142Y-124452380D01*
X221738095Y-124452380D01*
%TO.C,U2*%
X137152380Y-70238095D02*
X137961904Y-70238095D01*
X138057142Y-70285714D01*
X138104761Y-70333333D01*
X138152380Y-70428571D01*
X138152380Y-70619047D01*
X138104761Y-70714285D01*
X138057142Y-70761904D01*
X137961904Y-70809523D01*
X137152380Y-70809523D01*
X137247619Y-71238095D02*
X137200000Y-71285714D01*
X137152380Y-71380952D01*
X137152380Y-71619047D01*
X137200000Y-71714285D01*
X137247619Y-71761904D01*
X137342857Y-71809523D01*
X137438095Y-71809523D01*
X137580952Y-71761904D01*
X138152380Y-71190476D01*
X138152380Y-71809523D01*
%TO.C,D19*%
X231214285Y-68452380D02*
X231214285Y-67452380D01*
X230976190Y-67452380D01*
X230833333Y-67500000D01*
X230738095Y-67595238D01*
X230690476Y-67690476D01*
X230642857Y-67880952D01*
X230642857Y-68023809D01*
X230690476Y-68214285D01*
X230738095Y-68309523D01*
X230833333Y-68404761D01*
X230976190Y-68452380D01*
X231214285Y-68452380D01*
X229690476Y-68452380D02*
X230261904Y-68452380D01*
X229976190Y-68452380D02*
X229976190Y-67452380D01*
X230071428Y-67595238D01*
X230166666Y-67690476D01*
X230261904Y-67738095D01*
X229214285Y-68452380D02*
X229023809Y-68452380D01*
X228928571Y-68404761D01*
X228880952Y-68357142D01*
X228785714Y-68214285D01*
X228738095Y-68023809D01*
X228738095Y-67642857D01*
X228785714Y-67547619D01*
X228833333Y-67500000D01*
X228928571Y-67452380D01*
X229119047Y-67452380D01*
X229214285Y-67500000D01*
X229261904Y-67547619D01*
X229309523Y-67642857D01*
X229309523Y-67880952D01*
X229261904Y-67976190D01*
X229214285Y-68023809D01*
X229119047Y-68071428D01*
X228928571Y-68071428D01*
X228833333Y-68023809D01*
X228785714Y-67976190D01*
X228738095Y-67880952D01*
%TO.C,D28*%
X249214285Y-88452380D02*
X249214285Y-87452380D01*
X248976190Y-87452380D01*
X248833333Y-87500000D01*
X248738095Y-87595238D01*
X248690476Y-87690476D01*
X248642857Y-87880952D01*
X248642857Y-88023809D01*
X248690476Y-88214285D01*
X248738095Y-88309523D01*
X248833333Y-88404761D01*
X248976190Y-88452380D01*
X249214285Y-88452380D01*
X248261904Y-87547619D02*
X248214285Y-87500000D01*
X248119047Y-87452380D01*
X247880952Y-87452380D01*
X247785714Y-87500000D01*
X247738095Y-87547619D01*
X247690476Y-87642857D01*
X247690476Y-87738095D01*
X247738095Y-87880952D01*
X248309523Y-88452380D01*
X247690476Y-88452380D01*
X247119047Y-87880952D02*
X247214285Y-87833333D01*
X247261904Y-87785714D01*
X247309523Y-87690476D01*
X247309523Y-87642857D01*
X247261904Y-87547619D01*
X247214285Y-87500000D01*
X247119047Y-87452380D01*
X246928571Y-87452380D01*
X246833333Y-87500000D01*
X246785714Y-87547619D01*
X246738095Y-87642857D01*
X246738095Y-87690476D01*
X246785714Y-87785714D01*
X246833333Y-87833333D01*
X246928571Y-87880952D01*
X247119047Y-87880952D01*
X247214285Y-87928571D01*
X247261904Y-87976190D01*
X247309523Y-88071428D01*
X247309523Y-88261904D01*
X247261904Y-88357142D01*
X247214285Y-88404761D01*
X247119047Y-88452380D01*
X246928571Y-88452380D01*
X246833333Y-88404761D01*
X246785714Y-88357142D01*
X246738095Y-88261904D01*
X246738095Y-88071428D01*
X246785714Y-87976190D01*
X246833333Y-87928571D01*
X246928571Y-87880952D01*
%TO.C,D36*%
X267214285Y-110452380D02*
X267214285Y-109452380D01*
X266976190Y-109452380D01*
X266833333Y-109500000D01*
X266738095Y-109595238D01*
X266690476Y-109690476D01*
X266642857Y-109880952D01*
X266642857Y-110023809D01*
X266690476Y-110214285D01*
X266738095Y-110309523D01*
X266833333Y-110404761D01*
X266976190Y-110452380D01*
X267214285Y-110452380D01*
X266309523Y-109452380D02*
X265690476Y-109452380D01*
X266023809Y-109833333D01*
X265880952Y-109833333D01*
X265785714Y-109880952D01*
X265738095Y-109928571D01*
X265690476Y-110023809D01*
X265690476Y-110261904D01*
X265738095Y-110357142D01*
X265785714Y-110404761D01*
X265880952Y-110452380D01*
X266166666Y-110452380D01*
X266261904Y-110404761D01*
X266309523Y-110357142D01*
X264833333Y-109452380D02*
X265023809Y-109452380D01*
X265119047Y-109500000D01*
X265166666Y-109547619D01*
X265261904Y-109690476D01*
X265309523Y-109880952D01*
X265309523Y-110261904D01*
X265261904Y-110357142D01*
X265214285Y-110404761D01*
X265119047Y-110452380D01*
X264928571Y-110452380D01*
X264833333Y-110404761D01*
X264785714Y-110357142D01*
X264738095Y-110261904D01*
X264738095Y-110023809D01*
X264785714Y-109928571D01*
X264833333Y-109880952D01*
X264928571Y-109833333D01*
X265119047Y-109833333D01*
X265214285Y-109880952D01*
X265261904Y-109928571D01*
X265309523Y-110023809D01*
%TO.C,D15*%
X82214285Y-68452380D02*
X82214285Y-67452380D01*
X81976190Y-67452380D01*
X81833333Y-67500000D01*
X81738095Y-67595238D01*
X81690476Y-67690476D01*
X81642857Y-67880952D01*
X81642857Y-68023809D01*
X81690476Y-68214285D01*
X81738095Y-68309523D01*
X81833333Y-68404761D01*
X81976190Y-68452380D01*
X82214285Y-68452380D01*
X80690476Y-68452380D02*
X81261904Y-68452380D01*
X80976190Y-68452380D02*
X80976190Y-67452380D01*
X81071428Y-67595238D01*
X81166666Y-67690476D01*
X81261904Y-67738095D01*
X79785714Y-67452380D02*
X80261904Y-67452380D01*
X80309523Y-67928571D01*
X80261904Y-67880952D01*
X80166666Y-67833333D01*
X79928571Y-67833333D01*
X79833333Y-67880952D01*
X79785714Y-67928571D01*
X79738095Y-68023809D01*
X79738095Y-68261904D01*
X79785714Y-68357142D01*
X79833333Y-68404761D01*
X79928571Y-68452380D01*
X80166666Y-68452380D01*
X80261904Y-68404761D01*
X80309523Y-68357142D01*
%TO.C,D9*%
X63738095Y-88452380D02*
X63738095Y-87452380D01*
X63500000Y-87452380D01*
X63357142Y-87500000D01*
X63261904Y-87595238D01*
X63214285Y-87690476D01*
X63166666Y-87880952D01*
X63166666Y-88023809D01*
X63214285Y-88214285D01*
X63261904Y-88309523D01*
X63357142Y-88404761D01*
X63500000Y-88452380D01*
X63738095Y-88452380D01*
X62690476Y-88452380D02*
X62500000Y-88452380D01*
X62404761Y-88404761D01*
X62357142Y-88357142D01*
X62261904Y-88214285D01*
X62214285Y-88023809D01*
X62214285Y-87642857D01*
X62261904Y-87547619D01*
X62309523Y-87500000D01*
X62404761Y-87452380D01*
X62595238Y-87452380D01*
X62690476Y-87500000D01*
X62738095Y-87547619D01*
X62785714Y-87642857D01*
X62785714Y-87880952D01*
X62738095Y-87976190D01*
X62690476Y-88023809D01*
X62595238Y-88071428D01*
X62404761Y-88071428D01*
X62309523Y-88023809D01*
X62261904Y-87976190D01*
X62214285Y-87880952D01*
%TO.C,D16*%
X82214285Y-85452380D02*
X82214285Y-84452380D01*
X81976190Y-84452380D01*
X81833333Y-84500000D01*
X81738095Y-84595238D01*
X81690476Y-84690476D01*
X81642857Y-84880952D01*
X81642857Y-85023809D01*
X81690476Y-85214285D01*
X81738095Y-85309523D01*
X81833333Y-85404761D01*
X81976190Y-85452380D01*
X82214285Y-85452380D01*
X80690476Y-85452380D02*
X81261904Y-85452380D01*
X80976190Y-85452380D02*
X80976190Y-84452380D01*
X81071428Y-84595238D01*
X81166666Y-84690476D01*
X81261904Y-84738095D01*
X79833333Y-84452380D02*
X80023809Y-84452380D01*
X80119047Y-84500000D01*
X80166666Y-84547619D01*
X80261904Y-84690476D01*
X80309523Y-84880952D01*
X80309523Y-85261904D01*
X80261904Y-85357142D01*
X80214285Y-85404761D01*
X80119047Y-85452380D01*
X79928571Y-85452380D01*
X79833333Y-85404761D01*
X79785714Y-85357142D01*
X79738095Y-85261904D01*
X79738095Y-85023809D01*
X79785714Y-84928571D01*
X79833333Y-84880952D01*
X79928571Y-84833333D01*
X80119047Y-84833333D01*
X80214285Y-84880952D01*
X80261904Y-84928571D01*
X80309523Y-85023809D01*
%TO.C,D4*%
X194738095Y-74452380D02*
X194738095Y-73452380D01*
X194500000Y-73452380D01*
X194357142Y-73500000D01*
X194261904Y-73595238D01*
X194214285Y-73690476D01*
X194166666Y-73880952D01*
X194166666Y-74023809D01*
X194214285Y-74214285D01*
X194261904Y-74309523D01*
X194357142Y-74404761D01*
X194500000Y-74452380D01*
X194738095Y-74452380D01*
X193309523Y-73785714D02*
X193309523Y-74452380D01*
X193547619Y-73404761D02*
X193785714Y-74119047D01*
X193166666Y-74119047D01*
%TO.C,D30*%
X118214285Y-74452380D02*
X118214285Y-73452380D01*
X117976190Y-73452380D01*
X117833333Y-73500000D01*
X117738095Y-73595238D01*
X117690476Y-73690476D01*
X117642857Y-73880952D01*
X117642857Y-74023809D01*
X117690476Y-74214285D01*
X117738095Y-74309523D01*
X117833333Y-74404761D01*
X117976190Y-74452380D01*
X118214285Y-74452380D01*
X117309523Y-73452380D02*
X116690476Y-73452380D01*
X117023809Y-73833333D01*
X116880952Y-73833333D01*
X116785714Y-73880952D01*
X116738095Y-73928571D01*
X116690476Y-74023809D01*
X116690476Y-74261904D01*
X116738095Y-74357142D01*
X116785714Y-74404761D01*
X116880952Y-74452380D01*
X117166666Y-74452380D01*
X117261904Y-74404761D01*
X117309523Y-74357142D01*
X116071428Y-73452380D02*
X115976190Y-73452380D01*
X115880952Y-73500000D01*
X115833333Y-73547619D01*
X115785714Y-73642857D01*
X115738095Y-73833333D01*
X115738095Y-74071428D01*
X115785714Y-74261904D01*
X115833333Y-74357142D01*
X115880952Y-74404761D01*
X115976190Y-74452380D01*
X116071428Y-74452380D01*
X116166666Y-74404761D01*
X116214285Y-74357142D01*
X116261904Y-74261904D01*
X116309523Y-74071428D01*
X116309523Y-73833333D01*
X116261904Y-73642857D01*
X116214285Y-73547619D01*
X116166666Y-73500000D01*
X116071428Y-73452380D01*
%TO.C,SW38*%
X140852861Y-80690476D02*
X140900480Y-80833333D01*
X140900480Y-81071428D01*
X140852861Y-81166666D01*
X140805242Y-81214285D01*
X140710004Y-81261904D01*
X140614766Y-81261904D01*
X140519528Y-81214285D01*
X140471909Y-81166666D01*
X140424290Y-81071428D01*
X140376671Y-80880952D01*
X140329052Y-80785714D01*
X140281433Y-80738095D01*
X140186195Y-80690476D01*
X140090957Y-80690476D01*
X139995719Y-80738095D01*
X139948100Y-80785714D01*
X139900480Y-80880952D01*
X139900480Y-81119047D01*
X139948100Y-81261904D01*
X139900480Y-81595238D02*
X140900480Y-81833333D01*
X140186195Y-82023809D01*
X140900480Y-82214285D01*
X139900480Y-82452380D01*
X139900480Y-82738095D02*
X139900480Y-83357142D01*
X140281433Y-83023809D01*
X140281433Y-83166666D01*
X140329052Y-83261904D01*
X140376671Y-83309523D01*
X140471909Y-83357142D01*
X140710004Y-83357142D01*
X140805242Y-83309523D01*
X140852861Y-83261904D01*
X140900480Y-83166666D01*
X140900480Y-82880952D01*
X140852861Y-82785714D01*
X140805242Y-82738095D01*
X140329052Y-83928571D02*
X140281433Y-83833333D01*
X140233814Y-83785714D01*
X140138576Y-83738095D01*
X140090957Y-83738095D01*
X139995719Y-83785714D01*
X139948100Y-83833333D01*
X139900480Y-83928571D01*
X139900480Y-84119047D01*
X139948100Y-84214285D01*
X139995719Y-84261904D01*
X140090957Y-84309523D01*
X140138576Y-84309523D01*
X140233814Y-84261904D01*
X140281433Y-84214285D01*
X140329052Y-84119047D01*
X140329052Y-83928571D01*
X140376671Y-83833333D01*
X140424290Y-83785714D01*
X140519528Y-83738095D01*
X140710004Y-83738095D01*
X140805242Y-83785714D01*
X140852861Y-83833333D01*
X140900480Y-83928571D01*
X140900480Y-84119047D01*
X140852861Y-84214285D01*
X140805242Y-84261904D01*
X140710004Y-84309523D01*
X140519528Y-84309523D01*
X140424290Y-84261904D01*
X140376671Y-84214285D01*
X140329052Y-84119047D01*
X140852861Y-79404761D02*
X140900480Y-79547619D01*
X140900480Y-79785714D01*
X140852861Y-79880952D01*
X140805242Y-79928571D01*
X140710004Y-79976190D01*
X140614766Y-79976190D01*
X140519528Y-79928571D01*
X140471909Y-79880952D01*
X140424290Y-79785714D01*
X140376671Y-79595238D01*
X140329052Y-79500000D01*
X140281433Y-79452380D01*
X140186195Y-79404761D01*
X140090957Y-79404761D01*
X139995719Y-79452380D01*
X139948100Y-79500000D01*
X139900480Y-79595238D01*
X139900480Y-79833333D01*
X139948100Y-79976190D01*
X139900480Y-80309523D02*
X140900480Y-80547619D01*
X140186195Y-80738095D01*
X140900480Y-80928571D01*
X139900480Y-81166666D01*
X140995719Y-81309523D02*
X140995719Y-82071428D01*
X140852861Y-82261904D02*
X140900480Y-82404761D01*
X140900480Y-82642857D01*
X140852861Y-82738095D01*
X140805242Y-82785714D01*
X140710004Y-82833333D01*
X140614766Y-82833333D01*
X140519528Y-82785714D01*
X140471909Y-82738095D01*
X140424290Y-82642857D01*
X140376671Y-82452380D01*
X140329052Y-82357142D01*
X140281433Y-82309523D01*
X140186195Y-82261904D01*
X140090957Y-82261904D01*
X139995719Y-82309523D01*
X139948100Y-82357142D01*
X139900480Y-82452380D01*
X139900480Y-82690476D01*
X139948100Y-82833333D01*
X140900480Y-83261904D02*
X139900480Y-83261904D01*
X139900480Y-83642857D01*
X139948100Y-83738095D01*
X139995719Y-83785714D01*
X140090957Y-83833333D01*
X140233814Y-83833333D01*
X140329052Y-83785714D01*
X140376671Y-83738095D01*
X140424290Y-83642857D01*
X140424290Y-83261904D01*
X140900480Y-84261904D02*
X139900480Y-84261904D01*
X139900480Y-84500000D01*
X139948100Y-84642857D01*
X140043338Y-84738095D01*
X140138576Y-84785714D01*
X140329052Y-84833333D01*
X140471909Y-84833333D01*
X140662385Y-84785714D01*
X140757623Y-84738095D01*
X140852861Y-84642857D01*
X140900480Y-84500000D01*
X140900480Y-84261904D01*
X139900480Y-85119047D02*
X139900480Y-85690476D01*
X140900480Y-85404761D02*
X139900480Y-85404761D01*
X141952380Y-82500000D02*
X142190476Y-82500000D01*
X142095238Y-82261904D02*
X142190476Y-82500000D01*
X142095238Y-82738095D01*
X142380952Y-82357142D02*
X142190476Y-82500000D01*
X142380952Y-82642857D01*
%TO.C,D6*%
X194738095Y-108452380D02*
X194738095Y-107452380D01*
X194500000Y-107452380D01*
X194357142Y-107500000D01*
X194261904Y-107595238D01*
X194214285Y-107690476D01*
X194166666Y-107880952D01*
X194166666Y-108023809D01*
X194214285Y-108214285D01*
X194261904Y-108309523D01*
X194357142Y-108404761D01*
X194500000Y-108452380D01*
X194738095Y-108452380D01*
X193309523Y-107452380D02*
X193500000Y-107452380D01*
X193595238Y-107500000D01*
X193642857Y-107547619D01*
X193738095Y-107690476D01*
X193785714Y-107880952D01*
X193785714Y-108261904D01*
X193738095Y-108357142D01*
X193690476Y-108404761D01*
X193595238Y-108452380D01*
X193404761Y-108452380D01*
X193309523Y-108404761D01*
X193261904Y-108357142D01*
X193214285Y-108261904D01*
X193214285Y-108023809D01*
X193261904Y-107928571D01*
X193309523Y-107880952D01*
X193404761Y-107833333D01*
X193595238Y-107833333D01*
X193690476Y-107880952D01*
X193738095Y-107928571D01*
X193785714Y-108023809D01*
%TO.C,D35*%
X267214285Y-93452380D02*
X267214285Y-92452380D01*
X266976190Y-92452380D01*
X266833333Y-92500000D01*
X266738095Y-92595238D01*
X266690476Y-92690476D01*
X266642857Y-92880952D01*
X266642857Y-93023809D01*
X266690476Y-93214285D01*
X266738095Y-93309523D01*
X266833333Y-93404761D01*
X266976190Y-93452380D01*
X267214285Y-93452380D01*
X266309523Y-92452380D02*
X265690476Y-92452380D01*
X266023809Y-92833333D01*
X265880952Y-92833333D01*
X265785714Y-92880952D01*
X265738095Y-92928571D01*
X265690476Y-93023809D01*
X265690476Y-93261904D01*
X265738095Y-93357142D01*
X265785714Y-93404761D01*
X265880952Y-93452380D01*
X266166666Y-93452380D01*
X266261904Y-93404761D01*
X266309523Y-93357142D01*
X264785714Y-92452380D02*
X265261904Y-92452380D01*
X265309523Y-92928571D01*
X265261904Y-92880952D01*
X265166666Y-92833333D01*
X264928571Y-92833333D01*
X264833333Y-92880952D01*
X264785714Y-92928571D01*
X264738095Y-93023809D01*
X264738095Y-93261904D01*
X264785714Y-93357142D01*
X264833333Y-93404761D01*
X264928571Y-93452380D01*
X265166666Y-93452380D01*
X265261904Y-93404761D01*
X265309523Y-93357142D01*
%TO.C,D3*%
X45738095Y-110452380D02*
X45738095Y-109452380D01*
X45500000Y-109452380D01*
X45357142Y-109500000D01*
X45261904Y-109595238D01*
X45214285Y-109690476D01*
X45166666Y-109880952D01*
X45166666Y-110023809D01*
X45214285Y-110214285D01*
X45261904Y-110309523D01*
X45357142Y-110404761D01*
X45500000Y-110452380D01*
X45738095Y-110452380D01*
X44833333Y-109452380D02*
X44214285Y-109452380D01*
X44547619Y-109833333D01*
X44404761Y-109833333D01*
X44309523Y-109880952D01*
X44261904Y-109928571D01*
X44214285Y-110023809D01*
X44214285Y-110261904D01*
X44261904Y-110357142D01*
X44309523Y-110404761D01*
X44404761Y-110452380D01*
X44690476Y-110452380D01*
X44785714Y-110404761D01*
X44833333Y-110357142D01*
%TO.C,D29*%
X249214285Y-105452380D02*
X249214285Y-104452380D01*
X248976190Y-104452380D01*
X248833333Y-104500000D01*
X248738095Y-104595238D01*
X248690476Y-104690476D01*
X248642857Y-104880952D01*
X248642857Y-105023809D01*
X248690476Y-105214285D01*
X248738095Y-105309523D01*
X248833333Y-105404761D01*
X248976190Y-105452380D01*
X249214285Y-105452380D01*
X248261904Y-104547619D02*
X248214285Y-104500000D01*
X248119047Y-104452380D01*
X247880952Y-104452380D01*
X247785714Y-104500000D01*
X247738095Y-104547619D01*
X247690476Y-104642857D01*
X247690476Y-104738095D01*
X247738095Y-104880952D01*
X248309523Y-105452380D01*
X247690476Y-105452380D01*
X247214285Y-105452380D02*
X247023809Y-105452380D01*
X246928571Y-105404761D01*
X246880952Y-105357142D01*
X246785714Y-105214285D01*
X246738095Y-105023809D01*
X246738095Y-104642857D01*
X246785714Y-104547619D01*
X246833333Y-104500000D01*
X246928571Y-104452380D01*
X247119047Y-104452380D01*
X247214285Y-104500000D01*
X247261904Y-104547619D01*
X247309523Y-104642857D01*
X247309523Y-104880952D01*
X247261904Y-104976190D01*
X247214285Y-105023809D01*
X247119047Y-105071428D01*
X246928571Y-105071428D01*
X246833333Y-105023809D01*
X246785714Y-104976190D01*
X246738095Y-104880952D01*
%TO.C,D12*%
X213214285Y-88452380D02*
X213214285Y-87452380D01*
X212976190Y-87452380D01*
X212833333Y-87500000D01*
X212738095Y-87595238D01*
X212690476Y-87690476D01*
X212642857Y-87880952D01*
X212642857Y-88023809D01*
X212690476Y-88214285D01*
X212738095Y-88309523D01*
X212833333Y-88404761D01*
X212976190Y-88452380D01*
X213214285Y-88452380D01*
X211690476Y-88452380D02*
X212261904Y-88452380D01*
X211976190Y-88452380D02*
X211976190Y-87452380D01*
X212071428Y-87595238D01*
X212166666Y-87690476D01*
X212261904Y-87738095D01*
X211309523Y-87547619D02*
X211261904Y-87500000D01*
X211166666Y-87452380D01*
X210928571Y-87452380D01*
X210833333Y-87500000D01*
X210785714Y-87547619D01*
X210738095Y-87642857D01*
X210738095Y-87738095D01*
X210785714Y-87880952D01*
X211357142Y-88452380D01*
X210738095Y-88452380D01*
%TO.C,D14*%
X203214285Y-127452380D02*
X203214285Y-126452380D01*
X202976190Y-126452380D01*
X202833333Y-126500000D01*
X202738095Y-126595238D01*
X202690476Y-126690476D01*
X202642857Y-126880952D01*
X202642857Y-127023809D01*
X202690476Y-127214285D01*
X202738095Y-127309523D01*
X202833333Y-127404761D01*
X202976190Y-127452380D01*
X203214285Y-127452380D01*
X201690476Y-127452380D02*
X202261904Y-127452380D01*
X201976190Y-127452380D02*
X201976190Y-126452380D01*
X202071428Y-126595238D01*
X202166666Y-126690476D01*
X202261904Y-126738095D01*
X200833333Y-126785714D02*
X200833333Y-127452380D01*
X201071428Y-126404761D02*
X201309523Y-127119047D01*
X200690476Y-127119047D01*
%TO.C,D34*%
X267214285Y-76452380D02*
X267214285Y-75452380D01*
X266976190Y-75452380D01*
X266833333Y-75500000D01*
X266738095Y-75595238D01*
X266690476Y-75690476D01*
X266642857Y-75880952D01*
X266642857Y-76023809D01*
X266690476Y-76214285D01*
X266738095Y-76309523D01*
X266833333Y-76404761D01*
X266976190Y-76452380D01*
X267214285Y-76452380D01*
X266309523Y-75452380D02*
X265690476Y-75452380D01*
X266023809Y-75833333D01*
X265880952Y-75833333D01*
X265785714Y-75880952D01*
X265738095Y-75928571D01*
X265690476Y-76023809D01*
X265690476Y-76261904D01*
X265738095Y-76357142D01*
X265785714Y-76404761D01*
X265880952Y-76452380D01*
X266166666Y-76452380D01*
X266261904Y-76404761D01*
X266309523Y-76357142D01*
X264833333Y-75785714D02*
X264833333Y-76452380D01*
X265071428Y-75404761D02*
X265309523Y-76119047D01*
X264690476Y-76119047D01*
%TO.C,D21*%
X231214285Y-102452380D02*
X231214285Y-101452380D01*
X230976190Y-101452380D01*
X230833333Y-101500000D01*
X230738095Y-101595238D01*
X230690476Y-101690476D01*
X230642857Y-101880952D01*
X230642857Y-102023809D01*
X230690476Y-102214285D01*
X230738095Y-102309523D01*
X230833333Y-102404761D01*
X230976190Y-102452380D01*
X231214285Y-102452380D01*
X230261904Y-101547619D02*
X230214285Y-101500000D01*
X230119047Y-101452380D01*
X229880952Y-101452380D01*
X229785714Y-101500000D01*
X229738095Y-101547619D01*
X229690476Y-101642857D01*
X229690476Y-101738095D01*
X229738095Y-101880952D01*
X230309523Y-102452380D01*
X229690476Y-102452380D01*
X228738095Y-102452380D02*
X229309523Y-102452380D01*
X229023809Y-102452380D02*
X229023809Y-101452380D01*
X229119047Y-101595238D01*
X229214285Y-101690476D01*
X229309523Y-101738095D01*
%TO.C,D10*%
X64214285Y-105452380D02*
X64214285Y-104452380D01*
X63976190Y-104452380D01*
X63833333Y-104500000D01*
X63738095Y-104595238D01*
X63690476Y-104690476D01*
X63642857Y-104880952D01*
X63642857Y-105023809D01*
X63690476Y-105214285D01*
X63738095Y-105309523D01*
X63833333Y-105404761D01*
X63976190Y-105452380D01*
X64214285Y-105452380D01*
X62690476Y-105452380D02*
X63261904Y-105452380D01*
X62976190Y-105452380D02*
X62976190Y-104452380D01*
X63071428Y-104595238D01*
X63166666Y-104690476D01*
X63261904Y-104738095D01*
X62071428Y-104452380D02*
X61976190Y-104452380D01*
X61880952Y-104500000D01*
X61833333Y-104547619D01*
X61785714Y-104642857D01*
X61738095Y-104833333D01*
X61738095Y-105071428D01*
X61785714Y-105261904D01*
X61833333Y-105357142D01*
X61880952Y-105404761D01*
X61976190Y-105452380D01*
X62071428Y-105452380D01*
X62166666Y-105404761D01*
X62214285Y-105357142D01*
X62261904Y-105261904D01*
X62309523Y-105071428D01*
X62309523Y-104833333D01*
X62261904Y-104642857D01*
X62214285Y-104547619D01*
X62166666Y-104500000D01*
X62071428Y-104452380D01*
%TO.C,D2*%
X45738095Y-93452380D02*
X45738095Y-92452380D01*
X45500000Y-92452380D01*
X45357142Y-92500000D01*
X45261904Y-92595238D01*
X45214285Y-92690476D01*
X45166666Y-92880952D01*
X45166666Y-93023809D01*
X45214285Y-93214285D01*
X45261904Y-93309523D01*
X45357142Y-93404761D01*
X45500000Y-93452380D01*
X45738095Y-93452380D01*
X44785714Y-92547619D02*
X44738095Y-92500000D01*
X44642857Y-92452380D01*
X44404761Y-92452380D01*
X44309523Y-92500000D01*
X44261904Y-92547619D01*
X44214285Y-92642857D01*
X44214285Y-92738095D01*
X44261904Y-92880952D01*
X44833333Y-93452380D01*
X44214285Y-93452380D01*
%TO.C,D1*%
X45738095Y-76452380D02*
X45738095Y-75452380D01*
X45500000Y-75452380D01*
X45357142Y-75500000D01*
X45261904Y-75595238D01*
X45214285Y-75690476D01*
X45166666Y-75880952D01*
X45166666Y-76023809D01*
X45214285Y-76214285D01*
X45261904Y-76309523D01*
X45357142Y-76404761D01*
X45500000Y-76452380D01*
X45738095Y-76452380D01*
X44214285Y-76452380D02*
X44785714Y-76452380D01*
X44500000Y-76452380D02*
X44500000Y-75452380D01*
X44595238Y-75595238D01*
X44690476Y-75690476D01*
X44785714Y-75738095D01*
%TO.C,D8*%
X63738095Y-71452380D02*
X63738095Y-70452380D01*
X63500000Y-70452380D01*
X63357142Y-70500000D01*
X63261904Y-70595238D01*
X63214285Y-70690476D01*
X63166666Y-70880952D01*
X63166666Y-71023809D01*
X63214285Y-71214285D01*
X63261904Y-71309523D01*
X63357142Y-71404761D01*
X63500000Y-71452380D01*
X63738095Y-71452380D01*
X62595238Y-70880952D02*
X62690476Y-70833333D01*
X62738095Y-70785714D01*
X62785714Y-70690476D01*
X62785714Y-70642857D01*
X62738095Y-70547619D01*
X62690476Y-70500000D01*
X62595238Y-70452380D01*
X62404761Y-70452380D01*
X62309523Y-70500000D01*
X62261904Y-70547619D01*
X62214285Y-70642857D01*
X62214285Y-70690476D01*
X62261904Y-70785714D01*
X62309523Y-70833333D01*
X62404761Y-70880952D01*
X62595238Y-70880952D01*
X62690476Y-70928571D01*
X62738095Y-70976190D01*
X62785714Y-71071428D01*
X62785714Y-71261904D01*
X62738095Y-71357142D01*
X62690476Y-71404761D01*
X62595238Y-71452380D01*
X62404761Y-71452380D01*
X62309523Y-71404761D01*
X62261904Y-71357142D01*
X62214285Y-71261904D01*
X62214285Y-71071428D01*
X62261904Y-70976190D01*
X62309523Y-70928571D01*
X62404761Y-70880952D01*
%TO.C,D25*%
X100214285Y-105452380D02*
X100214285Y-104452380D01*
X99976190Y-104452380D01*
X99833333Y-104500000D01*
X99738095Y-104595238D01*
X99690476Y-104690476D01*
X99642857Y-104880952D01*
X99642857Y-105023809D01*
X99690476Y-105214285D01*
X99738095Y-105309523D01*
X99833333Y-105404761D01*
X99976190Y-105452380D01*
X100214285Y-105452380D01*
X99261904Y-104547619D02*
X99214285Y-104500000D01*
X99119047Y-104452380D01*
X98880952Y-104452380D01*
X98785714Y-104500000D01*
X98738095Y-104547619D01*
X98690476Y-104642857D01*
X98690476Y-104738095D01*
X98738095Y-104880952D01*
X99309523Y-105452380D01*
X98690476Y-105452380D01*
X97785714Y-104452380D02*
X98261904Y-104452380D01*
X98309523Y-104928571D01*
X98261904Y-104880952D01*
X98166666Y-104833333D01*
X97928571Y-104833333D01*
X97833333Y-104880952D01*
X97785714Y-104928571D01*
X97738095Y-105023809D01*
X97738095Y-105261904D01*
X97785714Y-105357142D01*
X97833333Y-105404761D01*
X97928571Y-105452380D01*
X98166666Y-105452380D01*
X98261904Y-105404761D01*
X98309523Y-105357142D01*
%TO.C,D11*%
X213214285Y-71452380D02*
X213214285Y-70452380D01*
X212976190Y-70452380D01*
X212833333Y-70500000D01*
X212738095Y-70595238D01*
X212690476Y-70690476D01*
X212642857Y-70880952D01*
X212642857Y-71023809D01*
X212690476Y-71214285D01*
X212738095Y-71309523D01*
X212833333Y-71404761D01*
X212976190Y-71452380D01*
X213214285Y-71452380D01*
X211690476Y-71452380D02*
X212261904Y-71452380D01*
X211976190Y-71452380D02*
X211976190Y-70452380D01*
X212071428Y-70595238D01*
X212166666Y-70690476D01*
X212261904Y-70738095D01*
X210738095Y-71452380D02*
X211309523Y-71452380D01*
X211023809Y-71452380D02*
X211023809Y-70452380D01*
X211119047Y-70595238D01*
X211214285Y-70690476D01*
X211309523Y-70738095D01*
%TO.C,D18*%
X89214285Y-124452380D02*
X89214285Y-123452380D01*
X88976190Y-123452380D01*
X88833333Y-123500000D01*
X88738095Y-123595238D01*
X88690476Y-123690476D01*
X88642857Y-123880952D01*
X88642857Y-124023809D01*
X88690476Y-124214285D01*
X88738095Y-124309523D01*
X88833333Y-124404761D01*
X88976190Y-124452380D01*
X89214285Y-124452380D01*
X87690476Y-124452380D02*
X88261904Y-124452380D01*
X87976190Y-124452380D02*
X87976190Y-123452380D01*
X88071428Y-123595238D01*
X88166666Y-123690476D01*
X88261904Y-123738095D01*
X87119047Y-123880952D02*
X87214285Y-123833333D01*
X87261904Y-123785714D01*
X87309523Y-123690476D01*
X87309523Y-123642857D01*
X87261904Y-123547619D01*
X87214285Y-123500000D01*
X87119047Y-123452380D01*
X86928571Y-123452380D01*
X86833333Y-123500000D01*
X86785714Y-123547619D01*
X86738095Y-123642857D01*
X86738095Y-123690476D01*
X86785714Y-123785714D01*
X86833333Y-123833333D01*
X86928571Y-123880952D01*
X87119047Y-123880952D01*
X87214285Y-123928571D01*
X87261904Y-123976190D01*
X87309523Y-124071428D01*
X87309523Y-124261904D01*
X87261904Y-124357142D01*
X87214285Y-124404761D01*
X87119047Y-124452380D01*
X86928571Y-124452380D01*
X86833333Y-124404761D01*
X86785714Y-124357142D01*
X86738095Y-124261904D01*
X86738095Y-124071428D01*
X86785714Y-123976190D01*
X86833333Y-123928571D01*
X86928571Y-123880952D01*
%TO.C,D7*%
X180738095Y-131452380D02*
X180738095Y-130452380D01*
X180500000Y-130452380D01*
X180357142Y-130500000D01*
X180261904Y-130595238D01*
X180214285Y-130690476D01*
X180166666Y-130880952D01*
X180166666Y-131023809D01*
X180214285Y-131214285D01*
X180261904Y-131309523D01*
X180357142Y-131404761D01*
X180500000Y-131452380D01*
X180738095Y-131452380D01*
X179833333Y-130452380D02*
X179166666Y-130452380D01*
X179595238Y-131452380D01*
%TO.C,D33*%
X132214285Y-131452380D02*
X132214285Y-130452380D01*
X131976190Y-130452380D01*
X131833333Y-130500000D01*
X131738095Y-130595238D01*
X131690476Y-130690476D01*
X131642857Y-130880952D01*
X131642857Y-131023809D01*
X131690476Y-131214285D01*
X131738095Y-131309523D01*
X131833333Y-131404761D01*
X131976190Y-131452380D01*
X132214285Y-131452380D01*
X131309523Y-130452380D02*
X130690476Y-130452380D01*
X131023809Y-130833333D01*
X130880952Y-130833333D01*
X130785714Y-130880952D01*
X130738095Y-130928571D01*
X130690476Y-131023809D01*
X130690476Y-131261904D01*
X130738095Y-131357142D01*
X130785714Y-131404761D01*
X130880952Y-131452380D01*
X131166666Y-131452380D01*
X131261904Y-131404761D01*
X131309523Y-131357142D01*
X130357142Y-130452380D02*
X129738095Y-130452380D01*
X130071428Y-130833333D01*
X129928571Y-130833333D01*
X129833333Y-130880952D01*
X129785714Y-130928571D01*
X129738095Y-131023809D01*
X129738095Y-131261904D01*
X129785714Y-131357142D01*
X129833333Y-131404761D01*
X129928571Y-131452380D01*
X130214285Y-131452380D01*
X130309523Y-131404761D01*
X130357142Y-131357142D01*
%TO.C,D23*%
X100214285Y-71452380D02*
X100214285Y-70452380D01*
X99976190Y-70452380D01*
X99833333Y-70500000D01*
X99738095Y-70595238D01*
X99690476Y-70690476D01*
X99642857Y-70880952D01*
X99642857Y-71023809D01*
X99690476Y-71214285D01*
X99738095Y-71309523D01*
X99833333Y-71404761D01*
X99976190Y-71452380D01*
X100214285Y-71452380D01*
X99261904Y-70547619D02*
X99214285Y-70500000D01*
X99119047Y-70452380D01*
X98880952Y-70452380D01*
X98785714Y-70500000D01*
X98738095Y-70547619D01*
X98690476Y-70642857D01*
X98690476Y-70738095D01*
X98738095Y-70880952D01*
X99309523Y-71452380D01*
X98690476Y-71452380D01*
X98357142Y-70452380D02*
X97738095Y-70452380D01*
X98071428Y-70833333D01*
X97928571Y-70833333D01*
X97833333Y-70880952D01*
X97785714Y-70928571D01*
X97738095Y-71023809D01*
X97738095Y-71261904D01*
X97785714Y-71357142D01*
X97833333Y-71404761D01*
X97928571Y-71452380D01*
X98214285Y-71452380D01*
X98309523Y-71404761D01*
X98357142Y-71357142D01*
%TO.C,D20*%
X231214285Y-85452380D02*
X231214285Y-84452380D01*
X230976190Y-84452380D01*
X230833333Y-84500000D01*
X230738095Y-84595238D01*
X230690476Y-84690476D01*
X230642857Y-84880952D01*
X230642857Y-85023809D01*
X230690476Y-85214285D01*
X230738095Y-85309523D01*
X230833333Y-85404761D01*
X230976190Y-85452380D01*
X231214285Y-85452380D01*
X230261904Y-84547619D02*
X230214285Y-84500000D01*
X230119047Y-84452380D01*
X229880952Y-84452380D01*
X229785714Y-84500000D01*
X229738095Y-84547619D01*
X229690476Y-84642857D01*
X229690476Y-84738095D01*
X229738095Y-84880952D01*
X230309523Y-85452380D01*
X229690476Y-85452380D01*
X229071428Y-84452380D02*
X228976190Y-84452380D01*
X228880952Y-84500000D01*
X228833333Y-84547619D01*
X228785714Y-84642857D01*
X228738095Y-84833333D01*
X228738095Y-85071428D01*
X228785714Y-85261904D01*
X228833333Y-85357142D01*
X228880952Y-85404761D01*
X228976190Y-85452380D01*
X229071428Y-85452380D01*
X229166666Y-85404761D01*
X229214285Y-85357142D01*
X229261904Y-85261904D01*
X229309523Y-85071428D01*
X229309523Y-84833333D01*
X229261904Y-84642857D01*
X229214285Y-84547619D01*
X229166666Y-84500000D01*
X229071428Y-84452380D01*
%TO.C,D13*%
X213214285Y-105452380D02*
X213214285Y-104452380D01*
X212976190Y-104452380D01*
X212833333Y-104500000D01*
X212738095Y-104595238D01*
X212690476Y-104690476D01*
X212642857Y-104880952D01*
X212642857Y-105023809D01*
X212690476Y-105214285D01*
X212738095Y-105309523D01*
X212833333Y-105404761D01*
X212976190Y-105452380D01*
X213214285Y-105452380D01*
X211690476Y-105452380D02*
X212261904Y-105452380D01*
X211976190Y-105452380D02*
X211976190Y-104452380D01*
X212071428Y-104595238D01*
X212166666Y-104690476D01*
X212261904Y-104738095D01*
X211357142Y-104452380D02*
X210738095Y-104452380D01*
X211071428Y-104833333D01*
X210928571Y-104833333D01*
X210833333Y-104880952D01*
X210785714Y-104928571D01*
X210738095Y-105023809D01*
X210738095Y-105261904D01*
X210785714Y-105357142D01*
X210833333Y-105404761D01*
X210928571Y-105452380D01*
X211214285Y-105452380D01*
X211309523Y-105404761D01*
X211357142Y-105357142D01*
%TO.C,D24*%
X100214285Y-88452380D02*
X100214285Y-87452380D01*
X99976190Y-87452380D01*
X99833333Y-87500000D01*
X99738095Y-87595238D01*
X99690476Y-87690476D01*
X99642857Y-87880952D01*
X99642857Y-88023809D01*
X99690476Y-88214285D01*
X99738095Y-88309523D01*
X99833333Y-88404761D01*
X99976190Y-88452380D01*
X100214285Y-88452380D01*
X99261904Y-87547619D02*
X99214285Y-87500000D01*
X99119047Y-87452380D01*
X98880952Y-87452380D01*
X98785714Y-87500000D01*
X98738095Y-87547619D01*
X98690476Y-87642857D01*
X98690476Y-87738095D01*
X98738095Y-87880952D01*
X99309523Y-88452380D01*
X98690476Y-88452380D01*
X97833333Y-87785714D02*
X97833333Y-88452380D01*
X98071428Y-87404761D02*
X98309523Y-88119047D01*
X97690476Y-88119047D01*
D11*
%TO.C,SW13*%
X209584000Y-91591000D02*
X210521000Y-90654000D01*
X213671000Y-90734000D02*
X214013000Y-90963000D01*
X219092000Y-93108000D02*
X219281000Y-93391000D01*
X219281000Y-93391000D02*
X219366000Y-93818000D01*
X214701000Y-96861000D02*
X214547000Y-96303000D01*
X213168000Y-95446000D02*
X210521000Y-95446000D01*
X214013000Y-90963000D02*
X214546000Y-91496000D01*
X214209000Y-95850000D02*
X213730000Y-95551000D01*
X218482000Y-92854000D02*
X218809000Y-92919000D01*
X214976000Y-97417000D02*
X214783000Y-97159000D01*
X213730000Y-95551000D02*
X213168000Y-95446000D01*
X214546000Y-91718000D02*
X214633000Y-92156000D01*
X219283000Y-96704000D02*
X219646000Y-96704000D01*
X210521000Y-95446000D02*
X209500000Y-94425000D01*
X219646000Y-96704000D02*
X219646000Y-97646000D01*
X214546000Y-91496000D02*
X214546000Y-91718000D01*
X210521000Y-90654000D02*
X213268000Y-90654000D01*
X215560000Y-97646000D02*
X215250000Y-97587000D01*
X214877000Y-92523000D02*
X215244000Y-92767000D01*
X214633000Y-92156000D02*
X214877000Y-92523000D01*
X214547000Y-96303000D02*
X214209000Y-95850000D01*
X214783000Y-97159000D02*
X214701000Y-96861000D01*
X219646000Y-97646000D02*
X215560000Y-97646000D01*
X215250000Y-97587000D02*
X214976000Y-97417000D01*
X215682000Y-92854000D02*
X218482000Y-92854000D01*
X215244000Y-92767000D02*
X215682000Y-92854000D01*
X218809000Y-92919000D02*
X219092000Y-93108000D01*
X213268000Y-90654000D02*
X213671000Y-90734000D01*
%TO.C,SW25*%
X106092000Y-93108000D02*
X106281000Y-93391000D01*
X100730000Y-95551000D02*
X100168000Y-95446000D01*
X101877000Y-92523000D02*
X102244000Y-92767000D01*
X102682000Y-92854000D02*
X105482000Y-92854000D01*
X102244000Y-92767000D02*
X102682000Y-92854000D01*
X106281000Y-93391000D02*
X106366000Y-93818000D01*
X101013000Y-90963000D02*
X101546000Y-91496000D01*
X97521000Y-90654000D02*
X100268000Y-90654000D01*
X105482000Y-92854000D02*
X105809000Y-92919000D01*
X101976000Y-97417000D02*
X101783000Y-97159000D01*
X101633000Y-92156000D02*
X101877000Y-92523000D01*
X106646000Y-97646000D02*
X102560000Y-97646000D01*
X101546000Y-91718000D02*
X101633000Y-92156000D01*
X101783000Y-97159000D02*
X101701000Y-96861000D01*
X100671000Y-90734000D02*
X101013000Y-90963000D01*
X105809000Y-92919000D02*
X106092000Y-93108000D01*
X100168000Y-95446000D02*
X97521000Y-95446000D01*
X97521000Y-95446000D02*
X96500000Y-94425000D01*
X100268000Y-90654000D02*
X100671000Y-90734000D01*
X106646000Y-96704000D02*
X106646000Y-97646000D01*
X96584000Y-91591000D02*
X97521000Y-90654000D01*
X102560000Y-97646000D02*
X102250000Y-97587000D01*
X101701000Y-96861000D02*
X101547000Y-96303000D01*
X101546000Y-91496000D02*
X101546000Y-91718000D01*
X101547000Y-96303000D02*
X101209000Y-95850000D01*
X106283000Y-96704000D02*
X106646000Y-96704000D01*
X102250000Y-97587000D02*
X101976000Y-97417000D01*
X101209000Y-95850000D02*
X100730000Y-95551000D01*
%TO.C,SW17*%
X84682000Y-89854000D02*
X87482000Y-89854000D01*
X88646000Y-93704000D02*
X88646000Y-94646000D01*
X82730000Y-92551000D02*
X82168000Y-92446000D01*
X82268000Y-87654000D02*
X82671000Y-87734000D01*
X84250000Y-94587000D02*
X83976000Y-94417000D01*
X83209000Y-92850000D02*
X82730000Y-92551000D01*
X83547000Y-93303000D02*
X83209000Y-92850000D01*
X83546000Y-88496000D02*
X83546000Y-88718000D01*
X83546000Y-88718000D02*
X83633000Y-89156000D01*
X79521000Y-87654000D02*
X82268000Y-87654000D01*
X84244000Y-89767000D02*
X84682000Y-89854000D01*
X83877000Y-89523000D02*
X84244000Y-89767000D01*
X88283000Y-93704000D02*
X88646000Y-93704000D01*
X83701000Y-93861000D02*
X83547000Y-93303000D01*
X83013000Y-87963000D02*
X83546000Y-88496000D01*
X84560000Y-94646000D02*
X84250000Y-94587000D01*
X88646000Y-94646000D02*
X84560000Y-94646000D01*
X88092000Y-90108000D02*
X88281000Y-90391000D01*
X79521000Y-92446000D02*
X78500000Y-91425000D01*
X83633000Y-89156000D02*
X83877000Y-89523000D01*
X83976000Y-94417000D02*
X83783000Y-94159000D01*
X83783000Y-94159000D02*
X83701000Y-93861000D01*
X82671000Y-87734000D02*
X83013000Y-87963000D01*
X82168000Y-92446000D02*
X79521000Y-92446000D01*
X88281000Y-90391000D02*
X88366000Y-90818000D01*
X87482000Y-89854000D02*
X87809000Y-89919000D01*
X78584000Y-88591000D02*
X79521000Y-87654000D01*
X87809000Y-89919000D02*
X88092000Y-90108000D01*
%TO.C,SW23*%
X102244000Y-58767000D02*
X102682000Y-58854000D01*
X100671000Y-56734000D02*
X101013000Y-56963000D01*
X106646000Y-63646000D02*
X102560000Y-63646000D01*
X100268000Y-56654000D02*
X100671000Y-56734000D01*
X106281000Y-59391000D02*
X106366000Y-59818000D01*
X101547000Y-62303000D02*
X101209000Y-61850000D01*
X101546000Y-57496000D02*
X101546000Y-57718000D01*
X101877000Y-58523000D02*
X102244000Y-58767000D01*
X101633000Y-58156000D02*
X101877000Y-58523000D01*
X106646000Y-62704000D02*
X106646000Y-63646000D01*
X102682000Y-58854000D02*
X105482000Y-58854000D01*
X101209000Y-61850000D02*
X100730000Y-61551000D01*
X101546000Y-57718000D02*
X101633000Y-58156000D01*
X102560000Y-63646000D02*
X102250000Y-63587000D01*
X105482000Y-58854000D02*
X105809000Y-58919000D01*
X100168000Y-61446000D02*
X97521000Y-61446000D01*
X101701000Y-62861000D02*
X101547000Y-62303000D01*
X96584000Y-57591000D02*
X97521000Y-56654000D01*
X101013000Y-56963000D02*
X101546000Y-57496000D01*
X101783000Y-63159000D02*
X101701000Y-62861000D01*
X105809000Y-58919000D02*
X106092000Y-59108000D01*
X101976000Y-63417000D02*
X101783000Y-63159000D01*
X106283000Y-62704000D02*
X106646000Y-62704000D01*
X102250000Y-63587000D02*
X101976000Y-63417000D01*
X106092000Y-59108000D02*
X106281000Y-59391000D01*
X97521000Y-56654000D02*
X100268000Y-56654000D01*
X97521000Y-61446000D02*
X96500000Y-60425000D01*
X100730000Y-61551000D02*
X100168000Y-61446000D01*
%TO.C,SW21*%
X232209000Y-92850000D02*
X231730000Y-92551000D01*
X236482000Y-89854000D02*
X236809000Y-89919000D01*
X237283000Y-93704000D02*
X237646000Y-93704000D01*
X237281000Y-90391000D02*
X237366000Y-90818000D01*
X231671000Y-87734000D02*
X232013000Y-87963000D01*
X228521000Y-92446000D02*
X227500000Y-91425000D01*
X237092000Y-90108000D02*
X237281000Y-90391000D01*
X233682000Y-89854000D02*
X236482000Y-89854000D01*
X232701000Y-93861000D02*
X232547000Y-93303000D01*
X232546000Y-88718000D02*
X232633000Y-89156000D01*
X232976000Y-94417000D02*
X232783000Y-94159000D01*
X233250000Y-94587000D02*
X232976000Y-94417000D01*
X233560000Y-94646000D02*
X233250000Y-94587000D01*
X232783000Y-94159000D02*
X232701000Y-93861000D01*
X237646000Y-93704000D02*
X237646000Y-94646000D01*
X231730000Y-92551000D02*
X231168000Y-92446000D01*
X232633000Y-89156000D02*
X232877000Y-89523000D01*
X228521000Y-87654000D02*
X231268000Y-87654000D01*
X231268000Y-87654000D02*
X231671000Y-87734000D01*
X237646000Y-94646000D02*
X233560000Y-94646000D01*
X232546000Y-88496000D02*
X232546000Y-88718000D01*
X231168000Y-92446000D02*
X228521000Y-92446000D01*
X236809000Y-89919000D02*
X237092000Y-90108000D01*
X232547000Y-93303000D02*
X232209000Y-92850000D01*
X233244000Y-89767000D02*
X233682000Y-89854000D01*
X232877000Y-89523000D02*
X233244000Y-89767000D01*
X232013000Y-87963000D02*
X232546000Y-88496000D01*
X227584000Y-88591000D02*
X228521000Y-87654000D01*
%TO.C,SW19*%
X237281000Y-56391000D02*
X237366000Y-56818000D01*
X236809000Y-55919000D02*
X237092000Y-56108000D01*
X237646000Y-60646000D02*
X233560000Y-60646000D01*
X236482000Y-55854000D02*
X236809000Y-55919000D01*
X232547000Y-59303000D02*
X232209000Y-58850000D01*
X233244000Y-55767000D02*
X233682000Y-55854000D01*
X233250000Y-60587000D02*
X232976000Y-60417000D01*
X232546000Y-54718000D02*
X232633000Y-55156000D01*
X237646000Y-59704000D02*
X237646000Y-60646000D01*
X227584000Y-54591000D02*
X228521000Y-53654000D01*
X232633000Y-55156000D02*
X232877000Y-55523000D01*
X237283000Y-59704000D02*
X237646000Y-59704000D01*
X231168000Y-58446000D02*
X228521000Y-58446000D01*
X232701000Y-59861000D02*
X232547000Y-59303000D01*
X232783000Y-60159000D02*
X232701000Y-59861000D01*
X237092000Y-56108000D02*
X237281000Y-56391000D01*
X228521000Y-58446000D02*
X227500000Y-57425000D01*
X233560000Y-60646000D02*
X233250000Y-60587000D01*
X231268000Y-53654000D02*
X231671000Y-53734000D01*
X232013000Y-53963000D02*
X232546000Y-54496000D01*
X228521000Y-53654000D02*
X231268000Y-53654000D01*
X232877000Y-55523000D02*
X233244000Y-55767000D01*
X232976000Y-60417000D02*
X232783000Y-60159000D01*
X231671000Y-53734000D02*
X232013000Y-53963000D01*
X232209000Y-58850000D02*
X231730000Y-58551000D01*
X232546000Y-54496000D02*
X232546000Y-54718000D01*
X231730000Y-58551000D02*
X231168000Y-58446000D01*
X233682000Y-55854000D02*
X236482000Y-55854000D01*
%TO.C,SW34*%
X268976000Y-68417000D02*
X268783000Y-68159000D01*
X268013000Y-61963000D02*
X268546000Y-62496000D01*
X268783000Y-68159000D02*
X268701000Y-67861000D01*
X268546000Y-62718000D02*
X268633000Y-63156000D01*
X269244000Y-63767000D02*
X269682000Y-63854000D01*
X273646000Y-67704000D02*
X273646000Y-68646000D01*
X268701000Y-67861000D02*
X268547000Y-67303000D01*
X264521000Y-66446000D02*
X263500000Y-65425000D01*
X268633000Y-63156000D02*
X268877000Y-63523000D01*
X269560000Y-68646000D02*
X269250000Y-68587000D01*
X272482000Y-63854000D02*
X272809000Y-63919000D01*
X268877000Y-63523000D02*
X269244000Y-63767000D01*
X273283000Y-67704000D02*
X273646000Y-67704000D01*
X264521000Y-61654000D02*
X267268000Y-61654000D01*
X269250000Y-68587000D02*
X268976000Y-68417000D01*
X267671000Y-61734000D02*
X268013000Y-61963000D01*
X267168000Y-66446000D02*
X264521000Y-66446000D01*
X267730000Y-66551000D02*
X267168000Y-66446000D01*
X267268000Y-61654000D02*
X267671000Y-61734000D01*
X272809000Y-63919000D02*
X273092000Y-64108000D01*
X263584000Y-62591000D02*
X264521000Y-61654000D01*
X273281000Y-64391000D02*
X273366000Y-64818000D01*
X268209000Y-66850000D02*
X267730000Y-66551000D01*
X273646000Y-68646000D02*
X269560000Y-68646000D01*
X268547000Y-67303000D02*
X268209000Y-66850000D01*
X269682000Y-63854000D02*
X272482000Y-63854000D01*
X268546000Y-62496000D02*
X268546000Y-62718000D01*
X273092000Y-64108000D02*
X273281000Y-64391000D01*
%TO.C,SW35*%
X263584000Y-79591000D02*
X264521000Y-78654000D01*
X269250000Y-85587000D02*
X268976000Y-85417000D01*
X272482000Y-80854000D02*
X272809000Y-80919000D01*
X267168000Y-83446000D02*
X264521000Y-83446000D01*
X268976000Y-85417000D02*
X268783000Y-85159000D01*
X268783000Y-85159000D02*
X268701000Y-84861000D01*
X273281000Y-81391000D02*
X273366000Y-81818000D01*
X264521000Y-83446000D02*
X263500000Y-82425000D01*
X268209000Y-83850000D02*
X267730000Y-83551000D01*
X267268000Y-78654000D02*
X267671000Y-78734000D01*
X273092000Y-81108000D02*
X273281000Y-81391000D01*
X268547000Y-84303000D02*
X268209000Y-83850000D01*
X273646000Y-84704000D02*
X273646000Y-85646000D01*
X268633000Y-80156000D02*
X268877000Y-80523000D01*
X268546000Y-79496000D02*
X268546000Y-79718000D01*
X269682000Y-80854000D02*
X272482000Y-80854000D01*
X264521000Y-78654000D02*
X267268000Y-78654000D01*
X268877000Y-80523000D02*
X269244000Y-80767000D01*
X273283000Y-84704000D02*
X273646000Y-84704000D01*
X268546000Y-79718000D02*
X268633000Y-80156000D01*
X269560000Y-85646000D02*
X269250000Y-85587000D01*
X268701000Y-84861000D02*
X268547000Y-84303000D01*
X269244000Y-80767000D02*
X269682000Y-80854000D01*
X267730000Y-83551000D02*
X267168000Y-83446000D01*
X273646000Y-85646000D02*
X269560000Y-85646000D01*
X272809000Y-80919000D02*
X273092000Y-81108000D01*
X267671000Y-78734000D02*
X268013000Y-78963000D01*
X268013000Y-78963000D02*
X268546000Y-79496000D01*
%TO.C,SW29*%
X250701000Y-96861000D02*
X250547000Y-96303000D01*
X250633000Y-92156000D02*
X250877000Y-92523000D01*
X251244000Y-92767000D02*
X251682000Y-92854000D01*
X250209000Y-95850000D02*
X249730000Y-95551000D01*
X254482000Y-92854000D02*
X254809000Y-92919000D01*
X246521000Y-95446000D02*
X245500000Y-94425000D01*
X255092000Y-93108000D02*
X255281000Y-93391000D01*
X250976000Y-97417000D02*
X250783000Y-97159000D01*
X250547000Y-96303000D02*
X250209000Y-95850000D01*
X251250000Y-97587000D02*
X250976000Y-97417000D01*
X250546000Y-91718000D02*
X250633000Y-92156000D01*
X251682000Y-92854000D02*
X254482000Y-92854000D01*
X245584000Y-91591000D02*
X246521000Y-90654000D01*
X246521000Y-90654000D02*
X249268000Y-90654000D01*
X250877000Y-92523000D02*
X251244000Y-92767000D01*
X250013000Y-90963000D02*
X250546000Y-91496000D01*
X255646000Y-97646000D02*
X251560000Y-97646000D01*
X254809000Y-92919000D02*
X255092000Y-93108000D01*
X249168000Y-95446000D02*
X246521000Y-95446000D01*
X255283000Y-96704000D02*
X255646000Y-96704000D01*
X251560000Y-97646000D02*
X251250000Y-97587000D01*
X250783000Y-97159000D02*
X250701000Y-96861000D01*
X255646000Y-96704000D02*
X255646000Y-97646000D01*
X250546000Y-91496000D02*
X250546000Y-91718000D01*
X249268000Y-90654000D02*
X249671000Y-90734000D01*
X249730000Y-95551000D02*
X249168000Y-95446000D01*
X249671000Y-90734000D02*
X250013000Y-90963000D01*
X255281000Y-93391000D02*
X255366000Y-93818000D01*
%TO.C,SW7*%
X183195852Y-116351378D02*
X183501031Y-116501964D01*
X179253055Y-117952253D02*
X179692886Y-117980064D01*
X174203183Y-119791618D02*
X174546148Y-118511652D01*
X176942148Y-122661646D02*
X175547436Y-122287934D01*
X181785792Y-122141082D02*
X181489649Y-122014147D01*
X185159263Y-119370106D02*
X185473630Y-119188606D01*
X181489649Y-122014147D02*
X181269635Y-121797072D01*
X180857267Y-121390829D02*
X180338050Y-121167520D01*
X180115706Y-117836408D02*
X182540577Y-116436408D01*
X182540577Y-116436408D02*
X182856267Y-116329200D01*
X176925120Y-117138152D02*
X177314128Y-117005934D01*
X182406050Y-122047402D02*
X182108083Y-122151306D01*
X179773724Y-121148078D02*
X179234518Y-121338146D01*
X183501031Y-116501964D02*
X183788143Y-116829256D01*
X178858245Y-117756422D02*
X179253055Y-117952253D01*
X177314128Y-117005934D02*
X177724809Y-117033254D01*
X178452901Y-117228345D02*
X178563901Y-117420603D01*
X179692886Y-117980064D02*
X180115706Y-117836408D01*
X178563901Y-117420603D02*
X178858245Y-117756422D01*
X182856267Y-116329200D02*
X183195852Y-116351378D01*
X180338050Y-121167520D02*
X179773724Y-121148078D01*
X185473630Y-119188606D02*
X185944630Y-120004402D01*
X181269635Y-121797072D02*
X180857267Y-121390829D01*
X185944630Y-120004402D02*
X182406050Y-122047402D01*
X179234518Y-121338146D02*
X176942148Y-122661646D01*
X174546148Y-118511652D02*
X176925120Y-117138152D01*
X177724809Y-117033254D02*
X178452901Y-117228345D01*
X182108083Y-122151306D02*
X181785792Y-122141082D01*
%TO.C,SW22*%
X225976000Y-116417000D02*
X225783000Y-116159000D01*
X225783000Y-116159000D02*
X225701000Y-115861000D01*
X230283000Y-115704000D02*
X230646000Y-115704000D01*
X224268000Y-109654000D02*
X224671000Y-109734000D01*
X226244000Y-111767000D02*
X226682000Y-111854000D01*
X226250000Y-116587000D02*
X225976000Y-116417000D01*
X230646000Y-115704000D02*
X230646000Y-116646000D01*
X225877000Y-111523000D02*
X226244000Y-111767000D01*
X226560000Y-116646000D02*
X226250000Y-116587000D01*
X230092000Y-112108000D02*
X230281000Y-112391000D01*
X230646000Y-116646000D02*
X226560000Y-116646000D01*
X225633000Y-111156000D02*
X225877000Y-111523000D01*
X229482000Y-111854000D02*
X229809000Y-111919000D01*
X221521000Y-109654000D02*
X224268000Y-109654000D01*
X229809000Y-111919000D02*
X230092000Y-112108000D01*
X220584000Y-110591000D02*
X221521000Y-109654000D01*
X225546000Y-110496000D02*
X225546000Y-110718000D01*
X225013000Y-109963000D02*
X225546000Y-110496000D01*
X224671000Y-109734000D02*
X225013000Y-109963000D01*
X224168000Y-114446000D02*
X221521000Y-114446000D01*
X230281000Y-112391000D02*
X230366000Y-112818000D01*
X225546000Y-110718000D02*
X225633000Y-111156000D01*
X224730000Y-114551000D02*
X224168000Y-114446000D01*
X221521000Y-114446000D02*
X220500000Y-113425000D01*
X226682000Y-111854000D02*
X229482000Y-111854000D01*
X225209000Y-114850000D02*
X224730000Y-114551000D01*
X225701000Y-115861000D02*
X225547000Y-115303000D01*
X225547000Y-115303000D02*
X225209000Y-114850000D01*
%TO.C,SW2*%
X52646000Y-85646000D02*
X48560000Y-85646000D01*
X48560000Y-85646000D02*
X48250000Y-85587000D01*
X52646000Y-84704000D02*
X52646000Y-85646000D01*
X46730000Y-83551000D02*
X46168000Y-83446000D01*
X48244000Y-80767000D02*
X48682000Y-80854000D01*
X51809000Y-80919000D02*
X52092000Y-81108000D01*
X52281000Y-81391000D02*
X52366000Y-81818000D01*
X47546000Y-79496000D02*
X47546000Y-79718000D01*
X43521000Y-78654000D02*
X46268000Y-78654000D01*
X47701000Y-84861000D02*
X47547000Y-84303000D01*
X42584000Y-79591000D02*
X43521000Y-78654000D01*
X52283000Y-84704000D02*
X52646000Y-84704000D01*
X46671000Y-78734000D02*
X47013000Y-78963000D01*
X46168000Y-83446000D02*
X43521000Y-83446000D01*
X47546000Y-79718000D02*
X47633000Y-80156000D01*
X47877000Y-80523000D02*
X48244000Y-80767000D01*
X51482000Y-80854000D02*
X51809000Y-80919000D01*
X47976000Y-85417000D02*
X47783000Y-85159000D01*
X47633000Y-80156000D02*
X47877000Y-80523000D01*
X52092000Y-81108000D02*
X52281000Y-81391000D01*
X48250000Y-85587000D02*
X47976000Y-85417000D01*
X47783000Y-85159000D02*
X47701000Y-84861000D01*
X47013000Y-78963000D02*
X47546000Y-79496000D01*
X43521000Y-83446000D02*
X42500000Y-82425000D01*
X47547000Y-84303000D02*
X47209000Y-83850000D01*
X48682000Y-80854000D02*
X51482000Y-80854000D01*
X46268000Y-78654000D02*
X46671000Y-78734000D01*
X47209000Y-83850000D02*
X46730000Y-83551000D01*
%TO.C,SW10*%
X65546000Y-91718000D02*
X65633000Y-92156000D01*
X70646000Y-97646000D02*
X66560000Y-97646000D01*
X64168000Y-95446000D02*
X61521000Y-95446000D01*
X70283000Y-96704000D02*
X70646000Y-96704000D01*
X65701000Y-96861000D02*
X65547000Y-96303000D01*
X65783000Y-97159000D02*
X65701000Y-96861000D01*
X66244000Y-92767000D02*
X66682000Y-92854000D01*
X70646000Y-96704000D02*
X70646000Y-97646000D01*
X64671000Y-90734000D02*
X65013000Y-90963000D01*
X65547000Y-96303000D02*
X65209000Y-95850000D01*
X65013000Y-90963000D02*
X65546000Y-91496000D01*
X65209000Y-95850000D02*
X64730000Y-95551000D01*
X65976000Y-97417000D02*
X65783000Y-97159000D01*
X69482000Y-92854000D02*
X69809000Y-92919000D01*
X70092000Y-93108000D02*
X70281000Y-93391000D01*
X61521000Y-95446000D02*
X60500000Y-94425000D01*
X66560000Y-97646000D02*
X66250000Y-97587000D01*
X65877000Y-92523000D02*
X66244000Y-92767000D01*
X61521000Y-90654000D02*
X64268000Y-90654000D01*
X65546000Y-91496000D02*
X65546000Y-91718000D01*
X66682000Y-92854000D02*
X69482000Y-92854000D01*
X69809000Y-92919000D02*
X70092000Y-93108000D01*
X65633000Y-92156000D02*
X65877000Y-92523000D01*
X60584000Y-91591000D02*
X61521000Y-90654000D01*
X64730000Y-95551000D02*
X64168000Y-95446000D01*
X70281000Y-93391000D02*
X70366000Y-93818000D01*
X66250000Y-97587000D02*
X65976000Y-97417000D01*
X64268000Y-90654000D02*
X64671000Y-90734000D01*
%TO.C,SW32*%
X119633000Y-95156000D02*
X119877000Y-95523000D01*
X119547000Y-99303000D02*
X119209000Y-98850000D01*
X114584000Y-94591000D02*
X115521000Y-93654000D01*
X124283000Y-99704000D02*
X124646000Y-99704000D01*
X123482000Y-95854000D02*
X123809000Y-95919000D01*
X123809000Y-95919000D02*
X124092000Y-96108000D01*
X118671000Y-93734000D02*
X119013000Y-93963000D01*
X118268000Y-93654000D02*
X118671000Y-93734000D01*
X119783000Y-100159000D02*
X119701000Y-99861000D01*
X120560000Y-100646000D02*
X120250000Y-100587000D01*
X120244000Y-95767000D02*
X120682000Y-95854000D01*
X124646000Y-99704000D02*
X124646000Y-100646000D01*
X120250000Y-100587000D02*
X119976000Y-100417000D01*
X119976000Y-100417000D02*
X119783000Y-100159000D01*
X124646000Y-100646000D02*
X120560000Y-100646000D01*
X115521000Y-98446000D02*
X114500000Y-97425000D01*
X119701000Y-99861000D02*
X119547000Y-99303000D01*
X119013000Y-93963000D02*
X119546000Y-94496000D01*
X119209000Y-98850000D02*
X118730000Y-98551000D01*
X119546000Y-94496000D02*
X119546000Y-94718000D01*
X118168000Y-98446000D02*
X115521000Y-98446000D01*
X115521000Y-93654000D02*
X118268000Y-93654000D01*
X118730000Y-98551000D02*
X118168000Y-98446000D01*
X119877000Y-95523000D02*
X120244000Y-95767000D01*
X124092000Y-96108000D02*
X124281000Y-96391000D01*
X119546000Y-94718000D02*
X119633000Y-95156000D01*
X124281000Y-96391000D02*
X124366000Y-96818000D01*
X120682000Y-95854000D02*
X123482000Y-95854000D01*
%TO.C,SW31*%
X119877000Y-78523000D02*
X120244000Y-78767000D01*
X124281000Y-79391000D02*
X124366000Y-79818000D01*
X120682000Y-78854000D02*
X123482000Y-78854000D01*
X124646000Y-83646000D02*
X120560000Y-83646000D01*
X119783000Y-83159000D02*
X119701000Y-82861000D01*
X119546000Y-77718000D02*
X119633000Y-78156000D01*
X123809000Y-78919000D02*
X124092000Y-79108000D01*
X118730000Y-81551000D02*
X118168000Y-81446000D01*
X124283000Y-82704000D02*
X124646000Y-82704000D01*
X118671000Y-76734000D02*
X119013000Y-76963000D01*
X120560000Y-83646000D02*
X120250000Y-83587000D01*
X120244000Y-78767000D02*
X120682000Y-78854000D01*
X124646000Y-82704000D02*
X124646000Y-83646000D01*
X114584000Y-77591000D02*
X115521000Y-76654000D01*
X115521000Y-76654000D02*
X118268000Y-76654000D01*
X119013000Y-76963000D02*
X119546000Y-77496000D01*
X118168000Y-81446000D02*
X115521000Y-81446000D01*
X119701000Y-82861000D02*
X119547000Y-82303000D01*
X119209000Y-81850000D02*
X118730000Y-81551000D01*
X123482000Y-78854000D02*
X123809000Y-78919000D01*
X119546000Y-77496000D02*
X119546000Y-77718000D01*
X120250000Y-83587000D02*
X119976000Y-83417000D01*
X118268000Y-76654000D02*
X118671000Y-76734000D01*
X119547000Y-82303000D02*
X119209000Y-81850000D01*
X115521000Y-81446000D02*
X114500000Y-80425000D01*
X119633000Y-78156000D02*
X119877000Y-78523000D01*
X124092000Y-79108000D02*
X124281000Y-79391000D01*
X119976000Y-83417000D02*
X119783000Y-83159000D01*
%TO.C,SW14*%
X203762178Y-117735686D02*
X203318450Y-117385602D01*
X202574527Y-113307175D02*
X202771925Y-113707733D01*
X202771925Y-113707733D02*
X203102598Y-113999076D01*
X199651553Y-117949893D02*
X198401088Y-117227937D01*
X208791220Y-116803304D02*
X209035028Y-117713206D01*
X202208358Y-117264799D02*
X199651553Y-117949893D01*
X202517069Y-113092739D02*
X202574527Y-113307175D01*
X203318450Y-117385602D02*
X202778385Y-117220765D01*
X209035028Y-117713206D02*
X205088255Y-118770741D01*
X201064690Y-112610201D02*
X201474664Y-112583170D01*
X204464885Y-118700694D02*
X204211686Y-118501437D01*
X197748733Y-114468762D02*
X198411292Y-113321176D01*
X205088255Y-118770741D02*
X204773548Y-118793985D01*
X204773548Y-118793985D02*
X204464885Y-118700694D01*
X207325384Y-113473220D02*
X207581190Y-113697661D01*
X207003110Y-113363906D02*
X207325384Y-113473220D01*
X201864280Y-112715851D02*
X202517069Y-113092739D01*
X198411292Y-113321176D02*
X201064690Y-112610201D01*
X203965837Y-114110448D02*
X206670429Y-113385755D01*
X207581190Y-113697661D02*
X207773809Y-114088111D01*
X203102598Y-113999076D02*
X203520244Y-114139775D01*
X204211686Y-118501437D02*
X204055352Y-118234814D01*
X203520244Y-114139775D02*
X203965837Y-114110448D01*
X208440589Y-116897255D02*
X208791220Y-116803304D01*
X201474664Y-112583170D02*
X201864280Y-112715851D01*
X206670429Y-113385755D02*
X207003110Y-113363906D01*
X204055352Y-118234814D02*
X203762178Y-117735686D01*
X202778385Y-117220765D02*
X202208358Y-117264799D01*
%TO.C,SW15*%
X83209000Y-58850000D02*
X82730000Y-58551000D01*
X88646000Y-59704000D02*
X88646000Y-60646000D01*
X84250000Y-60587000D02*
X83976000Y-60417000D01*
X78584000Y-54591000D02*
X79521000Y-53654000D01*
X82268000Y-53654000D02*
X82671000Y-53734000D01*
X82730000Y-58551000D02*
X82168000Y-58446000D01*
X84244000Y-55767000D02*
X84682000Y-55854000D01*
X83547000Y-59303000D02*
X83209000Y-58850000D01*
X82671000Y-53734000D02*
X83013000Y-53963000D01*
X79521000Y-53654000D02*
X82268000Y-53654000D01*
X83013000Y-53963000D02*
X83546000Y-54496000D01*
X87482000Y-55854000D02*
X87809000Y-55919000D01*
X82168000Y-58446000D02*
X79521000Y-58446000D01*
X88283000Y-59704000D02*
X88646000Y-59704000D01*
X88646000Y-60646000D02*
X84560000Y-60646000D01*
X87809000Y-55919000D02*
X88092000Y-56108000D01*
X84560000Y-60646000D02*
X84250000Y-60587000D01*
X88092000Y-56108000D02*
X88281000Y-56391000D01*
X83546000Y-54496000D02*
X83546000Y-54718000D01*
X83783000Y-60159000D02*
X83701000Y-59861000D01*
X79521000Y-58446000D02*
X78500000Y-57425000D01*
X83976000Y-60417000D02*
X83783000Y-60159000D01*
X84682000Y-55854000D02*
X87482000Y-55854000D01*
X83701000Y-59861000D02*
X83547000Y-59303000D01*
X83633000Y-55156000D02*
X83877000Y-55523000D01*
X88281000Y-56391000D02*
X88366000Y-56818000D01*
X83546000Y-54718000D02*
X83633000Y-55156000D01*
X83877000Y-55523000D02*
X84244000Y-55767000D01*
%TO.C,SW28*%
X255281000Y-76391000D02*
X255366000Y-76818000D01*
X251244000Y-75767000D02*
X251682000Y-75854000D01*
X249730000Y-78551000D02*
X249168000Y-78446000D01*
X250546000Y-74718000D02*
X250633000Y-75156000D01*
X255283000Y-79704000D02*
X255646000Y-79704000D01*
X251682000Y-75854000D02*
X254482000Y-75854000D01*
X250976000Y-80417000D02*
X250783000Y-80159000D01*
X250546000Y-74496000D02*
X250546000Y-74718000D01*
X250633000Y-75156000D02*
X250877000Y-75523000D01*
X250013000Y-73963000D02*
X250546000Y-74496000D01*
X250877000Y-75523000D02*
X251244000Y-75767000D01*
X249671000Y-73734000D02*
X250013000Y-73963000D01*
X254482000Y-75854000D02*
X254809000Y-75919000D01*
X249168000Y-78446000D02*
X246521000Y-78446000D01*
X255646000Y-79704000D02*
X255646000Y-80646000D01*
X249268000Y-73654000D02*
X249671000Y-73734000D01*
X250209000Y-78850000D02*
X249730000Y-78551000D01*
X254809000Y-75919000D02*
X255092000Y-76108000D01*
X245584000Y-74591000D02*
X246521000Y-73654000D01*
X246521000Y-78446000D02*
X245500000Y-77425000D01*
X255646000Y-80646000D02*
X251560000Y-80646000D01*
X251560000Y-80646000D02*
X251250000Y-80587000D01*
X246521000Y-73654000D02*
X249268000Y-73654000D01*
X255092000Y-76108000D02*
X255281000Y-76391000D01*
X250547000Y-79303000D02*
X250209000Y-78850000D01*
X251250000Y-80587000D02*
X250976000Y-80417000D01*
X250701000Y-79861000D02*
X250547000Y-79303000D01*
X250783000Y-80159000D02*
X250701000Y-79861000D01*
%TO.C,SW20*%
X232209000Y-75850000D02*
X231730000Y-75551000D01*
X233250000Y-77587000D02*
X232976000Y-77417000D01*
X231168000Y-75446000D02*
X228521000Y-75446000D01*
X233560000Y-77646000D02*
X233250000Y-77587000D01*
X232877000Y-72523000D02*
X233244000Y-72767000D01*
X237646000Y-77646000D02*
X233560000Y-77646000D01*
X233244000Y-72767000D02*
X233682000Y-72854000D01*
X227584000Y-71591000D02*
X228521000Y-70654000D01*
X237646000Y-76704000D02*
X237646000Y-77646000D01*
X232633000Y-72156000D02*
X232877000Y-72523000D01*
X228521000Y-70654000D02*
X231268000Y-70654000D01*
X232976000Y-77417000D02*
X232783000Y-77159000D01*
X237092000Y-73108000D02*
X237281000Y-73391000D01*
X236482000Y-72854000D02*
X236809000Y-72919000D01*
X232013000Y-70963000D02*
X232546000Y-71496000D01*
X231671000Y-70734000D02*
X232013000Y-70963000D01*
X232701000Y-76861000D02*
X232547000Y-76303000D01*
X232783000Y-77159000D02*
X232701000Y-76861000D01*
X228521000Y-75446000D02*
X227500000Y-74425000D01*
X232547000Y-76303000D02*
X232209000Y-75850000D01*
X231730000Y-75551000D02*
X231168000Y-75446000D01*
X232546000Y-71718000D02*
X232633000Y-72156000D01*
X233682000Y-72854000D02*
X236482000Y-72854000D01*
X236809000Y-72919000D02*
X237092000Y-73108000D01*
X231268000Y-70654000D02*
X231671000Y-70734000D01*
X237281000Y-73391000D02*
X237366000Y-73818000D01*
X232546000Y-71496000D02*
X232546000Y-71718000D01*
X237283000Y-76704000D02*
X237646000Y-76704000D01*
%TO.C,SW3*%
X52646000Y-101704000D02*
X52646000Y-102646000D01*
X43521000Y-95654000D02*
X46268000Y-95654000D01*
X47633000Y-97156000D02*
X47877000Y-97523000D01*
X47209000Y-100850000D02*
X46730000Y-100551000D01*
X47547000Y-101303000D02*
X47209000Y-100850000D01*
X48682000Y-97854000D02*
X51482000Y-97854000D01*
X52283000Y-101704000D02*
X52646000Y-101704000D01*
X52092000Y-98108000D02*
X52281000Y-98391000D01*
X51482000Y-97854000D02*
X51809000Y-97919000D01*
X47877000Y-97523000D02*
X48244000Y-97767000D01*
X42584000Y-96591000D02*
X43521000Y-95654000D01*
X46730000Y-100551000D02*
X46168000Y-100446000D01*
X47546000Y-96718000D02*
X47633000Y-97156000D01*
X52281000Y-98391000D02*
X52366000Y-98818000D01*
X48560000Y-102646000D02*
X48250000Y-102587000D01*
X46671000Y-95734000D02*
X47013000Y-95963000D01*
X46168000Y-100446000D02*
X43521000Y-100446000D01*
X47976000Y-102417000D02*
X47783000Y-102159000D01*
X48250000Y-102587000D02*
X47976000Y-102417000D01*
X43521000Y-100446000D02*
X42500000Y-99425000D01*
X47701000Y-101861000D02*
X47547000Y-101303000D01*
X47546000Y-96496000D02*
X47546000Y-96718000D01*
X46268000Y-95654000D02*
X46671000Y-95734000D01*
X47013000Y-95963000D02*
X47546000Y-96496000D01*
X51809000Y-97919000D02*
X52092000Y-98108000D01*
X48244000Y-97767000D02*
X48682000Y-97854000D01*
X52646000Y-102646000D02*
X48560000Y-102646000D01*
X47783000Y-102159000D02*
X47701000Y-101861000D01*
%TO.C,SW4*%
X195730000Y-64551000D02*
X195168000Y-64446000D01*
X196701000Y-65861000D02*
X196547000Y-65303000D01*
X201092000Y-62108000D02*
X201281000Y-62391000D01*
X195268000Y-59654000D02*
X195671000Y-59734000D01*
X197560000Y-66646000D02*
X197250000Y-66587000D01*
X201646000Y-66646000D02*
X197560000Y-66646000D01*
X195168000Y-64446000D02*
X192521000Y-64446000D01*
X196783000Y-66159000D02*
X196701000Y-65861000D01*
X200809000Y-61919000D02*
X201092000Y-62108000D01*
X196013000Y-59963000D02*
X196546000Y-60496000D01*
X196976000Y-66417000D02*
X196783000Y-66159000D01*
X196209000Y-64850000D02*
X195730000Y-64551000D01*
X195671000Y-59734000D02*
X196013000Y-59963000D01*
X197682000Y-61854000D02*
X200482000Y-61854000D01*
X192521000Y-64446000D02*
X191500000Y-63425000D01*
X200482000Y-61854000D02*
X200809000Y-61919000D01*
X191584000Y-60591000D02*
X192521000Y-59654000D01*
X197250000Y-66587000D02*
X196976000Y-66417000D01*
X192521000Y-59654000D02*
X195268000Y-59654000D01*
X196547000Y-65303000D02*
X196209000Y-64850000D01*
X196546000Y-60496000D02*
X196546000Y-60718000D01*
X196546000Y-60718000D02*
X196633000Y-61156000D01*
X196877000Y-61523000D02*
X197244000Y-61767000D01*
X196633000Y-61156000D02*
X196877000Y-61523000D01*
X201281000Y-62391000D02*
X201366000Y-62818000D01*
X201646000Y-65704000D02*
X201646000Y-66646000D01*
X201283000Y-65704000D02*
X201646000Y-65704000D01*
X197244000Y-61767000D02*
X197682000Y-61854000D01*
%TO.C,SW5*%
X201281000Y-79391000D02*
X201366000Y-79818000D01*
X197244000Y-78767000D02*
X197682000Y-78854000D01*
X200809000Y-78919000D02*
X201092000Y-79108000D01*
X201283000Y-82704000D02*
X201646000Y-82704000D01*
X195730000Y-81551000D02*
X195168000Y-81446000D01*
X192521000Y-81446000D02*
X191500000Y-80425000D01*
X201646000Y-82704000D02*
X201646000Y-83646000D01*
X195168000Y-81446000D02*
X192521000Y-81446000D01*
X195268000Y-76654000D02*
X195671000Y-76734000D01*
X191584000Y-77591000D02*
X192521000Y-76654000D01*
X196546000Y-77496000D02*
X196546000Y-77718000D01*
X196546000Y-77718000D02*
X196633000Y-78156000D01*
X196633000Y-78156000D02*
X196877000Y-78523000D01*
X196701000Y-82861000D02*
X196547000Y-82303000D01*
X192521000Y-76654000D02*
X195268000Y-76654000D01*
X197682000Y-78854000D02*
X200482000Y-78854000D01*
X196209000Y-81850000D02*
X195730000Y-81551000D01*
X201092000Y-79108000D02*
X201281000Y-79391000D01*
X196976000Y-83417000D02*
X196783000Y-83159000D01*
X196877000Y-78523000D02*
X197244000Y-78767000D01*
X196547000Y-82303000D02*
X196209000Y-81850000D01*
X197560000Y-83646000D02*
X197250000Y-83587000D01*
X200482000Y-78854000D02*
X200809000Y-78919000D01*
X196783000Y-83159000D02*
X196701000Y-82861000D01*
X195671000Y-76734000D02*
X196013000Y-76963000D01*
X197250000Y-83587000D02*
X196976000Y-83417000D01*
X201646000Y-83646000D02*
X197560000Y-83646000D01*
X196013000Y-76963000D02*
X196546000Y-77496000D01*
%TO.C,SW8*%
X70283000Y-62704000D02*
X70646000Y-62704000D01*
X65783000Y-63159000D02*
X65701000Y-62861000D01*
X64730000Y-61551000D02*
X64168000Y-61446000D01*
X69809000Y-58919000D02*
X70092000Y-59108000D01*
X65701000Y-62861000D02*
X65547000Y-62303000D01*
X70646000Y-63646000D02*
X66560000Y-63646000D01*
X65633000Y-58156000D02*
X65877000Y-58523000D01*
X60584000Y-57591000D02*
X61521000Y-56654000D01*
X65013000Y-56963000D02*
X65546000Y-57496000D01*
X70281000Y-59391000D02*
X70366000Y-59818000D01*
X64168000Y-61446000D02*
X61521000Y-61446000D01*
X65976000Y-63417000D02*
X65783000Y-63159000D01*
X66250000Y-63587000D02*
X65976000Y-63417000D01*
X66560000Y-63646000D02*
X66250000Y-63587000D01*
X70646000Y-62704000D02*
X70646000Y-63646000D01*
X64268000Y-56654000D02*
X64671000Y-56734000D01*
X69482000Y-58854000D02*
X69809000Y-58919000D01*
X65209000Y-61850000D02*
X64730000Y-61551000D01*
X65547000Y-62303000D02*
X65209000Y-61850000D01*
X66244000Y-58767000D02*
X66682000Y-58854000D01*
X70092000Y-59108000D02*
X70281000Y-59391000D01*
X65546000Y-57496000D02*
X65546000Y-57718000D01*
X61521000Y-56654000D02*
X64268000Y-56654000D01*
X65546000Y-57718000D02*
X65633000Y-58156000D01*
X65877000Y-58523000D02*
X66244000Y-58767000D01*
X66682000Y-58854000D02*
X69482000Y-58854000D01*
X64671000Y-56734000D02*
X65013000Y-56963000D01*
X61521000Y-61446000D02*
X60500000Y-60425000D01*
%TO.C,SW1*%
X47013000Y-61963000D02*
X47546000Y-62496000D01*
X51809000Y-63919000D02*
X52092000Y-64108000D01*
X47701000Y-67861000D02*
X47547000Y-67303000D01*
X52283000Y-67704000D02*
X52646000Y-67704000D01*
X46671000Y-61734000D02*
X47013000Y-61963000D01*
X47877000Y-63523000D02*
X48244000Y-63767000D01*
X51482000Y-63854000D02*
X51809000Y-63919000D01*
X48682000Y-63854000D02*
X51482000Y-63854000D01*
X47546000Y-62718000D02*
X47633000Y-63156000D01*
X47633000Y-63156000D02*
X47877000Y-63523000D01*
X47546000Y-62496000D02*
X47546000Y-62718000D01*
X48244000Y-63767000D02*
X48682000Y-63854000D01*
X52646000Y-68646000D02*
X48560000Y-68646000D01*
X46268000Y-61654000D02*
X46671000Y-61734000D01*
X52646000Y-67704000D02*
X52646000Y-68646000D01*
X42584000Y-62591000D02*
X43521000Y-61654000D01*
X52092000Y-64108000D02*
X52281000Y-64391000D01*
X47976000Y-68417000D02*
X47783000Y-68159000D01*
X47783000Y-68159000D02*
X47701000Y-67861000D01*
X46730000Y-66551000D02*
X46168000Y-66446000D01*
X47209000Y-66850000D02*
X46730000Y-66551000D01*
X52281000Y-64391000D02*
X52366000Y-64818000D01*
X48250000Y-68587000D02*
X47976000Y-68417000D01*
X43521000Y-61654000D02*
X46268000Y-61654000D01*
X43521000Y-66446000D02*
X42500000Y-65425000D01*
X48560000Y-68646000D02*
X48250000Y-68587000D01*
X46168000Y-66446000D02*
X43521000Y-66446000D01*
X47547000Y-67303000D02*
X47209000Y-66850000D01*
%TO.C,SW9*%
X65701000Y-79861000D02*
X65547000Y-79303000D01*
X64268000Y-73654000D02*
X64671000Y-73734000D01*
X65209000Y-78850000D02*
X64730000Y-78551000D01*
X70281000Y-76391000D02*
X70366000Y-76818000D01*
X65546000Y-74496000D02*
X65546000Y-74718000D01*
X60584000Y-74591000D02*
X61521000Y-73654000D01*
X65633000Y-75156000D02*
X65877000Y-75523000D01*
X65877000Y-75523000D02*
X66244000Y-75767000D01*
X64168000Y-78446000D02*
X61521000Y-78446000D01*
X66560000Y-80646000D02*
X66250000Y-80587000D01*
X61521000Y-73654000D02*
X64268000Y-73654000D01*
X69809000Y-75919000D02*
X70092000Y-76108000D01*
X65013000Y-73963000D02*
X65546000Y-74496000D01*
X65783000Y-80159000D02*
X65701000Y-79861000D01*
X65546000Y-74718000D02*
X65633000Y-75156000D01*
X66682000Y-75854000D02*
X69482000Y-75854000D01*
X70646000Y-79704000D02*
X70646000Y-80646000D01*
X65547000Y-79303000D02*
X65209000Y-78850000D01*
X61521000Y-78446000D02*
X60500000Y-77425000D01*
X66244000Y-75767000D02*
X66682000Y-75854000D01*
X64671000Y-73734000D02*
X65013000Y-73963000D01*
X70092000Y-76108000D02*
X70281000Y-76391000D01*
X70646000Y-80646000D02*
X66560000Y-80646000D01*
X70283000Y-79704000D02*
X70646000Y-79704000D01*
X64730000Y-78551000D02*
X64168000Y-78446000D01*
X69482000Y-75854000D02*
X69809000Y-75919000D01*
X66250000Y-80587000D02*
X65976000Y-80417000D01*
X65976000Y-80417000D02*
X65783000Y-80159000D01*
%TO.C,SW24*%
X102250000Y-80587000D02*
X101976000Y-80417000D01*
X101547000Y-79303000D02*
X101209000Y-78850000D01*
X106646000Y-79704000D02*
X106646000Y-80646000D01*
X96584000Y-74591000D02*
X97521000Y-73654000D01*
X100730000Y-78551000D02*
X100168000Y-78446000D01*
X100268000Y-73654000D02*
X100671000Y-73734000D01*
X97521000Y-73654000D02*
X100268000Y-73654000D01*
X106281000Y-76391000D02*
X106366000Y-76818000D01*
X106283000Y-79704000D02*
X106646000Y-79704000D01*
X101013000Y-73963000D02*
X101546000Y-74496000D01*
X100168000Y-78446000D02*
X97521000Y-78446000D01*
X102244000Y-75767000D02*
X102682000Y-75854000D01*
X97521000Y-78446000D02*
X96500000Y-77425000D01*
X106646000Y-80646000D02*
X102560000Y-80646000D01*
X101976000Y-80417000D02*
X101783000Y-80159000D01*
X102682000Y-75854000D02*
X105482000Y-75854000D01*
X105809000Y-75919000D02*
X106092000Y-76108000D01*
X105482000Y-75854000D02*
X105809000Y-75919000D01*
X101546000Y-74496000D02*
X101546000Y-74718000D01*
X106092000Y-76108000D02*
X106281000Y-76391000D01*
X101877000Y-75523000D02*
X102244000Y-75767000D01*
X101701000Y-79861000D02*
X101547000Y-79303000D01*
X101633000Y-75156000D02*
X101877000Y-75523000D01*
X101209000Y-78850000D02*
X100730000Y-78551000D01*
X100671000Y-73734000D02*
X101013000Y-73963000D01*
X101783000Y-80159000D02*
X101701000Y-79861000D01*
X101546000Y-74718000D02*
X101633000Y-75156000D01*
X102560000Y-80646000D02*
X102250000Y-80587000D01*
%TO.C,SW36*%
X264521000Y-95654000D02*
X267268000Y-95654000D01*
X273646000Y-101704000D02*
X273646000Y-102646000D01*
X268976000Y-102417000D02*
X268783000Y-102159000D01*
X264521000Y-100446000D02*
X263500000Y-99425000D01*
X267168000Y-100446000D02*
X264521000Y-100446000D01*
X273092000Y-98108000D02*
X273281000Y-98391000D01*
X267268000Y-95654000D02*
X267671000Y-95734000D01*
X268209000Y-100850000D02*
X267730000Y-100551000D01*
X269244000Y-97767000D02*
X269682000Y-97854000D01*
X268701000Y-101861000D02*
X268547000Y-101303000D01*
X269682000Y-97854000D02*
X272482000Y-97854000D01*
X269560000Y-102646000D02*
X269250000Y-102587000D01*
X273283000Y-101704000D02*
X273646000Y-101704000D01*
X268633000Y-97156000D02*
X268877000Y-97523000D01*
X268546000Y-96718000D02*
X268633000Y-97156000D01*
X268546000Y-96496000D02*
X268546000Y-96718000D01*
X269250000Y-102587000D02*
X268976000Y-102417000D01*
X273646000Y-102646000D02*
X269560000Y-102646000D01*
X272482000Y-97854000D02*
X272809000Y-97919000D01*
X268877000Y-97523000D02*
X269244000Y-97767000D01*
X268013000Y-95963000D02*
X268546000Y-96496000D01*
X263584000Y-96591000D02*
X264521000Y-95654000D01*
X272809000Y-97919000D02*
X273092000Y-98108000D01*
X268547000Y-101303000D02*
X268209000Y-100850000D01*
X267671000Y-95734000D02*
X268013000Y-95963000D01*
X268783000Y-102159000D02*
X268701000Y-101861000D01*
X273281000Y-98391000D02*
X273366000Y-98818000D01*
X267730000Y-100551000D02*
X267168000Y-100446000D01*
%TO.C,SW6*%
X201092000Y-96108000D02*
X201281000Y-96391000D01*
X196633000Y-95156000D02*
X196877000Y-95523000D01*
X196976000Y-100417000D02*
X196783000Y-100159000D01*
X195671000Y-93734000D02*
X196013000Y-93963000D01*
X200482000Y-95854000D02*
X200809000Y-95919000D01*
X201283000Y-99704000D02*
X201646000Y-99704000D01*
X195168000Y-98446000D02*
X192521000Y-98446000D01*
X197244000Y-95767000D02*
X197682000Y-95854000D01*
X192521000Y-93654000D02*
X195268000Y-93654000D01*
X201646000Y-100646000D02*
X197560000Y-100646000D01*
X196877000Y-95523000D02*
X197244000Y-95767000D01*
X191584000Y-94591000D02*
X192521000Y-93654000D01*
X195730000Y-98551000D02*
X195168000Y-98446000D01*
X196546000Y-94718000D02*
X196633000Y-95156000D01*
X195268000Y-93654000D02*
X195671000Y-93734000D01*
X196783000Y-100159000D02*
X196701000Y-99861000D01*
X192521000Y-98446000D02*
X191500000Y-97425000D01*
X196701000Y-99861000D02*
X196547000Y-99303000D01*
X196013000Y-93963000D02*
X196546000Y-94496000D01*
X196209000Y-98850000D02*
X195730000Y-98551000D01*
X200809000Y-95919000D02*
X201092000Y-96108000D01*
X196547000Y-99303000D02*
X196209000Y-98850000D01*
X196546000Y-94496000D02*
X196546000Y-94718000D01*
X201281000Y-96391000D02*
X201366000Y-96818000D01*
X197560000Y-100646000D02*
X197250000Y-100587000D01*
X197250000Y-100587000D02*
X196976000Y-100417000D01*
X201646000Y-99704000D02*
X201646000Y-100646000D01*
X197682000Y-95854000D02*
X200482000Y-95854000D01*
%TO.C,SW11*%
X215244000Y-58767000D02*
X215682000Y-58854000D01*
X215560000Y-63646000D02*
X215250000Y-63587000D01*
X214976000Y-63417000D02*
X214783000Y-63159000D01*
X213168000Y-61446000D02*
X210521000Y-61446000D01*
X219281000Y-59391000D02*
X219366000Y-59818000D01*
X219092000Y-59108000D02*
X219281000Y-59391000D01*
X218809000Y-58919000D02*
X219092000Y-59108000D01*
X219283000Y-62704000D02*
X219646000Y-62704000D01*
X214701000Y-62861000D02*
X214547000Y-62303000D01*
X214013000Y-56963000D02*
X214546000Y-57496000D01*
X210521000Y-61446000D02*
X209500000Y-60425000D01*
X213671000Y-56734000D02*
X214013000Y-56963000D01*
X214783000Y-63159000D02*
X214701000Y-62861000D01*
X209584000Y-57591000D02*
X210521000Y-56654000D01*
X214547000Y-62303000D02*
X214209000Y-61850000D01*
X213268000Y-56654000D02*
X213671000Y-56734000D01*
X214546000Y-57718000D02*
X214633000Y-58156000D01*
X214546000Y-57496000D02*
X214546000Y-57718000D01*
X214633000Y-58156000D02*
X214877000Y-58523000D01*
X219646000Y-63646000D02*
X215560000Y-63646000D01*
X214209000Y-61850000D02*
X213730000Y-61551000D01*
X213730000Y-61551000D02*
X213168000Y-61446000D01*
X219646000Y-62704000D02*
X219646000Y-63646000D01*
X215682000Y-58854000D02*
X218482000Y-58854000D01*
X210521000Y-56654000D02*
X213268000Y-56654000D01*
X214877000Y-58523000D02*
X215244000Y-58767000D01*
X215250000Y-63587000D02*
X214976000Y-63417000D01*
X218482000Y-58854000D02*
X218809000Y-58919000D01*
%TO.C,SW12*%
X215244000Y-75767000D02*
X215682000Y-75854000D01*
X210521000Y-78446000D02*
X209500000Y-77425000D01*
X213268000Y-73654000D02*
X213671000Y-73734000D01*
X219646000Y-79704000D02*
X219646000Y-80646000D01*
X214701000Y-79861000D02*
X214547000Y-79303000D01*
X215250000Y-80587000D02*
X214976000Y-80417000D01*
X215682000Y-75854000D02*
X218482000Y-75854000D01*
X210521000Y-73654000D02*
X213268000Y-73654000D01*
X219646000Y-80646000D02*
X215560000Y-80646000D01*
X218809000Y-75919000D02*
X219092000Y-76108000D01*
X218482000Y-75854000D02*
X218809000Y-75919000D01*
X213168000Y-78446000D02*
X210521000Y-78446000D01*
X219283000Y-79704000D02*
X219646000Y-79704000D01*
X214013000Y-73963000D02*
X214546000Y-74496000D01*
X215560000Y-80646000D02*
X215250000Y-80587000D01*
X213730000Y-78551000D02*
X213168000Y-78446000D01*
X214783000Y-80159000D02*
X214701000Y-79861000D01*
X214547000Y-79303000D02*
X214209000Y-78850000D01*
X209584000Y-74591000D02*
X210521000Y-73654000D01*
X219092000Y-76108000D02*
X219281000Y-76391000D01*
X219281000Y-76391000D02*
X219366000Y-76818000D01*
X214633000Y-75156000D02*
X214877000Y-75523000D01*
X214546000Y-74496000D02*
X214546000Y-74718000D01*
X214976000Y-80417000D02*
X214783000Y-80159000D01*
X213671000Y-73734000D02*
X214013000Y-73963000D01*
X214877000Y-75523000D02*
X215244000Y-75767000D01*
X214209000Y-78850000D02*
X213730000Y-78551000D01*
X214546000Y-74718000D02*
X214633000Y-75156000D01*
%TO.C,SW30*%
X118671000Y-59734000D02*
X119013000Y-59963000D01*
X120560000Y-66646000D02*
X120250000Y-66587000D01*
X119209000Y-64850000D02*
X118730000Y-64551000D01*
X119546000Y-60496000D02*
X119546000Y-60718000D01*
X124283000Y-65704000D02*
X124646000Y-65704000D01*
X123809000Y-61919000D02*
X124092000Y-62108000D01*
X115521000Y-59654000D02*
X118268000Y-59654000D01*
X124092000Y-62108000D02*
X124281000Y-62391000D01*
X124646000Y-66646000D02*
X120560000Y-66646000D01*
X119783000Y-66159000D02*
X119701000Y-65861000D01*
X120250000Y-66587000D02*
X119976000Y-66417000D01*
X120682000Y-61854000D02*
X123482000Y-61854000D01*
X120244000Y-61767000D02*
X120682000Y-61854000D01*
X115521000Y-64446000D02*
X114500000Y-63425000D01*
X119633000Y-61156000D02*
X119877000Y-61523000D01*
X118268000Y-59654000D02*
X118671000Y-59734000D01*
X119547000Y-65303000D02*
X119209000Y-64850000D01*
X119877000Y-61523000D02*
X120244000Y-61767000D01*
X119546000Y-60718000D02*
X119633000Y-61156000D01*
X119976000Y-66417000D02*
X119783000Y-66159000D01*
X119701000Y-65861000D02*
X119547000Y-65303000D01*
X118168000Y-64446000D02*
X115521000Y-64446000D01*
X118730000Y-64551000D02*
X118168000Y-64446000D01*
X119013000Y-59963000D02*
X119546000Y-60496000D01*
X124646000Y-65704000D02*
X124646000Y-66646000D01*
X123482000Y-61854000D02*
X123809000Y-61919000D01*
X124281000Y-62391000D02*
X124366000Y-62818000D01*
X114584000Y-60591000D02*
X115521000Y-59654000D01*
%TO.C,SW27*%
X250546000Y-57496000D02*
X250546000Y-57718000D01*
X255281000Y-59391000D02*
X255366000Y-59818000D01*
X251244000Y-58767000D02*
X251682000Y-58854000D01*
X246521000Y-56654000D02*
X249268000Y-56654000D01*
X249671000Y-56734000D02*
X250013000Y-56963000D01*
X250877000Y-58523000D02*
X251244000Y-58767000D01*
X250701000Y-62861000D02*
X250547000Y-62303000D01*
X249730000Y-61551000D02*
X249168000Y-61446000D01*
X255283000Y-62704000D02*
X255646000Y-62704000D01*
X250013000Y-56963000D02*
X250546000Y-57496000D01*
X250209000Y-61850000D02*
X249730000Y-61551000D01*
X245584000Y-57591000D02*
X246521000Y-56654000D01*
X250546000Y-57718000D02*
X250633000Y-58156000D01*
X251250000Y-63587000D02*
X250976000Y-63417000D01*
X251560000Y-63646000D02*
X251250000Y-63587000D01*
X251682000Y-58854000D02*
X254482000Y-58854000D01*
X255646000Y-63646000D02*
X251560000Y-63646000D01*
X255092000Y-59108000D02*
X255281000Y-59391000D01*
X250547000Y-62303000D02*
X250209000Y-61850000D01*
X250976000Y-63417000D02*
X250783000Y-63159000D01*
X254482000Y-58854000D02*
X254809000Y-58919000D01*
X249268000Y-56654000D02*
X249671000Y-56734000D01*
X246521000Y-61446000D02*
X245500000Y-60425000D01*
X254809000Y-58919000D02*
X255092000Y-59108000D01*
X250633000Y-58156000D02*
X250877000Y-58523000D01*
X255646000Y-62704000D02*
X255646000Y-63646000D01*
X249168000Y-61446000D02*
X246521000Y-61446000D01*
X250783000Y-63159000D02*
X250701000Y-62861000D01*
%TO.C,SW18*%
X90877000Y-111523000D02*
X91244000Y-111767000D01*
X89730000Y-114551000D02*
X89168000Y-114446000D01*
X91560000Y-116646000D02*
X91250000Y-116587000D01*
X86521000Y-114446000D02*
X85500000Y-113425000D01*
X91244000Y-111767000D02*
X91682000Y-111854000D01*
X95283000Y-115704000D02*
X95646000Y-115704000D01*
X94809000Y-111919000D02*
X95092000Y-112108000D01*
X89671000Y-109734000D02*
X90013000Y-109963000D01*
X91250000Y-116587000D02*
X90976000Y-116417000D01*
X95281000Y-112391000D02*
X95366000Y-112818000D01*
X90209000Y-114850000D02*
X89730000Y-114551000D01*
X90546000Y-110496000D02*
X90546000Y-110718000D01*
X90546000Y-110718000D02*
X90633000Y-111156000D01*
X85584000Y-110591000D02*
X86521000Y-109654000D01*
X90783000Y-116159000D02*
X90701000Y-115861000D01*
X89268000Y-109654000D02*
X89671000Y-109734000D01*
X90976000Y-116417000D02*
X90783000Y-116159000D01*
X91682000Y-111854000D02*
X94482000Y-111854000D01*
X89168000Y-114446000D02*
X86521000Y-114446000D01*
X95092000Y-112108000D02*
X95281000Y-112391000D01*
X90013000Y-109963000D02*
X90546000Y-110496000D01*
X95646000Y-116646000D02*
X91560000Y-116646000D01*
X90701000Y-115861000D02*
X90547000Y-115303000D01*
X94482000Y-111854000D02*
X94809000Y-111919000D01*
X95646000Y-115704000D02*
X95646000Y-116646000D01*
X90633000Y-111156000D02*
X90877000Y-111523000D01*
X90547000Y-115303000D02*
X90209000Y-114850000D01*
X86521000Y-109654000D02*
X89268000Y-109654000D01*
%TO.C,SW16*%
X88281000Y-73391000D02*
X88366000Y-73818000D01*
X87482000Y-72854000D02*
X87809000Y-72919000D01*
X79521000Y-70654000D02*
X82268000Y-70654000D01*
X83783000Y-77159000D02*
X83701000Y-76861000D01*
X82671000Y-70734000D02*
X83013000Y-70963000D01*
X79521000Y-75446000D02*
X78500000Y-74425000D01*
X84560000Y-77646000D02*
X84250000Y-77587000D01*
X78584000Y-71591000D02*
X79521000Y-70654000D01*
X88646000Y-76704000D02*
X88646000Y-77646000D01*
X82168000Y-75446000D02*
X79521000Y-75446000D01*
X83013000Y-70963000D02*
X83546000Y-71496000D01*
X83633000Y-72156000D02*
X83877000Y-72523000D01*
X83209000Y-75850000D02*
X82730000Y-75551000D01*
X88283000Y-76704000D02*
X88646000Y-76704000D01*
X84250000Y-77587000D02*
X83976000Y-77417000D01*
X84682000Y-72854000D02*
X87482000Y-72854000D01*
X88092000Y-73108000D02*
X88281000Y-73391000D01*
X83547000Y-76303000D02*
X83209000Y-75850000D01*
X82268000Y-70654000D02*
X82671000Y-70734000D01*
X83546000Y-71496000D02*
X83546000Y-71718000D01*
X87809000Y-72919000D02*
X88092000Y-73108000D01*
X83701000Y-76861000D02*
X83547000Y-76303000D01*
X83976000Y-77417000D02*
X83783000Y-77159000D01*
X84244000Y-72767000D02*
X84682000Y-72854000D01*
X83877000Y-72523000D02*
X84244000Y-72767000D01*
X82730000Y-75551000D02*
X82168000Y-75446000D01*
X88646000Y-77646000D02*
X84560000Y-77646000D01*
X83546000Y-71718000D02*
X83633000Y-72156000D01*
%TO.C,SW26*%
X111563719Y-118116279D02*
X111048044Y-117869400D01*
X113314640Y-115070674D02*
X113455340Y-115488321D01*
X117375308Y-117144310D02*
X117484622Y-117466584D01*
X112164657Y-119942024D02*
X112162580Y-119632955D01*
X112384898Y-113266566D02*
X112753460Y-113448144D01*
X113024537Y-113757857D02*
X113401425Y-114410646D01*
X112753460Y-113448144D02*
X113024537Y-113757857D01*
X113343967Y-114625081D02*
X113314640Y-115070674D01*
X112162580Y-119632955D02*
X112158248Y-119054110D01*
X116735910Y-121671067D02*
X112789137Y-120613532D01*
X112789137Y-120613532D02*
X112504970Y-120476309D01*
X112504970Y-120476309D02*
X112284306Y-120241185D01*
X111048044Y-117869400D02*
X108491239Y-117184306D01*
X113746682Y-115818993D02*
X114147241Y-116016392D01*
X116979717Y-120761165D02*
X116735910Y-121671067D01*
X113455340Y-115488321D02*
X113746682Y-115818993D01*
X112284306Y-120241185D02*
X112164657Y-119942024D01*
X116851833Y-116741085D02*
X117150868Y-116888504D01*
X114147241Y-116016392D02*
X116851833Y-116741085D01*
X117484622Y-117466584D02*
X117456210Y-117901033D01*
X113401425Y-114410646D02*
X113343967Y-114625081D01*
X117150868Y-116888504D02*
X117375308Y-117144310D01*
X112158248Y-119054110D02*
X111949010Y-118529065D01*
X116629086Y-120667213D02*
X116979717Y-120761165D01*
X111949010Y-118529065D02*
X111563719Y-118116279D01*
X109731499Y-112555590D02*
X112384898Y-113266566D01*
X108583914Y-113218149D02*
X109731499Y-112555590D01*
X108491239Y-117184306D02*
X107769283Y-115933842D01*
%TO.C,SW33*%
X134330649Y-124797147D02*
X134408635Y-124498072D01*
X134521083Y-125401306D02*
X134368792Y-125117082D01*
X139937267Y-123138200D02*
X140087852Y-123443378D01*
X138455263Y-126653106D02*
X138769630Y-126834606D01*
X136845901Y-119966603D02*
X136702245Y-120389422D01*
X138298630Y-127650402D02*
X134760050Y-125607402D01*
X134488050Y-123376520D02*
X134222724Y-122878078D01*
X134368792Y-125117082D02*
X134330649Y-124797147D01*
X140110031Y-123782964D02*
X139970143Y-124195256D01*
X136925886Y-121224064D02*
X137261706Y-121518408D01*
X139686577Y-122918408D02*
X139937267Y-123138200D01*
X136702245Y-120389422D02*
X136730055Y-120829253D01*
X136730055Y-120829253D02*
X136925886Y-121224064D01*
X133788518Y-122506146D02*
X131496148Y-121182646D01*
X133892148Y-117032652D02*
X136271120Y-118406152D01*
X134760050Y-125607402D02*
X134521083Y-125401306D01*
X131496148Y-121182646D02*
X131122436Y-119787934D01*
X140087852Y-123443378D02*
X140110031Y-123782964D01*
X136761809Y-119046254D02*
X136956901Y-119774345D01*
X134222724Y-122878078D02*
X133788518Y-122506146D01*
X134408635Y-124498072D02*
X134554267Y-123937829D01*
X136580128Y-118676934D02*
X136761809Y-119046254D01*
X136271120Y-118406152D02*
X136580128Y-118676934D01*
X132612183Y-117375618D02*
X133892148Y-117032652D01*
X134554267Y-123937829D02*
X134488050Y-123376520D01*
X136956901Y-119774345D02*
X136845901Y-119966603D01*
X138769630Y-126834606D02*
X138298630Y-127650402D01*
X137261706Y-121518408D02*
X139686577Y-122918408D01*
%TO.C,D32*%
X116650000Y-106550000D02*
X116650000Y-105450000D01*
X114750000Y-107000000D02*
X114750000Y-105000000D01*
X116650000Y-106000000D02*
X117250000Y-106400000D01*
X114750000Y-107000000D02*
X118650000Y-107000000D01*
X117250000Y-105600000D02*
X116650000Y-106000000D01*
X114750000Y-105000000D02*
X118650000Y-105000000D01*
X116250000Y-106000000D02*
X116650000Y-106000000D01*
X117250000Y-106400000D02*
X117250000Y-105600000D01*
X117250000Y-106000000D02*
X117750000Y-106000000D01*
%TO.C,D17*%
X78750000Y-101000000D02*
X78750000Y-99000000D01*
X78750000Y-99000000D02*
X82650000Y-99000000D01*
X80650000Y-100000000D02*
X81250000Y-100400000D01*
X81250000Y-100000000D02*
X81750000Y-100000000D01*
X80650000Y-100550000D02*
X80650000Y-99450000D01*
X78750000Y-101000000D02*
X82650000Y-101000000D01*
X81250000Y-99600000D02*
X80650000Y-100000000D01*
X81250000Y-100400000D02*
X81250000Y-99600000D01*
X80250000Y-100000000D02*
X80650000Y-100000000D01*
%TO.C,D27*%
X247650000Y-69000000D02*
X248250000Y-69400000D01*
X245750000Y-70000000D02*
X249650000Y-70000000D01*
X247650000Y-69550000D02*
X247650000Y-68450000D01*
X245750000Y-70000000D02*
X245750000Y-68000000D01*
X245750000Y-68000000D02*
X249650000Y-68000000D01*
X248250000Y-69000000D02*
X248750000Y-69000000D01*
X247250000Y-69000000D02*
X247650000Y-69000000D01*
X248250000Y-69400000D02*
X248250000Y-68600000D01*
X248250000Y-68600000D02*
X247650000Y-69000000D01*
%TO.C,D5*%
X194250000Y-89000000D02*
X194750000Y-89000000D01*
X194250000Y-89400000D02*
X194250000Y-88600000D01*
X193650000Y-89550000D02*
X193650000Y-88450000D01*
X193650000Y-89000000D02*
X194250000Y-89400000D01*
X191750000Y-90000000D02*
X195650000Y-90000000D01*
X193250000Y-89000000D02*
X193650000Y-89000000D01*
X191750000Y-88000000D02*
X195650000Y-88000000D01*
X191750000Y-90000000D02*
X191750000Y-88000000D01*
X194250000Y-88600000D02*
X193650000Y-89000000D01*
%TO.C,D26*%
X108650000Y-125550000D02*
X108650000Y-124450000D01*
X106750000Y-124000000D02*
X110650000Y-124000000D01*
X109250000Y-125000000D02*
X109750000Y-125000000D01*
X106750000Y-126000000D02*
X106750000Y-124000000D01*
X106750000Y-126000000D02*
X110650000Y-126000000D01*
X108650000Y-125000000D02*
X109250000Y-125400000D01*
X108250000Y-125000000D02*
X108650000Y-125000000D01*
X109250000Y-124600000D02*
X108650000Y-125000000D01*
X109250000Y-125400000D02*
X109250000Y-124600000D01*
%TO.C,D31*%
X117250000Y-89000000D02*
X117750000Y-89000000D01*
X114750000Y-90000000D02*
X118650000Y-90000000D01*
X114750000Y-90000000D02*
X114750000Y-88000000D01*
X117250000Y-89400000D02*
X117250000Y-88600000D01*
X116250000Y-89000000D02*
X116650000Y-89000000D01*
X114750000Y-88000000D02*
X118650000Y-88000000D01*
X117250000Y-88600000D02*
X116650000Y-89000000D01*
X116650000Y-89000000D02*
X117250000Y-89400000D01*
X116650000Y-89550000D02*
X116650000Y-88450000D01*
%TO.C,D22*%
X220750000Y-123000000D02*
X224650000Y-123000000D01*
X222250000Y-122000000D02*
X222650000Y-122000000D01*
X222650000Y-122550000D02*
X222650000Y-121450000D01*
X220750000Y-121000000D02*
X224650000Y-121000000D01*
X223250000Y-121600000D02*
X222650000Y-122000000D01*
X223250000Y-122000000D02*
X223750000Y-122000000D01*
X223250000Y-122400000D02*
X223250000Y-121600000D01*
X222650000Y-122000000D02*
X223250000Y-122400000D01*
X220750000Y-123000000D02*
X220750000Y-121000000D01*
%TO.C,U2*%
X136985000Y-71000000D02*
X136985000Y-68800000D01*
X136985000Y-71000000D02*
X136985000Y-74600000D01*
X131515000Y-71000000D02*
X131515000Y-73200000D01*
X131515000Y-71000000D02*
X131515000Y-68800000D01*
%TO.C,D19*%
X230250000Y-66400000D02*
X230250000Y-65600000D01*
X230250000Y-66000000D02*
X230750000Y-66000000D01*
X229650000Y-66550000D02*
X229650000Y-65450000D01*
X229250000Y-66000000D02*
X229650000Y-66000000D01*
X227750000Y-67000000D02*
X231650000Y-67000000D01*
X229650000Y-66000000D02*
X230250000Y-66400000D01*
X230250000Y-65600000D02*
X229650000Y-66000000D01*
X227750000Y-65000000D02*
X231650000Y-65000000D01*
X227750000Y-67000000D02*
X227750000Y-65000000D01*
%TO.C,D28*%
X248250000Y-86400000D02*
X248250000Y-85600000D01*
X245750000Y-87000000D02*
X249650000Y-87000000D01*
X248250000Y-86000000D02*
X248750000Y-86000000D01*
X247250000Y-86000000D02*
X247650000Y-86000000D01*
X245750000Y-85000000D02*
X249650000Y-85000000D01*
X245750000Y-87000000D02*
X245750000Y-85000000D01*
X247650000Y-86000000D02*
X248250000Y-86400000D01*
X248250000Y-85600000D02*
X247650000Y-86000000D01*
X247650000Y-86550000D02*
X247650000Y-85450000D01*
%TO.C,D36*%
X266250000Y-108400000D02*
X266250000Y-107600000D01*
X265650000Y-108550000D02*
X265650000Y-107450000D01*
X263750000Y-109000000D02*
X263750000Y-107000000D01*
X265650000Y-108000000D02*
X266250000Y-108400000D01*
X263750000Y-107000000D02*
X267650000Y-107000000D01*
X266250000Y-107600000D02*
X265650000Y-108000000D01*
X266250000Y-108000000D02*
X266750000Y-108000000D01*
X263750000Y-109000000D02*
X267650000Y-109000000D01*
X265250000Y-108000000D02*
X265650000Y-108000000D01*
%TO.C,D15*%
X81250000Y-66000000D02*
X81750000Y-66000000D01*
X81250000Y-65600000D02*
X80650000Y-66000000D01*
X80650000Y-66550000D02*
X80650000Y-65450000D01*
X78750000Y-67000000D02*
X78750000Y-65000000D01*
X81250000Y-66400000D02*
X81250000Y-65600000D01*
X80250000Y-66000000D02*
X80650000Y-66000000D01*
X78750000Y-65000000D02*
X82650000Y-65000000D01*
X80650000Y-66000000D02*
X81250000Y-66400000D01*
X78750000Y-67000000D02*
X82650000Y-67000000D01*
%TO.C,D9*%
X60750000Y-87000000D02*
X64650000Y-87000000D01*
X63250000Y-86000000D02*
X63750000Y-86000000D01*
X62250000Y-86000000D02*
X62650000Y-86000000D01*
X62650000Y-86550000D02*
X62650000Y-85450000D01*
X60750000Y-85000000D02*
X64650000Y-85000000D01*
X63250000Y-86400000D02*
X63250000Y-85600000D01*
X62650000Y-86000000D02*
X63250000Y-86400000D01*
X60750000Y-87000000D02*
X60750000Y-85000000D01*
X63250000Y-85600000D02*
X62650000Y-86000000D01*
%TO.C,D16*%
X78750000Y-82000000D02*
X82650000Y-82000000D01*
X80250000Y-83000000D02*
X80650000Y-83000000D01*
X80650000Y-83000000D02*
X81250000Y-83400000D01*
X78750000Y-84000000D02*
X78750000Y-82000000D01*
X78750000Y-84000000D02*
X82650000Y-84000000D01*
X80650000Y-83550000D02*
X80650000Y-82450000D01*
X81250000Y-83400000D02*
X81250000Y-82600000D01*
X81250000Y-82600000D02*
X80650000Y-83000000D01*
X81250000Y-83000000D02*
X81750000Y-83000000D01*
%TO.C,D4*%
X194250000Y-71600000D02*
X193650000Y-72000000D01*
X191750000Y-71000000D02*
X195650000Y-71000000D01*
X194250000Y-72000000D02*
X194750000Y-72000000D01*
X191750000Y-73000000D02*
X191750000Y-71000000D01*
X193650000Y-72550000D02*
X193650000Y-71450000D01*
X194250000Y-72400000D02*
X194250000Y-71600000D01*
X193650000Y-72000000D02*
X194250000Y-72400000D01*
X193250000Y-72000000D02*
X193650000Y-72000000D01*
X191750000Y-73000000D02*
X195650000Y-73000000D01*
%TO.C,D30*%
X117250000Y-72000000D02*
X117750000Y-72000000D01*
X116650000Y-72550000D02*
X116650000Y-71450000D01*
X114750000Y-73000000D02*
X118650000Y-73000000D01*
X114750000Y-73000000D02*
X114750000Y-71000000D01*
X114750000Y-71000000D02*
X118650000Y-71000000D01*
X117250000Y-71600000D02*
X116650000Y-72000000D01*
X117250000Y-72400000D02*
X117250000Y-71600000D01*
X116650000Y-72000000D02*
X117250000Y-72400000D01*
X116250000Y-72000000D02*
X116650000Y-72000000D01*
%TO.C,SW38*%
X145128901Y-86475100D02*
X143987240Y-86475100D01*
X139871100Y-79561659D02*
X139871100Y-78524900D01*
X139871100Y-82561661D02*
X139871100Y-80938339D01*
X142508960Y-86475100D02*
X141887241Y-86475100D01*
X140408961Y-86475100D02*
X139871100Y-86475100D01*
X139871100Y-86475100D02*
X139871100Y-85438341D01*
X141887241Y-78524900D02*
X142508960Y-78524900D01*
X145128901Y-78524900D02*
X145128901Y-86475100D01*
X139871100Y-78524900D02*
X140408961Y-78524900D01*
X143987240Y-78524900D02*
X145128901Y-78524900D01*
X140829100Y-76746900D02*
G75*
G03*
X140829100Y-76746900I-381000J0D01*
G01*
%TO.C,D6*%
X193650000Y-106550000D02*
X193650000Y-105450000D01*
X191750000Y-105000000D02*
X195650000Y-105000000D01*
X193250000Y-106000000D02*
X193650000Y-106000000D01*
X193650000Y-106000000D02*
X194250000Y-106400000D01*
X191750000Y-107000000D02*
X195650000Y-107000000D01*
X194250000Y-105600000D02*
X193650000Y-106000000D01*
X194250000Y-106400000D02*
X194250000Y-105600000D01*
X191750000Y-107000000D02*
X191750000Y-105000000D01*
X194250000Y-106000000D02*
X194750000Y-106000000D01*
%TO.C,D35*%
X265650000Y-91000000D02*
X266250000Y-91400000D01*
X266250000Y-90600000D02*
X265650000Y-91000000D01*
X263750000Y-90000000D02*
X267650000Y-90000000D01*
X266250000Y-91000000D02*
X266750000Y-91000000D01*
X266250000Y-91400000D02*
X266250000Y-90600000D01*
X265650000Y-91550000D02*
X265650000Y-90450000D01*
X265250000Y-91000000D02*
X265650000Y-91000000D01*
X263750000Y-92000000D02*
X263750000Y-90000000D01*
X263750000Y-92000000D02*
X267650000Y-92000000D01*
%TO.C,D3*%
X44250000Y-108000000D02*
X44650000Y-108000000D01*
X45250000Y-107600000D02*
X44650000Y-108000000D01*
X45250000Y-108000000D02*
X45750000Y-108000000D01*
X42750000Y-107000000D02*
X46650000Y-107000000D01*
X42750000Y-109000000D02*
X42750000Y-107000000D01*
X42750000Y-109000000D02*
X46650000Y-109000000D01*
X45250000Y-108400000D02*
X45250000Y-107600000D01*
X44650000Y-108550000D02*
X44650000Y-107450000D01*
X44650000Y-108000000D02*
X45250000Y-108400000D01*
%TO.C,D29*%
X245750000Y-104000000D02*
X245750000Y-102000000D01*
X245750000Y-104000000D02*
X249650000Y-104000000D01*
X247650000Y-103000000D02*
X248250000Y-103400000D01*
X245750000Y-102000000D02*
X249650000Y-102000000D01*
X247250000Y-103000000D02*
X247650000Y-103000000D01*
X248250000Y-103000000D02*
X248750000Y-103000000D01*
X248250000Y-102600000D02*
X247650000Y-103000000D01*
X248250000Y-103400000D02*
X248250000Y-102600000D01*
X247650000Y-103550000D02*
X247650000Y-102450000D01*
%TO.C,D12*%
X209750000Y-85000000D02*
X213650000Y-85000000D01*
X211650000Y-86550000D02*
X211650000Y-85450000D01*
X212250000Y-86000000D02*
X212750000Y-86000000D01*
X212250000Y-86400000D02*
X212250000Y-85600000D01*
X209750000Y-87000000D02*
X213650000Y-87000000D01*
X212250000Y-85600000D02*
X211650000Y-86000000D01*
X209750000Y-87000000D02*
X209750000Y-85000000D01*
X211250000Y-86000000D02*
X211650000Y-86000000D01*
X211650000Y-86000000D02*
X212250000Y-86400000D01*
%TO.C,D14*%
X202250000Y-124600000D02*
X201650000Y-125000000D01*
X202250000Y-125000000D02*
X202750000Y-125000000D01*
X201650000Y-125000000D02*
X202250000Y-125400000D01*
X199750000Y-126000000D02*
X203650000Y-126000000D01*
X201650000Y-125550000D02*
X201650000Y-124450000D01*
X199750000Y-124000000D02*
X203650000Y-124000000D01*
X202250000Y-125400000D02*
X202250000Y-124600000D01*
X199750000Y-126000000D02*
X199750000Y-124000000D01*
X201250000Y-125000000D02*
X201650000Y-125000000D01*
%TO.C,D34*%
X265650000Y-74550000D02*
X265650000Y-73450000D01*
X263750000Y-75000000D02*
X263750000Y-73000000D01*
X266250000Y-74000000D02*
X266750000Y-74000000D01*
X263750000Y-73000000D02*
X267650000Y-73000000D01*
X265650000Y-74000000D02*
X266250000Y-74400000D01*
X266250000Y-73600000D02*
X265650000Y-74000000D01*
X266250000Y-74400000D02*
X266250000Y-73600000D01*
X263750000Y-75000000D02*
X267650000Y-75000000D01*
X265250000Y-74000000D02*
X265650000Y-74000000D01*
%TO.C,D21*%
X229250000Y-100000000D02*
X229650000Y-100000000D01*
X230250000Y-100400000D02*
X230250000Y-99600000D01*
X229650000Y-100550000D02*
X229650000Y-99450000D01*
X230250000Y-100000000D02*
X230750000Y-100000000D01*
X229650000Y-100000000D02*
X230250000Y-100400000D01*
X230250000Y-99600000D02*
X229650000Y-100000000D01*
X227750000Y-101000000D02*
X231650000Y-101000000D01*
X227750000Y-99000000D02*
X231650000Y-99000000D01*
X227750000Y-101000000D02*
X227750000Y-99000000D01*
%TO.C,D10*%
X60750000Y-102000000D02*
X64650000Y-102000000D01*
X60750000Y-104000000D02*
X60750000Y-102000000D01*
X63250000Y-103400000D02*
X63250000Y-102600000D01*
X62650000Y-103000000D02*
X63250000Y-103400000D01*
X60750000Y-104000000D02*
X64650000Y-104000000D01*
X62250000Y-103000000D02*
X62650000Y-103000000D01*
X62650000Y-103550000D02*
X62650000Y-102450000D01*
X63250000Y-102600000D02*
X62650000Y-103000000D01*
X63250000Y-103000000D02*
X63750000Y-103000000D01*
%TO.C,D2*%
X42750000Y-92000000D02*
X46650000Y-92000000D01*
X44650000Y-91550000D02*
X44650000Y-90450000D01*
X44650000Y-91000000D02*
X45250000Y-91400000D01*
X45250000Y-91400000D02*
X45250000Y-90600000D01*
X42750000Y-92000000D02*
X42750000Y-90000000D01*
X44250000Y-91000000D02*
X44650000Y-91000000D01*
X45250000Y-90600000D02*
X44650000Y-91000000D01*
X42750000Y-90000000D02*
X46650000Y-90000000D01*
X45250000Y-91000000D02*
X45750000Y-91000000D01*
%TO.C,D1*%
X42750000Y-73000000D02*
X46650000Y-73000000D01*
X45250000Y-73600000D02*
X44650000Y-74000000D01*
X42750000Y-75000000D02*
X42750000Y-73000000D01*
X45250000Y-74400000D02*
X45250000Y-73600000D01*
X45250000Y-74000000D02*
X45750000Y-74000000D01*
X44650000Y-74550000D02*
X44650000Y-73450000D01*
X42750000Y-75000000D02*
X46650000Y-75000000D01*
X44650000Y-74000000D02*
X45250000Y-74400000D01*
X44250000Y-74000000D02*
X44650000Y-74000000D01*
%TO.C,D8*%
X60750000Y-70000000D02*
X60750000Y-68000000D01*
X60750000Y-70000000D02*
X64650000Y-70000000D01*
X62250000Y-69000000D02*
X62650000Y-69000000D01*
X62650000Y-69550000D02*
X62650000Y-68450000D01*
X63250000Y-69400000D02*
X63250000Y-68600000D01*
X62650000Y-69000000D02*
X63250000Y-69400000D01*
X60750000Y-68000000D02*
X64650000Y-68000000D01*
X63250000Y-69000000D02*
X63750000Y-69000000D01*
X63250000Y-68600000D02*
X62650000Y-69000000D01*
%TO.C,D25*%
X98650000Y-103000000D02*
X99250000Y-103400000D01*
X96750000Y-104000000D02*
X100650000Y-104000000D01*
X96750000Y-104000000D02*
X96750000Y-102000000D01*
X98650000Y-103550000D02*
X98650000Y-102450000D01*
X99250000Y-103400000D02*
X99250000Y-102600000D01*
X98250000Y-103000000D02*
X98650000Y-103000000D01*
X99250000Y-102600000D02*
X98650000Y-103000000D01*
X96750000Y-102000000D02*
X100650000Y-102000000D01*
X99250000Y-103000000D02*
X99750000Y-103000000D01*
%TO.C,D11*%
X212250000Y-68600000D02*
X211650000Y-69000000D01*
X211650000Y-69550000D02*
X211650000Y-68450000D01*
X212250000Y-69400000D02*
X212250000Y-68600000D01*
X211250000Y-69000000D02*
X211650000Y-69000000D01*
X209750000Y-70000000D02*
X213650000Y-70000000D01*
X212250000Y-69000000D02*
X212750000Y-69000000D01*
X209750000Y-70000000D02*
X209750000Y-68000000D01*
X209750000Y-68000000D02*
X213650000Y-68000000D01*
X211650000Y-69000000D02*
X212250000Y-69400000D01*
%TO.C,D18*%
X88250000Y-122000000D02*
X88750000Y-122000000D01*
X85750000Y-123000000D02*
X89650000Y-123000000D01*
X87650000Y-122000000D02*
X88250000Y-122400000D01*
X87650000Y-122550000D02*
X87650000Y-121450000D01*
X85750000Y-121000000D02*
X89650000Y-121000000D01*
X88250000Y-122400000D02*
X88250000Y-121600000D01*
X87250000Y-122000000D02*
X87650000Y-122000000D01*
X85750000Y-123000000D02*
X85750000Y-121000000D01*
X88250000Y-121600000D02*
X87650000Y-122000000D01*
%TO.C,D7*%
X180250000Y-129400000D02*
X180250000Y-128600000D01*
X177750000Y-130000000D02*
X177750000Y-128000000D01*
X180250000Y-129000000D02*
X180750000Y-129000000D01*
X179650000Y-129550000D02*
X179650000Y-128450000D01*
X177750000Y-128000000D02*
X181650000Y-128000000D01*
X179650000Y-129000000D02*
X180250000Y-129400000D01*
X179250000Y-129000000D02*
X179650000Y-129000000D01*
X177750000Y-130000000D02*
X181650000Y-130000000D01*
X180250000Y-128600000D02*
X179650000Y-129000000D01*
%TO.C,D33*%
X130650000Y-129550000D02*
X130650000Y-128450000D01*
X130650000Y-129000000D02*
X131250000Y-129400000D01*
X131250000Y-128600000D02*
X130650000Y-129000000D01*
X131250000Y-129000000D02*
X131750000Y-129000000D01*
X130250000Y-129000000D02*
X130650000Y-129000000D01*
X128750000Y-130000000D02*
X132650000Y-130000000D01*
X128750000Y-128000000D02*
X132650000Y-128000000D01*
X131250000Y-129400000D02*
X131250000Y-128600000D01*
X128750000Y-130000000D02*
X128750000Y-128000000D01*
%TO.C,D23*%
X98650000Y-69550000D02*
X98650000Y-68450000D01*
X96750000Y-70000000D02*
X96750000Y-68000000D01*
X99250000Y-69000000D02*
X99750000Y-69000000D01*
X98650000Y-69000000D02*
X99250000Y-69400000D01*
X98250000Y-69000000D02*
X98650000Y-69000000D01*
X96750000Y-70000000D02*
X100650000Y-70000000D01*
X96750000Y-68000000D02*
X100650000Y-68000000D01*
X99250000Y-68600000D02*
X98650000Y-69000000D01*
X99250000Y-69400000D02*
X99250000Y-68600000D01*
%TO.C,D20*%
X229250000Y-83000000D02*
X229650000Y-83000000D01*
X227750000Y-84000000D02*
X227750000Y-82000000D01*
X227750000Y-82000000D02*
X231650000Y-82000000D01*
X227750000Y-84000000D02*
X231650000Y-84000000D01*
X230250000Y-83000000D02*
X230750000Y-83000000D01*
X230250000Y-83400000D02*
X230250000Y-82600000D01*
X229650000Y-83550000D02*
X229650000Y-82450000D01*
X230250000Y-82600000D02*
X229650000Y-83000000D01*
X229650000Y-83000000D02*
X230250000Y-83400000D01*
%TO.C,D13*%
X211650000Y-103550000D02*
X211650000Y-102450000D01*
X209750000Y-104000000D02*
X209750000Y-102000000D01*
X212250000Y-103400000D02*
X212250000Y-102600000D01*
X211650000Y-103000000D02*
X212250000Y-103400000D01*
X209750000Y-104000000D02*
X213650000Y-104000000D01*
X212250000Y-103000000D02*
X212750000Y-103000000D01*
X212250000Y-102600000D02*
X211650000Y-103000000D01*
X211250000Y-103000000D02*
X211650000Y-103000000D01*
X209750000Y-102000000D02*
X213650000Y-102000000D01*
%TO.C,D24*%
X98650000Y-86000000D02*
X99250000Y-86400000D01*
X99250000Y-86000000D02*
X99750000Y-86000000D01*
X98650000Y-86550000D02*
X98650000Y-85450000D01*
X96750000Y-85000000D02*
X100650000Y-85000000D01*
X99250000Y-86400000D02*
X99250000Y-85600000D01*
X96750000Y-87000000D02*
X100650000Y-87000000D01*
X98250000Y-86000000D02*
X98650000Y-86000000D01*
X96750000Y-87000000D02*
X96750000Y-85000000D01*
X99250000Y-85600000D02*
X98650000Y-86000000D01*
%TD*%
M02*
