%TF.GenerationSoftware,KiCad,Pcbnew,(6.0.8-1)-1*%
%TF.CreationDate,2022-11-15T13:56:25-05:00*%
%TF.ProjectId,kb2,6b62322e-6b69-4636-9164-5f7063625858,rev?*%
%TF.SameCoordinates,Original*%
%TF.FileFunction,Paste,Bot*%
%TF.FilePolarity,Positive*%
%FSLAX46Y46*%
G04 Gerber Fmt 4.6, Leading zero omitted, Abs format (unit mm)*
G04 Created by KiCad (PCBNEW (6.0.8-1)-1) date 2022-11-15 13:56:25*
%MOMM*%
%LPD*%
G01*
G04 APERTURE LIST*
G04 Aperture macros list*
%AMRoundRect*
0 Rectangle with rounded corners*
0 $1 Rounding radius*
0 $2 $3 $4 $5 $6 $7 $8 $9 X,Y pos of 4 corners*
0 Add a 4 corners polygon primitive as box body*
4,1,4,$2,$3,$4,$5,$6,$7,$8,$9,$2,$3,0*
0 Add four circle primitives for the rounded corners*
1,1,$1+$1,$2,$3*
1,1,$1+$1,$4,$5*
1,1,$1+$1,$6,$7*
1,1,$1+$1,$8,$9*
0 Add four rect primitives between the rounded corners*
20,1,$1+$1,$2,$3,$4,$5,0*
20,1,$1+$1,$4,$5,$6,$7,0*
20,1,$1+$1,$6,$7,$8,$9,0*
20,1,$1+$1,$8,$9,$2,$3,0*%
G04 Aperture macros list end*
%ADD10RoundRect,0.250000X-1.025000X-1.000000X1.025000X-1.000000X1.025000X1.000000X-1.025000X1.000000X0*%
%ADD11RoundRect,0.250000X-0.387676X-1.378525X1.387676X-0.353525X0.387676X1.378525X-1.387676X0.353525X0*%
%ADD12RoundRect,0.250000X-0.731255X-1.231215X1.248893X-0.700636X0.731255X1.231215X-1.248893X0.700636X0*%
%ADD13RoundRect,0.250000X-1.248893X-0.700636X0.731255X-1.231215X1.248893X0.700636X-0.731255X1.231215X0*%
%ADD14RoundRect,0.250000X-1.387676X-0.353525X0.387676X-1.378525X1.387676X0.353525X-0.387676X1.378525X0*%
%ADD15R,0.900000X1.200000*%
%ADD16RoundRect,0.100000X0.100000X-0.637500X0.100000X0.637500X-0.100000X0.637500X-0.100000X-0.637500X0*%
%ADD17R,1.498600X0.711200*%
%ADD18R,0.812800X0.990600*%
G04 APERTURE END LIST*
D10*
%TO.C,SW13*%
X208500000Y-93000000D03*
X220500000Y-95200000D03*
%TD*%
%TO.C,SW25*%
X95500000Y-93000000D03*
X107500000Y-95200000D03*
%TD*%
%TO.C,SW17*%
X77500000Y-90000000D03*
X89500000Y-92200000D03*
%TD*%
%TO.C,SW23*%
X95500000Y-59000000D03*
X107500000Y-61200000D03*
%TD*%
%TO.C,SW21*%
X226500000Y-90000000D03*
X238500000Y-92200000D03*
%TD*%
%TO.C,SW19*%
X226500000Y-56000000D03*
X238500000Y-58200000D03*
%TD*%
%TO.C,SW34*%
X262500000Y-64000000D03*
X274500000Y-66200000D03*
%TD*%
%TO.C,SW35*%
X262500000Y-81000000D03*
X274500000Y-83200000D03*
%TD*%
%TO.C,SW29*%
X244500000Y-93000000D03*
X256500000Y-95200000D03*
%TD*%
D11*
%TO.C,SW7*%
X173968911Y-121553848D03*
X185461216Y-117459103D03*
%TD*%
D10*
%TO.C,SW22*%
X219500000Y-112000000D03*
X231500000Y-114200000D03*
%TD*%
%TO.C,SW2*%
X41500000Y-81000000D03*
X53500000Y-83200000D03*
%TD*%
%TO.C,SW10*%
X59500000Y-93000000D03*
X71500000Y-95200000D03*
%TD*%
%TO.C,SW32*%
X113500000Y-96000000D03*
X125500000Y-98200000D03*
%TD*%
%TO.C,SW31*%
X113500000Y-79000000D03*
X125500000Y-81200000D03*
%TD*%
D12*
%TO.C,SW14*%
X197066345Y-116110312D03*
X209226857Y-115129520D03*
%TD*%
D10*
%TO.C,SW15*%
X77500000Y-56000000D03*
X89500000Y-58200000D03*
%TD*%
%TO.C,SW28*%
X244500000Y-76000000D03*
X256500000Y-78200000D03*
%TD*%
%TO.C,SW20*%
X226500000Y-73000000D03*
X238500000Y-75200000D03*
%TD*%
%TO.C,SW3*%
X41500000Y-98000000D03*
X53500000Y-100200000D03*
%TD*%
%TO.C,SW4*%
X190500000Y-62000000D03*
X202500000Y-64200000D03*
%TD*%
%TO.C,SW5*%
X190500000Y-79000000D03*
X202500000Y-81200000D03*
%TD*%
%TO.C,SW8*%
X59500000Y-59000000D03*
X71500000Y-61200000D03*
%TD*%
%TO.C,SW1*%
X41500000Y-64000000D03*
X53500000Y-66200000D03*
%TD*%
%TO.C,SW9*%
X59500000Y-76000000D03*
X71500000Y-78200000D03*
%TD*%
%TO.C,SW24*%
X95500000Y-76000000D03*
X107500000Y-78200000D03*
%TD*%
%TO.C,SW36*%
X262500000Y-98000000D03*
X274500000Y-100200000D03*
%TD*%
%TO.C,SW6*%
X190500000Y-96000000D03*
X202500000Y-98200000D03*
%TD*%
%TO.C,SW11*%
X208500000Y-59000000D03*
X220500000Y-61200000D03*
%TD*%
%TO.C,SW12*%
X208500000Y-76000000D03*
X220500000Y-78200000D03*
%TD*%
%TO.C,SW30*%
X113500000Y-62000000D03*
X125500000Y-64200000D03*
%TD*%
%TO.C,SW27*%
X244500000Y-59000000D03*
X256500000Y-61200000D03*
%TD*%
%TO.C,SW18*%
X84500000Y-112000000D03*
X96500000Y-114200000D03*
%TD*%
%TO.C,SW16*%
X77500000Y-73000000D03*
X89500000Y-75200000D03*
%TD*%
D13*
%TO.C,SW26*%
X107172174Y-114298578D03*
X118193882Y-119529444D03*
%TD*%
D14*
%TO.C,SW33*%
X130968911Y-118053848D03*
X140261216Y-125959103D03*
%TD*%
D15*
%TO.C,D32*%
X115350000Y-106000000D03*
X118650000Y-106000000D03*
%TD*%
%TO.C,D17*%
X79350000Y-100000000D03*
X82650000Y-100000000D03*
%TD*%
%TO.C,D27*%
X246350000Y-69000000D03*
X249650000Y-69000000D03*
%TD*%
%TO.C,D5*%
X192350000Y-89000000D03*
X195650000Y-89000000D03*
%TD*%
%TO.C,D26*%
X107350000Y-125000000D03*
X110650000Y-125000000D03*
%TD*%
%TO.C,D31*%
X115350000Y-89000000D03*
X118650000Y-89000000D03*
%TD*%
%TO.C,D22*%
X221350000Y-122000000D03*
X224650000Y-122000000D03*
%TD*%
D16*
%TO.C,U2*%
X136525000Y-73862500D03*
X135875000Y-73862500D03*
X135225000Y-73862500D03*
X134575000Y-73862500D03*
X133925000Y-73862500D03*
X133275000Y-73862500D03*
X132625000Y-73862500D03*
X131975000Y-73862500D03*
X131975000Y-68137500D03*
X132625000Y-68137500D03*
X133275000Y-68137500D03*
X133925000Y-68137500D03*
X134575000Y-68137500D03*
X135225000Y-68137500D03*
X135875000Y-68137500D03*
X136525000Y-68137500D03*
%TD*%
D15*
%TO.C,D19*%
X228350000Y-66000000D03*
X231650000Y-66000000D03*
%TD*%
%TO.C,D28*%
X246350000Y-86000000D03*
X249650000Y-86000000D03*
%TD*%
%TO.C,D36*%
X264350000Y-108000000D03*
X267650000Y-108000000D03*
%TD*%
%TO.C,D15*%
X79350000Y-66000000D03*
X82650000Y-66000000D03*
%TD*%
%TO.C,D9*%
X61350000Y-86000000D03*
X64650000Y-86000000D03*
%TD*%
%TO.C,D16*%
X79350000Y-83000000D03*
X82650000Y-83000000D03*
%TD*%
%TO.C,D4*%
X192350000Y-72000000D03*
X195650000Y-72000000D03*
%TD*%
%TO.C,D30*%
X115350000Y-72000000D03*
X118650000Y-72000000D03*
%TD*%
D17*
%TO.C,SW38*%
X140448100Y-80249999D03*
X140448100Y-83250001D03*
X140448100Y-84750001D03*
D18*
X141148101Y-78850000D03*
X141148101Y-86150000D03*
X143248100Y-78850000D03*
X143248100Y-86150000D03*
%TD*%
D15*
%TO.C,D6*%
X192350000Y-106000000D03*
X195650000Y-106000000D03*
%TD*%
%TO.C,D35*%
X264350000Y-91000000D03*
X267650000Y-91000000D03*
%TD*%
%TO.C,D3*%
X43350000Y-108000000D03*
X46650000Y-108000000D03*
%TD*%
%TO.C,D29*%
X246350000Y-103000000D03*
X249650000Y-103000000D03*
%TD*%
%TO.C,D12*%
X210350000Y-86000000D03*
X213650000Y-86000000D03*
%TD*%
%TO.C,D14*%
X200350000Y-125000000D03*
X203650000Y-125000000D03*
%TD*%
%TO.C,D34*%
X264350000Y-74000000D03*
X267650000Y-74000000D03*
%TD*%
%TO.C,D21*%
X228350000Y-100000000D03*
X231650000Y-100000000D03*
%TD*%
%TO.C,D10*%
X61350000Y-103000000D03*
X64650000Y-103000000D03*
%TD*%
%TO.C,D2*%
X43350000Y-91000000D03*
X46650000Y-91000000D03*
%TD*%
%TO.C,D1*%
X43350000Y-74000000D03*
X46650000Y-74000000D03*
%TD*%
%TO.C,D8*%
X61350000Y-69000000D03*
X64650000Y-69000000D03*
%TD*%
%TO.C,D25*%
X97350000Y-103000000D03*
X100650000Y-103000000D03*
%TD*%
%TO.C,D11*%
X210350000Y-69000000D03*
X213650000Y-69000000D03*
%TD*%
%TO.C,D18*%
X86350000Y-122000000D03*
X89650000Y-122000000D03*
%TD*%
%TO.C,D7*%
X178350000Y-129000000D03*
X181650000Y-129000000D03*
%TD*%
%TO.C,D33*%
X129350000Y-129000000D03*
X132650000Y-129000000D03*
%TD*%
%TO.C,D23*%
X97350000Y-69000000D03*
X100650000Y-69000000D03*
%TD*%
%TO.C,D20*%
X228350000Y-83000000D03*
X231650000Y-83000000D03*
%TD*%
%TO.C,D13*%
X210350000Y-103000000D03*
X213650000Y-103000000D03*
%TD*%
%TO.C,D24*%
X97350000Y-86000000D03*
X100650000Y-86000000D03*
%TD*%
M02*
