M48
; DRILL file {KiCad (6.0.8-1)-1} date Tuesday, November 15, 2022 at 01:56:28 PM
; FORMAT={-:-/ absolute / metric / decimal}
; #@! TF.CreationDate,2022-11-15T13:56:28-05:00
; #@! TF.GenerationSoftware,Kicad,Pcbnew,(6.0.8-1)-1
; #@! TF.FileFunction,NonPlated,1,2,NPTH
FMAT,2
METRIC
; #@! TA.AperFunction,NonPlated,NPTH,ComponentDrill
T1C0.300
; #@! TA.AperFunction,NonPlated,NPTH,ComponentDrill
T2C0.600
; #@! TA.AperFunction,NonPlated,NPTH,ComponentDrill
T3C0.940
; #@! TA.AperFunction,NonPlated,NPTH,ComponentDrill
T4C1.600
; #@! TA.AperFunction,NonPlated,NPTH,ComponentDrill
T5C1.900
; #@! TA.AperFunction,NonPlated,NPTH,ComponentDrill
T6C3.050
; #@! TA.AperFunction,NonPlated,NPTH,ComponentDrill
T7C5.050
%
G90
G05
T1
X37.101Y-113.15
X37.694Y-113.15
X38.288Y-113.15
X38.882Y-113.15
X39.476Y-113.15
X40.069Y-113.15
X40.663Y-113.15
X41.257Y-113.15
X41.851Y-113.15
X60.649Y-55.85
X61.243Y-55.85
X61.837Y-55.85
X62.431Y-55.85
X63.024Y-55.85
X63.618Y-55.85
X64.212Y-55.85
X64.806Y-55.85
X65.399Y-55.85
X67.601Y-113.15
X68.194Y-113.15
X68.788Y-113.15
X69.382Y-113.15
X69.976Y-113.15
X70.569Y-113.15
X71.163Y-113.15
X71.757Y-113.15
X72.351Y-113.15
X96.649Y-55.85
X97.243Y-55.85
X97.837Y-55.85
X98.431Y-55.85
X99.024Y-55.85
X99.618Y-55.85
X100.212Y-55.85
X100.806Y-55.85
X101.399Y-55.85
X209.649Y-55.85
X210.243Y-55.85
X210.837Y-55.85
X211.431Y-55.85
X212.024Y-55.85
X212.618Y-55.85
X213.212Y-55.85
X213.806Y-55.85
X214.399Y-55.85
X238.601Y-113.15
X239.194Y-113.15
X239.788Y-113.15
X240.382Y-113.15
X240.976Y-113.15
X241.569Y-113.15
X242.163Y-113.15
X242.757Y-113.15
X243.351Y-113.15
X245.649Y-55.85
X246.243Y-55.85
X246.837Y-55.85
X247.431Y-55.85
X248.024Y-55.85
X248.618Y-55.85
X249.212Y-55.85
X249.806Y-55.85
X250.399Y-55.85
X269.344Y-113.15
X269.938Y-113.15
X270.531Y-113.15
X271.125Y-113.15
X271.719Y-113.15
X272.312Y-113.15
X272.906Y-113.15
X273.5Y-113.15
X274.094Y-113.15
T2
X142.772Y-109.811
X147.778Y-112.701
X163.0Y-112.701
X168.006Y-109.811
T3
X142.198Y-81.0
X142.198Y-84.0
T4
X40.0Y-75.15
X40.0Y-92.15
X40.0Y-109.15
X58.0Y-70.15
X58.0Y-87.15
X58.0Y-104.15
X76.0Y-67.15
X76.0Y-84.15
X76.0Y-101.15
X83.0Y-123.15
X94.0Y-70.15
X94.0Y-87.15
X94.0Y-104.15
X102.837Y-124.68
X112.0Y-73.15
X112.0Y-90.15
X112.0Y-107.15
X124.095Y-126.96
X178.245Y-131.96
X189.0Y-73.15
X189.0Y-90.15
X189.0Y-107.15
X198.503Y-127.269
X207.0Y-70.15
X207.0Y-87.15
X207.0Y-104.15
X218.0Y-123.15
X225.0Y-67.15
X225.0Y-84.15
X225.0Y-101.15
X243.0Y-70.15
X243.0Y-87.15
X243.0Y-104.15
X261.0Y-75.15
X261.0Y-92.15
X261.0Y-109.15
T5
X39.5Y-70.0
X39.5Y-87.0
X39.5Y-104.0
X50.5Y-70.0
X50.5Y-87.0
X50.5Y-104.0
X57.5Y-65.0
X57.5Y-82.0
X57.5Y-99.0
X68.5Y-65.0
X68.5Y-82.0
X68.5Y-99.0
X75.5Y-62.0
X75.5Y-79.0
X75.5Y-96.0
X82.5Y-118.0
X86.5Y-62.0
X86.5Y-79.0
X86.5Y-96.0
X93.5Y-65.0
X93.5Y-82.0
X93.5Y-99.0
X93.5Y-118.0
X103.687Y-119.576
X104.5Y-65.0
X104.5Y-82.0
X104.5Y-99.0
X111.5Y-68.0
X111.5Y-85.0
X111.5Y-102.0
X114.313Y-122.424
X122.5Y-68.0
X122.5Y-85.0
X122.5Y-102.0
X126.237Y-122.25
X135.763Y-127.75
X175.237Y-127.75
X184.763Y-122.25
X188.5Y-68.0
X188.5Y-85.0
X188.5Y-102.0
X196.687Y-122.424
X199.5Y-68.0
X199.5Y-85.0
X199.5Y-102.0
X206.5Y-65.0
X206.5Y-82.0
X206.5Y-99.0
X207.313Y-119.576
X217.5Y-65.0
X217.5Y-82.0
X217.5Y-99.0
X217.5Y-118.0
X224.5Y-62.0
X224.5Y-79.0
X224.5Y-96.0
X228.5Y-118.0
X235.5Y-62.0
X235.5Y-79.0
X235.5Y-96.0
X242.5Y-65.0
X242.5Y-82.0
X242.5Y-99.0
X253.5Y-65.0
X253.5Y-82.0
X253.5Y-99.0
X260.5Y-70.0
X260.5Y-87.0
X260.5Y-104.0
X271.5Y-70.0
X271.5Y-87.0
X271.5Y-104.0
T6
X45.0Y-64.1
X45.0Y-81.1
X45.0Y-98.1
X50.0Y-66.2
X50.0Y-83.2
X50.0Y-100.2
X63.0Y-59.1
X63.0Y-76.1
X63.0Y-93.1
X68.0Y-61.2
X68.0Y-78.2
X68.0Y-95.2
X81.0Y-56.1
X81.0Y-73.1
X81.0Y-90.1
X86.0Y-58.2
X86.0Y-75.2
X86.0Y-92.2
X88.0Y-112.1
X93.0Y-114.2
X99.0Y-59.1
X99.0Y-76.1
X99.0Y-93.1
X104.0Y-61.2
X104.0Y-78.2
X104.0Y-95.2
X110.527Y-115.301
X114.813Y-118.624
X117.0Y-62.1
X117.0Y-79.1
X117.0Y-96.1
X122.0Y-64.2
X122.0Y-81.2
X122.0Y-98.2
X133.95Y-119.89
X137.23Y-124.209
X177.05Y-119.89
X182.43Y-119.209
X194.0Y-62.1
X194.0Y-79.1
X194.0Y-96.1
X199.0Y-64.2
X199.0Y-81.2
X199.0Y-98.2
X200.473Y-115.301
X205.846Y-116.035
X212.0Y-59.1
X212.0Y-76.1
X212.0Y-93.1
X217.0Y-61.2
X217.0Y-78.2
X217.0Y-95.2
X223.0Y-112.1
X228.0Y-114.2
X230.0Y-56.1
X230.0Y-73.1
X230.0Y-90.1
X235.0Y-58.2
X235.0Y-75.2
X235.0Y-92.2
X248.0Y-59.1
X248.0Y-76.1
X248.0Y-93.1
X253.0Y-61.2
X253.0Y-78.2
X253.0Y-95.2
X266.0Y-64.1
X266.0Y-81.1
X266.0Y-98.1
X271.0Y-66.2
X271.0Y-83.2
X271.0Y-100.2
T7
X45.0Y-70.0
X45.0Y-87.0
X45.0Y-104.0
X63.0Y-65.0
X63.0Y-82.0
X63.0Y-99.0
X81.0Y-62.0
X81.0Y-79.0
X81.0Y-96.0
X88.0Y-118.0
X99.0Y-65.0
X99.0Y-82.0
X99.0Y-99.0
X109.0Y-121.0
X117.0Y-68.0
X117.0Y-85.0
X117.0Y-102.0
X131.0Y-125.0
X180.0Y-125.0
X194.0Y-68.0
X194.0Y-85.0
X194.0Y-102.0
X202.0Y-121.0
X212.0Y-65.0
X212.0Y-82.0
X212.0Y-99.0
X223.0Y-118.0
X230.0Y-62.0
X230.0Y-79.0
X230.0Y-96.0
X248.0Y-65.0
X248.0Y-82.0
X248.0Y-99.0
X266.0Y-70.0
X266.0Y-87.0
X266.0Y-104.0
T0
M30
